<svg width="100" height="100" viewBox="0 0 100 100" fill="none" xmlns="http://www.w3.org/2000/svg">
<rect width="100" height="100" fill="#F5F6F7"/>
<path fill-rule="evenodd" clip-rule="evenodd" d="M37.1017 69.8678C48.2352 68.4213 54.9851 65.03 57.4002 63.2187C57.9999 62.9151 58.5875 62.5693 59.1589 62.1804C66.2215 57.3744 68.148 47.8236 63.4618 40.8483C58.7756 33.8729 49.2513 32.1143 42.1887 36.9204C41.9405 37.0893 41.6986 37.264 41.4631 37.4443C41.2849 37.5383 41.1123 37.6467 40.9458 37.7702C33.9719 42.9439 28.9913 50.8997 27.0416 54.8638C24.8447 44.999 28.7627 34.2763 37.6973 28.1964C49.3037 20.2982 64.9808 23.2258 72.7131 34.7351C80.4453 46.2445 77.3046 61.9774 65.6981 69.8755C56.7501 75.9645 45.3827 75.6192 37.1017 69.8678Z" fill="#27A44A"/>
<path fill-rule="evenodd" clip-rule="evenodd" d="M43.0205 41.8958C43.1843 41.7702 43.3526 41.6486 43.5253 41.531C48.4402 38.1865 55.0838 39.4334 58.3641 44.3162C61.6445 49.199 60.3194 55.8685 55.4045 59.2131C55.0068 59.4837 54.5978 59.7242 54.1803 59.9352C52.4865 61.2062 47.7251 63.5906 39.8544 64.5656L46.4904 58.3055L28.179 65.1345L41.9368 49.6422L32.7636 54.5388C33.9103 51.9976 37.495 45.9565 42.6604 42.1225C42.7762 42.0365 42.8964 41.9611 43.0205 41.8958Z" fill="#27A44A"/>
</svg>
