<svg width="334" height="294" viewBox="0 0 334 294" fill="none" xmlns="http://www.w3.org/2000/svg">
<g style="mix-blend-mode:overlay">
<path d="M59.6859 5.95291C59.6859 5.95291 120.102 -19.8402 166.171 35.9529C201.236 -1.33763 260.671 -17.5471 307.671 29.4529C340 70.3545 339.692 100.388 319.671 161.453C280.185 231.953 250.921 258.905 178.172 292.953C163.071 294.197 149.729 290.085 115.672 272.453C199.754 250.569 239.202 236.943 253.17 177.453C280.08 62.8474 122.686 -4.54712 27.6703 191.953C-11.1342 99.4194 -16.4016 53.9337 59.6859 5.95291Z" fill="url(#paint0_linear_3007_4800)"/>
<path d="M109.674 163.809L60.6738 189.809C74.973 159.69 86.8178 143.641 112.674 119.809C143.674 93.3092 178.174 90.8092 210.674 121.809C233.955 158.754 223.174 181.809 212.174 200.809C188.174 224.809 167.325 236.264 103.674 245.809L137.674 212.309L34.6738 249.309L109.674 163.809Z" fill="url(#paint1_linear_3007_4800)"/>
</g>
<defs>
<linearGradient id="paint0_linear_3007_4800" x1="164.182" y1="88.273" x2="164.182" y2="270.156" gradientUnits="userSpaceOnUse">
<stop stop-color="#2DBD55"/>
<stop offset="1" stop-color="#174D26"/>
</linearGradient>
<linearGradient id="paint1_linear_3007_4800" x1="164.182" y1="88.273" x2="164.182" y2="270.156" gradientUnits="userSpaceOnUse">
<stop stop-color="#2DBD55"/>
<stop offset="1" stop-color="#174D26"/>
</linearGradient>
</defs>
</svg>
