<svg width="378" height="366" viewBox="0 0 378 366" fill="none" xmlns="http://www.w3.org/2000/svg">
<path d="M368.022 206.932C361.933 191.769 355.844 176.605 349.734 161.442C347.994 157.137 346.318 152.789 344.515 148.505C344.282 147.932 343.603 147.529 342.988 147.572C342.521 147.423 342.012 147.551 341.63 148.06C332.359 160.699 323.088 173.339 313.838 186C311.271 189.5 308.682 192.999 306.2 196.562C305.776 197.092 304.8 198.98 306.306 199.149C321.984 200.994 337.62 203.327 353.15 206.169C357.584 206.975 362.018 207.823 366.452 208.735C367.47 208.947 368.425 207.908 368.022 206.932Z" fill="#27A44A"/>
<path d="M229.697 217.451C229.655 217.6 229.633 217.727 229.591 217.876C228.997 217.642 228.276 217.748 228 218.406C226.981 220.781 226.578 223.517 225.963 226.019C225.624 227.419 225.263 228.798 224.924 230.197C222.993 234.693 220.723 239.041 217.71 242.88C213.594 248.118 208.248 252.041 201.841 253.992C198.15 255.116 194.14 255.774 190.151 255.816C189.918 255.456 189.579 255.18 189.154 255.116C179.841 253.568 171.524 247.482 167.536 238.893C167.26 238.299 166.793 238.023 166.284 238.023C165.69 236.242 165.16 234.439 164.757 232.594C164.184 230.091 163.738 227.568 163.463 225.023C163.187 222.414 163.25 219.763 162.996 217.155C162.911 216.285 162.296 215.882 161.68 215.882C161.723 214.143 161.999 212.404 161.977 210.665C161.956 209.202 159.835 208.905 159.432 210.326C158.944 212.001 158.944 213.931 158.901 215.67C158.859 217.536 158.944 219.403 159.135 221.269C159.241 222.329 159.389 223.39 159.58 224.45C159.771 230.855 160.874 237.281 163.632 243.113C164.205 244.343 164.863 245.531 165.605 246.655C165.86 247.079 166.114 247.503 166.39 247.906C167.027 249.708 167.812 251.448 168.851 253.059C171.206 256.686 174.601 259.358 178.568 261.012C179.544 261.415 180.435 260.673 180.711 259.782C183.914 261.118 187.309 261.945 190.788 262.2C204.026 263.218 216.819 256.241 224.032 245.297C228 239.274 230.27 232.254 230.843 225.086C231.543 222.69 232.094 220.251 232.264 217.833C232.37 216.306 230.079 216.052 229.697 217.451Z" fill="#27A44A"/>
<path d="M369.273 250.048C352.916 262.03 338.744 277.236 327.245 293.884C324.084 298.465 321.008 303.173 318.356 308.094C310.697 305.846 304.057 300.48 300.429 293.269C298.541 289.516 297.586 285.529 297.374 281.414C300.408 276.112 303.654 270.98 307.112 266.06C311.016 260.503 315.301 255.074 319.799 249.942C322.069 247.355 324.424 244.81 326.8 242.371C328.052 241.077 329.219 239.911 330.385 238.787L330.513 238.659C331.595 237.599 332.846 236.411 334.331 236.03C335.18 235.817 336.071 235.945 336.686 236.348C337.132 236.645 337.408 237.069 337.493 237.599C337.726 239.02 337.047 240.653 336.432 242.074C336.326 242.349 336.22 242.604 336.114 242.837C334.459 246.994 332.231 250.79 330.491 253.632C330.046 254.353 330.343 255.032 330.831 255.35C331.383 255.732 332.274 255.732 332.804 255.011C334.947 252.105 336.814 248.733 338.49 244.704C338.574 244.513 338.638 244.322 338.723 244.131C339.932 241.268 341.608 237.344 339.211 234.672C336.941 232.149 333.101 232.848 330.47 234.863C328.052 236.708 325.888 239.041 323.787 241.289C323.342 241.756 322.918 242.222 322.493 242.689C318.356 247.079 314.41 251.681 310.676 256.453C309.722 248.881 304.078 242.625 298.647 237.535C295.422 234.503 292.007 231.576 289.355 228.013C287.042 224.895 285.409 221.396 284.369 217.664C280.062 202.352 284.496 185.831 279.171 170.688C276.583 163.308 271.64 157.667 265.424 153.043C259.441 148.59 252.758 145.175 246.86 140.594C243.996 138.368 241.281 135.823 239.18 132.854C236.762 129.439 235.107 125.558 233.707 121.635C230.906 113.682 228.912 105.22 223.757 98.3486C218.877 91.859 212.003 86.96 204.217 84.6483C195.837 82.167 186.609 82.8032 178.589 86.2177C176.85 86.96 175.174 87.8295 173.561 88.8263C173.455 88.7838 173.349 88.7414 173.243 88.7202C166.603 87.469 160.089 90.2472 155.316 94.8069C150.097 99.7907 147.36 106.768 145.578 113.639C143.711 120.85 142.799 128.294 140.38 135.356C138.301 141.443 134.843 146.617 130.367 151.177C122.178 159.554 111.909 165.747 104.738 175.121C100.962 180.062 98.8406 185.597 97.3555 191.599C95.9129 197.389 94.8733 203.9 90.9485 208.629C86.3235 214.228 78.8981 215.437 72.3638 217.6C65.8931 219.742 59.0405 223.538 57.3433 230.706C57.1311 231.618 57.0251 232.509 57.0463 233.421C55.6673 231.915 54.2671 230.431 52.8881 228.946C52.485 228.522 52.0819 228.077 51.6576 227.589C49.3027 224.98 46.6295 222.011 43.0653 221.502C41.0075 221.205 38.992 221.757 37.6766 222.966C36.1916 224.323 35.6824 226.507 36.234 228.946C36.8068 231.406 38.207 233.782 39.2041 235.351C40.5831 237.535 42.1743 239.423 43.8927 240.992C44.5292 241.565 45.3142 241.395 45.7597 240.929C46.184 240.483 46.3537 239.741 45.7597 239.126C42.4501 235.69 40.3073 232.445 39.2041 229.201C38.4828 227.059 38.7162 225.553 39.883 224.789C41.1984 223.92 42.9381 224.196 44.02 224.705C45.6748 225.468 46.969 226.825 48.2207 228.14L48.3268 228.246C49.7482 229.731 51.2545 231.321 52.9093 233.103C55.837 236.242 58.7647 239.444 61.6288 242.668C71.8758 254.141 81.7622 266.145 91.0758 278.424C90.4181 284.362 89.7816 290.322 89.1876 296.26C88.4238 303.852 87.8935 311.678 85.1142 318.867C83.8625 322.133 81.9319 325.548 79.3861 328.199C76.7129 322.176 73.4246 316.386 70.0513 310.723C66.5932 304.891 62.9017 299.208 58.9981 293.672C51.2121 282.644 42.5562 272.231 33.1365 262.561C27.8327 257.131 22.3167 251.787 16.4188 246.994C15.1035 245.934 13.2365 247.715 14.5306 248.881C19.5163 253.399 24.5019 257.874 29.2329 262.645C33.9639 267.417 38.504 272.38 42.832 277.512C48.1995 283.853 53.2487 290.47 57.9798 297.32C57.704 297.469 57.4706 297.723 57.3433 298.105C54.7338 305.634 52.485 313.905 54.2883 321.879C54.8611 324.381 55.9219 326.799 57.3857 328.898C60.6529 335.918 79.874 354.157 96.4008 354.624C102.129 354.793 107.539 353.457 112.503 351.103C112.97 350.87 113.479 350.743 114.01 350.721C114.073 350.721 114.158 350.7 114.222 350.7C117.913 350.021 120.968 351.803 124.002 353.669C126.93 355.472 129.9 357.041 133.294 357.741C136.583 358.42 139.935 358.42 143.223 357.784C144.708 357.508 146.151 357.041 147.551 356.49C148.4 356.15 149.461 355.769 150.352 355.239C150.479 358.292 150.585 361.346 150.733 364.4C150.818 366.139 153.385 366.161 153.449 364.4C153.746 355.281 153.067 346.098 152.134 337.021C151.221 328.177 149.906 319.397 148.188 310.702C147.148 305.485 146.045 300.247 144.602 295.114C144.539 294.902 144.454 294.733 144.348 294.605C145.281 293.863 146.342 293.248 147.572 292.739C149.121 292.124 148.548 289.728 146.872 290.194C143.138 291.233 139.68 294.351 138.407 298.041C137.919 299.462 140.105 300.374 140.826 299.059C141.25 298.253 141.717 297.532 142.226 296.854C142.947 300.013 143.648 303.173 144.305 306.355C144.263 306.418 144.242 306.482 144.199 306.545C137.919 320.118 131.279 334.625 118.995 343.892C113.416 348.092 106.796 351.209 99.7529 351.76C92.1153 352.376 84.5839 350.021 78.1132 346.056C73.3185 343.129 69.1603 339.354 65.4264 335.176C66.3386 335.473 67.2721 335.706 68.248 335.833C75.7795 336.767 82.1229 330.956 85.6234 324.89C89.6968 317.849 90.8424 309.684 91.6698 301.71C92.3487 295.114 93.0064 288.519 93.6216 281.902C93.9398 282.326 94.2793 282.772 94.5975 283.196C97.2707 286.78 99.8165 290.385 102.829 294.648L104.611 297.172C106.924 300.459 109.3 303.852 111.697 307.139C111.994 307.542 112.397 307.712 112.8 307.712C113.097 307.712 113.373 307.627 113.607 307.457C114.094 307.139 114.391 306.482 113.946 305.761C111.718 302.155 109.151 298.338 106.139 294.075C108.091 288.243 109.427 282.157 110.721 276.261C111.612 272.168 112.546 267.947 113.67 263.854C116.662 253.017 120.586 245.297 126.06 239.614C131.173 234.291 137.941 231.449 144.475 228.692C146.703 227.759 148.994 226.783 151.2 225.744C159.559 221.757 165.881 215.882 170.018 208.247C174.283 200.358 175.874 191.324 174.495 182.713C176.34 183.922 178.292 184.919 180.329 185.682C185.972 187.782 191.997 187.845 197.28 185.894C201.099 184.473 204.663 182.119 207.739 178.981C207.548 188.927 207.888 199.276 212.491 208.311C214.613 212.468 217.668 216.009 221.466 218.745C225.093 221.333 229.294 223.072 233.495 224.535C237.801 226.019 242.214 227.207 246.521 228.713C250.87 230.219 253.395 232.042 257.298 234.481C265.169 239.402 268.797 246.973 273.634 254.883C279.087 263.833 288.506 286.865 289.906 289.261C289.906 289.282 286.618 296.175 286.618 296.175C285.939 297.659 285.303 299.165 284.666 300.671C284.369 301.392 284.836 302.028 285.451 302.283C285.642 302.368 285.875 302.41 286.066 302.41C286.512 302.41 286.957 302.198 287.148 301.71C289.503 296.238 292.092 290.915 294.871 285.741C296.335 294.054 301.151 301.753 308.109 306.63C312.925 310.002 318.738 311.996 324.594 312.356C328.264 312.59 332.38 312.166 335.71 310.426C326.1 323.257 315.704 336.851 300.047 342.365C292.473 345.038 284.157 345.631 276.562 342.726C269.37 339.99 263.451 334.391 259.144 328.135C253.437 319.822 250.212 310.172 246.966 300.713C246.924 300.607 246.882 300.522 246.839 300.438C247.37 297.935 247.942 295.454 248.558 292.951C248.939 293.418 249.3 293.927 249.64 294.457C250.552 295.878 252.652 294.648 251.888 293.142C250.552 290.47 247.773 287.819 244.802 287.119C243.423 286.801 242.469 288.752 243.805 289.473C244.633 289.94 245.481 290.322 246.266 290.83C243.699 299.462 242.257 308.539 241.429 317.467C240.644 326.014 240.602 334.582 241.26 343.129C241.62 347.964 242.087 352.906 243.169 357.635C243.508 359.141 246.118 358.844 245.927 357.253C245.757 355.832 245.566 354.411 245.375 352.991C249.788 349.088 255.707 349.428 261.287 349.767C267.121 350.127 273.825 350.403 278.641 346.459C278.683 346.416 278.726 346.395 278.768 346.353C284.857 347.943 291.307 347.752 297.48 346.119C305.903 343.892 313.413 339.227 319.82 333.416C327.373 326.544 339.975 306.758 340.463 305.909C342.224 302.877 342.224 299.059 341.12 295.793C339.975 292.442 337.832 289.706 335.498 287.119C336.092 286.356 336.686 285.592 337.302 284.829C343.581 276.982 350.476 269.644 357.902 262.879C362.06 259.104 366.388 255.52 370.801 252.041C372.074 251.236 370.504 249.157 369.273 250.048ZM114.731 177.072C111.909 179.596 109.851 182.713 108.472 186.212C105.714 193.147 105.269 200.719 103.062 207.823C101.217 213.804 97.7798 220.187 91.9032 223.05C90.3544 223.793 89.0603 221.651 90.5454 220.739C93.6004 218.872 95.9765 216.306 97.7374 213.189C101.323 206.805 102.023 199.361 103.656 192.363C105.142 186.106 107.603 179.341 112.843 175.227C114.158 174.188 116.025 175.927 114.731 177.072ZM128.181 162.523C126.081 164.877 123.811 167.083 121.626 169.352C120.395 170.625 118.486 168.695 119.695 167.422C121.881 165.153 124.002 162.799 126.272 160.615C127.545 159.406 129.327 161.23 128.181 162.523ZM135.777 154.358C135.246 154.973 134.673 155.525 134.122 156.076C133.591 156.606 132.743 156.564 132.212 156.076C131.682 155.588 131.703 154.655 132.212 154.167C132.785 153.595 133.337 153.022 133.931 152.513C134.482 152.025 135.225 152.004 135.777 152.513C136.307 153.001 136.222 153.828 135.777 154.358ZM195.307 86.3237C198.914 85.2633 203.114 86.4086 205.809 88.9747C207.06 90.1836 205.236 91.9014 203.942 90.841C201.65 88.9747 198.892 88.3597 196.028 88.8687C194.352 89.1444 193.652 86.8115 195.307 86.3237ZM204.493 114.615C204.154 115.251 203.305 115.421 202.69 115.082C201.969 114.679 201.29 114.212 200.611 113.745C200.017 113.321 199.783 112.621 200.144 111.964C200.484 111.349 201.332 111.158 201.926 111.497C202.648 111.922 203.348 112.324 204.005 112.833C204.599 113.236 204.854 113.915 204.493 114.615ZM183.999 101.827C185.315 103.269 186.63 104.626 188.242 105.708C189.855 106.789 191.594 107.574 193.419 108.231C195.031 108.804 194.395 111.243 192.719 110.798C188.539 109.695 184.445 106.938 181.899 103.438C181.008 102.208 183.002 100.745 183.999 101.827ZM153.194 105.474C154.404 102.399 156.249 99.6422 158.583 97.2882C160.832 95.0401 163.696 92.8982 166.751 91.859C168.194 91.3712 169.085 93.5768 167.769 94.2979C165.139 95.7188 162.699 97.0973 160.556 99.2605C158.477 101.36 156.865 103.82 155.613 106.492C154.955 107.828 152.664 106.853 153.194 105.474ZM226.6 151.368C226.154 153.765 225.518 156.437 223.587 157.73C221.869 158.854 220.129 158.324 218.792 157.667C218.877 157.285 218.941 156.903 219.005 156.543C219.153 155.588 218.538 154.91 217.859 154.74C217.222 154.57 216.416 154.825 216.119 155.758C215.737 156.882 215.398 158.027 215.059 159.151C214.549 160.827 214.04 162.545 213.404 164.199C212.343 166.892 211.07 169.437 209.606 171.728C206.657 176.308 202.796 179.893 198.404 182.056C187.882 187.252 176.637 182.225 170.167 174.909C166.496 170.773 163.696 165.471 161.638 158.748C161.447 158.155 160.959 157.794 160.365 157.794C159.771 157.794 159.262 158.133 159.05 158.621C158.753 158.727 158.52 158.939 158.329 159.194C158.244 159.3 158.18 159.406 158.116 159.512C157.756 160.084 157.48 160.487 156.759 160.551C155.74 160.657 154.786 159.957 154.17 159.363C152.876 158.112 151.815 156.182 151.03 153.616C150.245 150.986 150.012 148.866 150.352 147.126C150.479 146.49 150.818 145.324 151.794 144.857C152.176 144.666 152.579 144.645 152.919 144.794C153.067 145.663 153.258 146.405 153.534 147.042C153.873 147.848 154.828 148.166 155.507 148.017C156.165 147.869 156.525 147.339 156.462 146.617C156.398 145.812 156.271 145.006 156.143 144.242C156.016 143.436 155.868 142.609 155.825 141.803C155.719 140.213 155.761 138.58 155.931 136.968C156.271 133.787 157.204 130.584 158.626 127.721C160.62 123.734 163.781 120.68 166.857 117.732C168.724 115.93 170.655 114.085 172.309 112.028C174.176 109.716 175.449 107.489 176.213 105.22C177.019 106.471 177.995 107.638 179.077 108.74C182.981 112.6 187.988 114.7 191.913 116.121C193.567 116.715 195.265 117.245 197.047 117.817C204.854 120.277 212.937 122.844 217.116 130.075C218.326 132.175 219.153 134.55 219.471 136.968C219.768 139.237 219.514 141.358 219.238 143.627C219.196 143.967 219.153 144.327 219.111 144.688C219.068 145.133 219.238 145.536 219.599 145.833C220.023 146.172 220.659 146.299 221.147 146.13C221.656 146.151 222.102 145.918 222.314 145.472L222.335 145.409C222.823 144.412 223.396 143.309 224.415 142.864C224.881 142.652 225.327 142.63 225.709 142.8C226.091 142.97 226.409 143.309 226.6 143.818C227.003 144.815 227.003 145.96 227.003 147.063V147.169C226.96 148.632 226.833 150.032 226.6 151.368ZM273.613 198.852C271.704 186.234 274.928 170.858 264.215 161.336C262.92 160.169 264.787 158.388 266.103 159.448C271.004 163.435 273.486 169.713 274.589 175.778C275.947 183.265 275.565 190.942 276.244 198.492C276.392 200.019 273.846 200.358 273.613 198.852ZM276.52 216.709C275.735 213.507 275.034 210.177 274.631 206.911C274.44 205.406 276.816 205.193 277.198 206.572C278.026 209.626 278.62 212.871 279.087 216.009C279.32 217.642 276.944 218.406 276.52 216.709ZM289.673 236.432C288.506 235.139 290.225 233.527 291.54 234.566C293.98 236.475 296.038 239.126 297.841 241.628C299.687 244.195 301.257 246.952 302.402 249.899C302.954 251.32 300.641 252.254 299.984 250.917C298.647 248.245 297.247 245.637 295.528 243.198C293.789 240.716 291.689 238.659 289.673 236.432Z" fill="#121C25"/>
<path d="M191.169 158.939C187.201 160.212 187.541 154.634 187.71 152.238C187.986 148.293 188.729 144.454 189.429 140.573C189.683 139.152 187.647 138.537 187.244 139.979C186.565 142.397 186.183 144.921 185.843 147.402C185.504 149.905 185.207 152.45 185.207 154.952C185.207 156.967 185.631 159.151 187.286 160.466C188.686 161.59 190.787 162.057 192.229 160.806C193.078 160.063 192.187 158.6 191.169 158.939Z" fill="#121C25"/>
<path d="M201.139 162.926C198.996 162.969 196.896 163.902 195.22 165.217C193.671 166.426 191.974 168.419 191.677 170.434C191.507 171.579 193.056 172.512 193.714 171.282C194.562 169.67 195.199 168.249 196.663 167.062C198.084 165.938 199.696 165.45 201.457 165.196C202.751 165.026 202.412 162.905 201.139 162.926Z" fill="#121C25"/>
<path d="M172.903 141.782C171.927 141.019 170.421 141.337 169.827 142.418C169.53 142.991 169.53 143.691 169.806 144.285L169.848 144.56C169.933 144.878 170.103 145.154 170.336 145.387C170.464 145.493 170.591 145.578 170.718 145.684C171.015 145.854 171.333 145.939 171.652 145.939C171.906 145.939 172.14 145.896 172.373 145.769C172.606 145.684 172.797 145.557 172.967 145.387C173.158 145.218 173.285 145.027 173.349 144.794C173.412 144.666 173.455 144.539 173.476 144.412C173.943 143.542 173.688 142.376 172.903 141.782Z" fill="#121C25"/>
<path d="M206.762 140.51C205.701 140.192 204.64 140.828 204.322 141.846C204.173 142.312 204.195 142.821 204.364 143.288C204.386 143.479 204.428 143.67 204.513 143.839C204.555 144.009 204.64 144.136 204.746 144.263C204.874 144.476 205.065 144.624 205.277 144.751C205.425 144.815 205.574 144.878 205.722 144.942C205.892 144.963 206.062 144.984 206.231 145.006C206.486 145.006 206.741 144.963 206.953 144.836C207.186 144.751 207.398 144.624 207.568 144.454C207.632 144.391 207.674 144.327 207.738 144.242C207.801 144.179 207.865 144.115 207.886 144.03C208.013 143.839 208.077 143.648 208.098 143.436C208.204 143.203 208.268 142.949 208.289 142.694C208.374 141.718 207.674 140.785 206.762 140.51Z" fill="#121C25"/>
<path d="M225.261 228.755C220.064 238.893 212.32 248.372 201.033 251.851C195.56 253.526 189.62 253.759 184.125 252.105C178.545 250.43 173.899 246.718 170.696 241.883C166.58 235.648 165.01 228.204 164.713 220.845C164.649 219.106 161.934 219.084 161.997 220.845C162.188 227.907 163.546 235.075 167.025 241.31C170.101 246.824 174.748 251.384 180.603 253.844C192.42 258.807 205.913 255.074 215.29 246.909C220.53 242.349 224.795 236.454 227.574 230.091C228.232 228.564 226.068 227.207 225.261 228.755Z" fill="#121C25"/>
<path d="M186.035 259.506C181.261 259.528 176.572 258.213 172.711 255.35C169.062 252.635 166.792 248.903 165.222 244.703C164.628 243.113 162.252 243.707 162.655 245.403C163.801 250.217 167.153 254.607 171.035 257.555C175.278 260.758 180.731 262.497 186.035 262.136C187.732 262.051 187.753 259.485 186.035 259.506Z" fill="#121C25"/>
<path d="M377.824 241.374C377.357 238.617 374.684 236.835 372.032 236.56C368.871 236.22 365.88 237.938 363.355 239.656C358.306 243.113 353.766 247.842 351.008 253.356C350.265 254.841 352.365 256.113 353.256 254.671C355.972 250.239 359.176 246.23 363.355 243.07C365.37 241.544 367.683 239.868 370.229 239.402C372.287 239.02 374.705 239.868 375.193 242.095C375.554 243.855 378.121 243.092 377.824 241.374Z" fill="#121C25"/>
<path d="M369.184 233.124C367.911 230.367 364.495 229.625 361.801 230.388C358.809 231.237 356.094 233.421 353.802 235.415C351.469 237.429 349.411 239.741 347.629 242.265C345.868 244.767 344.171 247.609 343.301 250.578C342.876 251.978 345.04 252.953 345.698 251.596C346.865 249.221 347.905 246.867 349.368 244.64C350.811 242.455 352.508 240.441 354.418 238.638C356.285 236.857 358.342 235.202 360.613 233.951C362.522 232.891 365.598 232.106 366.85 234.524C367.656 236.072 369.905 234.693 369.184 233.124Z" fill="#121C25"/>
<path d="M354.061 224.556C351.006 224.577 349.139 227.377 347.548 229.603C343.963 234.63 341.141 240.165 338.977 245.955C338.362 247.566 340.929 248.224 341.544 246.655C343.22 242.413 345.236 238.299 347.654 234.418C348.821 232.551 350.031 230.643 351.473 228.988C352.11 228.246 352.895 227.462 353.913 227.355C354.422 227.313 355.504 227.695 355.165 228.437C354.465 229.985 356.565 231.3 357.477 229.794C358.962 227.313 356.692 224.535 354.061 224.556Z" fill="#121C25"/>
<path d="M345.787 258.382C339.189 257.895 332.039 261.882 328.793 267.587C327.945 269.092 330.13 270.323 331.085 268.923C334.5 263.875 339.719 261.203 345.787 261.097C347.569 261.076 347.527 258.51 345.787 258.382Z" fill="#121C25"/>
<path d="M176.17 125.749C171.99 124.795 167.153 127.382 165.074 130.945C164.204 132.451 166.411 133.681 167.365 132.281C168.299 130.945 169.55 129.842 171.057 129.163C172.627 128.442 174.112 128.485 175.788 128.506C177.379 128.57 177.761 126.11 176.17 125.749Z" fill="#121C25"/>
<path d="M210.833 130.945C209.051 131.348 207.311 131.39 205.677 130.457C204.171 129.588 203.492 128.315 202.707 126.831C201.965 125.431 200.034 126.449 200.289 127.849C200.692 130.012 202.622 132.048 204.532 133.044C206.802 134.232 209.517 134.423 211.872 133.384C213.315 132.769 212.233 130.627 210.833 130.945Z" fill="#121C25"/>
<path d="M23.5889 239.911C19.2609 235.817 13.4267 233.378 7.50761 232.954C4.68597 232.742 1.50366 233.272 0.570182 236.39C-0.214787 238.977 1.54609 242.095 4.36774 242.286C5.61944 242.371 6.14983 240.441 5.02541 239.889C4.26166 239.508 3.49791 239.189 3.22211 238.32C2.96752 237.535 3.32818 236.623 3.98586 236.157C4.81326 235.563 6.02254 235.669 6.99845 235.711C8.08043 235.775 9.16241 235.902 10.2232 236.114C14.5087 236.984 18.3911 238.977 21.6583 241.84C22.9736 242.986 24.8618 241.119 23.5889 239.911Z" fill="#121C25"/>
<path d="M26.9852 234.015C25.8183 231.449 23.5907 229.264 21.3843 227.589C19.1143 225.871 16.4835 224.599 13.7043 223.92C10.9039 223.22 7.25485 222.796 5.13331 225.235C3.26636 227.398 4.1574 231.046 7.1912 231.364C8.71871 231.533 8.90965 229.179 7.55187 228.755C6.85176 228.543 6.68203 227.843 7.06391 227.25C7.5943 226.401 8.6975 226.168 9.63097 226.147C11.7101 226.104 13.8953 226.719 15.7834 227.525C17.5867 228.31 19.3052 229.37 20.7903 230.685C22.3602 232.064 23.5058 233.675 24.6939 235.372C25.6698 236.772 27.6853 235.563 26.9852 234.015Z" fill="#121C25"/>
<path d="M34.3926 229.879C32.6529 224.853 29.3645 220.399 25.1427 217.176C23.106 215.628 20.4965 214.461 17.9719 215.585C15.6806 216.582 14.4926 219.657 16.3171 221.651C17.3566 222.796 18.8841 221.333 18.3113 220.102C17.5051 218.3 19.754 217.685 21.0905 218.067C22.8514 218.575 24.3789 220.039 25.6519 221.269C28.3674 223.899 30.4041 227.101 31.7831 230.6C32.3983 232.212 34.9654 231.576 34.3926 229.879Z" fill="#121C25"/>
<path d="M45.8239 252.211C43.8509 249.772 40.7746 248.097 37.7408 247.376C35.2162 246.761 31.1428 246.294 29.7002 249.072C29.0637 250.302 30.7185 251.787 31.7369 250.642C33.1583 249.009 36.0224 249.73 37.8257 250.281C40.223 251.023 42.1536 252.423 43.9569 254.12C45.2086 255.307 46.8847 253.526 45.8239 252.211Z" fill="#121C25"/>
<path d="M295.527 83.0365C293.745 82.4003 292.006 81.9761 290.351 80.9793C288.717 79.9826 287.508 78.6889 286.235 77.2892C285.471 76.4409 284.389 76.759 284.008 77.5013C283.859 77.5861 283.71 77.7345 283.562 77.9042C279.722 83.3758 275.882 88.8474 272.042 94.319C270.133 97.0336 268.244 99.727 266.356 102.442C264.426 105.199 262.325 107.744 260.565 110.776C260.395 111.052 260.458 111.794 260.501 112.24C260.989 116.121 265.826 118.92 269.051 118.411C269.857 118.284 270.239 117.563 270.642 117.096C271.045 116.63 274.588 112.155 276.54 109.673C278.682 106.959 280.825 104.265 282.968 101.551C287.211 96.1853 291.433 90.8198 295.676 85.4542C295.676 85.4542 295.676 85.433 295.697 85.433C296.525 84.8392 296.758 83.4606 295.527 83.0365ZM278.025 95.0401C275.415 98.7515 272.488 102.272 269.666 105.814C268.669 107.065 266.568 105.708 267.566 104.435C270.345 100.83 273.039 97.1397 276.009 93.704C277.006 92.58 278.958 93.7464 278.025 95.0401ZM283.774 86.9599C283.074 87.9779 282.374 88.9747 281.589 89.929C281.186 90.438 280.528 90.6501 279.934 90.2684C279.383 89.9078 279.255 89.1655 279.595 88.6141C280.252 87.575 280.995 86.5994 281.759 85.6238C282.162 85.1149 282.862 84.9028 283.435 85.2845C283.965 85.6451 284.135 86.4297 283.774 86.9599Z" fill="#121C25"/>
<path d="M331.552 32.6468C321.39 20.5159 304.376 18.7345 290.479 24.7575C279.914 29.3384 274.504 45.6472 276.414 56.8237C278.493 69.0394 287.934 78.6041 299.963 81.3611C305.945 82.7396 312.119 82.4215 317.89 80.2371C323.469 78.1163 328.328 74.2141 331.892 69.4635C339.975 58.7112 340.357 43.1446 331.552 32.6468ZM279.172 40.6845C280.699 36.7187 282.842 32.8589 285.77 29.7413C286.703 28.7445 288.4 30.2291 287.573 31.3107C285.133 34.4919 282.99 37.7367 281.527 41.4904C280.975 42.9962 278.599 42.1903 279.172 40.6845ZM327.225 62.1468C322.769 69.9937 314.283 74.9563 305.203 74.1716C296.186 73.387 288.018 67.5124 284.942 58.902C281.442 49.1252 284.879 36.2521 294.638 31.4591C294.914 31.3319 295.062 31.2683 295.444 31.0986C297.523 30.1655 304.991 28.8506 309.934 29.4868C314.623 30.1018 319.184 32.0105 322.791 35.0857C330.619 41.7237 332.231 53.3456 327.225 62.1468Z" fill="#121C25"/>
<path d="M357.711 194.208C354.444 186.318 350.795 178.599 347.549 170.688C344.303 162.778 341.248 154.804 338.405 146.766C338.066 145.812 336.751 145.515 336.072 146.321C326.695 157.603 317.339 168.907 308.004 180.211C305.373 183.413 302.721 186.594 300.09 189.796C299.454 190.56 299.772 191.96 300.875 192.108C316.681 193.974 332.338 196.965 347.761 200.952C349.353 201.355 349.819 198.873 348.249 198.449C333.696 194.462 318.845 191.536 303.867 189.648C312.671 179.002 321.454 168.377 330.259 157.73C332.401 155.143 334.523 152.556 336.645 149.968C339.296 157.306 342.076 164.602 345.025 171.812C348.271 179.723 351.517 187.761 355.441 195.353C356.12 196.604 358.263 195.523 357.711 194.208Z" fill="#121C25"/>
<path d="M337.769 166.871C337.939 165.301 338.087 163.647 337.451 162.226C336.899 160.996 335.796 160.148 334.502 160.254C333.144 160.36 332.062 161.442 331.341 162.672C329.898 165.174 329.113 168.292 329.113 171.176C329.113 174.463 329.686 177.814 330.004 179.447C330.28 180.847 332.38 181.25 333.165 180.041C333.929 178.811 335.987 174.591 336.836 171.621C337.281 170.073 337.599 168.483 337.769 166.871Z" fill="#121C25"/>
<path d="M331.696 184.261C331.102 183.986 330.444 183.964 329.85 184.176C329.744 184.176 329.617 184.198 329.511 184.219C327.835 184.685 327.262 186.933 328.238 188.27C329.277 189.691 331.399 189.839 332.566 188.482C333.754 187.167 333.33 185.046 331.696 184.261Z" fill="#121C25"/>
<path d="M216.885 133.999C216.736 133.087 215.909 132.832 215.187 133.044C211.666 133.023 208.123 133.32 204.601 133.426C200.952 133.532 197.303 133.596 193.654 133.617C190.578 133.638 175.918 133.49 172.184 133.363C168.047 133.235 163.91 133.044 159.773 132.832C158.712 132.79 158.309 133.744 158.521 134.55C156.718 141.231 159.815 148.59 166.031 151.771C172.247 154.973 180.415 153.298 184.001 147.02C185.847 143.797 185.889 140.001 185.571 136.395C187.31 136.417 189.05 136.417 190.79 136.395C190.196 143.182 193.06 150.711 199.509 153.765C202.543 155.185 206.15 155.44 209.29 154.167C212.535 152.853 214.721 150.159 215.972 146.957C217.521 143.033 217.564 138.134 216.885 133.999ZM181.243 146.151C179.312 149.12 175.833 150.711 172.354 150.605C168.683 150.499 165.204 148.569 163.082 145.6C161.003 142.694 160.367 139.089 161.109 135.653C168.323 136.077 175.536 136.311 182.749 136.395C183.025 139.725 183.152 143.224 181.243 146.151ZM213.702 144.497C213.045 147.042 211.687 149.544 209.353 150.901C204.368 153.849 198.342 150.901 195.648 146.321C193.866 143.309 193.42 139.831 193.569 136.395C196.688 136.374 199.806 136.332 202.925 136.247C206.616 136.162 210.393 136.183 214.084 135.886C214.127 138.771 214.445 141.612 213.702 144.497Z" fill="#27A44A"/>
<path d="M83.4396 253.505C81.1059 251.363 77.2871 251.214 74.9746 253.441C73.8714 254.501 75.2928 256.41 76.6294 255.583C78.4115 254.459 80.6391 254.289 81.9969 256.177C83.482 258.234 82.1242 260.843 81.1059 262.794C79.154 266.526 76.6506 269.962 73.6805 272.952C67.825 278.89 60.3148 283.111 52.1681 284.913C49.7707 285.444 46.8854 285.995 44.6154 284.723C42.9606 283.789 42.0271 281.605 43.1303 279.951C43.9577 278.721 42.0271 277.194 41.0512 278.36C39.4388 280.269 39.5661 282.92 40.9027 284.956C42.409 287.246 44.9761 288.201 47.6492 288.285C50.3436 288.37 53.1228 287.692 55.6898 286.971C58.2357 286.228 60.7391 285.253 63.1152 284.086C72.2803 279.59 80.4058 271.765 84.5215 262.327C85.8157 259.337 86.0278 255.859 83.4396 253.505Z" fill="#16CC53"/>
<path d="M332.57 295.963C331.339 299.42 326.205 297.893 323.765 297.087C320.689 296.048 317.782 294.542 315.131 292.654C309.954 288.964 305.775 283.705 303.504 277.745C302.083 274.013 300.959 269.389 304.056 266.166C305.265 264.914 303.462 263.154 302.168 264.278C298.667 267.269 298.88 272.422 300.068 276.452C301.171 280.142 302.932 283.662 305.202 286.78C309.721 292.972 316.085 297.829 323.426 300.183C325.781 300.947 328.348 301.54 330.809 300.947C332.994 300.416 334.776 298.911 335.54 296.79C336.197 294.902 333.227 294.096 332.57 295.963Z" fill="#16CC53"/>
<path d="M314.072 40.2816C312.799 40.2392 311.802 41.4268 310.911 42.1903C309.957 42.9962 309.023 43.8233 308.111 44.6716C306.88 45.7744 305.692 46.8984 304.504 48.0649C303.486 47.0045 302.467 45.9653 301.449 44.9261C299.943 43.3992 298.33 41.6813 296.506 40.5573C295.191 39.7514 294.087 41.5117 294.703 42.6145C295.233 43.5688 296.039 44.3959 296.739 45.223C297.461 46.0926 298.224 46.9197 299.009 47.7468C299.943 48.7647 300.898 49.7615 301.852 50.7583C300.558 52.1156 299.285 53.4941 298.055 54.915C297.248 55.8269 296.506 56.7813 295.763 57.7568C295.042 58.7324 294.13 59.8352 293.875 61.044C293.684 61.9772 294.681 63.0376 295.636 62.571C296.739 62.062 297.524 61.1077 298.33 60.2381C299.115 59.3898 299.879 58.5415 300.643 57.672C301.895 56.2511 303.168 54.8514 304.483 53.4941C307.199 56.3147 309.893 59.1353 312.608 61.9348C313.33 62.677 314.666 62.4862 315.303 61.7439C316.024 60.9168 315.833 59.7928 315.112 59.0505C312.46 56.2935 309.808 53.5365 307.156 50.7795C308.323 49.6343 309.511 48.5102 310.72 47.4074C311.548 46.6652 312.375 45.9229 313.224 45.2018C314.2 44.3747 315.621 43.59 315.833 42.2327C315.982 41.1087 315.175 40.324 314.072 40.2816Z" fill="#E52E30"/>
<path d="M175.24 157.667C174.455 156.437 172.864 156.097 171.528 155.928C169.597 155.694 164.548 155.885 164.59 158.748C164.611 159.724 165.375 160.975 166.542 161.442C167.9 161.993 169.448 162.163 170.912 162.078C172.185 162.014 173.755 161.887 174.773 161.039C175.792 160.19 175.983 158.791 175.24 157.667Z" fill="#FD9459"/>
<path d="M211.814 157.667C211.029 156.437 209.438 156.097 208.102 155.928C206.171 155.694 201.122 155.885 201.164 158.748C201.186 159.724 201.949 160.975 203.116 161.442C204.474 161.993 206.023 162.163 207.486 162.078C208.759 162.014 210.329 161.887 211.348 161.039C212.345 160.19 212.536 158.791 211.814 157.667Z" fill="#FD9459"/>
<path d="M163.124 177.348C162.721 179.977 160.748 182.204 157.862 181.801C154.998 181.398 153.747 178.684 153.237 176.139C152.007 170.137 153.428 163.69 156.547 158.473C157.438 156.967 155.126 155.61 154.213 157.094C151.031 162.248 149.567 168.483 150.225 174.527C150.522 177.241 151.158 180.041 153.004 182.162C154.807 184.219 157.777 185.067 160.408 184.367C163.4 183.583 165.648 180.762 165.733 177.687C165.754 176.245 163.357 175.842 163.124 177.348Z" fill="#F3C63E"/>
<path d="M222.272 155.588C221.593 154.252 219.217 155.206 219.811 156.627C222.166 162.226 223.227 168.207 222.23 174.251C221.848 176.542 221.338 179.829 219.132 181.144C216.565 182.649 213.913 180.486 213.934 177.793C213.956 175.99 211.367 176.075 211.198 177.793C210.837 181.334 213.828 184.41 217.329 184.452C221.148 184.494 223.396 181.271 224.33 177.962C226.409 170.709 225.624 162.332 222.272 155.588Z" fill="#F3C63E"/>
<path d="M135.584 85.1117C129.912 63.5143 124.24 41.9168 118.59 20.2978C116.988 14.1735 115.386 8.02752 113.784 1.9032C113.611 1.25398 112.832 0.951011 112.247 0.994292C98.2189 2.05469 84.2123 3.72102 70.314 5.97165C56.4158 8.22228 42.6257 11.0789 28.9655 14.5414C21.237 16.489 13.5518 18.6315 5.90994 20.947C5.34708 21.1201 4.89246 21.8992 5.02235 22.4835C8.89742 40.1639 12.7075 57.866 16.561 75.5465C17.665 80.6104 18.7691 85.6527 19.8732 90.7166C20.2629 92.4262 22.9906 92.1232 22.6225 90.3704C18.8774 72.6683 14.9806 54.9878 11.1705 37.2857C11.0839 36.8529 10.9973 36.4417 10.8891 36.0089C37.4301 30.3391 63.9061 24.4528 90.4255 18.6531C98.0024 16.9868 105.601 15.3204 113.178 13.6757C113.394 13.6325 113.589 13.5459 113.762 13.416C118.503 31.5726 123.223 49.7291 127.964 67.8857C129.393 73.3391 130.8 78.8142 132.229 84.2677C118.828 85.1333 105.449 86.3885 92.1357 88.0115C78.2374 89.7211 64.3824 91.8419 50.5923 94.3739C42.8205 95.8022 35.0487 97.3387 27.3635 99.1781C25.6533 99.5893 25.9131 102.316 27.7099 101.97C41.4567 99.243 55.1818 96.5163 69.0368 94.3522C82.8701 92.1882 96.7901 90.4136 110.732 89.0719C118.612 88.3145 126.492 87.6869 134.372 87.1892C135.454 87.1459 135.822 85.9989 135.584 85.1117ZM112.832 10.8192C86.0092 16.7487 59.1868 22.5917 32.3427 28.478C25.0039 30.101 17.6434 31.6808 10.3046 33.3471C9.59017 30.0145 8.85413 26.6602 8.13973 23.3275C21.1937 19.4322 34.3776 16.0346 47.7131 13.1996C61.3516 10.3214 75.12 8.00588 88.9534 6.29626C96.3788 5.36571 103.847 4.62993 111.316 4.04563C111.901 6.29626 112.485 8.54689 113.091 10.8192C113.005 10.7759 112.918 10.7975 112.832 10.8192Z" fill="#121C25"/>
<path d="M53.2591 55.3557C52.1117 55.3557 50.9643 55.399 49.817 55.5072C49.7087 54.858 49.5788 54.1871 49.4706 53.5379C49.1242 51.5686 48.8861 49.5344 48.3449 47.63C47.8686 45.9204 45.5739 46.5047 45.7254 48.1927C45.8986 50.1836 46.3532 52.1745 46.6996 54.1438C46.8078 54.7065 46.8944 55.2908 47.0027 55.8535C45.7254 56.0482 44.4698 56.2863 43.2358 56.5892C41.5906 56.9788 39.9886 57.4981 38.4082 58.0824C36.8928 58.6451 35.464 59.4242 33.9703 60.0085C34.0353 59.857 34.1002 59.7271 34.1651 59.5757C34.5115 58.7966 34.8579 58.0175 35.2043 57.2385C35.962 55.5505 36.7197 53.8625 37.4773 52.1745C38.9278 48.9284 40.5298 45.7256 41.7854 42.3929C42.3266 40.9863 40.0968 39.861 39.3824 41.246C37.4774 44.8816 35.9403 48.7337 34.2517 52.4559C33.4291 54.2737 32.6065 56.0915 31.7838 57.9093C31.1127 59.4242 30.1385 61.48 31.957 62.6486C33.3208 63.5359 34.8579 62.7136 36.1351 62.1076C37.867 61.2853 39.6422 60.5928 41.4607 60.0301C43.4307 59.4242 45.444 58.9697 47.4789 58.6884C47.5439 59.0996 47.6305 59.4891 47.6954 59.9003C48.3665 63.774 48.8428 67.7342 49.817 71.543C50.2499 73.2742 52.6529 72.6899 52.4797 70.9803C52.0901 67.085 51.1592 63.168 50.4664 59.316C50.4015 59.013 50.3582 58.6884 50.2932 58.3854C51.2241 58.3205 52.1333 58.2772 53.0642 58.2556C54.9043 58.169 55.0992 55.3557 53.2591 55.3557Z" fill="#121C25"/>
<path d="M108.482 43.6265C107.334 43.6265 106.187 43.6698 105.04 43.778C104.931 43.1287 104.801 42.4579 104.693 41.8087C104.347 39.8394 104.109 37.8051 103.568 35.9007C103.091 34.1911 100.797 34.7754 100.948 36.4634C101.121 38.4544 101.576 40.4453 101.922 42.4146C102.03 42.9773 102.117 43.5616 102.225 44.1242C100.948 44.319 99.6925 44.557 98.4585 44.86C96.8132 45.2495 95.2112 45.7689 93.6309 46.3532C92.1155 46.9159 90.6867 47.6949 89.193 48.2792C89.2579 48.1277 89.3228 47.9979 89.3878 47.8464C89.7342 47.0673 90.0805 46.2883 90.4269 45.5092C91.1846 43.8212 91.9423 42.1333 92.7 40.4453C94.1505 37.1992 95.7524 33.9964 97.008 30.6637C97.5493 29.2571 95.3195 28.1317 94.6051 29.5167C92.7 33.1524 91.163 37.0044 89.4744 40.7266C88.6517 42.5444 87.8291 44.3623 87.0065 46.1801C86.3354 47.6949 85.3612 49.7508 87.1797 50.9194C88.5435 51.8067 90.0805 50.9843 91.3578 50.3784C93.0897 49.556 94.8648 48.8635 96.6833 48.3009C98.6533 47.6949 100.667 47.2405 102.702 46.9591C102.767 47.3703 102.853 47.7598 102.918 48.171C103.589 52.0447 104.065 56.0049 105.04 59.8137C105.473 61.545 107.876 60.9607 107.702 59.2511C107.313 55.3557 106.382 51.4388 105.689 47.5867C105.624 47.2838 105.581 46.9591 105.516 46.6562C106.447 46.5913 107.356 46.548 108.287 46.5263C110.127 46.4398 110.3 43.6265 108.482 43.6265Z" fill="#121C25"/>
<path d="M71.5948 38.3029C66.0095 37.7186 60.2294 40.9214 57.913 46.0502C56.1162 50.0321 56.6574 54.8147 58.9305 58.4936C61.052 63.0598 69.4083 66.4791 76.076 63.0382C81.1634 60.4197 84.1293 54.7498 82.9819 49.0583C81.8562 43.5616 77.2884 38.9088 71.5948 38.3029ZM75.9029 59.7488C73.9328 61.1554 71.4649 61.9129 69.0403 61.7181C67.6548 61.6099 66.3126 61.3502 64.7756 60.3764C61.0087 57.9743 58.9521 53.0185 60.0995 48.6471C61.2252 44.3839 65.3384 41.4191 69.6681 41.1811C74.2576 40.9214 78.2625 44.016 79.713 48.2792C81.2067 52.6074 79.5831 57.1303 75.9029 59.7488Z" fill="#121C25"/>
<path d="M97.9413 70.2013C90.754 71.4348 83.5884 72.928 76.4228 74.313C72.9157 74.9839 69.387 75.6764 65.88 76.3472C62.243 77.0397 58.5195 77.5808 54.9259 78.5329C53.5187 78.9008 53.7569 81.3246 55.2722 81.1298C58.9308 80.6754 62.5678 79.8314 66.1831 79.1389C69.7767 78.4464 73.3487 77.7755 76.9423 77.083C84.1946 75.698 91.4468 74.4212 98.6774 72.8847C100.431 72.4952 99.6515 69.8983 97.9413 70.2013Z" fill="#16CC53"/>
<path d="M85.8367 77.6457C80.6844 78.7493 75.5753 80.1993 70.4879 81.541C68.7777 81.9954 69.5138 84.5923 71.224 84.1812C76.333 82.926 81.5287 81.7574 86.5727 80.2858C88.2397 79.7881 87.5469 77.2778 85.8367 77.6457Z" fill="#16CC53"/>
<path d="M18.6233 23.3492C17.3028 22.6134 15.5926 22.9813 14.7916 24.3014C14.0988 25.4483 14.2287 27.1363 15.3111 28.0019C15.4627 28.1101 15.6142 28.2183 15.7657 28.2832C15.8307 28.3482 15.8956 28.3914 15.9606 28.4564C17.2378 29.4302 19.1646 28.4131 19.814 27.1796C20.5717 25.7729 19.9655 24.085 18.6233 23.3492Z" fill="#27A44A"/>
<path d="M27.846 21.1851C26.5254 20.4493 24.8152 20.8172 24.0142 22.1373C23.3215 23.2843 23.4514 24.9722 24.5338 25.8379C24.6853 25.9461 24.8369 26.0543 24.9884 26.1192C25.0533 26.1841 25.1183 26.2274 25.1832 26.2923C26.4605 27.2661 28.3872 26.249 29.0367 25.0155C29.7944 23.6089 29.2098 21.9425 27.846 21.1851Z" fill="#27A44A"/>
<path d="M36.9593 19.0426C35.6387 18.3069 33.9285 18.6748 33.1275 19.9948C32.4348 21.1418 32.5646 22.8298 33.6471 23.6954C33.7986 23.8036 33.9501 23.9118 34.1017 23.9767C34.1666 24.0417 34.2316 24.0849 34.2965 24.1499C35.5738 25.1237 37.5005 24.1066 38.1499 22.8731C38.9293 21.4664 38.3231 19.8001 36.9593 19.0426Z" fill="#27A44A"/>
<path d="M33.3359 42.3811C33.3359 42.4007 33.3556 42.4007 33.3359 42.3811C33.3556 42.4007 33.3556 42.4007 33.3359 42.3811C33.3556 42.4007 33.3359 42.4007 33.3359 42.3811Z" fill="#27A44A"/>
<path d="M221.988 36.0604C221.027 35.1748 219.548 35.5664 218.401 35.6708C217.052 35.7962 215.584 35.7015 214.805 34.4128C213.989 33.0672 214.106 31.3616 213.313 29.9984C212.979 29.4266 212.484 28.9171 211.868 28.6628C211.242 28.4046 210.572 28.4642 209.975 28.7742C208.61 29.4825 208.114 31.1063 207.705 32.4936C207.649 32.6865 207.588 32.8849 207.528 33.0883C207.119 34.3795 205.826 35.1816 204.484 34.9877C204.211 34.9454 203.943 34.9077 203.685 34.8738C202.32 34.6976 200.744 34.7354 199.766 35.8837C198.775 37.0486 199.265 38.6353 200.271 39.6072C200.898 40.2092 201.697 40.6112 202.428 41.0961C203.279 41.6545 203.757 42.6359 203.654 43.6425C203.654 43.6475 203.655 43.6525 203.65 43.658C203.57 44.4044 203.282 45.1016 202.982 45.78C202.419 47.0519 201.732 48.554 202.299 49.9558C202.531 50.5181 202.93 51.0325 203.48 51.2936C204.073 51.5705 204.722 51.503 205.296 51.2156C205.92 50.908 206.414 50.3864 206.884 49.8774C207.395 49.3187 207.888 48.7315 208.444 48.2136C208.745 47.9345 209.074 47.6828 209.428 47.474C210.022 47.129 210.727 47.0152 211.393 47.1682C211.435 47.179 211.476 47.1848 211.513 47.1962C213.028 47.5943 214.227 48.718 215.589 49.4456C216.831 50.1097 218.255 50.4618 219.57 49.8193C220.102 49.5617 220.59 49.1266 220.848 48.5791C221.152 47.9357 221.132 47.1999 220.88 46.5436C220.601 45.8145 220.116 45.2078 219.641 44.6002C219.173 44.007 218.676 43.3309 218.55 42.5655C218.281 40.9052 220.164 40.259 221.212 39.4876C221.773 39.0703 222.251 38.5402 222.438 37.8434C222.622 37.2226 222.483 36.5193 221.988 36.0604ZM217.569 37.1476C215.869 37.163 214.043 36.9084 212.741 35.7247C212.129 35.1667 211.654 34.458 211.394 33.6712C211.134 32.8794 211.005 31.8819 211.282 31.0796C211.394 30.7443 211.847 30.9499 211.832 31.2446C211.805 31.667 211.74 32.0631 211.779 32.4886C211.819 32.8737 211.904 33.249 212.048 33.6081C212.31 34.2683 212.742 34.8501 213.287 35.3039C214.51 36.3138 216.084 36.352 217.589 36.5592C217.914 36.6062 217.904 37.1431 217.569 37.1476ZM220.238 37.0666C219.859 36.8383 219.554 36.7892 219.123 36.8947C218.984 36.9294 218.849 36.8019 218.816 36.679C218.78 36.5311 218.859 36.4116 218.99 36.3475C219.461 36.0961 220.174 36.2039 220.548 36.5794C220.763 36.7845 220.547 37.2518 220.238 37.0666Z" fill="#F3C63E"/>
<path d="M67.455 168.571C66.6291 167.81 65.3587 168.147 64.3725 168.237C63.2136 168.344 61.952 168.263 61.2821 167.156C60.5809 165.999 60.6814 164.533 60.0005 163.362C59.7135 162.871 59.288 162.433 58.7588 162.214C58.2204 161.992 57.6451 162.044 57.1314 162.31C55.9592 162.919 55.5326 164.314 55.1809 165.506C55.1327 165.672 55.0806 165.843 55.029 166.017C54.6774 167.127 53.566 167.816 52.4134 167.65C52.1782 167.613 51.9478 167.581 51.7265 167.552C50.5536 167.4 49.1991 167.433 48.3588 168.42C47.5069 169.421 47.9285 170.784 48.7927 171.619C49.3312 172.137 50.0178 172.482 50.6463 172.899C51.3774 173.379 51.7884 174.222 51.6995 175.087C51.7 175.091 51.7004 175.096 51.6965 175.1C51.628 175.742 51.3804 176.341 51.1225 176.924C50.6382 178.017 50.0479 179.308 50.5358 180.512C50.7346 180.996 51.0776 181.438 51.5507 181.662C52.0601 181.9 52.6173 181.842 53.1111 181.595C53.6468 181.331 54.0717 180.882 54.4758 180.445C54.9148 179.965 55.3382 179.46 55.8157 179.015C56.0745 178.775 56.3576 178.559 56.662 178.38C57.1726 178.083 57.778 177.985 58.3506 178.117C58.3865 178.126 58.4219 178.131 58.4535 178.141C59.7554 178.483 60.786 179.449 61.9558 180.074C63.0238 180.645 64.2473 180.947 65.3774 180.395C65.8346 180.174 66.2541 179.8 66.4758 179.329C66.7369 178.776 66.7191 178.144 66.5031 177.58C66.2632 176.953 65.8465 176.432 65.4384 175.91C65.036 175.4 64.6087 174.819 64.5009 174.161C64.2692 172.735 65.888 172.179 66.7882 171.517C67.2704 171.158 67.6814 170.702 67.8417 170.104C68.0001 169.57 67.8803 168.966 67.455 168.571ZM63.6577 169.506C62.1964 169.519 60.628 169.3 59.509 168.283C58.9831 167.803 58.5747 167.194 58.3515 166.518C58.1277 165.838 58.0166 164.981 58.2548 164.291C58.3514 164.003 58.7409 164.18 58.728 164.433C58.7047 164.796 58.6485 165.136 58.6822 165.502C58.7167 165.833 58.7896 166.155 58.9134 166.464C59.1385 167.031 59.5093 167.531 59.9778 167.921C61.0288 168.789 62.3814 168.822 63.6749 169C63.9541 169.04 63.9455 169.502 63.6577 169.506ZM65.9514 169.436C65.6254 169.24 65.3634 169.198 64.9929 169.288C64.8738 169.318 64.7576 169.209 64.7291 169.103C64.6984 168.976 64.7663 168.873 64.8785 168.818C65.2838 168.602 65.896 168.695 66.2178 169.017C66.4021 169.194 66.2169 169.595 65.9514 169.436Z" fill="#FD9459"/>
</svg>
