<svg width="111" height="44" viewBox="0 0 111 44" fill="none" xmlns="http://www.w3.org/2000/svg">
<g id="Appstore">
<rect width="111" height="44" rx="9" fill="#0C3317"/>
<g id="Group">
<g id="Group_2">
<g id="&#60;Group&#62;">
<g id="&#60;Group&#62;_2">
<g id="&#60;Group&#62;_3">
<path id="&#60;Path&#62;" d="M23.7893 21.47C23.7978 20.8037 23.9745 20.1504 24.3027 19.5708C24.631 18.9913 25.1002 18.5044 25.6668 18.1554C25.3069 17.6404 24.8321 17.2166 24.2801 16.9176C23.7281 16.6186 23.1141 16.4527 22.4869 16.433C21.1491 16.2923 19.852 17.2352 19.1703 17.2352C18.4753 17.2352 17.4257 16.447 16.2953 16.4703C15.5642 16.494 14.8517 16.707 14.2272 17.0886C13.6026 17.4702 13.0874 18.0074 12.7317 18.6479C11.1908 21.3209 12.3402 25.2492 13.8162 27.4099C14.5547 28.4679 15.4177 29.6497 16.547 29.6078C17.6521 29.5618 18.0649 28.9017 19.3988 28.9017C20.7204 28.9017 21.1076 29.6078 22.2598 29.5811C23.4456 29.5618 24.1927 28.5184 24.9053 27.4504C25.4359 26.6965 25.8442 25.8634 26.1151 24.9817C25.4261 24.6898 24.8382 24.2011 24.4246 23.5766C24.011 22.9521 23.7901 22.2194 23.7893 21.47Z" fill="white"/>
<path id="&#60;Path&#62;_2" d="M21.613 15.0126C22.2595 14.2349 22.578 13.2353 22.5009 12.2261C21.5131 12.33 20.6007 12.8031 19.9454 13.5509C19.625 13.9163 19.3796 14.3413 19.2232 14.8017C19.0669 15.2621 19.0026 15.7489 19.0342 16.2342C19.5282 16.2393 20.017 16.132 20.4637 15.9204C20.9104 15.7088 21.3033 15.3984 21.613 15.0126Z" fill="white"/>
</g>
</g>
<g id="Group_3">
<path id="Vector" d="M37.7614 26.9292H33.9903L33.0846 29.6086H31.4873L35.0593 19.6956H36.7189L40.2909 29.6086H38.6663L37.7614 26.9292ZM34.3808 25.6928H37.3701L35.8965 21.3444H35.8553L34.3808 25.6928Z" fill="white"/>
<path id="Vector_2" d="M48.0046 25.9955C48.0046 28.2414 46.8049 29.6844 44.9944 29.6844C44.5358 29.7084 44.0796 29.6026 43.6783 29.379C43.2769 29.1553 42.9465 28.823 42.7248 28.4199H42.6906V31.9997H41.21V22.3814H42.6431V23.5835H42.6704C42.9022 23.1824 43.2382 22.8517 43.6426 22.6268C44.0471 22.4018 44.5048 22.2908 44.9672 22.3058C46.7979 22.3058 48.0046 23.7558 48.0046 25.9955ZM46.4828 25.9955C46.4828 24.5322 45.7281 23.5702 44.5766 23.5702C43.4453 23.5702 42.6844 24.5525 42.6844 25.9955C42.6844 27.4517 43.4453 28.427 44.5766 28.427C45.7281 28.427 46.4828 27.472 46.4828 25.9955Z" fill="white"/>
<path id="Vector_3" d="M55.9451 25.9957C55.9451 28.2417 54.7453 29.6846 52.9348 29.6846C52.4762 29.7087 52.0201 29.6028 51.6187 29.3792C51.2173 29.1556 50.8869 28.8232 50.6653 28.4202H50.631V32H49.1504V22.3816H50.5835V23.5837H50.6108C50.8426 23.1826 51.1786 22.852 51.583 22.627C51.9875 22.402 52.4452 22.2911 52.9076 22.306C54.7383 22.306 55.9451 23.756 55.9451 25.9957ZM54.4232 25.9957C54.4232 24.5325 53.6685 23.5705 52.517 23.5705C51.3857 23.5705 50.6248 24.5527 50.6248 25.9957C50.6248 27.452 51.3857 28.4272 52.517 28.4272C53.6685 28.4272 54.4232 27.4722 54.4232 25.9957H54.4232Z" fill="white"/>
<path id="Vector_4" d="M61.1924 26.8468C61.3021 27.8299 62.2552 28.4753 63.5577 28.4753C64.8056 28.4753 65.7035 27.8298 65.7035 26.9434C65.7035 26.174 65.162 25.7133 63.8798 25.3976L62.5976 25.0881C60.7808 24.6484 59.9374 23.7971 59.9374 22.4157C59.9374 20.7053 61.425 19.5305 63.5374 19.5305C65.628 19.5305 67.0612 20.7053 67.1094 22.4157H65.6148C65.5253 21.4264 64.7091 20.8293 63.5164 20.8293C62.3237 20.8293 61.5075 21.4335 61.5075 22.3128C61.5075 23.0136 62.0288 23.426 63.304 23.7417L64.394 24.0099C66.4239 24.4909 67.2673 25.3079 67.2673 26.7579C67.2673 28.6125 65.793 29.774 63.4479 29.774C61.2538 29.774 59.7725 28.6398 59.6768 26.8467L61.1924 26.8468Z" fill="white"/>
<path id="Vector_5" d="M70.4622 20.6707V22.381H71.8339V23.5558H70.4622V27.5402C70.4622 28.1592 70.7368 28.4476 71.3398 28.4476C71.5027 28.4448 71.6652 28.4333 71.8269 28.4133V29.5811C71.5558 29.6319 71.2802 29.6548 71.0045 29.6497C69.5441 29.6497 68.9746 29.1001 68.9746 27.6984V23.5558H67.9258V22.381H68.9746V20.6707H70.4622Z" fill="white"/>
<path id="Vector_6" d="M72.6289 25.9952C72.6289 23.7212 73.9656 22.2922 76.05 22.2922C78.1413 22.2922 79.4718 23.7212 79.4718 25.9952C79.4718 28.2754 78.1483 29.6981 76.05 29.6981C73.9523 29.6981 72.6289 28.2754 72.6289 25.9952ZM77.9632 25.9952C77.9632 24.4353 77.2497 23.5146 76.05 23.5146C74.8502 23.5146 74.1375 24.4423 74.1375 25.9952C74.1375 27.5613 74.8502 28.475 76.05 28.475C77.2497 28.475 77.9631 27.5613 77.9631 25.9952H77.9632Z" fill="white"/>
<path id="Vector_7" d="M80.6934 22.3816H82.1055V23.6117H82.1398C82.2353 23.2275 82.46 22.888 82.7759 22.6502C83.0919 22.4124 83.4799 22.2908 83.8748 22.3059C84.0454 22.3053 84.2156 22.3239 84.3821 22.3613V23.7489C84.1667 23.683 83.942 23.6527 83.7168 23.6593C83.5017 23.6505 83.2873 23.6885 83.0882 23.7707C82.8892 23.8528 82.7102 23.9771 82.5637 24.1351C82.4171 24.2931 82.3064 24.4809 82.2391 24.6858C82.1718 24.8907 82.1496 25.1078 82.174 25.3221V29.609H80.6934L80.6934 22.3816Z" fill="white"/>
<path id="Vector_8" d="M91.2079 27.4857C91.0088 28.7977 89.7335 29.6981 88.102 29.6981C86.0036 29.6981 84.7012 28.2895 84.7012 26.0295C84.7012 23.7625 86.0106 22.2922 88.0398 22.2922C90.0354 22.2922 91.2904 23.6658 91.2904 25.8572V26.3655H86.1958V26.4551C86.1723 26.7211 86.2055 26.9891 86.2933 27.2412C86.3811 27.4933 86.5214 27.7239 86.7049 27.9175C86.8885 28.1111 87.111 28.2634 87.3578 28.3642C87.6045 28.465 87.8699 28.5121 88.1362 28.5023C88.4861 28.5351 88.8372 28.4539 89.1374 28.2708C89.4375 28.0876 89.6706 27.8123 89.802 27.4857L91.2079 27.4857ZM86.2028 25.3287H89.809C89.8223 25.0895 89.7861 24.8502 89.7027 24.6257C89.6193 24.4012 89.4905 24.1964 89.3244 24.0242C89.1583 23.8519 88.9584 23.7159 88.7373 23.6248C88.5162 23.5336 88.2788 23.4892 88.0398 23.4943C87.7986 23.4929 87.5596 23.5393 87.3365 23.6309C87.1134 23.7225 86.9106 23.8575 86.7398 24.028C86.569 24.1985 86.4337 24.4013 86.3415 24.6245C86.2493 24.8478 86.2022 25.0871 86.2028 25.3287V25.3287Z" fill="white"/>
</g>
</g>
</g>
<g id="&#60;Group&#62;_4">
<g id="Group_4">
<path id="Vector_9" d="M34.1917 12.2344C34.5022 12.2121 34.8136 12.2591 35.1037 12.372C35.3938 12.4849 35.6553 12.6609 35.8693 12.8873C36.0833 13.1137 36.2444 13.3849 36.3412 13.6813C36.4379 13.9776 36.4678 14.2918 36.4286 14.6012C36.4286 16.1229 35.6078 16.9976 34.1917 16.9976H32.4746V12.2344H34.1917ZM33.213 16.324H34.1093C34.3311 16.3373 34.5531 16.3008 34.759 16.2173C34.965 16.1338 35.1498 16.0053 35.3 15.8412C35.4502 15.6771 35.5619 15.4815 35.6272 15.2687C35.6924 15.0559 35.7094 14.8311 35.677 14.6109C35.7071 14.3915 35.6883 14.1682 35.6221 13.9569C35.5559 13.7456 35.4438 13.5516 35.294 13.3888C35.1442 13.226 34.9602 13.0985 34.7554 13.0153C34.5506 12.932 34.3299 12.8953 34.1093 12.9075H33.213V16.324Z" fill="white"/>
<path id="Vector_10" d="M37.2629 15.1991C37.2403 14.9628 37.2673 14.7245 37.3421 14.4993C37.4168 14.2742 37.5377 14.0671 37.697 13.8915C37.8563 13.7159 38.0505 13.5756 38.2671 13.4796C38.4837 13.3836 38.7179 13.334 38.9547 13.334C39.1916 13.334 39.4258 13.3836 39.6424 13.4796C39.859 13.5756 40.0531 13.7159 40.2124 13.8915C40.3717 14.0671 40.4927 14.2742 40.5674 14.4993C40.6422 14.7245 40.6691 14.9628 40.6466 15.1991C40.6696 15.4355 40.6429 15.6742 40.5684 15.8997C40.4938 16.1253 40.373 16.3327 40.2136 16.5086C40.0543 16.6846 39.86 16.8252 39.6432 16.9214C39.4264 17.0176 39.1919 17.0673 38.9547 17.0673C38.7176 17.0673 38.4831 17.0176 38.2663 16.9214C38.0495 16.8252 37.8552 16.6846 37.6959 16.5086C37.5365 16.3327 37.4157 16.1253 37.3411 15.8997C37.2666 15.6742 37.2399 15.4355 37.2629 15.1991ZM39.9183 15.1991C39.9183 14.4199 39.569 13.9642 38.9559 13.9642C38.3405 13.9642 37.9943 14.4199 37.9943 15.1991C37.9943 15.9845 38.3405 16.4366 38.9559 16.4366C39.569 16.4366 39.9183 15.9814 39.9183 15.1991H39.9183Z" fill="white"/>
<path id="Vector_11" d="M45.1429 16.9982H44.4085L43.667 14.3507H43.611L42.8726 16.9982H42.1451L41.1562 13.4036H41.8744L42.517 16.1465H42.57L43.3075 13.4036H43.9868L44.7244 16.1465H44.7804L45.4199 13.4036H46.1279L45.1429 16.9982Z" fill="white"/>
<path id="Vector_12" d="M46.96 13.4035H47.6415V13.9745H47.6944C47.7842 13.7694 47.9356 13.5975 48.1275 13.4827C48.3194 13.3679 48.5423 13.316 48.765 13.3341C48.9396 13.321 49.1149 13.3473 49.2779 13.4113C49.4409 13.4752 49.5874 13.5751 49.7067 13.7035C49.8259 13.8319 49.9148 13.9855 49.9668 14.153C50.0187 14.3205 50.0324 14.4976 50.0068 14.6711V16.998H49.2988V14.8492C49.2988 14.2715 49.0482 13.9843 48.5246 13.9843C48.4061 13.9787 48.2878 13.999 48.1778 14.0435C48.0678 14.0881 47.9687 14.156 47.8874 14.2425C47.806 14.329 47.7443 14.4321 47.7064 14.5448C47.6685 14.6575 47.6554 14.777 47.668 14.8952V16.9981H46.96L46.96 13.4035Z" fill="white"/>
<path id="Vector_13" d="M51.1367 12H51.8447V16.9978H51.1367V12Z" fill="white"/>
<path id="Vector_14" d="M52.8273 15.1991C52.8048 14.9629 52.8318 14.7245 52.9066 14.4994C52.9813 14.2742 53.1023 14.0671 53.2616 13.8915C53.4209 13.7159 53.6151 13.5756 53.8317 13.4796C54.0483 13.3836 54.2825 13.334 54.5194 13.334C54.7562 13.334 54.9905 13.3836 55.2071 13.4796C55.4237 13.5756 55.6179 13.7159 55.7772 13.8915C55.9365 14.0671 56.0574 14.2742 56.1322 14.4994C56.207 14.7245 56.234 14.9629 56.2114 15.1991C56.2344 15.4356 56.2077 15.6743 56.1331 15.8998C56.0585 16.1253 55.9377 16.3328 55.7783 16.5087C55.619 16.6846 55.4246 16.8252 55.2078 16.9215C54.991 17.0177 54.7565 17.0674 54.5194 17.0674C54.2822 17.0674 54.0477 17.0177 53.8309 16.9215C53.6141 16.8252 53.4198 16.6846 53.2604 16.5087C53.1011 16.3328 52.9802 16.1253 52.9056 15.8998C52.831 15.6743 52.8044 15.4356 52.8273 15.1991ZM55.4828 15.1991C55.4828 14.42 55.1334 13.9643 54.5203 13.9643C53.9049 13.9643 53.5587 14.42 53.5587 15.1991C53.5587 15.9846 53.9049 16.4367 54.5203 16.4367C55.1334 16.4367 55.4828 15.9814 55.4828 15.1991H55.4828Z" fill="white"/>
<path id="Vector_15" d="M56.957 15.9814C56.957 15.3344 57.4379 14.9613 58.2914 14.9083L59.2631 14.8522V14.5419C59.2631 14.1623 59.0126 13.9479 58.5287 13.9479C58.1334 13.9479 57.8596 14.0933 57.781 14.3474H57.0955C57.1679 13.73 57.7475 13.334 58.5614 13.334C59.4608 13.334 59.9681 13.7826 59.9681 14.5419V16.998H59.2865V16.4928H59.2305C59.1168 16.674 58.9571 16.8217 58.7678 16.9209C58.5785 17.02 58.3663 17.0671 58.1529 17.0572C58.0023 17.0729 57.8501 17.0568 57.706 17.0099C57.562 16.9631 57.4294 16.8865 57.3167 16.7851C57.2041 16.6838 57.1139 16.5599 57.0519 16.4215C56.9899 16.283 56.9576 16.1331 56.957 15.9814ZM59.2631 15.6742V15.3737L58.3871 15.4299C57.893 15.463 57.6689 15.6314 57.6689 15.9483C57.6689 16.2718 57.949 16.46 58.3342 16.46C58.447 16.4715 58.561 16.4601 58.6694 16.4265C58.7778 16.3929 58.8783 16.3378 58.9649 16.2645C59.0516 16.1911 59.1227 16.1011 59.1739 15.9997C59.2251 15.8983 59.2555 15.7876 59.2631 15.6742Z" fill="white"/>
<path id="Vector_16" d="M60.8994 15.199C60.8994 14.0631 61.4822 13.3436 62.3886 13.3436C62.6128 13.3332 62.8353 13.3871 63.0301 13.4987C63.2249 13.6104 63.384 13.7753 63.4887 13.9742H63.5417V12H64.2497V16.9978H63.5712V16.4299H63.5152C63.4024 16.6275 63.2378 16.7903 63.0392 16.9009C62.8406 17.0114 62.6156 17.0654 62.3886 17.0571C61.4759 17.0571 60.8994 16.3375 60.8994 15.199ZM61.6308 15.199C61.6308 15.9614 61.9895 16.4202 62.5894 16.4202C63.1861 16.4202 63.5549 15.9548 63.5549 15.2021C63.5549 14.4529 63.1822 13.9809 62.5894 13.9809C61.9933 13.9809 61.6308 14.4428 61.6308 15.199H61.6308Z" fill="white"/>
<path id="Vector_17" d="M67.1779 15.1991C67.1554 14.9628 67.1823 14.7245 67.2571 14.4993C67.3319 14.2742 67.4528 14.0671 67.6121 13.8915C67.7714 13.7159 67.9655 13.5756 68.1821 13.4796C68.3987 13.3836 68.6329 13.334 68.8698 13.334C69.1066 13.334 69.3408 13.3836 69.5574 13.4796C69.774 13.5756 69.9682 13.7159 70.1275 13.8915C70.2868 14.0671 70.4077 14.2742 70.4824 14.4993C70.5572 14.7245 70.5842 14.9628 70.5616 15.1991C70.5846 15.4355 70.558 15.6742 70.4834 15.8997C70.4088 16.1253 70.288 16.3327 70.1287 16.5086C69.9693 16.6846 69.775 16.8252 69.5582 16.9214C69.3414 17.0176 69.1069 17.0673 68.8698 17.0673C68.6327 17.0673 68.3982 17.0176 68.1814 16.9214C67.9645 16.8252 67.7702 16.6846 67.6109 16.5086C67.4516 16.3327 67.3307 16.1253 67.2562 15.8997C67.1816 15.6742 67.1549 15.4355 67.1779 15.1991ZM69.8334 15.1991C69.8334 14.4199 69.484 13.9642 68.8709 13.9642C68.2555 13.9642 67.9093 14.4199 67.9093 15.1991C67.9093 15.9845 68.2555 16.4366 68.8709 16.4366C69.484 16.4366 69.8334 15.9814 69.8334 15.1991Z" fill="white"/>
<path id="Vector_18" d="M71.5117 13.4035H72.1933V13.9745H72.2462C72.336 13.7694 72.4873 13.5975 72.6792 13.4827C72.8711 13.3679 73.094 13.316 73.3168 13.3341C73.4913 13.321 73.6666 13.3473 73.8296 13.4113C73.9926 13.4752 74.1392 13.5751 74.2584 13.7035C74.3777 13.8319 74.4666 13.9855 74.5185 14.153C74.5705 14.3205 74.5842 14.4976 74.5585 14.6711V16.998H73.8505V14.8492C73.8505 14.2715 73.6 13.9843 73.0764 13.9843C72.9579 13.9787 72.8395 13.999 72.7295 14.0435C72.6196 14.0881 72.5205 14.156 72.4391 14.2425C72.3578 14.329 72.296 14.4321 72.2582 14.5448C72.2203 14.6575 72.2072 14.777 72.2197 14.8952V16.9981H71.5117V13.4035Z" fill="white"/>
<path id="Vector_19" d="M78.5596 12.5085V13.4199H79.3368V14.0174H78.5596V15.8658C78.5596 16.2423 78.7144 16.4072 79.0669 16.4072C79.1571 16.4069 79.2472 16.4014 79.3368 16.3908V16.9817C79.2097 17.0045 79.0809 17.0166 78.9517 17.018C78.1643 17.018 77.8508 16.7404 77.8508 16.0474V14.0174H77.2812V13.4198H77.8508V12.5085H78.5596Z" fill="white"/>
<path id="Vector_20" d="M80.3047 12H81.0065V13.9809H81.0625C81.1566 13.7739 81.3121 13.601 81.5079 13.4857C81.7037 13.3705 81.9301 13.3186 82.1564 13.337C82.33 13.3275 82.5036 13.3565 82.6648 13.422C82.826 13.4875 82.9707 13.5879 83.0887 13.7158C83.2067 13.8438 83.2951 13.9964 83.3475 14.1625C83.3999 14.3287 83.4151 14.5043 83.3919 14.677V16.9978H82.6832V14.8521C82.6832 14.2779 82.4163 13.9871 81.916 13.9871C81.7944 13.9771 81.672 13.9939 81.5574 14.0362C81.4429 14.0786 81.3389 14.1455 81.2529 14.2323C81.1668 14.3191 81.1008 14.4237 81.0593 14.5388C81.0178 14.6538 81.0019 14.7766 81.0127 14.8984V16.9978H80.3047L80.3047 12Z" fill="white"/>
<path id="Vector_21" d="M87.521 16.0275C87.4248 16.356 87.2164 16.6402 86.9322 16.8303C86.648 17.0204 86.3062 17.1043 85.9665 17.0674C85.7301 17.0736 85.4952 17.0283 85.2781 16.9345C85.061 16.8406 84.8669 16.7006 84.7092 16.5241C84.5515 16.3476 84.4341 16.1388 84.365 15.9122C84.296 15.6856 84.2769 15.4467 84.3092 15.212C84.2778 14.9766 84.2971 14.7372 84.366 14.5099C84.4349 14.2827 84.5518 14.0729 84.7086 13.8949C84.8655 13.7168 85.0587 13.5746 85.2752 13.4778C85.4916 13.381 85.7263 13.332 85.9634 13.334C86.9616 13.334 87.5638 14.0174 87.5638 15.1461V15.3937H85.0305V15.4334C85.0194 15.5653 85.0359 15.6981 85.0791 15.8233C85.1222 15.9484 85.1909 16.0631 85.2809 16.1601C85.3708 16.257 85.48 16.3341 85.6014 16.3863C85.7229 16.4385 85.8538 16.4647 85.9859 16.4632C86.1553 16.4836 86.3269 16.453 86.4788 16.3754C86.6308 16.2978 86.7563 16.1767 86.8394 16.0274L87.521 16.0275ZM85.0305 14.869H86.8425C86.8515 14.7484 86.8351 14.6272 86.7945 14.5133C86.7539 14.3993 86.69 14.2952 86.6068 14.2075C86.5236 14.1198 86.4231 14.0505 86.3116 14.004C86.2001 13.9576 86.0802 13.935 85.9594 13.9378C85.837 13.9363 85.7155 13.9593 85.602 14.0056C85.4886 14.0518 85.3856 14.1204 85.299 14.2072C85.2124 14.2939 85.1441 14.3972 85.0979 14.5109C85.0518 14.6246 85.0289 14.7463 85.0305 14.869H85.0305Z" fill="white"/>
</g>
</g>
</g>
<rect x="0.5" y="0.5" width="110" height="43" rx="8.5" stroke="white" stroke-opacity="0.12"/>
</g>
</svg>
