<svg width="152" height="40" viewBox="0 0 152 40" fill="none" xmlns="http://www.w3.org/2000/svg">
<rect width="152" height="40" rx="6" fill="#121C25"/>
<path d="M24.2892 19.9078C24.2998 19.0893 24.5172 18.2868 24.9212 17.5749C25.3253 16.863 25.9029 16.2649 26.6002 15.8361C26.1572 15.2035 25.5728 14.6828 24.8934 14.3155C24.2139 13.9482 23.4582 13.7444 22.6863 13.7202C21.0395 13.5474 19.4431 14.7056 18.6039 14.7056C17.7486 14.7056 16.4566 13.7374 15.0653 13.766C14.1654 13.7951 13.2883 14.0568 12.5196 14.5256C11.7509 14.9944 11.1168 15.6543 10.6789 16.4411C8.78237 19.7247 10.197 24.5505 12.0138 27.2047C12.9228 28.5044 13.9851 29.9562 15.3751 29.9047C16.7353 29.8483 17.2433 29.0374 18.8852 29.0374C20.5119 29.0374 20.9885 29.9047 22.4067 29.872C23.8663 29.8483 24.7859 28.5665 25.6629 27.2545C26.316 26.3284 26.8186 25.3049 27.152 24.2219C26.304 23.8632 25.5804 23.2629 25.0713 22.4957C24.5622 21.7286 24.2902 20.8285 24.2892 19.9078Z" fill="white"/>
<path d="M21.6105 11.9748C22.4063 11.0195 22.7984 9.79152 22.7034 8.55176C21.4876 8.67946 20.3645 9.26055 19.5579 10.1792C19.1636 10.6281 18.8615 11.1502 18.6691 11.7158C18.4766 12.2814 18.3976 12.8794 18.4364 13.4756C19.0445 13.4818 19.6461 13.35 20.1959 13.0901C20.7457 12.8301 21.2294 12.4488 21.6105 11.9748Z" fill="white"/>
<path d="M41.4833 26.6142H36.8415L35.7268 29.9057H33.7607L38.1574 17.728H40.2001L44.5967 29.9057H42.5971L41.4833 26.6142ZM37.3223 25.0953H41.0017L39.1878 19.7535H39.1371L37.3223 25.0953Z" fill="white"/>
<path d="M54.0918 25.4679C54.0918 28.2269 52.6151 29.9995 50.3866 29.9995C49.8221 30.029 49.2607 29.899 48.7666 29.6243C48.2726 29.3496 47.8659 28.9413 47.5931 28.4462H47.5509V32.8437H45.7285V21.0281H47.4926V22.5048H47.5261C47.8114 22.0121 48.225 21.6059 48.7228 21.3295C49.2206 21.0531 49.784 20.9169 50.3531 20.9352C52.6064 20.9352 54.0918 22.7165 54.0918 25.4679ZM52.2186 25.4679C52.2186 23.6703 51.2897 22.4886 49.8723 22.4886C48.4799 22.4886 47.5433 23.6952 47.5433 25.4679C47.5433 27.2568 48.4799 28.4548 49.8723 28.4548C51.2897 28.4548 52.2186 27.2817 52.2186 25.4679Z" fill="white"/>
<path d="M63.8633 25.4678C63.8633 28.2269 62.3866 29.9995 60.1581 29.9995C59.5936 30.029 59.0322 29.899 58.5381 29.6243C58.0441 29.3496 57.6374 28.9413 57.3646 28.4461H57.3224V32.8437H55.5V21.0281H57.264V22.5048H57.2975C57.5828 22.0121 57.9964 21.6059 58.4942 21.3295C58.992 21.0531 59.5555 20.9169 60.1245 20.9352C62.378 20.9352 63.8633 22.7165 63.8633 25.4678ZM61.9901 25.4678C61.9901 23.6703 61.0612 22.4886 59.6438 22.4886C58.2514 22.4886 57.3148 23.6952 57.3148 25.4678C57.3148 27.2568 58.2514 28.4548 59.6438 28.4548C61.0612 28.4548 61.9901 27.2817 61.9901 25.4678H61.9901Z" fill="white"/>
<path d="M70.3216 26.5126C70.4566 27.7202 71.6298 28.5131 73.2329 28.5131C74.769 28.5131 75.8741 27.7202 75.8741 26.6313C75.8741 25.6861 75.2076 25.1201 73.6294 24.7323L72.0512 24.3521C69.815 23.812 68.7769 22.7662 68.7769 21.0692C68.7769 18.9681 70.608 17.5249 73.208 17.5249C75.7812 17.5249 77.5452 18.9681 77.6046 21.0692H75.7649C75.6548 19.8539 74.6502 19.1204 73.1821 19.1204C71.714 19.1204 70.7094 19.8626 70.7094 20.9428C70.7094 21.8037 71.3511 22.3103 72.9207 22.6982L74.2624 23.0276C76.7609 23.6185 77.799 24.6221 77.799 26.4034C77.799 28.6816 75.9842 30.1085 73.0978 30.1085C70.3972 30.1085 68.5738 28.7151 68.4561 26.5125L70.3216 26.5126Z" fill="white"/>
<path d="M81.7333 18.9263V21.0274H83.4217V22.4706H81.7333V27.3652C81.7333 28.1256 82.0714 28.4799 82.8135 28.4799C83.014 28.4764 83.2141 28.4623 83.413 28.4377V29.8723C83.0793 29.9347 82.7402 29.9629 82.4008 29.9566C80.6033 29.9566 79.9022 29.2814 79.9022 27.5596V22.4706H78.6113V21.0274H79.9022V18.9263H81.7333Z" fill="white"/>
<path d="M84.3984 25.4673C84.3984 22.6739 86.0437 20.9185 88.6093 20.9185C91.1835 20.9185 92.8211 22.6738 92.8211 25.4673C92.8211 28.2685 91.1921 30.0162 88.6093 30.0162C86.0274 30.0162 84.3984 28.2685 84.3984 25.4673ZM90.9642 25.4673C90.9642 23.5511 90.086 22.4201 88.6093 22.4201C87.1326 22.4201 86.2553 23.5597 86.2553 25.4673C86.2553 27.3913 87.1326 28.5137 88.6093 28.5137C90.086 28.5137 90.9641 27.3913 90.9641 25.4673H90.9642Z" fill="white"/>
<path d="M94.3242 21.028H96.0624V22.5392H96.1045C96.2221 22.0672 96.4986 21.6501 96.8876 21.358C97.2765 21.0659 97.7541 20.9166 98.2401 20.9351C98.4502 20.9344 98.6596 20.9572 98.8645 21.0031V22.7078C98.5994 22.6268 98.3228 22.5896 98.0457 22.5976C97.7809 22.5869 97.517 22.6336 97.272 22.7345C97.027 22.8354 96.8067 22.9881 96.6263 23.1822C96.4459 23.3762 96.3096 23.607 96.2268 23.8587C96.144 24.1104 96.1167 24.3771 96.1466 24.6403V29.9065H94.3242L94.3242 21.028Z" fill="white"/>
<path d="M107.267 27.2984C107.022 28.9101 105.452 30.0162 103.444 30.0162C100.861 30.0162 99.2578 28.2857 99.2578 25.5095C99.2578 22.7246 100.87 20.9185 103.367 20.9185C105.824 20.9185 107.368 22.6059 107.368 25.2978V25.9222H101.097V26.0324C101.069 26.3591 101.109 26.6883 101.217 26.998C101.326 27.3077 101.498 27.5909 101.724 27.8288C101.95 28.0666 102.224 28.2537 102.528 28.3776C102.831 28.5014 103.158 28.5592 103.486 28.5472C103.917 28.5875 104.349 28.4878 104.718 28.2628C105.088 28.0378 105.374 27.6996 105.536 27.2984L107.267 27.2984ZM101.106 24.6485H105.545C105.561 24.3547 105.517 24.0607 105.414 23.785C105.311 23.5092 105.153 23.2576 104.948 23.046C104.744 22.8345 104.498 22.6674 104.226 22.5554C103.954 22.4434 103.661 22.3889 103.367 22.3952C103.07 22.3934 102.776 22.4504 102.502 22.5629C102.227 22.6755 101.977 22.8413 101.767 23.0508C101.557 23.2603 101.39 23.5093 101.277 23.7835C101.163 24.0578 101.105 24.3518 101.106 24.6486V24.6485Z" fill="white"/>
<path d="M37.094 8.5623C37.4761 8.53489 37.8595 8.59261 38.2166 8.7313C38.5736 8.87 38.8955 9.08621 39.1588 9.36435C39.4222 9.64248 39.6206 9.97561 39.7397 10.3397C39.8587 10.7038 39.8955 11.0897 39.8473 11.4698C39.8473 13.3391 38.837 14.4137 37.094 14.4137H34.9805V8.5623H37.094ZM35.8893 13.5861H36.9925C37.2655 13.6025 37.5387 13.5577 37.7923 13.4551C38.0458 13.3525 38.2733 13.1947 38.4581 12.9931C38.643 12.7915 38.7805 12.5513 38.8608 12.2898C38.9411 12.0283 38.9621 11.7523 38.9222 11.4817C38.9592 11.2122 38.9361 10.9378 38.8546 10.6783C38.7731 10.4187 38.6351 10.1804 38.4507 9.98045C38.2663 9.78046 38.0399 9.62375 37.7878 9.52153C37.5357 9.41931 37.2641 9.37412 36.9925 9.38919H35.8893V13.5861Z" fill="white"/>
<path d="M40.8741 12.2038C40.8463 11.9136 40.8795 11.6208 40.9716 11.3442C41.0636 11.0676 41.2124 10.8132 41.4085 10.5975C41.6046 10.3818 41.8436 10.2094 42.1101 10.0915C42.3767 9.97353 42.665 9.9126 42.9565 9.9126C43.2481 9.9126 43.5364 9.97353 43.8029 10.0915C44.0695 10.2094 44.3085 10.3818 44.5046 10.5975C44.7007 10.8132 44.8495 11.0676 44.9415 11.3442C45.0335 11.6208 45.0667 11.9136 45.039 12.2038C45.0673 12.4942 45.0345 12.7874 44.9427 13.0645C44.8509 13.3416 44.7022 13.5963 44.5061 13.8125C44.3099 14.0286 44.0708 14.2014 43.8039 14.3196C43.537 14.4378 43.2484 14.4988 42.9565 14.4988C42.6647 14.4988 42.376 14.4378 42.1092 14.3196C41.8423 14.2014 41.6032 14.0286 41.407 13.8125C41.2109 13.5963 41.0622 13.3416 40.9704 13.0645C40.8786 12.7874 40.8458 12.4942 40.8741 12.2038ZM44.1426 12.2038C44.1426 11.2466 43.7126 10.6868 42.958 10.6868C42.2005 10.6868 41.7743 11.2466 41.7743 12.2038C41.7743 13.1686 42.2005 13.7241 42.958 13.7241C43.7126 13.724 44.1426 13.1648 44.1426 12.2038H44.1426Z" fill="white"/>
<path d="M50.575 14.4128H49.671L48.7583 11.1606H48.6894L47.7806 14.4128H46.8852L45.668 9.99707H46.5519L47.3429 13.3666H47.408L48.3159 9.99707H49.1519L50.0598 13.3666H50.1288L50.916 9.99707H51.7874L50.575 14.4128Z" fill="white"/>
<path d="M52.8115 9.99779H53.6504V10.6993H53.7156C53.826 10.4473 54.0124 10.2361 54.2486 10.0951C54.4848 9.95408 54.7591 9.89026 55.0333 9.91255C55.2482 9.8964 55.4639 9.92879 55.6645 10.0073C55.8652 10.0859 56.0456 10.2086 56.1924 10.3663C56.3391 10.524 56.4486 10.7128 56.5125 10.9185C56.5764 11.1243 56.5933 11.3418 56.5617 11.5549V14.4135H55.6903V11.7738C55.6903 11.0642 55.3819 10.7112 54.7374 10.7112C54.5915 10.7045 54.4459 10.7293 54.3105 10.784C54.1751 10.8388 54.0532 10.9222 53.953 11.0284C53.8529 11.1347 53.7769 11.2614 53.7303 11.3998C53.6837 11.5382 53.6675 11.6851 53.683 11.8303V14.4136H52.8115L52.8115 9.99779Z" fill="white"/>
<path d="M57.9502 8.27393H58.8217V14.4135H57.9502V8.27393Z" fill="white"/>
<path d="M60.0333 12.2038C60.0055 11.9136 60.0387 11.6208 60.1308 11.3442C60.2228 11.0676 60.3717 10.8133 60.5678 10.5975C60.7639 10.3818 61.0029 10.2094 61.2695 10.0915C61.5361 9.97353 61.8244 9.9126 62.1159 9.9126C62.4075 9.9126 62.6958 9.97353 62.9624 10.0915C63.229 10.2094 63.468 10.3818 63.6641 10.5975C63.8602 10.8133 64.009 11.0676 64.1011 11.3442C64.1931 11.6208 64.2264 11.9136 64.1986 12.2038C64.2269 12.4943 64.194 12.7875 64.1022 13.0646C64.0104 13.3416 63.8617 13.5964 63.6655 13.8126C63.4694 14.0287 63.2302 14.2014 62.9633 14.3196C62.6965 14.4378 62.4078 14.4989 62.1159 14.4989C61.8241 14.4989 61.5354 14.4378 61.2686 14.3196C61.0017 14.2014 60.7625 14.0287 60.5664 13.8126C60.3702 13.5964 60.2215 13.3416 60.1297 13.0646C60.0378 12.7875 60.005 12.4943 60.0333 12.2038ZM63.3018 12.2038C63.3018 11.2467 62.8718 10.6869 62.1171 10.6869C61.3596 10.6869 60.9335 11.2467 60.9335 12.2038C60.9335 13.1687 61.3597 13.7241 62.1171 13.7241C62.8718 13.7241 63.3018 13.1649 63.3018 12.2038H63.3018Z" fill="white"/>
<path d="M65.1152 13.1648C65.1152 12.3699 65.7071 11.9117 66.7576 11.8466L67.9537 11.7776V11.3965C67.9537 10.9301 67.6454 10.6668 67.0497 10.6668C66.5632 10.6668 66.2261 10.8454 66.1294 11.1576H65.2857C65.3748 10.3991 66.0882 9.9126 67.0899 9.9126C68.197 9.9126 68.8214 10.4637 68.8214 11.3965V14.4136H67.9825V13.793H67.9135C67.7736 14.0156 67.577 14.1971 67.344 14.3189C67.111 14.4407 66.8498 14.4985 66.5872 14.4864C66.4018 14.5056 66.2144 14.4859 66.0372 14.4283C65.8599 14.3707 65.6967 14.2767 65.558 14.1522C65.4193 14.0276 65.3083 13.8755 65.232 13.7054C65.1557 13.5353 65.116 13.3512 65.1152 13.1648ZM67.9537 12.7875V12.4183L66.8754 12.4873C66.2673 12.528 65.9915 12.7348 65.9915 13.1241C65.9915 13.5215 66.3362 13.7528 66.8103 13.7528C66.9492 13.7669 67.0895 13.7528 67.2229 13.7116C67.3563 13.6703 67.48 13.6026 67.5867 13.5125C67.6934 13.4225 67.7808 13.3119 67.8439 13.1873C67.9069 13.0628 67.9443 12.9268 67.9537 12.7875Z" fill="white"/>
<path d="M69.9668 12.2037C69.9668 10.8084 70.6841 9.92447 71.7998 9.92447C72.0757 9.91175 72.3496 9.97785 72.5894 10.115C72.8292 10.2522 73.025 10.4548 73.1539 10.6992H73.219V8.27393H74.0905V14.4135H73.2554V13.7158H73.1865C73.0476 13.9585 72.845 14.1586 72.6006 14.2944C72.3561 14.4302 72.0792 14.4966 71.7998 14.4863C70.6764 14.4863 69.9668 13.6024 69.9668 12.2037ZM70.867 12.2037C70.867 13.1403 71.3085 13.7039 72.0469 13.7039C72.7814 13.7039 73.2353 13.1322 73.2353 12.2075C73.2353 11.2872 72.7766 10.7074 72.0469 10.7074C71.3133 10.7074 70.867 11.2748 70.867 12.2037H70.867Z" fill="white"/>
<path d="M77.6964 12.2038C77.6686 11.9136 77.7018 11.6208 77.7938 11.3442C77.8859 11.0676 78.0347 10.8132 78.2307 10.5975C78.4268 10.3818 78.6658 10.2094 78.9324 10.0915C79.199 9.97353 79.4873 9.9126 79.7788 9.9126C80.0703 9.9126 80.3586 9.97353 80.6252 10.0915C80.8918 10.2094 81.1308 10.3818 81.3269 10.5975C81.5229 10.8132 81.6718 11.0676 81.7638 11.3442C81.8558 11.6208 81.889 11.9136 81.8612 12.2038C81.8895 12.4942 81.8567 12.7874 81.7649 13.0645C81.6732 13.3416 81.5244 13.5963 81.3283 13.8125C81.1322 14.0286 80.893 14.2014 80.6262 14.3196C80.3593 14.4378 80.0707 14.4988 79.7788 14.4988C79.4869 14.4988 79.1983 14.4378 78.9315 14.3196C78.6646 14.2014 78.4254 14.0286 78.2293 13.8125C78.0332 13.5963 77.8844 13.3416 77.7927 13.0645C77.7009 12.7874 77.6681 12.4942 77.6964 12.2038ZM80.9649 12.2038C80.9649 11.2466 80.5349 10.6868 79.7802 10.6868C79.0227 10.6868 78.5966 11.2466 78.5966 12.2038C78.5966 13.1686 79.0228 13.7241 79.7802 13.7241C80.5349 13.724 80.9649 13.1648 80.9649 12.2038Z" fill="white"/>
<path d="M83.0303 9.99779H83.8692V10.6993H83.9343C84.0448 10.4473 84.2311 10.2361 84.4673 10.0951C84.7035 9.95408 84.9779 9.89026 85.2521 9.91255C85.4669 9.8964 85.6827 9.92879 85.8833 10.0073C86.0839 10.0859 86.2643 10.2086 86.4111 10.3663C86.5579 10.524 86.6673 10.7128 86.7313 10.9185C86.7952 11.1243 86.812 11.3418 86.7805 11.5549V14.4135H85.909V11.7738C85.909 11.0642 85.6006 10.7112 84.9561 10.7112C84.8103 10.7045 84.6646 10.7293 84.5292 10.784C84.3939 10.8388 84.2719 10.9222 84.1718 11.0284C84.0716 11.1347 83.9956 11.2614 83.949 11.3998C83.9024 11.5382 83.8863 11.6851 83.9017 11.8303V14.4136H83.0303V9.99779Z" fill="white"/>
<path d="M91.7053 8.89795V10.0175H92.662V10.7515H91.7053V13.0221C91.7053 13.4847 91.8959 13.6872 92.3297 13.6872C92.4407 13.6869 92.5517 13.6801 92.662 13.6671V14.393C92.5055 14.421 92.3469 14.4359 92.1879 14.4375C91.2188 14.4375 90.8328 14.0966 90.8328 13.2452V10.7515H90.1318V10.0174H90.8328V8.89795H91.7053Z" fill="white"/>
<path d="M93.8535 8.27393H94.7173V10.7073H94.7863C94.9021 10.453 95.0936 10.2406 95.3345 10.0991C95.5754 9.95754 95.8542 9.89372 96.1327 9.91632C96.3464 9.90469 96.5601 9.94037 96.7585 10.0208C96.9568 10.1013 97.135 10.2245 97.2803 10.3818C97.4255 10.539 97.5343 10.7263 97.5988 10.9305C97.6633 11.1346 97.682 11.3504 97.6535 11.5625V14.4135H96.7811V11.7775C96.7811 11.0722 96.4526 10.715 95.8369 10.715C95.6871 10.7027 95.5364 10.7233 95.3954 10.7753C95.2544 10.8274 95.1265 10.9096 95.0206 11.0162C94.9147 11.1228 94.8334 11.2513 94.7823 11.3927C94.7313 11.534 94.7117 11.6848 94.725 11.8345V14.4135H93.8536L93.8535 8.27393Z" fill="white"/>
<path d="M102.734 13.2214C102.615 13.625 102.359 13.9741 102.009 14.2076C101.659 14.4411 101.239 14.5443 100.82 14.4989C100.529 14.5066 100.24 14.4509 99.9731 14.3356C99.7059 14.2204 99.4669 14.0483 99.2729 13.8315C99.0788 13.6146 98.9342 13.3581 98.8492 13.0798C98.7642 12.8015 98.7408 12.508 98.7806 12.2197C98.7418 11.9305 98.7656 11.6364 98.8505 11.3572C98.9353 11.078 99.0791 10.8204 99.2721 10.6016C99.4652 10.3829 99.703 10.2081 99.9694 10.0893C100.236 9.97041 100.525 9.91018 100.817 9.91267C102.045 9.91267 102.786 10.7521 102.786 12.1387V12.4428H99.6683V12.4917C99.6546 12.6537 99.675 12.8168 99.7281 12.9705C99.7812 13.1243 99.8658 13.2652 99.9765 13.3843C100.087 13.5034 100.222 13.598 100.371 13.6622C100.521 13.7263 100.682 13.7585 100.844 13.7567C101.053 13.7817 101.264 13.7442 101.451 13.6489C101.638 13.5535 101.793 13.4047 101.895 13.2214L102.734 13.2214ZM99.6683 11.7983H101.899C101.91 11.6501 101.89 11.5012 101.84 11.3613C101.79 11.2213 101.711 11.0934 101.609 10.9856C101.506 10.8779 101.382 10.7928 101.245 10.7357C101.108 10.6787 100.96 10.651 100.812 10.6544C100.661 10.6525 100.511 10.6808 100.372 10.7376C100.232 10.7944 100.105 10.8786 99.9988 10.9852C99.8922 11.0919 99.8081 11.2187 99.7513 11.3584C99.6946 11.498 99.6663 11.6476 99.6683 11.7983H99.6683Z" fill="white"/>
<rect x="0.490323" y="0.490323" width="151.019" height="39.0194" rx="5.50968" stroke="white" stroke-opacity="0.2" stroke-width="0.980645"/>
</svg>
