<svg width="112" height="38" viewBox="0 0 112 38" fill="none" xmlns="http://www.w3.org/2000/svg">
<g id="Appstore">
<rect width="112" height="38" rx="8" fill="#0C3317"/>
<g id="Group">
<g id="Group_2">
<g id="&#60;Group&#62;">
<g id="&#60;Group&#62;_2">
<g id="&#60;Group&#62;_3">
<path id="&#60;Path&#62;" d="M23.7893 18.4702C23.7978 17.8039 23.9745 17.1506 24.3027 16.5711C24.631 15.9916 25.1002 15.5047 25.6668 15.1557C25.3069 14.6407 24.8321 14.2168 24.2801 13.9178C23.7281 13.6188 23.1141 13.4529 22.4869 13.4333C21.1491 13.2926 19.852 14.2354 19.1703 14.2354C18.4753 14.2354 17.4257 13.4472 16.2953 13.4705C15.5642 13.4942 14.8517 13.7072 14.2272 14.0888C13.6026 14.4705 13.0874 15.0077 12.7317 15.6481C11.1908 18.3211 12.3402 22.2495 13.8162 24.4101C14.5547 25.4681 15.4177 26.6499 16.547 26.608C17.6521 26.5621 18.0649 25.9019 19.3988 25.9019C20.7204 25.9019 21.1076 26.608 22.2598 26.5814C23.4456 26.5621 24.1927 25.5187 24.9053 24.4506C25.4359 23.6968 25.8442 22.8636 26.1151 21.982C25.4261 21.69 24.8382 21.2013 24.4246 20.5768C24.011 19.9523 23.7901 19.2197 23.7893 18.4702Z" fill="white"/>
<path id="&#60;Path&#62;_2" d="M21.613 12.0127C22.2595 11.235 22.578 10.2354 22.5009 9.2262C21.5131 9.33015 20.6007 9.80318 19.9454 10.551C19.625 10.9164 19.3796 11.3414 19.2232 11.8018C19.0669 12.2623 19.0026 12.749 19.0342 13.2344C19.5282 13.2395 20.017 13.1322 20.4637 12.9205C20.9104 12.7089 21.3033 12.3985 21.613 12.0127Z" fill="white"/>
</g>
</g>
<g id="Group_3">
<path id="Vector" d="M37.7614 23.9292H33.9903L33.0846 26.6086H31.4873L35.0593 16.6956H36.7189L40.2909 26.6086H38.6663L37.7614 23.9292ZM34.3808 22.6928H37.3701L35.8965 18.3444H35.8553L34.3808 22.6928Z" fill="white"/>
<path id="Vector_2" d="M48.0046 22.9954C48.0046 25.2413 46.8049 26.6843 44.9944 26.6843C44.5358 26.7083 44.0796 26.6025 43.6783 26.3788C43.2769 26.1552 42.9465 25.8228 42.7248 25.4198H42.6906V28.9996H41.21V19.3813H42.6431V20.5834H42.6704C42.9022 20.1823 43.2382 19.8516 43.6426 19.6266C44.0471 19.4016 44.5048 19.2907 44.9672 19.3057C46.7979 19.3057 48.0046 20.7557 48.0046 22.9954ZM46.4828 22.9954C46.4828 21.5321 45.7281 20.5701 44.5766 20.5701C43.4453 20.5701 42.6844 21.5524 42.6844 22.9954C42.6844 24.4516 43.4453 25.4268 44.5766 25.4268C45.7281 25.4268 46.4828 24.4719 46.4828 22.9954Z" fill="white"/>
<path id="Vector_3" d="M55.9451 22.9956C55.9451 25.2415 54.7453 26.6845 52.9348 26.6845C52.4762 26.7086 52.0201 26.6027 51.6187 26.3791C51.2173 26.1554 50.8869 25.8231 50.6653 25.42H50.631V28.9998H49.1504V19.3815H50.5835V20.5836H50.6108C50.8426 20.1825 51.1786 19.8519 51.583 19.6269C51.9875 19.4019 52.4452 19.291 52.9076 19.3059C54.7383 19.3059 55.9451 20.7559 55.9451 22.9956ZM54.4232 22.9956C54.4232 21.5324 53.6685 20.5704 52.517 20.5704C51.3857 20.5704 50.6248 21.5526 50.6248 22.9956C50.6248 24.4518 51.3857 25.4271 52.517 25.4271C53.6685 25.4271 54.4232 24.4721 54.4232 22.9956H54.4232Z" fill="white"/>
<path id="Vector_4" d="M61.1924 23.8468C61.3021 24.8299 62.2552 25.4753 63.5577 25.4753C64.8056 25.4753 65.7035 24.8298 65.7035 23.9434C65.7035 23.174 65.162 22.7133 63.8798 22.3976L62.5976 22.0881C60.7808 21.6484 59.9374 20.7971 59.9374 19.4157C59.9374 17.7053 61.425 16.5305 63.5374 16.5305C65.628 16.5305 67.0612 17.7053 67.1094 19.4157H65.6148C65.5253 18.4264 64.7091 17.8293 63.5164 17.8293C62.3237 17.8293 61.5075 18.4335 61.5075 19.3128C61.5075 20.0136 62.0288 20.426 63.304 20.7417L64.394 21.0099C66.4239 21.4909 67.2673 22.3079 67.2673 23.7579C67.2673 25.6125 65.793 26.774 63.4479 26.774C61.2538 26.774 59.7725 25.6398 59.6768 23.8467L61.1924 23.8468Z" fill="white"/>
<path id="Vector_5" d="M70.4622 17.6707V19.381H71.8339V20.5558H70.4622V24.5402C70.4622 25.1592 70.7368 25.4476 71.3398 25.4476C71.5027 25.4448 71.6652 25.4333 71.8269 25.4133V26.5811C71.5558 26.6319 71.2802 26.6548 71.0045 26.6497C69.5441 26.6497 68.9746 26.1001 68.9746 24.6984V20.5558H67.9258V19.381H68.9746V17.6707H70.4622Z" fill="white"/>
<path id="Vector_6" d="M72.6289 22.9951C72.6289 20.7211 73.9656 19.2921 76.05 19.2921C78.1413 19.2921 79.4718 20.721 79.4718 22.9951C79.4718 25.2753 78.1483 26.698 76.05 26.698C73.9523 26.698 72.6289 25.2753 72.6289 22.9951ZM77.9632 22.9951C77.9632 21.4351 77.2497 20.5145 76.05 20.5145C74.8502 20.5145 74.1375 21.4422 74.1375 22.9951C74.1375 24.5612 74.8502 25.4749 76.05 25.4749C77.2497 25.4749 77.9631 24.5612 77.9631 22.9951H77.9632Z" fill="white"/>
<path id="Vector_7" d="M80.6934 19.3817H82.1055V20.6118H82.1398C82.2353 20.2276 82.46 19.8881 82.7759 19.6503C83.0919 19.4125 83.4799 19.291 83.8748 19.3061C84.0454 19.3055 84.2156 19.324 84.3821 19.3614V20.7491C84.1667 20.6831 83.942 20.6528 83.7168 20.6594C83.5017 20.6507 83.2873 20.6887 83.0882 20.7708C82.8892 20.8529 82.7102 20.9772 82.5637 21.1352C82.4171 21.2932 82.3064 21.4811 82.2391 21.686C82.1718 21.8909 82.1496 22.1079 82.174 22.3222V26.6091H80.6934L80.6934 19.3817Z" fill="white"/>
<path id="Vector_8" d="M91.2079 24.4856C91.0088 25.7976 89.7335 26.698 88.102 26.698C86.0036 26.698 84.7012 25.2893 84.7012 23.0294C84.7012 20.7624 86.0106 19.2921 88.0398 19.2921C90.0354 19.2921 91.2904 20.6657 91.2904 22.8571V23.3654H86.1958V23.455C86.1723 23.721 86.2055 23.989 86.2933 24.2411C86.3811 24.4932 86.5214 24.7237 86.7049 24.9174C86.8885 25.111 87.111 25.2633 87.3578 25.3641C87.6045 25.4649 87.8699 25.512 88.1362 25.5022C88.4861 25.535 88.8372 25.4538 89.1374 25.2707C89.4375 25.0875 89.6706 24.8122 89.802 24.4856L91.2079 24.4856ZM86.2028 22.3285H89.809C89.8223 22.0894 89.7861 21.85 89.7027 21.6256C89.6193 21.4011 89.4905 21.1963 89.3244 21.024C89.1583 20.8518 88.9584 20.7158 88.7373 20.6247C88.5162 20.5335 88.2788 20.4891 88.0398 20.4942C87.7986 20.4928 87.5596 20.5392 87.3365 20.6308C87.1134 20.7224 86.9106 20.8573 86.7398 21.0279C86.569 21.1984 86.4337 21.4012 86.3415 21.6244C86.2493 21.8476 86.2022 22.087 86.2028 22.3285V22.3285Z" fill="white"/>
</g>
</g>
</g>
<g id="&#60;Group&#62;_4">
<g id="Group_4">
<path id="Vector_9" d="M34.1917 9.23453C34.5022 9.21221 34.8136 9.2592 35.1037 9.3721C35.3938 9.485 35.6553 9.66101 35.8693 9.88742C36.0833 10.1138 36.2444 10.385 36.3412 10.6814C36.4379 10.9778 36.4678 11.292 36.4286 11.6013C36.4286 13.123 35.6078 13.9977 34.1917 13.9977H32.4746V9.23453H34.1917ZM33.213 13.3241H34.1093C34.3311 13.3374 34.5531 13.301 34.759 13.2174C34.965 13.1339 35.1498 13.0055 35.3 12.8414C35.4502 12.6773 35.5619 12.4817 35.6272 12.2688C35.6924 12.056 35.7094 11.8313 35.677 11.611C35.7071 11.3916 35.6883 11.1683 35.6221 10.957C35.5559 10.7457 35.4438 10.5517 35.294 10.3889C35.1442 10.2262 34.9602 10.0986 34.7554 10.0154C34.5506 9.93216 34.3299 9.89538 34.1093 9.90765H33.213V13.3241Z" fill="white"/>
<path id="Vector_10" d="M37.2629 12.1991C37.2403 11.9628 37.2673 11.7245 37.3421 11.4993C37.4168 11.2742 37.5377 11.0671 37.697 10.8915C37.8563 10.7159 38.0505 10.5756 38.2671 10.4796C38.4837 10.3836 38.7179 10.334 38.9547 10.334C39.1916 10.334 39.4258 10.3836 39.6424 10.4796C39.859 10.5756 40.0531 10.7159 40.2124 10.8915C40.3717 11.0671 40.4927 11.2742 40.5674 11.4993C40.6422 11.7245 40.6691 11.9628 40.6466 12.1991C40.6696 12.4355 40.6429 12.6742 40.5684 12.8997C40.4938 13.1253 40.373 13.3327 40.2136 13.5086C40.0543 13.6846 39.86 13.8252 39.6432 13.9214C39.4264 14.0176 39.1919 14.0673 38.9547 14.0673C38.7176 14.0673 38.4831 14.0176 38.2663 13.9214C38.0495 13.8252 37.8552 13.6846 37.6959 13.5086C37.5365 13.3327 37.4157 13.1253 37.3411 12.8997C37.2666 12.6742 37.2399 12.4355 37.2629 12.1991ZM39.9183 12.1991C39.9183 11.4199 39.569 10.9642 38.9559 10.9642C38.3405 10.9642 37.9943 11.4199 37.9943 12.1991C37.9943 12.9845 38.3405 13.4366 38.9559 13.4366C39.569 13.4366 39.9183 12.9814 39.9183 12.1991H39.9183Z" fill="white"/>
<path id="Vector_11" d="M45.1429 13.9982H44.4085L43.667 11.3507H43.611L42.8726 13.9982H42.1451L41.1562 10.4036H41.8744L42.517 13.1465H42.57L43.3075 10.4036H43.9868L44.7244 13.1465H44.7804L45.4199 10.4036H46.1279L45.1429 13.9982Z" fill="white"/>
<path id="Vector_12" d="M46.96 10.4035H47.6415V10.9745H47.6944C47.7842 10.7694 47.9356 10.5975 48.1275 10.4827C48.3194 10.3679 48.5423 10.316 48.765 10.3341C48.9396 10.321 49.1149 10.3473 49.2779 10.4113C49.4409 10.4752 49.5874 10.5751 49.7067 10.7035C49.8259 10.8319 49.9148 10.9855 49.9668 11.153C50.0187 11.3205 50.0324 11.4976 50.0068 11.6711V13.998H49.2988V11.8492C49.2988 11.2715 49.0482 10.9843 48.5246 10.9843C48.4061 10.9787 48.2878 10.999 48.1778 11.0435C48.0678 11.0881 47.9687 11.156 47.8874 11.2425C47.806 11.329 47.7443 11.4321 47.7064 11.5448C47.6685 11.6575 47.6554 11.777 47.668 11.8952V13.9981H46.96L46.96 10.4035Z" fill="white"/>
<path id="Vector_13" d="M51.1367 9H51.8447V13.9978H51.1367V9Z" fill="white"/>
<path id="Vector_14" d="M52.8273 12.1991C52.8048 11.9629 52.8318 11.7245 52.9066 11.4994C52.9813 11.2742 53.1023 11.0671 53.2616 10.8915C53.4209 10.7159 53.6151 10.5756 53.8317 10.4796C54.0483 10.3836 54.2825 10.334 54.5194 10.334C54.7562 10.334 54.9905 10.3836 55.2071 10.4796C55.4237 10.5756 55.6179 10.7159 55.7772 10.8915C55.9365 11.0671 56.0574 11.2742 56.1322 11.4994C56.207 11.7245 56.234 11.9629 56.2114 12.1991C56.2344 12.4356 56.2077 12.6743 56.1331 12.8998C56.0585 13.1253 55.9377 13.3328 55.7783 13.5087C55.619 13.6846 55.4246 13.8252 55.2078 13.9215C54.991 14.0177 54.7565 14.0674 54.5194 14.0674C54.2822 14.0674 54.0477 14.0177 53.8309 13.9215C53.6141 13.8252 53.4198 13.6846 53.2604 13.5087C53.1011 13.3328 52.9802 13.1253 52.9056 12.8998C52.831 12.6743 52.8044 12.4356 52.8273 12.1991ZM55.4828 12.1991C55.4828 11.42 55.1334 10.9643 54.5203 10.9643C53.9049 10.9643 53.5587 11.42 53.5587 12.1991C53.5587 12.9846 53.9049 13.4367 54.5203 13.4367C55.1334 13.4367 55.4828 12.9814 55.4828 12.1991H55.4828Z" fill="white"/>
<path id="Vector_15" d="M56.957 12.9814C56.957 12.3344 57.4379 11.9613 58.2914 11.9083L59.2631 11.8522V11.5419C59.2631 11.1623 59.0126 10.9479 58.5287 10.9479C58.1334 10.9479 57.8596 11.0933 57.781 11.3474H57.0955C57.1679 10.73 57.7475 10.334 58.5614 10.334C59.4608 10.334 59.9681 10.7826 59.9681 11.5419V13.998H59.2865V13.4928H59.2305C59.1168 13.674 58.9571 13.8217 58.7678 13.9209C58.5785 14.02 58.3663 14.0671 58.1529 14.0572C58.0023 14.0729 57.8501 14.0568 57.706 14.0099C57.562 13.9631 57.4294 13.8865 57.3167 13.7851C57.2041 13.6838 57.1139 13.5599 57.0519 13.4215C56.9899 13.283 56.9576 13.1331 56.957 12.9814ZM59.2631 12.6742V12.3737L58.3871 12.4299C57.893 12.463 57.6689 12.6314 57.6689 12.9483C57.6689 13.2718 57.949 13.46 58.3342 13.46C58.447 13.4715 58.561 13.4601 58.6694 13.4265C58.7778 13.3929 58.8783 13.3378 58.9649 13.2645C59.0516 13.1911 59.1227 13.1011 59.1739 12.9997C59.2251 12.8983 59.2555 12.7876 59.2631 12.6742Z" fill="white"/>
<path id="Vector_16" d="M60.8994 12.199C60.8994 11.0631 61.4822 10.3436 62.3886 10.3436C62.6128 10.3332 62.8353 10.3871 63.0301 10.4987C63.2249 10.6104 63.384 10.7753 63.4887 10.9742H63.5417V9H64.2497V13.9978H63.5712V13.4299H63.5152C63.4024 13.6275 63.2378 13.7903 63.0392 13.9009C62.8406 14.0114 62.6156 14.0654 62.3886 14.0571C61.4759 14.0571 60.8994 13.3375 60.8994 12.199ZM61.6308 12.199C61.6308 12.9614 61.9895 13.4202 62.5894 13.4202C63.1861 13.4202 63.5549 12.9548 63.5549 12.2021C63.5549 11.4529 63.1822 10.9809 62.5894 10.9809C61.9933 10.9809 61.6308 11.4428 61.6308 12.199H61.6308Z" fill="white"/>
<path id="Vector_17" d="M67.1779 12.1991C67.1554 11.9628 67.1823 11.7245 67.2571 11.4993C67.3319 11.2742 67.4528 11.0671 67.6121 10.8915C67.7714 10.7159 67.9655 10.5756 68.1821 10.4796C68.3987 10.3836 68.6329 10.334 68.8698 10.334C69.1066 10.334 69.3408 10.3836 69.5574 10.4796C69.774 10.5756 69.9682 10.7159 70.1275 10.8915C70.2868 11.0671 70.4077 11.2742 70.4824 11.4993C70.5572 11.7245 70.5842 11.9628 70.5616 12.1991C70.5846 12.4355 70.558 12.6742 70.4834 12.8997C70.4088 13.1253 70.288 13.3327 70.1287 13.5086C69.9693 13.6846 69.775 13.8252 69.5582 13.9214C69.3414 14.0176 69.1069 14.0673 68.8698 14.0673C68.6327 14.0673 68.3982 14.0176 68.1814 13.9214C67.9645 13.8252 67.7702 13.6846 67.6109 13.5086C67.4516 13.3327 67.3307 13.1253 67.2562 12.8997C67.1816 12.6742 67.1549 12.4355 67.1779 12.1991ZM69.8334 12.1991C69.8334 11.4199 69.484 10.9642 68.8709 10.9642C68.2555 10.9642 67.9093 11.4199 67.9093 12.1991C67.9093 12.9845 68.2555 13.4366 68.8709 13.4366C69.484 13.4366 69.8334 12.9814 69.8334 12.1991Z" fill="white"/>
<path id="Vector_18" d="M71.5117 10.4035H72.1933V10.9745H72.2462C72.336 10.7694 72.4873 10.5975 72.6792 10.4827C72.8711 10.3679 73.094 10.316 73.3168 10.3341C73.4913 10.321 73.6666 10.3473 73.8296 10.4113C73.9926 10.4752 74.1392 10.5751 74.2584 10.7035C74.3777 10.8319 74.4666 10.9855 74.5185 11.153C74.5705 11.3205 74.5842 11.4976 74.5585 11.6711V13.998H73.8505V11.8492C73.8505 11.2715 73.6 10.9843 73.0764 10.9843C72.9579 10.9787 72.8395 10.999 72.7295 11.0435C72.6196 11.0881 72.5205 11.156 72.4391 11.2425C72.3578 11.329 72.296 11.4321 72.2582 11.5448C72.2203 11.6575 72.2072 11.777 72.2197 11.8952V13.9981H71.5117V10.4035Z" fill="white"/>
<path id="Vector_19" d="M78.5596 9.50842V10.4197H79.3368V11.0173H78.5596V12.8656C78.5596 13.2422 78.7144 13.407 79.0669 13.407C79.1571 13.4068 79.2472 13.4013 79.3368 13.3907V13.9816C79.2097 14.0044 79.0809 14.0165 78.9517 14.0178C78.1643 14.0178 77.8508 13.7403 77.8508 13.0473V11.0172H77.2812V10.4197H77.8508V9.50842H78.5596Z" fill="white"/>
<path id="Vector_20" d="M80.3047 9H81.0065V10.9809H81.0625C81.1566 10.7739 81.3121 10.601 81.5079 10.4857C81.7037 10.3705 81.9301 10.3186 82.1564 10.337C82.33 10.3275 82.5036 10.3565 82.6648 10.422C82.826 10.4875 82.9707 10.5879 83.0887 10.7158C83.2067 10.8438 83.2951 10.9964 83.3475 11.1625C83.3999 11.3287 83.4151 11.5043 83.3919 11.677V13.9978H82.6832V11.8521C82.6832 11.2779 82.4163 10.9871 81.916 10.9871C81.7944 10.9771 81.672 10.9939 81.5574 11.0362C81.4429 11.0786 81.3389 11.1455 81.2529 11.2323C81.1668 11.3191 81.1008 11.4237 81.0593 11.5388C81.0178 11.6538 81.0019 11.7766 81.0127 11.8984V13.9978H80.3047L80.3047 9Z" fill="white"/>
<path id="Vector_21" d="M87.521 13.0275C87.4248 13.356 87.2164 13.6402 86.9322 13.8303C86.648 14.0204 86.3062 14.1043 85.9665 14.0674C85.7301 14.0736 85.4952 14.0283 85.2781 13.9345C85.061 13.8406 84.8669 13.7006 84.7092 13.5241C84.5515 13.3476 84.4341 13.1388 84.365 12.9122C84.296 12.6856 84.2769 12.4467 84.3092 12.212C84.2778 11.9766 84.2971 11.7372 84.366 11.5099C84.4349 11.2827 84.5518 11.0729 84.7086 10.8949C84.8655 10.7168 85.0587 10.5746 85.2752 10.4778C85.4916 10.381 85.7263 10.332 85.9634 10.334C86.9616 10.334 87.5638 11.0174 87.5638 12.1461V12.3937H85.0305V12.4334C85.0194 12.5653 85.0359 12.6981 85.0791 12.8233C85.1222 12.9484 85.1909 13.0631 85.2809 13.1601C85.3708 13.257 85.48 13.3341 85.6014 13.3863C85.7229 13.4385 85.8538 13.4647 85.9859 13.4632C86.1553 13.4836 86.3269 13.453 86.4788 13.3754C86.6308 13.2978 86.7563 13.1767 86.8394 13.0274L87.521 13.0275ZM85.0305 11.869H86.8425C86.8515 11.7484 86.8351 11.6272 86.7945 11.5133C86.7539 11.3993 86.69 11.2952 86.6068 11.2075C86.5236 11.1198 86.4231 11.0505 86.3116 11.004C86.2001 10.9576 86.0802 10.935 85.9594 10.9378C85.837 10.9363 85.7155 10.9593 85.602 11.0056C85.4886 11.0518 85.3856 11.1204 85.299 11.2072C85.2124 11.2939 85.1441 11.3972 85.0979 11.5109C85.0518 11.6246 85.0289 11.7463 85.0305 11.869H85.0305Z" fill="white"/>
</g>
</g>
</g>
<rect x="0.5" y="0.5" width="111" height="37" rx="7.5" stroke="white" stroke-opacity="0.12"/>
</g>
</svg>
