<svg width="142" height="52" viewBox="0 0 142 52" fill="none" xmlns="http://www.w3.org/2000/svg">
<g filter="url(#filter0_b_3910_5431)">
<rect width="142" height="52" rx="12" fill="#090E14" fill-opacity="0.4"/>
<path d="M37.1472 25.3643C37.1574 24.5647 37.3694 23.7807 37.7633 23.0853C38.1572 22.3899 38.7203 21.8056 39.4002 21.3868C38.9683 20.7688 38.3985 20.2602 37.7361 19.9014C37.0737 19.5426 36.337 19.3435 35.5844 19.3199C33.9789 19.1511 32.4225 20.2825 31.6044 20.2825C30.7704 20.2825 29.5108 19.3367 28.1544 19.3646C27.2771 19.393 26.422 19.6487 25.6726 20.1066C24.9232 20.5646 24.3049 21.2092 23.878 21.9778C22.029 25.1853 23.4082 29.8994 25.1794 32.4922C26.0656 33.7618 27.1013 35.18 28.4565 35.1297C29.7826 35.0746 30.2779 34.2824 31.8786 34.2824C33.4645 34.2824 33.9291 35.1297 35.3118 35.0977C36.7348 35.0745 37.6313 33.8224 38.4864 32.5408C39.1231 31.6362 39.6131 30.6364 39.9381 29.5784C39.1114 29.228 38.4059 28.6416 37.9096 27.8922C37.4133 27.1428 37.1481 26.2636 37.1472 25.3643Z" fill="white"/>
<path d="M34.5356 17.6153C35.3114 16.6821 35.6937 15.4825 35.6011 14.2715C34.4157 14.3962 33.3208 14.9639 32.5345 15.8613C32.15 16.2997 31.8555 16.8097 31.6679 17.3623C31.4803 17.9148 31.4032 18.4989 31.441 19.0813C32.0339 19.0874 32.6204 18.9586 33.1565 18.7047C33.6925 18.4508 34.164 18.0783 34.5356 17.6153Z" fill="white"/>
<path d="M53.9138 31.9153H49.3883L48.3016 35.1305H46.3848L50.6712 23.2349H52.6627L56.9491 35.1305H54.9996L53.9138 31.9153ZM49.857 30.4316H53.4442L51.6758 25.2134H51.6263L49.857 30.4316Z" fill="white"/>
<path d="M66.2059 30.7946C66.2059 33.4898 64.7662 35.2213 62.5936 35.2213C62.0432 35.2502 61.4959 35.1232 61.0142 34.8548C60.5325 34.5865 60.136 34.1876 59.8701 33.704H59.829V37.9997H58.0522V26.4577H59.7721V27.9002H59.8047C60.0829 27.4189 60.4861 27.0221 60.9714 26.7521C61.4568 26.4821 62.0061 26.349 62.5609 26.367C64.7577 26.367 66.2059 28.107 66.2059 30.7946ZM64.3796 30.7946C64.3796 29.0387 63.474 27.8843 62.0922 27.8843C60.7347 27.8843 59.8215 29.063 59.8215 30.7946C59.8215 32.5421 60.7347 33.7124 62.0922 33.7124C63.474 33.7124 64.3796 32.5664 64.3796 30.7946Z" fill="white"/>
<path d="M75.7342 30.7951C75.7342 33.4902 74.2945 35.2218 72.1219 35.2218C71.5715 35.2507 71.0242 35.1236 70.5425 34.8553C70.0609 34.5869 69.6644 34.1881 69.3984 33.7044H69.3573V38.0002H67.5806V26.4582H69.3004V27.9007H69.333C69.6112 27.4194 70.0144 27.0226 70.4997 26.7526C70.9851 26.4826 71.5344 26.3495 72.0892 26.3674C74.2861 26.3674 75.7342 28.1074 75.7342 30.7951ZM73.908 30.7951C73.908 29.0392 73.0023 27.8848 71.6205 27.8848C70.263 27.8848 69.3499 29.0635 69.3499 30.7951C69.3499 32.5426 70.263 33.7129 71.6205 33.7129C73.0023 33.7129 73.908 32.5669 73.908 30.7951H73.908Z" fill="white"/>
<path d="M82.0312 31.8163C82.1628 32.996 83.3066 33.7705 84.8695 33.7705C86.3671 33.7705 87.4445 32.9959 87.4445 31.9323C87.4445 31.009 86.7947 30.4561 85.256 30.0772L83.7174 29.7058C81.5373 29.1782 80.5252 28.1567 80.5252 26.499C80.5252 24.4465 82.3104 23.0367 84.8452 23.0367C87.3539 23.0367 89.0737 24.4465 89.1316 26.499H87.3381C87.2307 25.3118 86.2513 24.5953 84.82 24.5953C83.3887 24.5953 82.4093 25.3203 82.4093 26.3755C82.4093 27.2165 83.0349 27.7114 84.5651 28.0902L85.8731 28.412C88.3091 28.9892 89.3211 29.9696 89.3211 31.7096C89.3211 33.9351 87.5519 35.329 84.7378 35.329C82.1049 35.329 80.3272 33.9679 80.2124 31.8162L82.0312 31.8163Z" fill="white"/>
<path d="M93.155 24.405V26.4575H94.8011V27.8673H93.155V32.6485C93.155 33.3913 93.4846 33.7374 94.2082 33.7374C94.4036 33.734 94.5987 33.7203 94.7927 33.6963V35.0976C94.4673 35.1585 94.1367 35.1861 93.8058 35.1799C92.0533 35.1799 91.3699 34.5204 91.3699 32.8384V27.8673H90.1113V26.4575H91.3699V24.405H93.155Z" fill="white"/>
<path d="M95.7549 30.7944C95.7549 28.0656 97.3589 26.3508 99.8602 26.3508C102.37 26.3508 103.966 28.0655 103.966 30.7944C103.966 33.5307 102.378 35.2379 99.8602 35.2379C97.343 35.2379 95.7549 33.5307 95.7549 30.7944ZM102.156 30.7944C102.156 28.9225 101.3 27.8177 99.8602 27.8177C98.4205 27.8177 97.5652 28.9309 97.5652 30.7944C97.5652 32.6738 98.4205 33.7702 99.8602 33.7702C101.3 33.7702 102.156 32.6738 102.156 30.7944H102.156Z" fill="white"/>
<path d="M105.432 26.4582H107.127V27.9344H107.168C107.282 27.4734 107.552 27.0659 107.931 26.7806C108.31 26.4952 108.776 26.3493 109.25 26.3675C109.455 26.3668 109.659 26.389 109.859 26.4339V28.0991C109.6 28.0199 109.33 27.9836 109.06 27.9915C108.802 27.981 108.545 28.0266 108.306 28.1252C108.067 28.2237 107.852 28.3729 107.676 28.5625C107.501 28.752 107.368 28.9775 107.287 29.2234C107.206 29.4692 107.18 29.7297 107.209 29.9869V35.1311H105.432L105.432 26.4582Z" fill="white"/>
<path d="M118.05 32.5829C117.811 34.1573 116.281 35.2378 114.323 35.2378C111.805 35.2378 110.242 33.5474 110.242 30.8354C110.242 28.115 111.813 26.3507 114.248 26.3507C116.643 26.3507 118.149 27.999 118.149 30.6287V31.2386H112.035V31.3462C112.007 31.6654 112.047 31.9869 112.152 32.2895C112.258 32.592 112.426 32.8687 112.646 33.101C112.866 33.3334 113.133 33.5161 113.43 33.6371C113.726 33.7581 114.044 33.8146 114.364 33.8028C114.784 33.8422 115.205 33.7448 115.565 33.525C115.925 33.3052 116.205 32.9748 116.363 32.5829L118.05 32.5829ZM112.044 29.9944H116.371C116.387 29.7074 116.344 29.4202 116.244 29.1509C116.144 28.8815 115.989 28.6357 115.79 28.429C115.59 28.2223 115.35 28.0592 115.085 27.9498C114.82 27.8403 114.535 27.7871 114.248 27.7932C113.959 27.7915 113.672 27.8472 113.404 27.9571C113.136 28.067 112.893 28.229 112.688 28.4336C112.483 28.6383 112.321 28.8816 112.21 29.1495C112.099 29.4173 112.043 29.7045 112.044 29.9944V29.9944Z" fill="white"/>
<path d="M49.6304 14.2814C50.0029 14.2546 50.3767 14.311 50.7248 14.4465C51.0729 14.582 51.3867 14.7932 51.6435 15.0649C51.9002 15.3366 52.0936 15.662 52.2097 16.0176C52.3258 16.3733 52.3616 16.7503 52.3147 17.1215C52.3147 18.9476 51.3297 19.9973 49.6304 19.9973H47.5698V14.2814H49.6304ZM48.4559 19.1889H49.5314C49.7976 19.2048 50.064 19.1611 50.3111 19.0609C50.5583 18.9607 50.7801 18.8065 50.9603 18.6096C51.1405 18.4127 51.2746 18.178 51.3529 17.9226C51.4312 17.6672 51.4516 17.3975 51.4127 17.1332C51.4488 16.8699 51.4263 16.6019 51.3468 16.3484C51.2673 16.0948 51.1329 15.862 50.9531 15.6667C50.7733 15.4713 50.5526 15.3183 50.3068 15.2184C50.061 15.1186 49.7962 15.0744 49.5314 15.0891H48.4559V19.1889Z" fill="white"/>
<path d="M53.3158 17.8389C53.2887 17.5555 53.3211 17.2695 53.4108 16.9992C53.5005 16.729 53.6456 16.4806 53.8367 16.2699C54.0279 16.0592 54.2609 15.8908 54.5208 15.7756C54.7807 15.6603 55.0618 15.6008 55.346 15.6008C55.6302 15.6008 55.9113 15.6603 56.1712 15.7756C56.4311 15.8908 56.6641 16.0592 56.8552 16.2699C57.0464 16.4806 57.1915 16.729 57.2812 16.9992C57.3709 17.2695 57.4033 17.5555 57.3762 17.8389C57.4038 18.1227 57.3718 18.4091 57.2823 18.6797C57.1929 18.9504 57.0479 19.1993 56.8567 19.4104C56.6654 19.6216 56.4323 19.7903 56.1721 19.9058C55.9119 20.0212 55.6305 20.0809 55.346 20.0809C55.0614 20.0809 54.78 20.0212 54.5199 19.9058C54.2597 19.7903 54.0265 19.6216 53.8353 19.4104C53.6441 19.1993 53.4991 18.9504 53.4096 18.6797C53.3202 18.4091 53.2882 18.1227 53.3158 17.8389ZM56.5023 17.8389C56.5023 16.9039 56.0831 16.3571 55.3474 16.3571C54.6089 16.3571 54.1934 16.9039 54.1934 17.8389C54.1934 18.7815 54.6089 19.324 55.3474 19.324C56.0831 19.324 56.5023 18.7777 56.5023 17.8389H56.5023Z" fill="white"/>
<path d="M62.7718 19.9979H61.8905L61.0007 16.8209H60.9335L60.0474 19.9979H59.1745L57.9878 15.6843H58.8496L59.6208 18.9758H59.6843L60.5694 15.6843H61.3844L62.2695 18.9758H62.3368L63.1042 15.6843H63.9538L62.7718 19.9979Z" fill="white"/>
<path d="M64.9522 15.6842H65.77V16.3694H65.8335C65.9412 16.1233 66.1229 15.917 66.3532 15.7792C66.5835 15.6415 66.8509 15.5792 67.1182 15.6009C67.3277 15.5851 67.538 15.6168 67.7336 15.6935C67.9293 15.7702 68.1051 15.8901 68.2482 16.0442C68.3913 16.1982 68.498 16.3826 68.5603 16.5836C68.6227 16.7846 68.6391 16.9971 68.6083 17.2053V19.9977H67.7587V17.4191C67.7587 16.7259 67.4581 16.3811 66.8297 16.3811C66.6875 16.3745 66.5455 16.3987 66.4135 16.4522C66.2816 16.5057 66.1627 16.5872 66.065 16.691C65.9674 16.7948 65.8933 16.9186 65.8479 17.0538C65.8024 17.1889 65.7867 17.3324 65.8018 17.4742V19.9977H64.9521L64.9522 15.6842Z" fill="white"/>
<path d="M69.9644 14H70.814V19.9974H69.9644V14Z" fill="white"/>
<path d="M71.993 17.839C71.9659 17.5555 71.9983 17.2695 72.0881 16.9993C72.1778 16.7291 72.3229 16.4806 72.5141 16.2699C72.7053 16.0592 72.9383 15.8908 73.1982 15.7756C73.4581 15.6603 73.7392 15.6008 74.0234 15.6008C74.3077 15.6008 74.5888 15.6603 74.8487 15.7756C75.1086 15.8908 75.3416 16.0592 75.5328 16.2699C75.724 16.4806 75.8691 16.7291 75.9588 16.9993C76.0486 17.2695 76.081 17.5555 76.0539 17.839C76.0815 18.1228 76.0494 18.4092 75.9599 18.6798C75.8704 18.9505 75.7254 19.1994 75.5342 19.4105C75.343 19.6216 75.1098 19.7904 74.8496 19.9058C74.5894 20.0213 74.308 20.0809 74.0234 20.0809C73.7389 20.0809 73.4575 20.0213 73.1973 19.9058C72.9371 19.7904 72.7039 19.6216 72.5127 19.4105C72.3215 19.1994 72.1765 18.9505 72.087 18.6798C71.9974 18.4092 71.9654 18.1228 71.993 17.839ZM75.1795 17.839C75.1795 16.904 74.7603 16.3572 74.0246 16.3572C73.2861 16.3572 72.8706 16.904 72.8706 17.839C72.8706 18.7815 73.2861 19.3241 74.0246 19.3241C74.7603 19.3241 75.1795 18.7778 75.1795 17.839H75.1795Z" fill="white"/>
<path d="M76.9487 18.7777C76.9487 18.0013 77.5257 17.5537 78.5499 17.49L79.7161 17.4227V17.0504C79.7161 16.5948 79.4154 16.3375 78.8347 16.3375C78.3604 16.3375 78.0318 16.512 77.9375 16.817H77.1149C77.2018 16.0761 77.8973 15.6008 78.8739 15.6008C79.9532 15.6008 80.562 16.1392 80.562 17.0504V19.9976H79.7441V19.3914H79.6769C79.5404 19.6089 79.3488 19.7861 79.1216 19.9051C78.8945 20.0241 78.6398 20.0805 78.3838 20.0687C78.203 20.0875 78.0204 20.0682 77.8475 20.012C77.6747 19.9557 77.5156 19.8638 77.3804 19.7422C77.2452 19.6206 77.1369 19.4719 77.0626 19.3058C76.9882 19.1397 76.9494 18.9598 76.9487 18.7777ZM79.7161 18.4092V18.0485L78.6648 18.1159C78.0719 18.1556 77.803 18.3577 77.803 18.738C77.803 19.1262 78.1391 19.3521 78.6013 19.3521C78.7367 19.3659 78.8735 19.3522 79.0036 19.3118C79.1336 19.2715 79.2542 19.2054 79.3582 19.1174C79.4622 19.0294 79.5475 18.9214 79.609 18.7997C79.6705 18.678 79.7069 18.5452 79.7161 18.4092Z" fill="white"/>
<path d="M81.6797 17.8388C81.6797 16.4758 82.379 15.6123 83.4667 15.6123C83.7358 15.5999 84.0028 15.6645 84.2366 15.7985C84.4703 15.9325 84.6612 16.1304 84.7869 16.3691H84.8504V14H85.7V19.9974H84.8859V19.3159H84.8186C84.6833 19.553 84.4857 19.7484 84.2474 19.8811C84.0091 20.0137 83.7391 20.0786 83.4667 20.0685C82.3715 20.0685 81.6797 19.2051 81.6797 17.8388ZM82.5574 17.8388C82.5574 18.7537 82.9878 19.3042 83.7076 19.3042C84.4237 19.3042 84.8663 18.7458 84.8663 17.8425C84.8663 16.9435 84.4191 16.3771 83.7076 16.3771C82.9924 16.3771 82.5573 16.9314 82.5573 17.8388H82.5574Z" fill="white"/>
<path d="M89.2137 17.8389C89.1866 17.5555 89.219 17.2695 89.3087 16.9992C89.3984 16.729 89.5435 16.4806 89.7347 16.2699C89.9258 16.0592 90.1588 15.8908 90.4187 15.7756C90.6787 15.6603 90.9597 15.6008 91.2439 15.6008C91.5281 15.6008 91.8092 15.6603 92.0691 15.7756C92.329 15.8908 92.562 16.0592 92.7532 16.2699C92.9443 16.4806 93.0894 16.729 93.1791 16.9992C93.2689 17.2695 93.3012 17.5555 93.2742 17.8389C93.3017 18.1227 93.2698 18.4091 93.1803 18.6797C93.0908 18.9504 92.9458 19.1993 92.7546 19.4104C92.5634 19.6216 92.3302 19.7903 92.07 19.9058C91.8099 20.0212 91.5285 20.0809 91.2439 20.0809C90.9594 20.0809 90.678 20.0212 90.4178 19.9058C90.1577 19.7903 89.9245 19.6216 89.7333 19.4104C89.5421 19.1993 89.3971 18.9504 89.3076 18.6797C89.2181 18.4091 89.1861 18.1227 89.2137 17.8389ZM92.4003 17.8389C92.4003 16.9039 91.981 16.3571 91.2453 16.3571C90.5068 16.3571 90.0914 16.9039 90.0914 17.8389C90.0914 18.7815 90.5068 19.324 91.2453 19.324C91.9811 19.324 92.4003 18.7777 92.4003 17.8389Z" fill="white"/>
<path d="M94.4146 15.6842H95.2324V16.3694H95.2959C95.4036 16.1233 95.5853 15.917 95.8156 15.7792C96.0459 15.6415 96.3133 15.5792 96.5806 15.6009C96.7901 15.5851 97.0004 15.6168 97.196 15.6935C97.3917 15.7702 97.5675 15.8901 97.7106 16.0442C97.8537 16.1982 97.9604 16.3826 98.0228 16.5836C98.0851 16.7846 98.1015 16.9971 98.0707 17.2053V19.9977H97.2211V17.4191C97.2211 16.7259 96.9205 16.3811 96.2921 16.3811C96.1499 16.3745 96.0079 16.3987 95.8759 16.4522C95.744 16.5057 95.6251 16.5872 95.5274 16.691C95.4298 16.7948 95.3557 16.9186 95.3103 17.0538C95.2648 17.1889 95.2491 17.3324 95.2642 17.4742V19.9977H94.4146V15.6842Z" fill="white"/>
<path d="M102.872 14.6101V15.7037H103.805V16.4207H102.872V18.6388C102.872 19.0906 103.058 19.2885 103.481 19.2885C103.589 19.2881 103.697 19.2816 103.805 19.2688V19.9779C103.652 20.0053 103.497 20.0198 103.342 20.0214C102.398 20.0214 102.021 19.6884 102.021 18.8567V16.4207H101.338V15.7037H102.021V14.6101H102.872Z" fill="white"/>
<path d="M104.966 14H105.808V16.3771H105.875C105.988 16.1287 106.175 15.9212 106.41 15.7829C106.645 15.6446 106.916 15.5823 107.188 15.6044C107.396 15.593 107.605 15.6279 107.798 15.7065C107.991 15.785 108.165 15.9054 108.307 16.059C108.448 16.2126 108.554 16.3956 108.617 16.595C108.68 16.7944 108.698 17.0052 108.671 17.2125V19.9974H107.82V17.4225C107.82 16.7335 107.5 16.3845 106.899 16.3845C106.753 16.3725 106.607 16.3927 106.469 16.4435C106.332 16.4943 106.207 16.5746 106.104 16.6788C106 16.7829 105.921 16.9084 105.871 17.0465C105.822 17.1846 105.803 17.3319 105.815 17.4781V19.9974H104.966L104.966 14Z" fill="white"/>
<path d="M113.625 18.833C113.51 19.2272 113.26 19.5682 112.919 19.7964C112.578 20.0245 112.168 20.1252 111.76 20.0809C111.476 20.0884 111.194 20.034 110.934 19.9214C110.673 19.8088 110.44 19.6408 110.251 19.429C110.062 19.2171 109.921 18.9666 109.838 18.6947C109.755 18.4228 109.733 18.1361 109.771 17.8545C109.734 17.572 109.757 17.2847 109.839 17.012C109.922 16.7393 110.062 16.4876 110.251 16.2739C110.439 16.0602 110.671 15.8895 110.93 15.7734C111.19 15.6573 111.472 15.5985 111.756 15.6009C112.954 15.6009 113.677 16.4209 113.677 17.7754V18.0725H110.637V18.1202C110.623 18.2785 110.643 18.4378 110.695 18.588C110.747 18.7381 110.829 18.8758 110.937 18.9921C111.045 19.1085 111.176 19.2009 111.322 19.2636C111.468 19.3262 111.625 19.3577 111.783 19.3559C111.987 19.3804 112.192 19.3437 112.375 19.2506C112.557 19.1575 112.708 19.0121 112.808 18.833L113.625 18.833ZM110.637 17.4429H112.811C112.822 17.2981 112.802 17.1527 112.754 17.016C112.705 16.8793 112.628 16.7543 112.528 16.649C112.429 16.5438 112.308 16.4606 112.174 16.4049C112.04 16.3492 111.896 16.3221 111.752 16.3254C111.605 16.3236 111.459 16.3512 111.323 16.4067C111.187 16.4622 111.063 16.5445 110.959 16.6486C110.855 16.7528 110.773 16.8767 110.718 17.0131C110.662 17.1495 110.635 17.2956 110.637 17.4429H110.637Z" fill="white"/>
<rect x="0.5" y="0.5" width="141" height="51" rx="11.5" stroke="white" stroke-opacity="0.12"/>
</g>
<defs>
<filter id="filter0_b_3910_5431" x="-20" y="-20" width="182" height="92" filterUnits="userSpaceOnUse" color-interpolation-filters="sRGB">
<feFlood flood-opacity="0" result="BackgroundImageFix"/>
<feGaussianBlur in="BackgroundImageFix" stdDeviation="10"/>
<feComposite in2="SourceAlpha" operator="in" result="effect1_backgroundBlur_3910_5431"/>
<feBlend mode="normal" in="SourceGraphic" in2="effect1_backgroundBlur_3910_5431" result="shape"/>
</filter>
</defs>
</svg>
