<svg xmlns="http://www.w3.org/2000/svg" width="80" height="19" viewBox="0 0 80 19" fill="none">
    <path fill-rule="evenodd" clip-rule="evenodd" d="M79.6499 9.2349L72.5149 2.31556C72.0796 1.89351 71.3735 1.89351 70.9383 2.31556C70.5028 2.73814 70.5028 3.42254 70.9383 3.84458L76.1701 8.91823H42.1148C41.4992 8.91823 41 9.4021 41 9.99942C41 10.5962 41.4992 11.0806 42.1148 11.0806H76.1701L70.9384 16.1542C70.5029 16.5758 70.5029 17.2607 70.9384 17.6827C71.156 17.8935 71.4415 17.9989 71.7268 17.9989C72.0121 17.9989 72.2974 17.8935 72.515 17.6827L79.6499 10.7634C80.0853 10.3419 80.0853 9.65695 79.6499 9.2349Z" fill="#0F2137"/>
</svg>