<svg xmlns="http://www.w3.org/2000/svg" width="80" height="19" viewBox="0 0 80 19" fill="none">
    <path fill-rule="evenodd" clip-rule="evenodd" d="M2.35008 9.23482L9.48499 2.31547C9.92034 1.89343 10.6263 1.89343 11.0617 2.31547C11.4971 2.73805 11.4971 3.42245 11.0617 3.8445L5.82987 8.91814H24.8851C25.5008 8.91814 26 9.40202 26 9.99934C26 10.5961 25.5008 11.0805 24.8851 11.0805H5.82987L11.0615 16.1542C11.4969 16.5757 11.4969 17.2606 11.0615 17.6827C10.8438 17.8934 10.5585 17.9988 10.2731 17.9988C9.98787 17.9988 9.70256 17.8934 9.48488 17.6827L2.35008 10.7633C1.91462 10.3418 1.91462 9.65686 2.35008 9.23482Z" fill="#BBC7D7"/>
</svg>