<svg width="42" height="42" viewBox="0 0 42 42" fill="none" xmlns="http://www.w3.org/2000/svg">
<rect width="42" height="42" rx="21" fill="white"/>
<path d="M26 12.5H16C13 12.5 11 14 11 17.5V24.5C11 28 13 29.5 16 29.5H26C29 29.5 31 28 31 24.5V17.5C31 14 29 12.5 26 12.5ZM26.47 18.59L23.34 21.09C22.68 21.62 21.84 21.88 21 21.88C20.16 21.88 19.31 21.62 18.66 21.09L15.53 18.59C15.21 18.33 15.16 17.85 15.41 17.53C15.67 17.21 16.14 17.15 16.46 17.41L19.59 19.91C20.35 20.52 21.64 20.52 22.4 19.91L25.53 17.41C25.85 17.15 26.33 17.2 26.58 17.53C26.84 17.85 26.79 18.33 26.47 18.59Z" fill="#27A44A"/>
</svg>
