<svg
        width="46"
        height="46"
        viewBox="0 0 46 46"
        fill="none"
        xmlns="http://www.w3.org/2000/svg"
>
    <rect
            width="46"
            height="46"
            rx="23"
            fill="#1877F2"
            fill-opacity="0.12"
    />
    <path
            d="M37 23.0856C37 15.3064 30.7319 9 23 9C15.2681 9 9 15.3063 9 23.0856C9 30.116 14.1196 35.9434 20.8125 37V27.1572H17.2578V23.0856H20.8125V19.9823C20.8125 16.4521 22.9027 14.5022 26.1005 14.5022C27.6322 14.5022 29.2344 14.7773 29.2344 14.7773V18.2436H27.4691C25.7298 18.2436 25.1875 19.3294 25.1875 20.4434V23.0856H29.0703L28.4496 27.1572H25.1875V37C31.8804 35.9434 37 30.1161 37 23.0856Z"
            fill="#1877F2"
    />
</svg>