<svg width="43" height="43" viewBox="0 0 43 43" fill="none" xmlns="http://www.w3.org/2000/svg">
<path id="Forma 1" fill-rule="evenodd" clip-rule="evenodd" d="M40.1186 10.974C38.1959 7.59717 35.5877 4.92296 32.2934 2.95201C28.9982 0.980505 25.4012 -0.00442696 21.4998 -0.00442696C17.5986 -0.00442696 14.0005 0.981022 10.7062 2.95201C7.41152 4.92296 4.8032 7.59717 2.88039 10.974C0.957757 14.3514 -0.00353396 18.0396 -0.00353396 22.0385C-0.00353396 26.8407 1.36346 31.1606 4.09834 34.9966C6.8328 38.8331 10.3654 41.488 14.6958 42.9606C15.1998 43.0563 15.573 42.9891 15.8157 42.7605C16.0583 42.531 16.1796 42.2434 16.1796 41.8993C16.1796 41.8417 16.1748 41.3251 16.1656 40.3498C16.156 39.3735 16.1514 38.5218 16.1514 37.7955L15.5075 37.91C15.0968 37.9864 14.5789 38.0197 13.9534 38.0106C13.3283 38.0014 12.6795 37.9342 12.0076 37.8095C11.3354 37.6853 10.7103 37.3987 10.1315 36.9493C9.55316 36.4993 9.14257 35.9106 8.89996 35.1837L8.61979 34.5229C8.43325 34.0837 8.1395 33.5955 7.73802 33.06C7.33669 32.524 6.93075 32.1606 6.52016 31.9692L6.32412 31.8256C6.19365 31.7299 6.07234 31.6149 5.9602 31.481C5.8483 31.3477 5.7644 31.2127 5.70833 31.0788C5.65235 30.9455 5.69884 30.8348 5.8483 30.7488C5.99785 30.6622 6.26815 30.6197 6.66036 30.6197L7.22008 30.7063C7.5934 30.7821 8.05527 31.0122 8.60607 31.3944C9.15662 31.7773 9.60928 32.2746 9.9639 32.8864C10.3935 33.6713 10.911 34.2692 11.5179 34.681C12.1244 35.0923 12.7359 35.2976 13.3517 35.2976C13.9675 35.2976 14.4994 35.2498 14.9476 35.1547C15.3953 35.0584 15.8154 34.9149 16.2075 34.724C16.3755 33.4412 16.8329 32.4563 17.5793 31.7676C16.5154 31.653 15.5589 31.4799 14.7093 31.2509C13.8603 31.0208 12.9828 30.6482 12.0778 30.1305C11.1722 29.6144 10.4209 28.9735 9.8236 28.2079C9.22647 27.4423 8.7363 26.438 8.35396 25.1944C7.97128 23.9509 7.78004 22.5154 7.78004 20.8891C7.78004 18.5735 8.51747 16.6031 9.99219 14.9762C9.30129 13.2353 9.36667 11.2843 10.188 9.12189C10.7293 8.94931 11.532 9.07889 12.5959 9.5095C13.6599 9.93965 14.439 10.309 14.9339 10.6144C15.4287 10.9197 15.8252 11.1789 16.1239 11.3896C17.8601 10.8918 19.6519 10.6429 21.4998 10.6429C23.3476 10.6429 25.1397 10.8918 26.8765 11.3896L27.9403 10.7004C28.6679 10.2412 29.527 9.82026 30.5157 9.43693C31.505 9.05468 32.2616 8.94931 32.784 9.12189C33.624 11.2843 33.6986 13.2358 33.0079 14.9767C34.4825 16.6036 35.2199 18.5746 35.2199 20.8896C35.2199 22.5165 35.0282 23.9557 34.6459 25.2084C34.263 26.4627 33.769 27.4665 33.1623 28.2224C32.5555 28.9789 31.7993 29.6149 30.8942 30.131C29.9888 30.6482 29.1115 31.0208 28.2621 31.2509C27.4127 31.4804 26.4562 31.6536 25.3924 31.7676C26.3629 32.6288 26.8483 33.9869 26.8483 35.8434V41.8988C26.8483 42.2428 26.965 42.5299 27.1983 42.7589C27.4315 42.9891 27.8 43.0557 28.3041 42.96C32.6347 41.4869 36.1672 38.832 38.9017 34.995C41.6363 31.1595 43.0035 26.8401 43.0035 22.0369C43.0028 18.0391 42.0409 14.3514 40.1186 10.974Z" fill="#EA3A60"/>
</svg>
