<svg width="359" height="328" viewBox="0 0 359 328" fill="none" xmlns="http://www.w3.org/2000/svg">
<path d="M168.371 326.342C174.474 328.553 184.526 328.553 190.629 326.342C242.684 308.099 359 231.996 359 103.007C359 46.0674 314.304 5.07538e-06 259.198 3.7715e-06C226.708 3.00276e-06 197.63 16.2157 179.5 41.2764C161.37 16.2157 132.471 7.72987e-07 99.802 0C44.6955 -1.30388e-06 1.27969e-06 46.0674 0 103.007C-9.29665e-07 144.372 11.9619 180.298 29.9305 210.621C42.4684 184.615 74.5441 132.349 119.459 98.3626C120.531 97.5516 121.642 96.8395 122.789 96.2229C124.305 95.0391 125.862 93.8917 127.459 92.7827C172.92 61.2284 234.215 72.7592 264.366 118.537C294.518 164.316 282.107 227.006 236.647 258.56C232.969 261.113 229.187 263.384 225.327 265.378C212.014 275.562 178.237 293.356 123.802 304.229C140.624 314.699 156.242 322.091 168.371 326.342Z" fill="url(#paint0_linear_2529_4649)" fill-opacity="0.2"/>
<path fill-rule="evenodd" clip-rule="evenodd" d="M132.812 125.459C133.867 124.635 134.95 123.836 136.062 123.065C167.698 101.106 210.454 109.282 231.56 141.327C252.666 173.372 244.129 217.15 212.493 239.109C209.934 240.886 207.301 242.465 204.613 243.85C193.711 252.195 163.064 267.851 112.408 274.261L155.124 233.163L37.2652 278.009L125.828 176.306L66.7842 208.457C74.1672 191.776 97.2455 152.119 130.494 126.948C131.24 126.383 132.013 125.888 132.812 125.459Z" fill="url(#paint1_linear_2529_4649)" fill-opacity="0.2"/>
<defs>
<linearGradient id="paint0_linear_2529_4649" x1="1115.36" y1="-844.26" x2="-214.11" y2="-60.5509" gradientUnits="userSpaceOnUse">
<stop stop-color="white"/>
<stop offset="1" stop-color="white" stop-opacity="0"/>
</linearGradient>
<linearGradient id="paint1_linear_2529_4649" x1="1115.36" y1="-844.26" x2="-214.11" y2="-60.5509" gradientUnits="userSpaceOnUse">
<stop stop-color="white"/>
<stop offset="1" stop-color="white" stop-opacity="0"/>
</linearGradient>
</defs>
</svg>
