<svg width="108" height="30" viewBox="0 0 108 30" fill="none" xmlns="http://www.w3.org/2000/svg">
<path d="M0 6.66666C0 2.98477 2.98477 0 6.66667 0H23.3333C27.0152 0 30 2.98477 30 6.66666V23.3333C30 27.0152 27.0152 30 23.3333 30H6.66667C2.98477 30 0 27.0152 0 23.3333V6.66666Z" fill="white"/>
<path d="M14.3238 24.6166C14.6949 24.7476 15.3062 24.7476 15.6773 24.6166C18.8428 23.536 25.9161 19.0279 25.9161 11.387C25.9161 8.01405 23.1981 5.28516 19.8471 5.28516C17.8713 5.28516 16.103 6.24573 15.0005 7.73024C13.8981 6.24573 12.1407 5.28516 10.154 5.28516C6.80294 5.28516 4.08496 8.01405 4.08496 11.387C4.08496 13.8373 4.81238 15.9655 5.90506 17.7617C6.66751 16.2212 8.61806 13.1251 11.3494 11.1119C11.4146 11.0638 11.4821 11.0216 11.5519 10.9851C11.6441 10.915 11.7387 10.847 11.8359 10.7813C14.6004 8.91214 18.3278 9.59519 20.1614 12.3069C21.9949 15.0187 21.2402 18.7323 18.4757 20.6015C18.252 20.7527 18.0221 20.8872 17.7873 21.0053C16.9777 21.6086 14.9237 22.6627 11.6135 23.3067C12.6365 23.927 13.5862 24.3648 14.3238 24.6166Z" fill="#27A44A"/>
<path fill-rule="evenodd" clip-rule="evenodd" d="M12.1614 12.717C12.2255 12.6682 12.2914 12.6208 12.359 12.5751C14.2828 11.2744 16.8829 11.7587 18.1663 13.6569C19.4498 15.5552 18.9307 18.1485 17.0069 19.4492C16.8512 19.5545 16.6912 19.648 16.5277 19.7301C15.8647 20.2244 14.001 21.1518 10.9206 21.5315L13.5182 19.097L6.35109 21.7536L11.7367 15.729L8.14617 17.6335C8.59514 16.6454 9.99856 14.2962 12.0205 12.8052C12.0658 12.7717 12.1128 12.7424 12.1614 12.717Z" fill="#27A44A"/>
<path d="M47.4329 10.397C50.7196 10.397 53.2503 12.852 53.2503 17.0834V26.0956C53.2503 26.3863 53.0531 26.5801 52.7573 26.5801H49.4049C49.1091 26.5801 48.9119 26.3863 48.9119 26.0956V17.8587C48.9119 15.2423 47.4657 14.3378 45.8881 14.3378C43.4559 14.3378 42.3385 16.6958 42.3385 17.4388V26.0956C42.3385 26.3863 42.1413 26.5801 41.8455 26.5801H38.493C38.1972 26.5801 38 26.3863 38 26.0956V3.48452C38 3.19381 38.1972 3 38.493 3H41.8455C42.1413 3 42.3385 3.19381 42.3385 3.48452V13.3365C43.3902 11.6568 45.0993 10.397 47.4329 10.397Z" fill="white"/>
<path d="M58.4338 7.74832C57.0863 7.74832 56.0345 6.68237 56.0345 5.39031C56.0345 4.09825 57.0863 3.0323 58.4338 3.0323C59.7485 3.0323 60.8003 4.09825 60.8003 5.39031C60.8003 6.68237 59.7485 7.74832 58.4338 7.74832ZM56.2646 11.2369C56.2646 10.9462 56.4618 10.7524 56.7576 10.7524H60.1101C60.4059 10.7524 60.6031 10.9462 60.6031 11.2369V26.0956C60.6031 26.3863 60.4059 26.5801 60.1101 26.5801H56.7576C56.4618 26.5801 56.2646 26.3863 56.2646 26.0956V11.2369Z" fill="white"/>
<path d="M67.5252 15.1777C67.5252 17.7618 75.3476 16.3405 75.3476 22.1548C75.3476 25.2234 72.1595 27 69.2014 27C66.4406 27 64.2056 25.6756 63.0553 24.3513C62.8581 24.1252 62.9238 23.8991 63.0553 23.7052L64.3371 21.9287C64.5343 21.6703 64.7644 21.7349 65.0602 21.961C66.3748 22.8008 67.7881 23.4145 69.0699 23.4145C70.1217 23.4145 71.1406 23.0915 71.1406 22.0902C71.1406 19.5707 63.3511 20.5397 63.3511 15.21C63.3511 12.1736 66.0462 10.397 68.9385 10.397C71.0091 10.397 73.1126 11.2369 74.4601 12.7873C74.6574 13.0135 74.5916 13.2719 74.4273 13.4657L73.1783 15.0808C72.9811 15.3392 72.7511 15.2746 72.4553 15.0485C71.2063 14.2409 70.4504 13.821 69.3 13.821C68.2811 13.821 67.5252 14.3701 67.5252 15.1777Z" fill="white"/>
<path d="M81.5836 15.1777C81.5836 17.7618 89.4059 16.3405 89.4059 22.1548C89.4059 25.2234 86.2178 27 83.2598 27C80.499 27 78.264 25.6756 77.1137 24.3513C76.9165 24.1252 76.9822 23.8991 77.1137 23.7052L78.3955 21.9287C78.5927 21.6703 78.8227 21.7349 79.1185 21.961C80.4332 22.8008 81.8465 23.4145 83.1283 23.4145C84.1801 23.4145 85.199 23.0915 85.199 22.0902C85.199 19.5707 77.4095 20.5397 77.4095 15.21C77.4095 12.1736 80.1046 10.397 82.9969 10.397C85.0675 10.397 87.171 11.2369 88.5185 12.7873C88.7157 13.0135 88.65 13.2719 88.4857 13.4657L87.2367 15.0808C87.0395 15.3392 86.8094 15.2746 86.5136 15.0485C85.2647 14.2409 84.5088 13.821 83.3584 13.821C82.3395 13.821 81.5836 14.3701 81.5836 15.1777Z" fill="white"/>
<path d="M107.507 10.7524C107.803 10.7524 108 10.9462 108 11.2369V26.0956C108 26.3863 107.803 26.5801 107.507 26.5801H104.483C104.187 26.5801 104.023 26.3863 103.99 26.0956L103.859 24.7389C102.708 26.0633 101.098 27 98.9944 27C94.4916 27 91.2049 23.3176 91.2049 18.6985C91.2049 14.0794 94.4916 10.397 98.9944 10.397C101.032 10.397 102.676 11.3661 103.892 12.7227L103.99 11.2369C104.023 10.9462 104.187 10.7524 104.483 10.7524H107.507ZM99.5203 23.1238C101.887 23.1238 103.629 21.0565 103.629 18.6662C103.629 16.2759 101.887 14.2732 99.5203 14.2732C97.121 14.2732 95.379 16.1467 95.379 18.6662C95.379 21.218 97.121 23.1238 99.5203 23.1238Z" fill="white"/>
</svg>
