<svg width="25" height="24" viewBox="0 0 25 24" fill="none" xmlns="http://www.w3.org/2000/svg">
<path d="M14.4931 3.19955L14.4934 3.19974L20.2533 7.22968C20.2533 7.2297 20.2533 7.22972 20.2534 7.22974C20.7226 7.55821 21.1668 8.09677 21.4943 8.72395C21.8217 9.35117 22.01 10.0243 22.01 10.6001V17.3801C22.01 19.6539 20.1638 21.5001 17.89 21.5001H7.10999C4.83754 21.5001 2.98999 19.6453 2.98999 17.3701V10.4701C2.98999 9.93562 3.16038 9.29655 3.45857 8.69092C3.75662 8.08558 4.16106 7.55694 4.58751 7.22431L4.58761 7.22423L9.59624 3.3153C9.59645 3.31513 9.59667 3.31496 9.59689 3.31479C10.9337 2.2795 13.1028 2.22547 14.4931 3.19955ZM12.5 19.2501C13.1861 19.2501 13.75 18.6862 13.75 18.0001V15.0001C13.75 14.3139 13.1861 13.7501 12.5 13.7501C11.8138 13.7501 11.25 14.3139 11.25 15.0001V18.0001C11.25 18.6862 11.8138 19.2501 12.5 19.2501Z" fill="white" stroke="white"/>
</svg>
