<svg width="40" height="40" viewBox="0 0 40 40" fill="none" xmlns="http://www.w3.org/2000/svg">
<g id="instagram 1">
<g id="Group">
<g id="Group_2">
<path id="Vector" d="M25.5 9H14.5C11.4753 9 9 11.4742 9 14.5V25.5C9 28.5247 11.4753 31 14.5 31H25.5C28.5247 31 31 28.5247 31 25.5V14.5C31 11.4742 28.5247 9 25.5 9ZM20 24.5832C17.4683 24.5832 15.4166 22.5305 15.4166 20C15.4166 17.4683 17.4683 15.4166 20 15.4166C22.5305 15.4166 24.5834 17.4683 24.5834 20C24.5834 22.5305 22.5305 24.5832 20 24.5832ZM25.9584 15.4166C25.1983 15.4166 24.5834 14.8008 24.5834 14.0416C24.5834 13.2823 25.1983 12.6666 25.9584 12.6666C26.7185 12.6666 27.3334 13.2823 27.3334 14.0416C27.3334 14.8008 26.7185 15.4166 25.9584 15.4166Z" fill="#0C3317"/>
</g>
</g>
</g>
</svg>
