<svg width="24" height="24" viewBox="0 0 24 24" fill="none" xmlns="http://www.w3.org/2000/svg">
<path d="M15.9601 4.08008H8.04008C5.86227 4.08008 4.08008 5.8615 4.08008 8.04008V15.9601C4.08008 18.1379 5.86227 19.9201 8.04008 19.9201H15.9601C18.1379 19.9201 19.9201 18.1379 19.9201 15.9601V8.04008C19.9201 5.8615 18.1379 4.08008 15.9601 4.08008ZM12.0001 15.2999C10.1773 15.2999 8.70001 13.8221 8.70001 12.0001C8.70001 10.1773 10.1773 8.70001 12.0001 8.70001C13.8221 8.70001 15.3001 10.1773 15.3001 12.0001C15.3001 13.8221 13.8221 15.2999 12.0001 15.2999ZM16.2901 8.70001C15.7429 8.70001 15.3001 8.25668 15.3001 7.71001C15.3001 7.16335 15.7429 6.72001 16.2901 6.72001C16.8374 6.72001 17.2801 7.16335 17.2801 7.71001C17.2801 8.25668 16.8374 8.70001 16.2901 8.70001Z" fill="white"/>
</svg>
