<svg width="16" height="16" viewBox="0 0 16 16" fill="none" xmlns="http://www.w3.org/2000/svg">
<path d="M5.66683 12.6666H5.3335C2.66683 12.6666 1.3335 11.9999 1.3335 8.66659V5.33325C1.3335 2.66659 2.66683 1.33325 5.3335 1.33325H10.6668C13.3335 1.33325 14.6668 2.66659 14.6668 5.33325V8.66659C14.6668 11.3333 13.3335 12.6666 10.6668 12.6666H10.3335C10.1268 12.6666 9.92683 12.7666 9.80016 12.9333L8.80016 14.2666C8.36016 14.8533 7.64016 14.8533 7.20016 14.2666L6.20016 12.9333C6.0935 12.7866 5.84683 12.6666 5.66683 12.6666Z" stroke="#818582" stroke-width="1.5" stroke-miterlimit="10" stroke-linecap="round" stroke-linejoin="round"/>
<path d="M10.6641 7.33333H10.6701" stroke="#818582" stroke-width="1.5" stroke-linecap="round" stroke-linejoin="round"/>
<path d="M7.99715 7.33333H8.00314" stroke="#818582" stroke-width="1.5" stroke-linecap="round" stroke-linejoin="round"/>
<path d="M5.32967 7.33333H5.33566" stroke="#818582" stroke-width="1.5" stroke-linecap="round" stroke-linejoin="round"/>
</svg>
