<svg width="162" height="135" viewBox="0 0 162 135" fill="none" xmlns="http://www.w3.org/2000/svg">
<path d="M81.7382 124C115.823 124 143.457 96.2953 143.457 62C143.457 27.7047 115.823 0 81.7382 0C47.6529 0 20.0195 27.7047 20.0195 62C20.0195 96.2953 47.6529 124 81.7382 124Z" fill="#F6F7F5"/>
<path d="M150.519 36.4927C153.275 36.4927 155.51 34.2524 155.51 31.4888C155.51 28.7252 153.275 26.4849 150.519 26.4849C147.762 26.4849 145.528 28.7252 145.528 31.4888C145.528 34.2524 147.762 36.4927 150.519 36.4927Z" fill="#E5ECDF"/>
<path d="M157.823 16.842C159.706 16.842 161.232 15.312 161.232 13.4246C161.232 11.5373 159.706 10.0073 157.823 10.0073C155.941 10.0073 154.415 11.5373 154.415 13.4246C154.415 15.312 155.941 16.842 157.823 16.842Z" fill="#E5ECDF"/>
<path d="M15.7591 40.0304C17.6416 40.0304 19.1676 38.5005 19.1676 36.6131C19.1676 34.7258 17.6416 33.1958 15.7591 33.1958C13.8766 33.1958 12.3506 34.7258 12.3506 36.6131C12.3506 38.5005 13.8766 40.0304 15.7591 40.0304Z" fill="#E5ECDF"/>
<path d="M22.0899 114.359C25.5859 114.359 28.42 111.518 28.42 108.012C28.42 104.507 25.5859 101.666 22.0899 101.666C18.5939 101.666 15.7598 104.507 15.7598 108.012C15.7598 111.518 18.5939 114.359 22.0899 114.359Z" fill="#E5ECDF"/>
<g filter="url(#filter0_d_3814_4224)">
<path d="M138.953 37.2239H33.4109C31.098 37.2239 29.272 35.3932 29.272 33.0743V9.27509C29.272 6.9562 31.098 5.12549 33.4109 5.12549H138.832C141.145 5.12549 142.971 6.9562 142.971 9.27509V33.0743C143.092 35.3932 141.145 37.2239 138.953 37.2239Z" fill="white"/>
</g>
<rect x="38.043" y="11.5352" width="18.6522" height="18.7442" rx="3" fill="#E5ECDF"/>
<path d="M84.7792 18.4283H61.4065C60.7978 18.4283 60.4326 17.9401 60.4326 17.4519V14.4007C60.4326 13.7905 60.9195 13.4243 61.4065 13.4243H84.7792C85.3879 13.4243 85.7531 13.9125 85.7531 14.4007V17.4519C85.7531 18.0621 85.3879 18.4283 84.7792 18.4283Z" fill="#CDD7C6"/>
<path d="M112.534 28.8018H61.4065C60.7978 28.8018 60.4326 28.3136 60.4326 27.8254V24.7742C60.4326 24.164 60.9195 23.7979 61.4065 23.7979H112.534C113.143 23.7979 113.508 24.286 113.508 24.7742V27.8254C113.508 28.4356 113.021 28.8018 112.534 28.8018Z" fill="#CDD7C6"/>
<g filter="url(#filter1_d_3814_4224)">
<path d="M138.953 117.287H33.4109C31.098 117.287 29.272 115.456 29.272 113.137V89.3381C29.272 87.0192 31.098 85.1885 33.4109 85.1885H138.832C141.145 85.1885 142.971 87.0192 142.971 89.3381V113.137C143.092 115.456 141.145 117.287 138.953 117.287Z" fill="white"/>
</g>
<rect x="35.8916" y="92.2788" width="18.6522" height="18.7442" rx="3" fill="#E5ECDF"/>
<path d="M84.7792 98.6162H61.4065C60.7978 98.6162 60.4326 98.1281 60.4326 97.6399V94.5887C60.4326 93.9785 60.9195 93.6123 61.4065 93.6123H84.7792C85.3879 93.6123 85.7531 94.1005 85.7531 94.5887V97.6399C85.7531 98.1281 85.3879 98.6162 84.7792 98.6162Z" fill="#CDD7C6"/>
<path d="M112.534 108.99H61.4065C60.7978 108.99 60.4326 108.502 60.4326 108.013V104.962C60.4326 104.352 60.9195 103.986 61.4065 103.986H112.534C113.143 103.986 113.508 104.474 113.508 104.962V108.013C113.508 108.502 113.021 108.99 112.534 108.99Z" fill="#CDD7C6"/>
<g filter="url(#filter2_d_3814_4224)">
<path d="M121.06 77.2556H15.6389C13.326 77.2556 11.5 75.4249 11.5 73.106V49.3068C11.5 46.9879 13.326 45.1572 15.6389 45.1572H121.06C123.373 45.1572 125.199 46.9879 125.199 49.3068V73.106C125.32 75.4249 123.373 77.2556 121.06 77.2556Z" fill="white"/>
</g>
<rect x="18.6738" y="51.9067" width="18.6522" height="18.7442" rx="3" fill="#E5ECDF"/>
<path d="M67.0111 58.461H43.6384C43.0297 58.461 42.6646 57.9728 42.6646 57.4846V54.4334C42.6646 53.8232 43.1515 53.457 43.6384 53.457H67.0111C67.6198 53.457 67.985 53.9452 67.985 54.4334V57.4846C67.985 58.0948 67.6198 58.461 67.0111 58.461Z" fill="#CDD7C6"/>
<path d="M94.7663 68.9566H43.6384C43.0297 68.9566 42.6646 68.4684 42.6646 67.9802V64.929C42.6646 64.3188 43.1515 63.9526 43.6384 63.9526H94.6445C95.2532 63.9526 95.6184 64.4408 95.6184 64.929V67.9802C95.7401 68.4684 95.2532 68.9566 94.7663 68.9566Z" fill="#CDD7C6"/>
<path d="M25.4971 62.9741C25.6188 63.0962 25.7405 63.2182 25.8623 63.3403C25.7405 63.2182 25.6188 63.0962 25.4971 62.9741Z" fill="#3973F4"/>
<defs>
<filter id="filter0_d_3814_4224" x="18.1106" y="0.164858" width="136.027" height="54.4215" filterUnits="userSpaceOnUse" color-interpolation-filters="sRGB">
<feFlood flood-opacity="0" result="BackgroundImageFix"/>
<feColorMatrix in="SourceAlpha" type="matrix" values="0 0 0 0 0 0 0 0 0 0 0 0 0 0 0 0 0 0 127 0" result="hardAlpha"/>
<feOffset dy="6.20079"/>
<feGaussianBlur stdDeviation="5.58071"/>
<feColorMatrix type="matrix" values="0 0 0 0 0.397708 0 0 0 0 0.47749 0 0 0 0 0.575 0 0 0 0.17 0"/>
<feBlend mode="normal" in2="BackgroundImageFix" result="effect1_dropShadow_3814_4224"/>
<feBlend mode="normal" in="SourceGraphic" in2="effect1_dropShadow_3814_4224" result="shape"/>
</filter>
<filter id="filter1_d_3814_4224" x="18.1106" y="80.2278" width="136.027" height="54.4215" filterUnits="userSpaceOnUse" color-interpolation-filters="sRGB">
<feFlood flood-opacity="0" result="BackgroundImageFix"/>
<feColorMatrix in="SourceAlpha" type="matrix" values="0 0 0 0 0 0 0 0 0 0 0 0 0 0 0 0 0 0 127 0" result="hardAlpha"/>
<feOffset dy="6.20079"/>
<feGaussianBlur stdDeviation="5.58071"/>
<feColorMatrix type="matrix" values="0 0 0 0 0.397708 0 0 0 0 0.47749 0 0 0 0 0.575 0 0 0 0.17 0"/>
<feBlend mode="normal" in2="BackgroundImageFix" result="effect1_dropShadow_3814_4224"/>
<feBlend mode="normal" in="SourceGraphic" in2="effect1_dropShadow_3814_4224" result="shape"/>
</filter>
<filter id="filter2_d_3814_4224" x="0.338582" y="40.1966" width="136.027" height="54.4215" filterUnits="userSpaceOnUse" color-interpolation-filters="sRGB">
<feFlood flood-opacity="0" result="BackgroundImageFix"/>
<feColorMatrix in="SourceAlpha" type="matrix" values="0 0 0 0 0 0 0 0 0 0 0 0 0 0 0 0 0 0 127 0" result="hardAlpha"/>
<feOffset dy="6.20079"/>
<feGaussianBlur stdDeviation="5.58071"/>
<feColorMatrix type="matrix" values="0 0 0 0 0.397708 0 0 0 0 0.47749 0 0 0 0 0.575 0 0 0 0.17 0"/>
<feBlend mode="normal" in2="BackgroundImageFix" result="effect1_dropShadow_3814_4224"/>
<feBlend mode="normal" in="SourceGraphic" in2="effect1_dropShadow_3814_4224" result="shape"/>
</filter>
</defs>
</svg>
