<svg width="20" height="20" viewBox="0 0 20 20" fill="none" xmlns="http://www.w3.org/2000/svg">
<g id="pawprint 1" clip-path="url(#clip0_2570_3052)">
<path id="Vector" d="M13.374 10.5997C12.474 9.19574 10.9413 8.35742 9.27378 8.35742C7.6063 8.35742 6.07356 9.19574 5.17375 10.5997L3.00517 13.9827C2.64537 14.5439 2.47935 15.1924 2.52498 15.8576C2.5706 16.5229 2.82374 17.1424 3.25694 17.6496C3.69044 18.1563 4.26326 18.5027 4.91343 18.6513C5.56361 18.7999 6.23011 18.7364 6.84077 18.468L6.88166 18.4499C8.41822 17.788 10.1741 17.7941 11.7066 18.468C12.102 18.6418 12.5209 18.7297 12.9435 18.7297C13.1733 18.7297 13.4045 18.7036 13.6335 18.6515C14.2837 18.503 14.8565 18.1566 15.2902 17.6497C15.7235 17.143 15.9768 16.5233 16.0226 15.8579C16.0684 15.1924 15.9024 14.5441 15.5426 13.9826L13.374 10.5997Z" fill="#00B67A"/>
<path id="Vector_2" d="M3.58965 10.5952C4.23479 10.3474 4.7249 9.82753 4.96965 9.13127C5.20265 8.46874 5.18358 7.72075 4.91579 7.02495C4.64784 6.32961 4.16048 5.76198 3.54341 5.42644C2.89522 5.07412 2.18309 5.01674 1.53902 5.265C0.243241 5.7632 -0.351393 7.36446 0.213639 8.83525C0.664994 10.0059 1.7177 10.7449 2.782 10.7449C3.05376 10.7449 3.32628 10.6967 3.58965 10.5952Z" fill="#00B67A"/>
<path id="Vector_3" d="M7.79782 7.94479C9.41769 7.94479 10.7356 6.44333 10.7356 4.59778C10.7356 2.75177 9.41769 1.25 7.79782 1.25C6.1781 1.25 4.86035 2.75177 4.86035 4.59778C4.86035 6.44333 6.1781 7.94479 7.79782 7.94479Z" fill="#00B67A"/>
<path id="Vector_4" d="M12.8712 8.76712H12.8713C13.1205 8.84983 13.3747 8.88935 13.6278 8.88935C14.8092 8.88935 15.9604 8.02951 16.3997 6.7081C16.6527 5.94745 16.6361 5.14316 16.3529 4.44355C16.0566 3.71113 15.5074 3.17951 14.8064 2.94651C14.1053 2.71351 13.3471 2.8107 12.6713 3.21995C12.0257 3.61088 11.531 4.24518 11.2783 5.00583C10.745 6.61045 11.4596 8.29776 12.8712 8.76712Z" fill="#00B67A"/>
<path id="Vector_5" d="M19.0572 8.37644L19.0568 8.37598C17.9397 7.55078 16.269 7.90845 15.3322 9.17371C14.3964 10.4396 14.5428 12.1414 15.6582 12.9672C16.065 13.2686 16.5456 13.4126 17.0376 13.4126C17.895 13.4126 18.787 12.975 19.3833 12.1702C20.319 10.9044 20.1728 9.20255 19.0572 8.37644Z" fill="#00B67A"/>
</g>
<defs>
<clipPath id="clip0_2570_3052">
<rect width="20" height="20" fill="white"/>
</clipPath>
</defs>
</svg>
