<svg width="42" height="42" viewBox="0 0 42 42" fill="none" xmlns="http://www.w3.org/2000/svg">
<rect width="42" height="42" rx="21" fill="white"/>
<path d="M20.05 23.95L18.2 25.8C17.81 26.19 17.19 26.19 16.79 25.81C16.68 25.7 16.57 25.6 16.46 25.49C15.43 24.45 14.5 23.36 13.67 22.22C12.85 21.08 12.19 19.94 11.71 18.81C11.24 17.67 11 16.58 11 15.54C11 14.86 11.12 14.21 11.36 13.61C11.6 13 11.98 12.44 12.51 11.94C13.15 11.31 13.85 11 14.59 11C14.87 11 15.15 11.06 15.4 11.18C15.66 11.3 15.89 11.48 16.07 11.74L18.39 15.01C18.57 15.26 18.7 15.49 18.79 15.71C18.88 15.92 18.93 16.13 18.93 16.32C18.93 16.56 18.86 16.8 18.72 17.03C18.59 17.26 18.4 17.5 18.16 17.74L17.4 18.53C17.29 18.64 17.24 18.77 17.24 18.93C17.24 19.01 17.25 19.08 17.27 19.16C17.3 19.24 17.33 19.3 17.35 19.36C17.53 19.69 17.84 20.12 18.28 20.64C18.73 21.16 19.21 21.69 19.73 22.22C19.83 22.32 19.94 22.42 20.04 22.52C20.44 22.91 20.45 23.55 20.05 23.95Z" fill="#27A44A"/>
<path d="M30.9696 27.33C30.9696 27.61 30.9196 27.9 30.8196 28.18C30.7896 28.26 30.7596 28.34 30.7196 28.42C30.5496 28.78 30.3296 29.12 30.0396 29.44C29.5496 29.98 29.0096 30.37 28.3996 30.62C28.3896 30.62 28.3796 30.63 28.3696 30.63C27.7796 30.87 27.1396 31 26.4496 31C25.4296 31 24.3396 30.76 23.1896 30.27C22.0396 29.78 20.8896 29.12 19.7496 28.29C19.3596 28 18.9696 27.71 18.5996 27.4L21.8696 24.13C22.1496 24.34 22.3996 24.5 22.6096 24.61C22.6596 24.63 22.7196 24.66 22.7896 24.69C22.8696 24.72 22.9496 24.73 23.0396 24.73C23.2096 24.73 23.3396 24.67 23.4496 24.56L24.2096 23.81C24.4596 23.56 24.6996 23.37 24.9296 23.25C25.1596 23.11 25.3896 23.04 25.6396 23.04C25.8296 23.04 26.0296 23.08 26.2496 23.17C26.4696 23.26 26.6996 23.39 26.9496 23.56L30.2596 25.91C30.5196 26.09 30.6996 26.3 30.8096 26.55C30.9096 26.8 30.9696 27.05 30.9696 27.33Z" fill="#27A44A"/>
</svg>
