<svg width="112" height="38" viewBox="0 0 112 38" fill="none" xmlns="http://www.w3.org/2000/svg">
<g id="Playmarket">
<rect width="112" height="38" rx="8" fill="#0C3317"/>
<g id="Group 2087325676">
<g id="Group 2087325675">
<path id="Vector" d="M55.7022 14.7369C55.0435 14.7369 54.4882 14.5049 54.0491 14.0482C53.6136 13.6043 53.3705 12.9923 53.3813 12.3675C53.3813 11.7007 53.6063 11.1363 54.0491 10.6887C54.4864 10.232 55.0417 10 55.7003 10C56.3518 10 56.907 10.232 57.3534 10.6887C57.7961 11.1509 58.0211 11.7154 58.0211 12.3675C58.0139 13.0361 57.7889 13.6006 57.3534 14.0464C56.9161 14.5067 56.3608 14.7369 55.7022 14.7369ZM36.1032 14.7369C35.459 14.7369 34.9001 14.5085 34.4429 14.0573C33.9892 13.6079 33.7588 13.0398 33.7588 12.3694C33.7588 11.6989 33.9892 11.1308 34.4429 10.6814C34.8911 10.2302 35.4499 10.0018 36.1032 10.0018C36.4225 10.0018 36.7328 10.0658 37.0304 10.1955C37.3226 10.3215 37.5603 10.4932 37.7363 10.7033L37.7798 10.7563L37.2881 11.2422L37.2373 11.1819C36.9597 10.8495 36.5877 10.6869 36.0959 10.6869C35.6568 10.6869 35.2739 10.844 34.9582 11.1545C34.6407 11.4669 34.4792 11.8761 34.4792 12.3712C34.4792 12.8662 34.6407 13.2754 34.9582 13.5878C35.2739 13.8984 35.6568 14.0555 36.0959 14.0555C36.5641 14.0555 36.9578 13.8984 37.2645 13.5878C37.446 13.4052 37.5585 13.1494 37.5984 12.8261H36.0215V12.1428H38.2752L38.2843 12.2049C38.3006 12.32 38.3169 12.4388 38.3169 12.5484C38.3169 13.1786 38.1282 13.6883 37.7544 14.0646C37.3298 14.5104 36.7746 14.7369 36.1032 14.7369ZM62.162 14.6401H61.467L59.3385 11.2112L59.3567 11.8286V14.6382H58.6617V10.0986H59.4546L59.4764 10.1334L61.4779 13.3631L61.4597 12.7475V10.0986H62.162V14.6401ZM50.4799 14.6401H49.7758V10.7819H48.5546V10.0986H51.6993V10.7819H50.4781V14.6401H50.4799ZM47.9812 14.6401H47.279V10.0986H47.9812V14.6401ZM44.0346 14.6401H43.3324V10.7819H42.1112V10.0986H45.2558V10.7819H44.0346V14.6401ZM41.6666 14.6328H38.9738V10.0986H41.6666V10.7819H39.6779V12.0277H41.4724V12.7037H39.6779V13.9495H41.6666V14.6328ZM54.5644 13.5787C54.8783 13.8947 55.2594 14.0537 55.7022 14.0537C56.1576 14.0537 56.5296 13.8984 56.8399 13.5787C57.1484 13.2681 57.3044 12.8608 57.3044 12.3694C57.3044 11.8779 57.1483 11.4687 56.8417 11.16C56.5278 10.844 56.1449 10.685 55.704 10.685C55.2485 10.685 54.8765 10.8403 54.5681 11.16C54.2596 11.4706 54.1035 11.8779 54.1035 12.3694C54.1035 12.8608 54.2578 13.27 54.5644 13.5787Z" fill="white"/>
<path id="Vector_2" fill-rule="evenodd" clip-rule="evenodd" d="M53.3164 20.9812C51.6016 20.9812 50.2117 22.291 50.2117 24.0977C50.2117 25.888 51.6107 27.2142 53.3164 27.2142C55.0311 27.2142 56.4211 25.8953 56.4211 24.0977C56.4211 22.291 55.0311 20.9812 53.3164 20.9812ZM53.3164 25.9793C52.3783 25.9793 51.5708 25.1974 51.5708 24.0904C51.5708 22.9669 52.3801 22.2015 53.3164 22.2015C54.2545 22.2015 55.062 22.9669 55.062 24.0904C55.0638 25.2048 54.2545 25.9793 53.3164 25.9793ZM46.5426 20.9812C44.8278 20.9812 43.4379 22.291 43.4379 24.0977C43.4379 25.888 44.8369 27.2142 46.5426 27.2142C48.2574 27.2142 49.6473 25.8953 49.6473 24.0977C49.6473 22.291 48.2556 20.9812 46.5426 20.9812ZM46.5426 25.9793C45.6045 25.9793 44.797 25.1974 44.797 24.0904C44.797 22.9669 45.6063 22.2015 46.5426 22.2015C47.4807 22.2015 48.2882 22.9669 48.2882 24.0904C48.2882 25.2048 47.4807 25.9793 46.5426 25.9793ZM38.4823 21.933V23.2519H41.627C41.5308 23.9918 41.2876 24.538 40.9156 24.9125C40.4547 25.3765 39.7434 25.8807 38.4896 25.8807C36.5571 25.8807 35.0455 24.3096 35.0455 22.3641C35.0455 20.4185 36.5571 18.8475 38.4896 18.8475C39.5329 18.8475 40.2932 19.2622 40.8576 19.7919L41.7866 18.8566C41.0027 18.1003 39.9594 17.5212 38.4968 17.5212C35.8458 17.5212 33.6211 19.6951 33.6211 22.3568C33.6211 25.0257 35.8439 27.1923 38.4968 27.1923C39.9285 27.1923 41.0027 26.721 41.852 25.8332C42.7175 24.9618 42.9915 23.7324 42.9915 22.7404C42.9915 22.4317 42.9679 22.154 42.9189 21.9183H38.4805C38.4823 21.9165 38.4823 21.933 38.4823 21.933ZM71.4511 22.9596C71.1917 22.26 70.4078 20.9739 68.8001 20.9739C67.2069 20.9739 65.8822 22.2362 65.8822 24.0904C65.8822 25.8405 67.1924 27.2069 68.9543 27.2069C70.3697 27.2069 71.1935 26.3355 71.5328 25.824L70.4822 25.1152C70.1338 25.6359 69.6493 25.9775 68.9616 25.9775C68.2666 25.9775 67.7803 25.6596 67.4573 25.033L71.5963 23.3067C71.5963 23.3085 71.4511 22.9596 71.4511 22.9596ZM67.2305 24.0009C67.1978 22.797 68.1595 22.1851 68.8472 22.1851C69.3898 22.1851 69.8416 22.4536 69.9959 22.8445L67.2305 24.0009ZM63.8681 27.0206H65.2272V17.8647H63.8681V27.0206ZM61.6362 21.6736H61.5872C61.2805 21.3064 60.698 20.9739 59.9541 20.9739C58.4099 20.9739 56.9872 22.3422 56.9872 24.0995C56.9872 25.8496 58.4026 27.2014 59.9541 27.2014C60.689 27.2014 61.2805 26.8671 61.5872 26.4926H61.6362V26.9402C61.6362 28.1295 61.0047 28.7707 59.9867 28.7707C59.1538 28.7707 58.6367 28.1678 58.4262 27.6636L57.2449 28.1605C57.5842 28.9826 58.4897 30.0001 59.9849 30.0001C61.5781 30.0001 62.9281 29.0556 62.9281 26.7521V21.1602H61.6434V21.6736C61.6452 21.6736 61.6362 21.6736 61.6362 21.6736ZM60.0756 25.9793C59.1375 25.9793 58.3536 25.1901 58.3536 24.0995C58.3536 22.9998 59.1375 22.2033 60.0756 22.2033C61.0047 22.2033 61.7251 23.0089 61.7251 24.0995C61.7341 25.1901 61.0065 25.9793 60.0756 25.9793ZM77.8148 17.8647H74.5649V27.0206H75.924V23.5533H77.8166C79.3209 23.5533 80.7998 22.4554 80.7998 20.7127C80.7998 18.9699 79.3263 17.8647 77.8148 17.8647ZM77.8547 22.2746H75.9222V19.1325H77.8547C78.8727 19.1325 79.4479 19.9783 79.4479 20.7035C79.4479 21.4215 78.8654 22.2746 77.8547 22.2746ZM86.2471 20.9648C85.26 20.9648 84.242 21.405 83.821 22.3641L85.0259 22.8683C85.2854 22.3641 85.7608 22.1924 86.2634 22.1924C86.9675 22.1924 87.6788 22.6162 87.6951 23.3725V23.4693C87.452 23.3305 86.9185 23.1185 86.2798 23.1185C84.9787 23.1185 83.6595 23.8347 83.6595 25.1774C83.6595 26.4068 84.7265 27.196 85.915 27.196C86.8278 27.196 87.3304 26.7813 87.6443 26.3008H87.6933V27.0096H89.0034V23.5022C89.0034 21.869 87.7985 20.9648 86.2471 20.9648ZM86.0765 25.9793C85.632 25.9793 85.0096 25.7601 85.0096 25.1974C85.0096 24.4886 85.7862 24.2201 86.4485 24.2201C87.0473 24.2201 87.3304 24.3498 87.6861 24.5288C87.5881 25.3509 86.8985 25.972 86.0765 25.9793ZM93.783 21.1602L92.2225 25.1317H92.1735L90.5567 21.1602H89.0941L91.5202 26.7119L90.1375 29.7973H91.5529L95.2854 21.1602H93.783ZM81.5492 27.0206H82.9083V17.8647H81.5492V27.0206Z" fill="white"/>
</g>
<g id="Group 2087325674">
<path id="Vector_3" fill-rule="evenodd" clip-rule="evenodd" d="M11.3321 10.5626C11.1216 10.791 11 11.1399 11 11.5966V27.7948C11 28.2515 11.1216 28.6004 11.3393 28.8196L11.3956 28.869L20.4103 19.7934V19.5907L11.3883 10.5133L11.3321 10.5626Z" fill="url(#paint0_linear_2527_4648)"/>
<path id="Vector_4" fill-rule="evenodd" clip-rule="evenodd" d="M23.411 22.8273L20.4043 19.8003V19.5884L23.411 16.5614L23.4764 16.6016L27.0329 18.6366C28.0509 19.2139 28.0509 20.1675 27.0329 20.7521L23.4764 22.7871L23.411 22.8273Z" fill="url(#paint1_linear_2527_4648)"/>
<path id="Vector_5" fill-rule="evenodd" clip-rule="evenodd" d="M23.4751 22.7873L20.403 19.6946L11.332 28.8267C11.6641 29.1848 12.2212 29.225 12.8436 28.8761L23.4751 22.7873Z" fill="url(#paint2_linear_2527_4648)"/>
<path id="Vector_6" fill-rule="evenodd" clip-rule="evenodd" d="M23.4751 16.6018L12.8436 10.5222C12.2212 10.1642 11.6623 10.2135 11.332 10.5716L20.403 19.6946L23.4751 16.6018Z" fill="url(#paint3_linear_2527_4648)"/>
</g>
</g>
<rect x="0.5" y="0.5" width="111" height="37" rx="7.5" stroke="white" stroke-opacity="0.12"/>
</g>
<defs>
<linearGradient id="paint0_linear_2527_4648" x1="19.6017" y1="11.4218" x2="5.14886" y2="15.247" gradientUnits="userSpaceOnUse">
<stop stop-color="#00A0FF"/>
<stop offset="0.00657" stop-color="#00A1FF"/>
<stop offset="0.2601" stop-color="#00BEFF"/>
<stop offset="0.5122" stop-color="#00D2FF"/>
<stop offset="0.7604" stop-color="#00DFFF"/>
<stop offset="1" stop-color="#00E3FF"/>
</linearGradient>
<linearGradient id="paint1_linear_2527_4648" x1="28.3605" y1="19.6944" x2="10.7538" y2="19.6944" gradientUnits="userSpaceOnUse">
<stop stop-color="#FFE000"/>
<stop offset="0.4087" stop-color="#FFBD00"/>
<stop offset="0.7754" stop-color="#FFA500"/>
<stop offset="1" stop-color="#FF9C00"/>
</linearGradient>
<linearGradient id="paint2_linear_2527_4648" x1="21.8046" y1="21.3775" x2="10.0967" y2="40.9509" gradientUnits="userSpaceOnUse">
<stop stop-color="#FF3A44"/>
<stop offset="1" stop-color="#C31162"/>
</linearGradient>
<linearGradient id="paint3_linear_2527_4648" x1="9.04785" y1="5.17465" x2="14.2713" y2="13.9165" gradientUnits="userSpaceOnUse">
<stop stop-color="#32A071"/>
<stop offset="0.0685" stop-color="#2DA771"/>
<stop offset="0.4762" stop-color="#15CF74"/>
<stop offset="0.8009" stop-color="#06E775"/>
<stop offset="1" stop-color="#00F076"/>
</linearGradient>
</defs>
</svg>
