<svg width="111" height="44" viewBox="0 0 111 44" fill="none" xmlns="http://www.w3.org/2000/svg">
<g id="Playmarket">
<rect width="111" height="44" rx="9" fill="#0C3317"/>
<g id="Group 2087325676">
<g id="Group 2087325675">
<path id="Vector" d="M55.7022 17.7369C55.0435 17.7369 54.4882 17.5049 54.0491 17.0482C53.6136 16.6043 53.3705 15.9923 53.3813 15.3675C53.3813 14.7007 53.6063 14.1363 54.0491 13.6887C54.4864 13.232 55.0417 13 55.7003 13C56.3518 13 56.907 13.232 57.3534 13.6887C57.7961 14.1509 58.0211 14.7154 58.0211 15.3675C58.0139 16.0361 57.7889 16.6006 57.3534 17.0464C56.9161 17.5067 56.3608 17.7369 55.7022 17.7369ZM36.1032 17.7369C35.459 17.7369 34.9001 17.5085 34.4429 17.0573C33.9892 16.6079 33.7588 16.0398 33.7588 15.3694C33.7588 14.6989 33.9892 14.1308 34.4429 13.6814C34.8911 13.2302 35.4499 13.0018 36.1032 13.0018C36.4225 13.0018 36.7328 13.0658 37.0304 13.1955C37.3226 13.3215 37.5603 13.4932 37.7363 13.7033L37.7798 13.7563L37.2881 14.2422L37.2373 14.1819C36.9597 13.8495 36.5877 13.6869 36.0959 13.6869C35.6568 13.6869 35.2739 13.844 34.9582 14.1545C34.6407 14.4669 34.4792 14.8761 34.4792 15.3712C34.4792 15.8662 34.6407 16.2754 34.9582 16.5878C35.2739 16.8984 35.6568 17.0555 36.0959 17.0555C36.5641 17.0555 36.9578 16.8984 37.2645 16.5878C37.446 16.4052 37.5585 16.1494 37.5984 15.8261H36.0215V15.1428H38.2752L38.2843 15.2049C38.3006 15.32 38.3169 15.4388 38.3169 15.5484C38.3169 16.1786 38.1282 16.6883 37.7544 17.0646C37.3298 17.5104 36.7746 17.7369 36.1032 17.7369ZM62.162 17.6401H61.467L59.3385 14.2112L59.3567 14.8286V17.6382H58.6617V13.0986H59.4546L59.4764 13.1334L61.4779 16.3631L61.4597 15.7475V13.0986H62.162V17.6401ZM50.4799 17.6401H49.7758V13.7819H48.5546V13.0986H51.6993V13.7819H50.4781V17.6401H50.4799ZM47.9812 17.6401H47.279V13.0986H47.9812V17.6401ZM44.0346 17.6401H43.3324V13.7819H42.1112V13.0986H45.2558V13.7819H44.0346V17.6401ZM41.6666 17.6328H38.9738V13.0986H41.6666V13.7819H39.6779V15.0277H41.4724V15.7037H39.6779V16.9495H41.6666V17.6328ZM54.5644 16.5787C54.8783 16.8947 55.2594 17.0537 55.7022 17.0537C56.1576 17.0537 56.5296 16.8984 56.8399 16.5787C57.1484 16.2681 57.3044 15.8608 57.3044 15.3694C57.3044 14.8779 57.1483 14.4687 56.8417 14.16C56.5278 13.844 56.1449 13.685 55.704 13.685C55.2485 13.685 54.8765 13.8403 54.5681 14.16C54.2596 14.4706 54.1035 14.8779 54.1035 15.3694C54.1035 15.8608 54.2578 16.27 54.5644 16.5787Z" fill="white"/>
<path id="Vector_2" fill-rule="evenodd" clip-rule="evenodd" d="M53.3164 23.9812C51.6016 23.9812 50.2117 25.291 50.2117 27.0977C50.2117 28.888 51.6107 30.2142 53.3164 30.2142C55.0311 30.2142 56.4211 28.8953 56.4211 27.0977C56.4211 25.291 55.0311 23.9812 53.3164 23.9812ZM53.3164 28.9793C52.3783 28.9793 51.5708 28.1974 51.5708 27.0904C51.5708 25.9669 52.3801 25.2015 53.3164 25.2015C54.2545 25.2015 55.062 25.9669 55.062 27.0904C55.0638 28.2048 54.2545 28.9793 53.3164 28.9793ZM46.5426 23.9812C44.8278 23.9812 43.4379 25.291 43.4379 27.0977C43.4379 28.888 44.8369 30.2142 46.5426 30.2142C48.2574 30.2142 49.6473 28.8953 49.6473 27.0977C49.6473 25.291 48.2556 23.9812 46.5426 23.9812ZM46.5426 28.9793C45.6045 28.9793 44.797 28.1974 44.797 27.0904C44.797 25.9669 45.6063 25.2015 46.5426 25.2015C47.4807 25.2015 48.2882 25.9669 48.2882 27.0904C48.2882 28.2048 47.4807 28.9793 46.5426 28.9793ZM38.4823 24.933V26.2519H41.627C41.5308 26.9918 41.2876 27.538 40.9156 27.9125C40.4547 28.3765 39.7434 28.8807 38.4896 28.8807C36.5571 28.8807 35.0455 27.3096 35.0455 25.3641C35.0455 23.4185 36.5571 21.8475 38.4896 21.8475C39.5329 21.8475 40.2932 22.2622 40.8576 22.7919L41.7866 21.8566C41.0027 21.1003 39.9594 20.5212 38.4968 20.5212C35.8458 20.5212 33.6211 22.6951 33.6211 25.3568C33.6211 28.0257 35.8439 30.1923 38.4968 30.1923C39.9285 30.1923 41.0027 29.721 41.852 28.8332C42.7175 27.9618 42.9915 26.7324 42.9915 25.7404C42.9915 25.4317 42.9679 25.154 42.9189 24.9183H38.4805C38.4823 24.9165 38.4823 24.933 38.4823 24.933ZM71.4511 25.9596C71.1917 25.26 70.4078 23.9739 68.8001 23.9739C67.2069 23.9739 65.8822 25.2362 65.8822 27.0904C65.8822 28.8405 67.1924 30.2069 68.9543 30.2069C70.3697 30.2069 71.1935 29.3355 71.5328 28.824L70.4822 28.1152C70.1338 28.6359 69.6493 28.9775 68.9616 28.9775C68.2666 28.9775 67.7803 28.6596 67.4573 28.033L71.5963 26.3067C71.5963 26.3085 71.4511 25.9596 71.4511 25.9596ZM67.2305 27.0009C67.1978 25.797 68.1595 25.1851 68.8472 25.1851C69.3898 25.1851 69.8416 25.4536 69.9959 25.8445L67.2305 27.0009ZM63.8681 30.0206H65.2272V20.8647H63.8681V30.0206ZM61.6362 24.6736H61.5872C61.2805 24.3064 60.698 23.9739 59.9541 23.9739C58.4099 23.9739 56.9872 25.3422 56.9872 27.0995C56.9872 28.8496 58.4026 30.2014 59.9541 30.2014C60.689 30.2014 61.2805 29.8671 61.5872 29.4926H61.6362V29.9402C61.6362 31.1295 61.0047 31.7707 59.9867 31.7707C59.1538 31.7707 58.6367 31.1678 58.4262 30.6636L57.2449 31.1605C57.5842 31.9826 58.4897 33.0001 59.9849 33.0001C61.5781 33.0001 62.9281 32.0556 62.9281 29.7521V24.1602H61.6434V24.6736C61.6452 24.6736 61.6362 24.6736 61.6362 24.6736ZM60.0756 28.9793C59.1375 28.9793 58.3536 28.1901 58.3536 27.0995C58.3536 25.9998 59.1375 25.2033 60.0756 25.2033C61.0047 25.2033 61.7251 26.0089 61.7251 27.0995C61.7341 28.1901 61.0065 28.9793 60.0756 28.9793ZM77.8148 20.8647H74.5649V30.0206H75.924V26.5533H77.8166C79.3209 26.5533 80.7998 25.4554 80.7998 23.7127C80.7998 21.9699 79.3263 20.8647 77.8148 20.8647ZM77.8547 25.2746H75.9222V22.1325H77.8547C78.8727 22.1325 79.4479 22.9783 79.4479 23.7035C79.4479 24.4215 78.8654 25.2746 77.8547 25.2746ZM86.2471 23.9648C85.26 23.9648 84.242 24.405 83.821 25.3641L85.0259 25.8683C85.2854 25.3641 85.7608 25.1924 86.2634 25.1924C86.9675 25.1924 87.6788 25.6162 87.6951 26.3725V26.4693C87.452 26.3305 86.9185 26.1185 86.2798 26.1185C84.9787 26.1185 83.6595 26.8347 83.6595 28.1774C83.6595 29.4068 84.7265 30.196 85.915 30.196C86.8278 30.196 87.3304 29.7813 87.6443 29.3008H87.6933V30.0096H89.0034V26.5022C89.0034 24.869 87.7985 23.9648 86.2471 23.9648ZM86.0765 28.9793C85.632 28.9793 85.0096 28.7601 85.0096 28.1974C85.0096 27.4886 85.7862 27.2201 86.4485 27.2201C87.0473 27.2201 87.3304 27.3498 87.6861 27.5288C87.5881 28.3509 86.8985 28.972 86.0765 28.9793ZM93.783 24.1602L92.2225 28.1317H92.1735L90.5567 24.1602H89.0941L91.5202 29.7119L90.1375 32.7973H91.5529L95.2854 24.1602H93.783ZM81.5492 30.0206H82.9083V20.8647H81.5492V30.0206Z" fill="white"/>
</g>
<g id="Group 2087325674">
<path id="Vector_3" fill-rule="evenodd" clip-rule="evenodd" d="M11.3321 13.5625C11.1216 13.7909 11 14.1398 11 14.5965V30.7947C11 31.2514 11.1216 31.6003 11.3393 31.8195L11.3956 31.8688L20.4103 22.7933V22.5905L11.3883 13.5132L11.3321 13.5625Z" fill="url(#paint0_linear_2522_4183)"/>
<path id="Vector_4" fill-rule="evenodd" clip-rule="evenodd" d="M23.411 25.8274L20.4043 22.8004V22.5885L23.411 19.5615L23.4764 19.6017L27.0329 21.6368C28.0509 22.214 28.0509 23.1676 27.0329 23.7522L23.4764 25.7873L23.411 25.8274Z" fill="url(#paint1_linear_2522_4183)"/>
<path id="Vector_5" fill-rule="evenodd" clip-rule="evenodd" d="M23.4751 25.7873L20.403 22.6946L11.332 31.8267C11.6641 32.1848 12.2212 32.225 12.8436 31.8761L23.4751 25.7873Z" fill="url(#paint2_linear_2522_4183)"/>
<path id="Vector_6" fill-rule="evenodd" clip-rule="evenodd" d="M23.4751 19.6018L12.8436 13.5222C12.2212 13.1642 11.6623 13.2135 11.332 13.5716L20.403 22.6946L23.4751 19.6018Z" fill="url(#paint3_linear_2522_4183)"/>
</g>
</g>
<rect x="0.5" y="0.5" width="110" height="43" rx="8.5" stroke="white" stroke-opacity="0.12"/>
</g>
<defs>
<linearGradient id="paint0_linear_2522_4183" x1="19.6017" y1="14.4217" x2="5.14886" y2="18.2469" gradientUnits="userSpaceOnUse">
<stop stop-color="#00A0FF"/>
<stop offset="0.00657" stop-color="#00A1FF"/>
<stop offset="0.2601" stop-color="#00BEFF"/>
<stop offset="0.5122" stop-color="#00D2FF"/>
<stop offset="0.7604" stop-color="#00DFFF"/>
<stop offset="1" stop-color="#00E3FF"/>
</linearGradient>
<linearGradient id="paint1_linear_2522_4183" x1="28.3605" y1="22.6945" x2="10.7538" y2="22.6945" gradientUnits="userSpaceOnUse">
<stop stop-color="#FFE000"/>
<stop offset="0.4087" stop-color="#FFBD00"/>
<stop offset="0.7754" stop-color="#FFA500"/>
<stop offset="1" stop-color="#FF9C00"/>
</linearGradient>
<linearGradient id="paint2_linear_2522_4183" x1="21.8046" y1="24.3775" x2="10.0967" y2="43.9509" gradientUnits="userSpaceOnUse">
<stop stop-color="#FF3A44"/>
<stop offset="1" stop-color="#C31162"/>
</linearGradient>
<linearGradient id="paint3_linear_2522_4183" x1="9.04785" y1="8.17465" x2="14.2713" y2="16.9165" gradientUnits="userSpaceOnUse">
<stop stop-color="#32A071"/>
<stop offset="0.0685" stop-color="#2DA771"/>
<stop offset="0.4762" stop-color="#15CF74"/>
<stop offset="0.8009" stop-color="#06E775"/>
<stop offset="1" stop-color="#00F076"/>
</linearGradient>
</defs>
</svg>
