<svg width="142" height="52" viewBox="0 0 142 52" fill="none" xmlns="http://www.w3.org/2000/svg">
<g filter="url(#filter0_b_3910_5463)">
<rect width="142" height="52" rx="12" fill="#090E14" fill-opacity="0.4"/>
<path d="M73.6426 19.6843C72.8522 19.6843 72.1859 19.4059 71.6589 18.8578C71.1363 18.3251 70.8445 17.5908 70.8576 16.841C70.8576 16.0409 71.1276 15.3635 71.6589 14.8264C72.1837 14.2784 72.85 14 73.6404 14C74.4221 14 75.0884 14.2784 75.6241 14.8264C76.1554 15.3811 76.4254 16.0584 76.4254 16.841C76.4167 17.6434 76.1467 18.3207 75.6241 18.8556C75.0993 19.4081 74.433 19.6843 73.6426 19.6843ZM50.1238 19.6843C49.3508 19.6843 48.6802 19.4102 48.1314 18.8688C47.5871 18.3295 47.3105 17.6478 47.3105 16.8432C47.3105 16.0387 47.5871 15.3569 48.1314 14.8177C48.6693 14.2762 49.3399 14.0022 50.1238 14.0022C50.5071 14.0022 50.8794 14.0789 51.2365 14.2346C51.5871 14.3858 51.8723 14.5919 52.0835 14.844L52.1358 14.9076L51.5457 15.4907L51.4847 15.4183C51.1516 15.0194 50.7052 14.8243 50.1151 14.8243C49.5882 14.8243 49.1287 15.0128 48.7498 15.3854C48.3688 15.7603 48.175 16.2513 48.175 16.8454C48.175 17.4395 48.3688 17.9305 48.7498 18.3054C49.1287 18.6781 49.5882 18.8666 50.1151 18.8666C50.6769 18.8666 51.1494 18.6781 51.5174 18.3054C51.7351 18.0862 51.8702 17.7793 51.9181 17.3913H50.0258V16.5714H52.7302L52.7411 16.6459C52.7607 16.784 52.7803 16.9265 52.7803 17.0581C52.7803 17.8144 52.5539 18.426 52.1053 18.8776C51.5958 19.4124 50.9295 19.6843 50.1238 19.6843ZM81.3943 19.5681H80.5604L78.0062 15.4534L78.028 16.1943V19.5659H77.194V14.1184H78.1456L78.1717 14.16L80.5734 18.0358L80.5517 17.297V14.1184H81.3943V19.5681ZM67.3759 19.5681H66.531V14.9382H65.0656V14.1184H68.8391V14.9382H67.3737V19.5681H67.3759ZM64.3775 19.5681H63.5348V14.1184H64.3775V19.5681ZM59.6415 19.5681H58.7988V14.9382H57.3334V14.1184H61.1069V14.9382H59.6415V19.5681ZM56.7999 19.5593H53.5686V14.1184H56.7999V14.9382H54.4134V16.4333H56.5669V17.2444H54.4134V18.7394H56.7999V19.5593ZM72.2773 18.2944C72.654 18.6737 73.1113 18.8644 73.6426 18.8644C74.1891 18.8644 74.6355 18.6781 75.0079 18.2944C75.378 17.9218 75.5653 17.4329 75.5653 16.8432C75.5653 16.2535 75.378 15.7625 75.01 15.392C74.6333 15.0128 74.1739 14.8221 73.6448 14.8221C73.0982 14.8221 72.6518 15.0084 72.2817 15.392C71.9115 15.7647 71.7242 16.2535 71.7242 16.8432C71.7242 17.4329 71.9093 17.924 72.2773 18.2944Z" fill="white"/>
<path fill-rule="evenodd" clip-rule="evenodd" d="M70.7799 27.1775C68.7221 27.1775 67.0542 28.7492 67.0542 30.9173C67.0542 33.0656 68.733 34.6571 70.7799 34.6571C72.8376 34.6571 74.5055 33.0744 74.5055 30.9173C74.5055 28.7492 72.8376 27.1775 70.7799 27.1775ZM70.7799 33.1752C69.6541 33.1752 68.6851 32.237 68.6851 30.9085C68.6851 29.5603 69.6563 28.6418 70.7799 28.6418C71.9056 28.6418 72.8746 29.5603 72.8746 30.9085C72.8768 32.2457 71.9056 33.1752 70.7799 33.1752ZM62.6513 27.1775C60.5936 27.1775 58.9257 28.7492 58.9257 30.9173C58.9257 33.0656 60.6045 34.6571 62.6513 34.6571C64.709 34.6571 66.377 33.0744 66.377 30.9173C66.377 28.7492 64.7069 27.1775 62.6513 27.1775ZM62.6513 33.1752C61.5256 33.1752 60.5566 32.237 60.5566 30.9085C60.5566 29.5603 61.5278 28.6418 62.6513 28.6418C63.7771 28.6418 64.7461 29.5603 64.7461 30.9085C64.7461 32.2457 63.7771 33.1752 62.6513 33.1752ZM52.979 28.3196V29.9023H56.7525C56.6371 30.7901 56.3454 31.4456 55.899 31.895C55.3459 32.4518 54.4923 33.0568 52.9877 33.0568C50.6687 33.0568 48.8548 31.1716 48.8548 28.8369C48.8548 26.5023 50.6687 24.617 52.9877 24.617C54.2397 24.617 55.1521 25.1146 55.8293 25.7504L56.9442 24.628C56.0035 23.7204 54.7514 23.0255 52.9964 23.0255C49.8151 23.0255 47.1455 25.6342 47.1455 28.8282C47.1455 32.0309 49.8129 34.6308 52.9964 34.6308C54.7144 34.6308 56.0035 34.0652 57.0225 32.9998C58.0612 31.9542 58.39 30.4788 58.39 29.2885C58.39 28.918 58.3617 28.5848 58.3029 28.302H52.9768C52.979 28.2998 52.979 28.3196 52.979 28.3196ZM92.5416 29.5516C92.2302 28.712 91.2895 27.1687 89.3603 27.1687C87.4484 27.1687 85.8589 28.6835 85.8589 30.9085C85.8589 33.0086 87.431 34.6483 89.5454 34.6483C91.2438 34.6483 92.2324 33.6027 92.6395 32.9889L91.3788 32.1383C90.9607 32.7631 90.3793 33.173 89.5541 33.173C88.7201 33.173 88.1365 32.7916 87.7489 32.0397L92.7158 29.9681C92.7158 29.9703 92.5416 29.5516 92.5416 29.5516ZM87.4767 30.8011C87.4376 29.3565 88.5916 28.6221 89.4169 28.6221C90.0679 28.6221 90.6101 28.9443 90.7952 29.4135L87.4767 30.8011ZM83.4419 34.4247H85.0728V23.4376H83.4419V34.4247ZM80.7636 28.0083H80.7048C80.3368 27.5677 79.6378 27.1687 78.7451 27.1687C76.892 27.1687 75.1849 28.8106 75.1849 30.9195C75.1849 33.0196 76.8833 34.6418 78.7451 34.6418C79.6269 34.6418 80.3368 34.2406 80.7048 33.7912H80.7636V34.3283C80.7636 35.7554 80.0058 36.5248 78.7843 36.5248C77.7848 36.5248 77.1642 35.8014 76.9116 35.1964L75.4941 35.7926C75.9013 36.7791 76.9878 38.0001 78.7821 38.0001C80.6939 38.0001 82.3139 36.8668 82.3139 34.1025V27.3923H80.7723V28.0083C80.7745 28.0083 80.7636 28.0083 80.7636 28.0083ZM78.891 33.1752C77.7652 33.1752 76.8245 32.2282 76.8245 30.9195C76.8245 29.5998 77.7652 28.644 78.891 28.644C80.0058 28.644 80.8703 29.6108 80.8703 30.9195C80.8812 32.2282 80.008 33.1752 78.891 33.1752ZM100.178 23.4376H96.2781V34.4247H97.909V30.264H100.18C101.985 30.264 103.76 28.9465 103.76 26.8552C103.76 24.7639 101.992 23.4376 100.178 23.4376ZM100.226 28.7295H97.9069V24.959H100.226C101.447 24.959 102.138 25.974 102.138 26.8443C102.138 27.7058 101.439 28.7295 100.226 28.7295ZM110.297 27.1577C109.112 27.1577 107.891 27.686 107.385 28.8369L108.831 29.442C109.143 28.8369 109.713 28.6309 110.316 28.6309C111.161 28.6309 112.015 29.1394 112.034 30.047V30.1632C111.743 29.9966 111.102 29.7423 110.336 29.7423C108.775 29.7423 107.192 30.6016 107.192 32.2128C107.192 33.6882 108.472 34.6352 109.898 34.6352C110.994 34.6352 111.597 34.1376 111.973 33.561H112.032V34.4116H113.604V30.2026C113.604 28.2428 112.158 27.1577 110.297 27.1577ZM110.092 33.1752C109.559 33.1752 108.812 32.9121 108.812 32.237C108.812 31.3864 109.744 31.0642 110.538 31.0642C111.257 31.0642 111.597 31.2198 112.023 31.4346C111.906 32.4211 111.078 33.1664 110.092 33.1752ZM119.34 27.3923L117.467 32.158H117.408L115.468 27.3923H113.713L116.624 34.0543L114.965 37.7568H116.664L121.143 27.3923H119.34ZM104.659 34.4247H106.29V23.4376H104.659V34.4247Z" fill="white"/>
<path fill-rule="evenodd" clip-rule="evenodd" d="M20.3985 14.6752C20.1459 14.9492 20 15.3679 20 15.9159V35.3538C20 35.9018 20.1459 36.3205 20.4072 36.5836L20.4747 36.6428L31.2924 25.7521V25.5088L20.466 14.616L20.3985 14.6752Z" fill="url(#paint0_linear_3910_5463)"/>
<path fill-rule="evenodd" clip-rule="evenodd" d="M34.8933 29.3928L31.2852 25.7604V25.5061L34.8933 21.8737L34.9716 21.9219L39.2395 24.3639C40.4611 25.0567 40.4611 26.201 39.2395 26.9025L34.9716 29.3445L34.8933 29.3928Z" fill="url(#paint1_linear_3910_5463)"/>
<path fill-rule="evenodd" clip-rule="evenodd" d="M34.9701 29.3449L31.2836 25.6335L20.3984 36.5921C20.7969 37.0218 21.4654 37.07 22.2123 36.6513L34.9701 29.3449Z" fill="url(#paint2_linear_3910_5463)"/>
<path fill-rule="evenodd" clip-rule="evenodd" d="M34.9701 21.9222L22.2123 14.6267C21.4654 14.197 20.7947 14.2562 20.3984 14.6859L31.2836 25.6335L34.9701 21.9222Z" fill="url(#paint3_linear_3910_5463)"/>
<rect x="0.5" y="0.5" width="141" height="51" rx="11.5" stroke="white" stroke-opacity="0.12"/>
</g>
<defs>
<filter id="filter0_b_3910_5463" x="-20" y="-20" width="182" height="92" filterUnits="userSpaceOnUse" color-interpolation-filters="sRGB">
<feFlood flood-opacity="0" result="BackgroundImageFix"/>
<feGaussianBlur in="BackgroundImageFix" stdDeviation="10"/>
<feComposite in2="SourceAlpha" operator="in" result="effect1_backgroundBlur_3910_5463"/>
<feBlend mode="normal" in="SourceGraphic" in2="effect1_backgroundBlur_3910_5463" result="shape"/>
</filter>
<linearGradient id="paint0_linear_3910_5463" x1="30.3221" y1="15.7062" x2="12.9786" y2="20.2964" gradientUnits="userSpaceOnUse">
<stop stop-color="#00A0FF"/>
<stop offset="0.00657" stop-color="#00A1FF"/>
<stop offset="0.2601" stop-color="#00BEFF"/>
<stop offset="0.5122" stop-color="#00D2FF"/>
<stop offset="0.7604" stop-color="#00DFFF"/>
<stop offset="1" stop-color="#00E3FF"/>
</linearGradient>
<linearGradient id="paint1_linear_3910_5463" x1="40.8326" y1="25.6332" x2="19.7045" y2="25.6332" gradientUnits="userSpaceOnUse">
<stop stop-color="#FFE000"/>
<stop offset="0.4087" stop-color="#FFBD00"/>
<stop offset="0.7754" stop-color="#FFA500"/>
<stop offset="1" stop-color="#FF9C00"/>
</linearGradient>
<linearGradient id="paint2_linear_3910_5463" x1="32.9655" y1="27.653" x2="18.916" y2="51.1412" gradientUnits="userSpaceOnUse">
<stop stop-color="#FF3A44"/>
<stop offset="1" stop-color="#C31162"/>
</linearGradient>
<linearGradient id="paint3_linear_3910_5463" x1="17.6574" y1="8.20958" x2="23.9255" y2="18.6998" gradientUnits="userSpaceOnUse">
<stop stop-color="#32A071"/>
<stop offset="0.0685" stop-color="#2DA771"/>
<stop offset="0.4762" stop-color="#15CF74"/>
<stop offset="0.8009" stop-color="#06E775"/>
<stop offset="1" stop-color="#00F076"/>
</linearGradient>
</defs>
</svg>
