<svg width="152" height="40" viewBox="0 0 152 40" fill="none" xmlns="http://www.w3.org/2000/svg">
<rect width="152" height="40" rx="6" fill="#121C25"/>
<path d="M69.7429 13.7323C68.8589 13.7323 68.1136 13.4217 67.5242 12.8103C66.9397 12.2161 66.6134 11.3968 66.628 10.5605C66.628 9.66787 66.93 8.91221 67.5242 8.31307C68.1112 7.70169 68.8564 7.39111 69.7405 7.39111C70.6148 7.39111 71.3601 7.70169 71.9592 8.31307C72.5535 8.93178 72.8554 9.68744 72.8554 10.5605C72.8457 11.4555 72.5437 12.2112 71.9592 12.8079C71.3723 13.4242 70.627 13.7323 69.7429 13.7323ZM43.4376 13.7323C42.573 13.7323 41.8229 13.4266 41.2092 12.8226C40.6003 12.221 40.291 11.4604 40.291 10.5629C40.291 9.66543 40.6003 8.90488 41.2092 8.30328C41.8107 7.69925 42.5609 7.39356 43.4376 7.39356C43.8663 7.39356 44.2827 7.47915 44.6821 7.65278C45.0742 7.82152 45.3933 8.0514 45.6295 8.33263L45.688 8.40355L45.028 9.05405L44.9598 8.97335C44.5872 8.52827 44.0879 8.31062 43.4279 8.31062C42.8385 8.31062 42.3246 8.52093 41.9008 8.93667C41.4746 9.35485 41.2579 9.90264 41.2579 10.5654C41.2579 11.2281 41.4746 11.7759 41.9008 12.1941C42.3246 12.6098 42.8385 12.8201 43.4279 12.8201C44.0562 12.8201 44.5847 12.6098 44.9963 12.1941C45.2399 11.9495 45.3909 11.6072 45.4444 11.1743H43.328V10.2597H46.3529L46.365 10.3428C46.387 10.4969 46.4089 10.6559 46.4089 10.8026C46.4089 11.6463 46.1556 12.3286 45.6539 12.8323C45.084 13.4291 44.3387 13.7323 43.4376 13.7323ZM78.4132 13.6027H77.4804L74.6236 9.01248L74.6479 9.83906V13.6002H73.7152V7.52317H74.7795L74.8087 7.56964L77.495 11.8933L77.4706 11.0691V7.52317H78.4132V13.6027ZM62.7337 13.6027H61.7888V8.43779H60.1497V7.52317H64.3703V8.43779H62.7313V13.6027H62.7337ZM59.3801 13.6027H58.4376V7.52317H59.3801V13.6027ZM54.083 13.6027H53.1405V8.43779H51.5014V7.52317H55.722V8.43779H54.083V13.6027ZM50.9047 13.5929H47.2905V7.52317H50.9047V8.43779H48.2355V10.1056H50.6441V11.0105H48.2355V12.6783H50.9047V13.5929ZM68.2159 12.1818C68.6372 12.6049 69.1487 12.8177 69.7429 12.8177C70.3542 12.8177 70.8535 12.6098 71.27 12.1818C71.684 11.7661 71.8934 11.2208 71.8934 10.5629C71.8934 9.90509 71.684 9.35729 71.2724 8.94401C70.8511 8.52093 70.3372 8.30818 69.7454 8.30818C69.1341 8.30818 68.6348 8.51604 68.2208 8.94401C67.8068 9.35974 67.5973 9.90509 67.5973 10.5629C67.5973 11.2208 67.8043 11.7686 68.2159 12.1818Z" fill="white"/>
<path fill-rule="evenodd" clip-rule="evenodd" d="M66.5401 22.0229C64.2385 22.0229 62.373 23.7763 62.373 26.1949C62.373 28.5915 64.2507 30.3669 66.5401 30.3669C68.8416 30.3669 70.7071 28.6013 70.7071 26.1949C70.7071 23.7763 68.8416 22.0229 66.5401 22.0229ZM66.5401 28.7138C65.2809 28.7138 64.1971 27.6671 64.1971 26.1851C64.1971 24.6811 65.2834 23.6565 66.5401 23.6565C67.7992 23.6565 68.883 24.6811 68.883 26.1851C68.8854 27.6769 67.7992 28.7138 66.5401 28.7138ZM57.4485 22.0229C55.1469 22.0229 53.2814 23.7763 53.2814 26.1949C53.2814 28.5915 55.1591 30.3669 57.4485 30.3669C59.75 30.3669 61.6155 28.6013 61.6155 26.1949C61.6155 23.7763 59.7475 22.0229 57.4485 22.0229ZM57.4485 28.7138C56.1893 28.7138 55.1055 27.6671 55.1055 26.1851C55.1055 24.6811 56.1917 23.6565 57.4485 23.6565C58.7076 23.6565 59.7914 24.6811 59.7914 26.1851C59.7914 27.6769 58.7076 28.7138 57.4485 28.7138ZM46.6301 23.297V25.0626H50.8508C50.7217 26.0531 50.3953 26.7843 49.8961 27.2856C49.2774 27.9068 48.3227 28.5817 46.6398 28.5817C44.0461 28.5817 42.0173 26.4786 42.0173 23.8741C42.0173 21.2697 44.0461 19.1665 46.6398 19.1665C48.0402 19.1665 49.0607 19.7217 49.8181 20.4309L51.0651 19.1788C50.013 18.1663 48.6126 17.3911 46.6496 17.3911C43.0914 17.3911 40.1055 20.3013 40.1055 23.8643C40.1055 27.4372 43.0889 30.3376 46.6496 30.3376C48.5712 30.3376 50.013 29.7066 51.1528 28.5181C52.3145 27.3516 52.6822 25.7058 52.6822 24.3779C52.6822 23.9646 52.6506 23.5929 52.5848 23.2774H46.6277C46.6301 23.275 46.6301 23.297 46.6301 23.297ZM90.8801 24.6714C90.5319 23.7347 89.4797 22.0131 87.3219 22.0131C85.1836 22.0131 83.4057 23.7029 83.4057 26.1851C83.4057 28.5279 85.1641 30.3571 87.5289 30.3571C89.4286 30.3571 90.5343 29.1906 90.9897 28.5059L89.5796 27.5571C89.112 28.254 88.4617 28.7113 87.5387 28.7113C86.6059 28.7113 85.9532 28.2858 85.5197 27.447L91.075 25.136C91.075 25.1385 90.8801 24.6714 90.8801 24.6714ZM85.2152 26.0653C85.1714 24.4537 86.4622 23.6345 87.3852 23.6345C88.1134 23.6345 88.7199 23.994 88.9269 24.5173L85.2152 26.0653ZM80.7023 30.1077H82.5265V17.8509H80.7023V30.1077ZM77.7067 22.9497H77.6409C77.2293 22.4582 76.4475 22.0131 75.449 22.0131C73.3764 22.0131 71.467 23.8448 71.467 26.1974C71.467 28.5401 73.3667 30.3498 75.449 30.3498C76.4354 30.3498 77.2293 29.9023 77.6409 29.401H77.7067V30.0001C77.7067 31.5921 76.8591 32.4505 75.4928 32.4505C74.375 32.4505 73.6809 31.6435 73.3983 30.9685L71.8129 31.6337C72.2683 32.7342 73.4836 34.0963 75.4904 34.0963C77.6288 34.0963 79.4407 32.832 79.4407 29.7482V22.2625H77.7164V22.9497C77.7189 22.9497 77.7067 22.9497 77.7067 22.9497ZM75.6122 28.7138C74.3531 28.7138 73.3009 27.6573 73.3009 26.1974C73.3009 24.7252 74.3531 23.6589 75.6122 23.6589C76.8591 23.6589 77.826 24.7374 77.826 26.1974C77.8382 27.6573 76.8616 28.7138 75.6122 28.7138ZM99.4213 17.8509H95.0594V30.1077H96.8836V25.4662H99.4238C101.443 25.4662 103.428 23.9964 103.428 21.6634C103.428 19.3304 101.45 17.8509 99.4213 17.8509ZM99.4749 23.7543H96.8811V19.548H99.4749C100.841 19.548 101.613 20.6803 101.613 21.6512C101.613 22.6123 100.831 23.7543 99.4749 23.7543ZM110.739 22.0009C109.414 22.0009 108.048 22.5902 107.483 23.8741L109.1 24.5491C109.448 23.8741 110.086 23.6443 110.761 23.6443C111.706 23.6443 112.661 24.2116 112.682 25.224V25.3537C112.356 25.1678 111.64 24.8841 110.783 24.8841C109.037 24.8841 107.266 25.8428 107.266 27.6402C107.266 29.286 108.698 30.3425 110.293 30.3425C111.518 30.3425 112.193 29.7873 112.614 29.1442H112.68V30.093H114.438V25.3977C114.438 23.2114 112.821 22.0009 110.739 22.0009ZM110.51 28.7138C109.913 28.7138 109.078 28.4203 109.078 27.6671C109.078 26.7182 110.12 26.3588 111.009 26.3588C111.813 26.3588 112.193 26.5324 112.67 26.772C112.539 27.8725 111.613 28.704 110.51 28.7138ZM120.853 22.2625L118.759 27.5791H118.693L116.523 22.2625H114.56L117.816 29.6944L115.961 33.8249H117.86L122.87 22.2625H120.853ZM104.434 30.1077H106.258V17.8509H104.434V30.1077Z" fill="white"/>
<path fill-rule="evenodd" clip-rule="evenodd" d="M10.1898 7.14415C9.90732 7.44984 9.74414 7.91693 9.74414 8.52831V30.2125C9.74414 30.8239 9.90732 31.291 10.1996 31.5845L10.2751 31.6505L22.3745 19.5013V19.2298L10.2653 7.07812L10.1898 7.14415Z" fill="url(#paint0_linear_2687_5613)"/>
<path fill-rule="evenodd" clip-rule="evenodd" d="M26.4008 23.5629L22.3652 19.5107V19.227L26.4008 15.1748L26.4885 15.2286L31.262 17.9529C32.6283 18.7257 32.6283 20.0022 31.262 20.7848L26.4885 23.5091L26.4008 23.5629Z" fill="url(#paint1_linear_2687_5613)"/>
<path fill-rule="evenodd" clip-rule="evenodd" d="M26.4876 23.5099L22.3644 19.3696L10.1895 31.5947C10.6351 32.074 11.3828 32.1278 12.2182 31.6607L26.4876 23.5099Z" fill="url(#paint2_linear_2687_5613)"/>
<path fill-rule="evenodd" clip-rule="evenodd" d="M26.4876 15.229L12.2182 7.09038C11.3828 6.61106 10.6327 6.67709 10.1895 7.15641L22.3644 19.3692L26.4876 15.229Z" fill="url(#paint3_linear_2687_5613)"/>
<path opacity="0.2" fill-rule="evenodd" clip-rule="evenodd" d="M30.3119 23.8945L14.0402 32.1389C13.1315 32.6052 12.3205 32.5728 11.7976 32.1489L11.7109 32.2262L11.7976 32.2935C12.3205 32.7149 13.1315 32.7499 14.0402 32.2835L30.4237 23.9843L30.3119 23.8945Z" fill="#121C25"/>
<path opacity="0.12" fill-rule="evenodd" clip-rule="evenodd" d="M35.8932 21.0619L30.2979 23.8949L30.3985 23.9846L35.8792 21.2066C36.665 20.8076 37.0509 20.2839 37.0509 19.7627C37.0033 20.2415 36.6035 20.6954 35.8932 21.0619Z" fill="#121C25"/>
<rect x="0.490323" y="0.490323" width="151.019" height="39.0194" rx="5.50968" stroke="white" stroke-opacity="0.2" stroke-width="0.980645"/>
<defs>
<linearGradient id="paint0_linear_2687_5613" x1="21.2892" y1="8.29436" x2="1.8975" y2="13.4401" gradientUnits="userSpaceOnUse">
<stop stop-color="#00A0FF"/>
<stop offset="0.00657" stop-color="#00A1FF"/>
<stop offset="0.2601" stop-color="#00BEFF"/>
<stop offset="0.5122" stop-color="#00D2FF"/>
<stop offset="0.7604" stop-color="#00DFFF"/>
<stop offset="1" stop-color="#00E3FF"/>
</linearGradient>
<linearGradient id="paint1_linear_2687_5613" x1="33.0438" y1="19.3689" x2="9.4125" y2="19.3689" gradientUnits="userSpaceOnUse">
<stop stop-color="#FFE000"/>
<stop offset="0.4087" stop-color="#FFBD00"/>
<stop offset="0.7754" stop-color="#FFA500"/>
<stop offset="1" stop-color="#FF9C00"/>
</linearGradient>
<linearGradient id="paint2_linear_2687_5613" x1="24.2455" y1="21.6225" x2="8.59172" y2="47.8611" gradientUnits="userSpaceOnUse">
<stop stop-color="#FF3A44"/>
<stop offset="1" stop-color="#C31162"/>
</linearGradient>
<linearGradient id="paint3_linear_2687_5613" x1="7.12368" y1="-0.0683397" x2="14.1075" y2="11.6503" gradientUnits="userSpaceOnUse">
<stop stop-color="#32A071"/>
<stop offset="0.0685" stop-color="#2DA771"/>
<stop offset="0.4762" stop-color="#15CF74"/>
<stop offset="0.8009" stop-color="#06E775"/>
<stop offset="1" stop-color="#00F076"/>
</linearGradient>
</defs>
</svg>
