<svg width="180" height="180" viewBox="0 0 180 180" fill="none" xmlns="http://www.w3.org/2000/svg">
<rect width="180" height="180" rx="20" fill="white"/>
<path d="M75.6563 22.3535H79.0888H80.0098H82.5214C83.0237 22.3535 83.4423 21.9349 83.4423 21.4326V18.9209C83.4423 18.4186 83.0237 18 82.5214 18H79.0888H78.1679H75.6563C75.154 18 74.7354 18.4186 74.7354 18.9209V21.4326C74.7354 21.9349 75.1261 22.3535 75.6563 22.3535Z" fill="#0C3317"/>
<path d="M88.7447 22.3535H91.2563C91.7586 22.3535 92.1772 22.7721 92.1772 23.2744V25.786C92.1772 26.2883 92.5958 26.7069 93.0982 26.7069H95.6098C96.1121 26.7069 96.5307 27.1256 96.5307 27.6279V30.1395C96.5307 30.6418 96.1121 31.0604 95.6098 31.0604H93.0982C92.5958 31.0604 92.1772 31.479 92.1772 31.9814V34.493C92.1772 34.9953 91.7586 35.4139 91.2563 35.4139H88.7447C88.2423 35.4139 87.8237 35.8325 87.8237 36.3349V38.8465C87.8237 39.3488 88.2423 39.7674 88.7447 39.7674H92.1772H95.6098C96.1121 39.7674 96.5307 40.186 96.5307 40.6883V44.1209V47.5535C96.5307 48.0558 96.9493 48.4744 97.4516 48.4744H99.9633C100.466 48.4744 100.884 48.0558 100.884 47.5535V44.1767V39.8232V36.3907C100.884 35.8883 101.303 35.4697 101.805 35.4697H104.317C104.819 35.4697 105.238 35.0511 105.238 34.5488V32.0372C105.238 31.5349 104.819 31.1162 104.317 31.1162H101.805C101.303 31.1162 100.884 30.6976 100.884 30.1953V27.6837C100.884 27.1814 101.303 26.7628 101.805 26.7628H105.238H106.159H108.67C109.173 26.7628 109.591 26.3442 109.591 25.8418V23.3302C109.591 22.8279 109.173 22.4093 108.67 22.4093H106.159C105.656 22.4093 105.238 21.9907 105.238 21.4883V18.9767C105.238 18.4744 104.819 18.0558 104.317 18.0558H101.805C101.303 18.0558 100.884 18.4744 100.884 18.9767V21.4883C100.884 21.9907 100.466 22.4093 99.9633 22.4093H97.4516C96.9493 22.4093 96.5307 21.9907 96.5307 21.4883V18.9767C96.5307 18.4744 96.1121 18.0558 95.6098 18.0558H92.1772H91.2563H88.7447C88.2423 18.0558 87.8237 18.4744 87.8237 18.9767V21.4883C87.8237 21.9349 88.2423 22.3535 88.7447 22.3535Z" fill="#0C3317"/>
<path d="M110.568 22.3535H113.079C113.582 22.3535 114 22.7721 114 23.2744V26.707V30.1395C114 30.6419 114.419 31.0605 114.921 31.0605H118.354H119.275H121.786C122.289 31.0605 122.707 30.6419 122.707 30.1395V27.6279C122.707 27.1256 122.289 26.707 121.786 26.707H119.275C118.772 26.707 118.354 26.2884 118.354 25.786V23.2744C118.354 22.7721 118.772 22.3535 119.275 22.3535H122.707H123.628H126.14C126.642 22.3535 127.061 21.9349 127.061 21.4326V18.9209C127.061 18.4186 126.642 18 126.14 18H122.707H118.354H114H113.079H110.568C110.065 18 109.647 18.4186 109.647 18.9209V21.4326C109.619 21.9349 110.038 22.3535 110.568 22.3535Z" fill="#0C3317"/>
<path d="M70.353 25.7862C70.353 26.2885 70.7716 26.7071 71.274 26.7071H73.7856C74.2879 26.7071 74.7065 26.2885 74.7065 25.7862V23.2746C74.7065 22.7722 74.2879 22.3536 73.7856 22.3536H71.274C70.7716 22.3536 70.353 22.7722 70.353 23.2746V25.7862Z" fill="#0C3317"/>
<path d="M53.8328 31.0874H57.2654H58.1863H60.6979C61.2003 31.0874 61.6189 30.6688 61.6189 30.1664V27.6548C61.6189 27.1525 61.2003 26.7339 60.6979 26.7339H58.1863C57.684 26.7339 57.2654 26.3153 57.2654 25.813V23.3013C57.2654 22.799 57.684 22.3804 58.1863 22.3804H60.6979C61.2003 22.3804 61.6189 22.799 61.6189 23.3013V25.813C61.6189 26.3153 62.0375 26.7339 62.5398 26.7339H65.0514C65.5537 26.7339 65.9723 26.3153 65.9723 25.813V23.3013C65.9723 22.799 66.391 22.3804 66.8933 22.3804H69.4049C69.9072 22.3804 70.3258 21.9618 70.3258 21.4595V18.9478C70.3258 18.4455 69.9072 18.0269 69.4049 18.0269H66.0003H61.6468H57.2933H53.8607C53.3584 18.0269 52.9398 18.4455 52.9398 18.9478V22.3804V26.7339V30.1664C52.9119 30.6688 53.3305 31.0874 53.8328 31.0874Z" fill="#0C3317"/>
<path d="M75.6563 26.735C75.154 26.735 74.7354 27.1536 74.7354 27.6559V30.1675C74.7354 30.6699 75.154 31.0885 75.6563 31.0885H78.1679C78.6702 31.0885 79.0888 30.6699 79.0888 30.1675V27.6559C79.0888 27.1536 78.6702 26.735 78.1679 26.735H75.6563Z" fill="#0C3317"/>
<path d="M83.4419 31.0883V34.5209C83.4419 35.0232 83.8605 35.4418 84.3628 35.4418H86.8745C87.3768 35.4418 87.7954 35.0232 87.7954 34.5209V31.0883V30.1674V27.6557C87.7954 27.1534 87.3768 26.7348 86.8745 26.7348H84.3628C83.8605 26.7348 83.4419 27.1534 83.4419 27.6557V31.0883Z" fill="#0C3317"/>
<path d="M113.08 31.0883H110.568C110.066 31.0883 109.647 31.5069 109.647 32.0092V35.4417V38.8743C109.647 39.3766 110.066 39.7952 110.568 39.7952H113.08C113.582 39.7952 114 39.3766 114 38.8743V35.4417V34.5208V32.0092C114 31.5069 113.582 31.0883 113.08 31.0883Z" fill="#0C3317"/>
<path d="M126.168 35.4417C126.671 35.4417 127.089 35.0231 127.089 34.5208V32.0092C127.089 31.5069 126.671 31.0883 126.168 31.0883H123.657C123.154 31.0883 122.736 31.5069 122.736 32.0092V34.5208C122.736 35.0231 123.154 35.4417 123.657 35.4417H126.168Z" fill="#0C3317"/>
<path d="M118.353 39.8232H114.92C114.418 39.8232 114 40.2418 114 40.7442V44.1767V47.6093C114 48.1116 114.418 48.5302 114.92 48.5302H117.432C117.934 48.5302 118.353 48.1116 118.353 47.6093V45.0977C118.353 44.5953 118.772 44.1767 119.274 44.1767H121.786C122.288 44.1767 122.706 44.5953 122.706 45.0977V47.6093C122.706 48.1116 123.125 48.5302 123.627 48.5302H126.139C126.641 48.5302 127.06 48.1116 127.06 47.6093V44.1767V40.7442C127.06 40.2418 126.641 39.8232 126.139 39.8232H122.706H118.353Z" fill="#0C3317"/>
<path d="M73.7856 44.1769H71.274C70.7716 44.1769 70.353 44.5955 70.353 45.0978V47.6094C70.353 48.1118 70.7716 48.5304 71.274 48.5304H73.7856C74.2879 48.5304 74.7065 48.1118 74.7065 47.6094V45.0978C74.7344 44.5955 74.3158 44.1769 73.7856 44.1769Z" fill="#0C3317"/>
<path d="M91.2563 44.1769H88.7447C88.2423 44.1769 87.8237 44.5955 87.8237 45.0978V47.6094C87.8237 48.1118 88.2423 48.5304 88.7447 48.5304H91.2563C91.7586 48.5304 92.1772 48.1118 92.1772 47.6094V45.0978C92.1772 44.5955 91.7586 44.1769 91.2563 44.1769Z" fill="#0C3317"/>
<path d="M92.1763 51.9908C92.1763 52.4931 92.5949 52.9117 93.0972 52.9117H95.6088C96.1112 52.9117 96.5298 52.4931 96.5298 51.9908V49.4792C96.5298 48.9768 96.1112 48.5582 95.6088 48.5582H93.0972C92.5949 48.5582 92.1763 48.9768 92.1763 49.4792V51.9908Z" fill="#0C3317"/>
<path d="M101.832 52.9116H105.264H108.697C109.199 52.9116 109.618 52.493 109.618 51.9906V48.5581V47.6371V45.1255C109.618 44.6232 109.199 44.2046 108.697 44.2046H106.185C105.683 44.2046 105.264 44.6232 105.264 45.1255V47.6371C105.264 48.1395 104.846 48.5581 104.343 48.5581H101.832C101.329 48.5581 100.911 48.9767 100.911 49.479V51.9906C100.911 52.493 101.329 52.9116 101.832 52.9116Z" fill="#0C3317"/>
<path d="M45.0982 57.265H47.6098C48.1121 57.265 48.5307 56.8464 48.5307 56.3441V53.8324C48.5307 53.3301 48.1121 52.9115 47.6098 52.9115H45.0982C44.5958 52.9115 44.1772 53.3301 44.1772 53.8324V56.3441C44.1772 56.8464 44.5958 57.265 45.0982 57.265Z" fill="#0C3317"/>
<path d="M53.8328 57.2651H57.2654H60.6979C61.2003 57.2651 61.6189 57.6837 61.6189 58.1861V60.6977C61.6189 61.2 62.0375 61.6186 62.5398 61.6186H65.0514C65.5538 61.6186 65.9724 61.2 65.9724 60.6977V58.1861C65.9724 57.6837 66.391 57.2651 66.8933 57.2651H70.3258H74.6793H78.1119C78.6142 57.2651 79.0328 57.6837 79.0328 58.1861V60.6977C79.0328 61.2 79.4514 61.6186 79.9538 61.6186H82.4654C82.9677 61.6186 83.3863 61.2 83.3863 60.6977V57.2651V53.8326C83.3863 53.3302 83.8049 52.9116 84.3072 52.9116H86.8189C87.3212 52.9116 87.7398 52.493 87.7398 51.9907V49.4791C87.7398 48.9767 87.3212 48.5581 86.8189 48.5581H84.3072C83.8049 48.5581 83.3863 48.1395 83.3863 47.6372V45.1256C83.3863 44.6233 83.8049 44.2047 84.3072 44.2047H86.8189C87.3212 44.2047 87.7398 43.786 87.7398 43.2837V40.7721C87.7398 40.2698 87.3212 39.8512 86.8189 39.8512H84.3072C83.8049 39.8512 83.3863 39.4326 83.3863 38.9302V36.4186C83.3863 35.9163 82.9677 35.4977 82.4654 35.4977H79.0328H75.6003C75.0979 35.4977 74.6793 35.9163 74.6793 36.4186V39.8512V43.2837C74.6793 43.786 75.0979 44.2047 75.6003 44.2047H78.1119C78.6142 44.2047 79.0328 44.6233 79.0328 45.1256V47.6372C79.0328 48.1395 78.6142 48.5581 78.1119 48.5581H75.6003C75.0979 48.5581 74.6793 48.9767 74.6793 49.4791V51.9907C74.6793 52.493 74.2607 52.9116 73.7584 52.9116H70.3258H66.8933C66.391 52.9116 65.9724 52.493 65.9724 51.9907V48.5581V45.0977C65.9724 44.5953 66.391 44.1767 66.8933 44.1767H69.4049C69.9072 44.1767 70.3258 43.7581 70.3258 43.2558V40.7442C70.3258 40.2419 69.9072 39.8233 69.4049 39.8233H66.8933C66.391 39.8233 65.9724 39.4046 65.9724 38.9023V36.3907C65.9724 35.8884 66.391 35.4698 66.8933 35.4698H70.3258H71.2468H73.7584C74.2607 35.4698 74.6793 35.0512 74.6793 34.5488V32.0372C74.6793 31.5349 74.2607 31.1163 73.7584 31.1163H70.3258H66.0003H62.5677C62.0654 31.1163 61.6468 31.5349 61.6468 32.0372V34.5488C61.6468 35.0512 61.2282 35.4698 60.7258 35.4698H58.2142C57.7119 35.4698 57.2933 35.8884 57.2933 36.3907V38.9023C57.2933 39.4046 57.7119 39.8233 58.2142 39.8233H60.7258C61.2282 39.8233 61.6468 40.2419 61.6468 40.7442V44.1767V47.6093C61.6468 48.1116 61.2282 48.5302 60.7258 48.5302H58.2142C57.7119 48.5302 57.2933 48.1116 57.2933 47.6093V44.1767V43.2558V40.7442C57.2933 40.2419 56.8747 39.8233 56.3724 39.8233H53.8607C53.3584 39.8233 52.9398 40.2419 52.9398 40.7442V44.1767V48.5302V52.8837V56.3163C52.9119 56.8465 53.3305 57.2651 53.8328 57.2651Z" fill="#0C3317"/>
<path d="M127.088 56.3442C127.088 56.8466 127.507 57.2652 128.009 57.2652H131.442H135.795H136.716H139.228C139.73 57.2652 140.149 56.8466 140.149 56.3442V53.8326C140.149 53.3303 139.73 52.9117 139.228 52.9117H135.795H131.442H130.521H128.009C127.507 52.9117 127.088 53.3303 127.088 53.8326V56.3442Z" fill="#0C3317"/>
<path d="M161.051 52.9117H157.619H153.265H149.832C149.33 52.9117 148.912 53.3303 148.912 53.8326V56.3442C148.912 56.8466 148.493 57.2652 147.991 57.2652H145.479C144.977 57.2652 144.558 57.6838 144.558 58.1861V60.6977C144.558 61.2001 144.139 61.6187 143.637 61.6187H141.126C140.623 61.6187 140.205 62.0373 140.205 62.5396V65.0512C140.205 65.5536 140.623 65.9722 141.126 65.9722H144.558H147.991C148.493 65.9722 148.912 65.5536 148.912 65.0512V62.5396C148.912 62.0373 149.33 61.6187 149.832 61.6187H152.344C152.846 61.6187 153.265 62.0373 153.265 62.5396V65.0512C153.265 65.5536 153.684 65.9722 154.186 65.9722H156.698C157.2 65.9722 157.619 66.3908 157.619 66.8931V69.4047C157.619 69.907 158.037 70.3256 158.539 70.3256H161.051C161.553 70.3256 161.972 69.907 161.972 69.4047V66.0001V61.6466V57.2931V53.8605C162 53.3303 161.581 52.9117 161.051 52.9117Z" fill="#0C3317"/>
<path d="M18.9209 61.6465H21.4326C21.9349 61.6465 22.3535 61.2279 22.3535 60.7256V58.214C22.3535 57.7116 21.9349 57.293 21.4326 57.293H18.9209C18.4186 57.293 18 57.7116 18 58.214V60.7256C18 61.2279 18.4186 61.6465 18.9209 61.6465Z" fill="#0C3317"/>
<path d="M30.1674 61.6465H27.6558C27.1535 61.6465 26.7349 62.0651 26.7349 62.5674V66V70.3535V74.7069V79.0604V82.493C26.7349 82.9953 27.1535 83.4139 27.6558 83.4139H30.1674C30.6697 83.4139 31.0884 82.9953 31.0884 82.493V79.0604V74.7069V71.2744C31.0884 70.7721 31.507 70.3535 32.0093 70.3535H35.4418H36.3628H38.8744C39.3767 70.3535 39.7953 69.9349 39.7953 69.4325V66.9209C39.7953 66.4186 39.3767 66 38.8744 66H36.3628C35.8604 66 35.4418 65.5814 35.4418 65.079V62.5674C35.4418 62.0651 35.8604 61.6465 36.3628 61.6465H38.8744C39.3767 61.6465 39.7953 61.2279 39.7953 60.7256V57.293V53.8604C39.7953 53.3581 39.3767 52.9395 38.8744 52.9395H35.4418H31.0884H30.1674H27.6558C27.1535 52.9395 26.7349 53.3581 26.7349 53.8604V56.3721C26.7349 56.8744 27.1535 57.293 27.6558 57.293H30.1674C30.6697 57.293 31.0884 57.7116 31.0884 58.2139V60.7256C31.0884 61.2279 30.6697 61.6465 30.1674 61.6465Z" fill="#0C3317"/>
<path d="M48.5307 60.6977C48.5307 61.2 48.1121 61.6186 47.6098 61.6186H45.0982C44.5958 61.6186 44.1772 62.0372 44.1772 62.5396V65.0512C44.1772 65.5535 44.5958 65.9721 45.0982 65.9721H47.6098C48.1121 65.9721 48.5307 66.3907 48.5307 66.893V69.4047C48.5307 69.907 48.9493 70.3256 49.4517 70.3256H51.9633C52.4656 70.3256 52.8842 69.907 52.8842 69.4047V66.893C52.8842 66.3907 53.3028 65.9721 53.8052 65.9721H56.3168C56.8191 65.9721 57.2377 65.5535 57.2377 65.0512V62.5396C57.2377 62.0372 56.8191 61.6186 56.3168 61.6186H53.8052C53.3028 61.6186 52.8842 61.2 52.8842 60.6977V58.1861C52.8842 57.6837 52.4656 57.2651 51.9633 57.2651H49.4517C48.9493 57.2651 48.5307 57.6837 48.5307 58.1861V60.6977V60.6977Z" fill="#0C3317"/>
<path d="M93.0982 61.6466H95.6098C96.1121 61.6466 96.5307 61.228 96.5307 60.7256V58.214C96.5307 57.7117 96.1121 57.2931 95.6098 57.2931H93.0982C92.5958 57.2931 92.1772 56.8745 92.1772 56.3721V53.8605C92.1772 53.3582 91.7586 52.9396 91.2563 52.9396H88.7447C88.2423 52.9396 87.8237 53.3582 87.8237 53.8605V57.2931V60.6977C87.8237 61.2 88.2423 61.6187 88.7447 61.6187H92.1772H93.0982V61.6466Z" fill="#0C3317"/>
<path d="M18.9209 70.3535H21.4326C21.9349 70.3535 22.3535 69.9349 22.3535 69.4326V66.9209C22.3535 66.4186 21.9349 66 21.4326 66H18.9209C18.4186 66 18 66.4186 18 66.9209V69.4326C18 69.9349 18.4186 70.3535 18.9209 70.3535Z" fill="#0C3317"/>
<path d="M47.6088 70.3535H44.1762H40.7437C40.2414 70.3535 39.8228 70.7721 39.8228 71.2744V74.7069V78.1395C39.8228 78.6418 40.2414 79.0604 40.7437 79.0604H43.2553C43.7576 79.0604 44.1762 78.6418 44.1762 78.1395V75.6279C44.1762 75.1256 44.5949 74.7069 45.0972 74.7069H47.6088C48.1111 74.7069 48.5297 74.2883 48.5297 73.786V71.2744C48.5297 70.7721 48.139 70.3535 47.6088 70.3535Z" fill="#0C3317"/>
<path d="M61.646 71.2743C61.646 70.7719 61.2274 70.3533 60.725 70.3533H58.2134C57.7111 70.3533 57.2925 70.7719 57.2925 71.2743V73.7859C57.2925 74.2882 57.7111 74.7068 58.2134 74.7068H60.725C61.2274 74.7068 61.646 74.2882 61.646 73.7859V71.2743Z" fill="#0C3317"/>
<path d="M127.088 74.735V78.1675C127.088 78.6699 127.506 79.0885 128.009 79.0885H131.441H135.795H136.716H139.227C139.73 79.0885 140.148 78.6699 140.148 78.1675V75.6559C140.148 75.1536 139.73 74.735 139.227 74.735H135.795H132.362C131.86 74.735 131.441 74.3164 131.441 73.8141V71.3024C131.441 70.8001 131.86 70.3815 132.362 70.3815H134.874C135.376 70.3815 135.795 69.9629 135.795 69.4606V66.9489C135.795 66.4466 135.376 66.028 134.874 66.028H132.362C131.86 66.028 131.441 65.6094 131.441 65.1071V62.5955C131.441 62.0931 131.023 61.6745 130.52 61.6745H127.088H123.655C123.153 61.6745 122.734 61.2559 122.734 60.7536V57.321V52.9676V52.0466V49.535C122.734 49.0327 122.316 48.6141 121.813 48.6141H119.302C118.799 48.6141 118.381 49.0327 118.381 49.535V52.0466C118.381 52.549 117.962 52.9676 117.46 52.9676H113.999H110.567C110.065 52.9676 109.646 53.3862 109.646 53.8885V56.4001C109.646 56.9024 109.227 57.321 108.725 57.321H105.292H104.372H101.86C101.358 57.321 100.939 57.7396 100.939 58.242V60.7536C100.939 61.2559 101.358 61.6745 101.86 61.6745H105.292H109.646H113.999H117.432C117.934 61.6745 118.353 62.0931 118.353 62.5955V66.0001V69.4327C118.353 69.935 118.772 70.3536 119.274 70.3536H121.785C122.288 70.3536 122.706 69.935 122.706 69.4327V66.921C122.706 66.4187 123.125 66.0001 123.627 66.0001H126.139C126.641 66.0001 127.06 66.4187 127.06 66.921V70.3536V74.735H127.088Z" fill="#0C3317"/>
<path d="M18.9209 79.0884H21.4326C21.9349 79.0884 22.3535 78.6698 22.3535 78.1675V75.6559C22.3535 75.1535 21.9349 74.7349 21.4326 74.7349H18.9209C18.4186 74.7349 18 75.1535 18 75.6559V78.1675C18 78.6698 18.4186 79.0884 18.9209 79.0884Z" fill="#0C3317"/>
<path d="M48.5298 78.1672C48.5298 78.6696 48.9484 79.0882 49.4507 79.0882H51.9623C52.4647 79.0882 52.8833 78.6696 52.8833 78.1672V75.6556C52.8833 75.1533 52.4647 74.7347 51.9623 74.7347H49.4507C48.9484 74.7347 48.5298 75.1533 48.5298 75.6556V78.1672Z" fill="#0C3317"/>
<path d="M47.6098 79.0884H45.0982C44.5958 79.0884 44.1772 79.507 44.1772 80.0093V82.5209C44.1772 83.0233 44.5958 83.4419 45.0982 83.4419H47.6098C48.1121 83.4419 48.5307 83.0233 48.5307 82.5209V80.0093C48.5307 79.507 48.14 79.0884 47.6098 79.0884Z" fill="#0C3317"/>
<path d="M61.6469 80.0093C61.6469 79.507 61.2283 79.0884 60.726 79.0884H57.2934H56.3725H53.8609C53.3585 79.0884 52.9399 79.507 52.9399 80.0093V82.5209C52.9399 83.0233 53.3585 83.4419 53.8609 83.4419H57.2934H58.2144H60.726C61.2283 83.4419 61.6469 83.0233 61.6469 82.5209V80.0093Z" fill="#0C3317"/>
<path d="M126.168 79.0884H123.657C123.154 79.0884 122.736 79.507 122.736 80.0093V82.5209C122.736 83.0233 123.154 83.4419 123.657 83.4419H126.168C126.671 83.4419 127.089 83.0233 127.089 82.5209V80.0093C127.089 79.507 126.671 79.0884 126.168 79.0884Z" fill="#0C3317"/>
<path d="M44.1762 84.3907C44.1762 83.8883 43.7576 83.4697 43.2553 83.4697H40.7437C40.2414 83.4697 39.8228 83.8883 39.8228 84.3907V86.9023C39.8228 87.4046 40.2414 87.8232 40.7437 87.8232H43.2553C43.7576 87.8232 44.1762 87.4046 44.1762 86.9023V84.3907Z" fill="#0C3317"/>
<path d="M122.735 84.3907C122.735 83.8883 122.317 83.4697 121.814 83.4697H119.303C118.8 83.4697 118.382 83.8883 118.382 84.3907V86.9023C118.382 87.4046 118.8 87.8232 119.303 87.8232H121.814C122.317 87.8232 122.735 87.4046 122.735 86.9023V84.3907Z" fill="#0C3317"/>
<path d="M161.05 83.4421H158.539C158.036 83.4421 157.618 83.8607 157.618 84.363V87.7956V91.2281C157.618 91.7305 158.036 92.1491 158.539 92.1491H161.05C161.553 92.1491 161.971 91.7305 161.971 91.2281V87.7956V86.8746V84.363C161.999 83.8607 161.58 83.4421 161.05 83.4421Z" fill="#0C3317"/>
<path d="M18.9209 96.5302H21.4326C21.9349 96.5302 22.3535 96.1116 22.3535 95.6093V93.0976C22.3535 92.5953 21.9349 92.1767 21.4326 92.1767H18.9209C18.4186 92.1767 18 92.5953 18 93.0976V95.6093C18 96.1395 18.4186 96.5302 18.9209 96.5302Z" fill="#0C3317"/>
<path d="M58.185 96.5302H60.6966C61.199 96.5302 61.6176 96.1116 61.6176 95.6093V92.1767V88.7441C61.6176 88.2418 61.199 87.8232 60.6966 87.8232H57.2641H53.8315C53.3292 87.8232 52.9106 87.4046 52.9106 86.9023V84.3907C52.9106 83.8883 52.492 83.4697 51.9897 83.4697H49.478C48.9757 83.4697 48.5571 83.8883 48.5571 84.3907V86.9023C48.5571 87.4046 48.1385 87.8232 47.6362 87.8232H45.1245C44.6222 87.8232 44.2036 88.2418 44.2036 88.7441V91.2558C44.2036 91.7581 44.6222 92.1767 45.1245 92.1767H47.6362C48.1385 92.1767 48.5571 92.5953 48.5571 93.0976V95.6093C48.5571 96.1116 48.9757 96.5302 49.478 96.5302H51.9897C52.492 96.5302 52.9106 96.1116 52.9106 95.6093V93.0976C52.9106 92.5953 53.3292 92.1767 53.8315 92.1767H56.3432C56.8455 92.1767 57.2641 92.5953 57.2641 93.0976V95.6093C57.2641 96.1395 57.6827 96.5302 58.185 96.5302Z" fill="#0C3317"/>
<path d="M45.0982 100.911H47.6098C48.1121 100.911 48.5307 100.493 48.5307 99.9905V97.4789C48.5307 96.9766 48.1121 96.558 47.6098 96.558H45.0982C44.5958 96.558 44.1772 96.9766 44.1772 97.4789V99.9905C44.1772 100.493 44.5958 100.911 45.0982 100.911Z" fill="#0C3317"/>
<path d="M161.051 96.5303H157.618H154.186C153.684 96.5303 153.265 96.1117 153.265 95.6093V92.1768V87.8233V84.3907C153.265 83.8884 153.684 83.4698 154.186 83.4698H156.697C157.2 83.4698 157.618 83.0512 157.618 82.5489V80.0372C157.618 79.5349 157.2 79.1163 156.697 79.1163H154.186C153.684 79.1163 153.265 78.6977 153.265 78.1954V74.7628V70.4093V69.4884V66.9768C153.265 66.4745 152.846 66.0558 152.344 66.0558H149.832C149.33 66.0558 148.911 66.4745 148.911 66.9768V70.4093V74.7628V78.1954C148.911 78.6977 148.493 79.1163 147.99 79.1163H145.479C144.977 79.1163 144.558 79.5349 144.558 80.0372V82.5489C144.558 83.0512 144.977 83.4698 145.479 83.4698H147.99C148.493 83.4698 148.911 83.8884 148.911 84.3907V86.9024C148.911 87.4047 148.493 87.8233 147.99 87.8233H145.479C144.977 87.8233 144.558 88.2419 144.558 88.7442V91.2558C144.558 91.7582 144.977 92.1768 145.479 92.1768H147.99C148.493 92.1768 148.911 92.5954 148.911 93.0977V95.6093C148.911 96.1117 148.493 96.5303 147.99 96.5303H144.558H140.204H136.772C136.27 96.5303 135.851 96.1117 135.851 95.6093V92.1768V88.7442C135.851 88.2419 136.27 87.8233 136.772 87.8233H139.284C139.786 87.8233 140.204 87.4047 140.204 86.9024V84.3907C140.204 83.8884 139.786 83.4698 139.284 83.4698H135.851H132.418C131.916 83.4698 131.497 83.8884 131.497 84.3907V86.9024C131.497 87.4047 131.079 87.8233 130.577 87.8233H127.144H123.711C123.209 87.8233 122.79 88.2419 122.79 88.7442V92.1768V95.6093C122.79 96.1117 123.209 96.5303 123.711 96.5303H126.223C126.725 96.5303 127.144 96.1117 127.144 95.6093V93.0977C127.144 92.5954 127.563 92.1768 128.065 92.1768H130.577C131.079 92.1768 131.497 92.5954 131.497 93.0977V95.6093C131.497 96.1117 131.079 96.5303 130.577 96.5303H128.065C127.563 96.5303 127.144 96.9489 127.144 97.4512V99.9628C127.144 100.465 127.563 100.884 128.065 100.884H130.577C131.079 100.884 131.497 101.302 131.497 101.805V104.316C131.497 104.819 131.079 105.237 130.577 105.237H128.065C127.563 105.237 127.144 105.656 127.144 106.158V108.67C127.144 109.172 127.563 109.591 128.065 109.591H131.497H134.93C135.432 109.591 135.851 109.172 135.851 108.67V105.237V101.805C135.851 101.302 136.27 100.884 136.772 100.884H140.204H143.637C144.139 100.884 144.558 101.302 144.558 101.805V104.316C144.558 104.819 144.139 105.237 143.637 105.237H141.125C140.623 105.237 140.204 105.656 140.204 106.158V108.67C140.204 109.172 140.623 109.591 141.125 109.591H143.637C144.139 109.591 144.558 110.009 144.558 110.512V113.023C144.558 113.526 144.139 113.944 143.637 113.944H141.125C140.623 113.944 140.204 114.363 140.204 114.865V117.377C140.204 117.879 140.623 118.298 141.125 118.298H143.637C144.139 118.298 144.558 118.716 144.558 119.219V121.73C144.558 122.233 144.139 122.651 143.637 122.651H140.204H136.772C136.27 122.651 135.851 122.233 135.851 121.73V119.219C135.851 118.716 135.432 118.298 134.93 118.298H132.418C131.916 118.298 131.497 117.879 131.497 117.377V114.865C131.497 114.363 131.079 113.944 130.577 113.944H128.065C127.563 113.944 127.144 114.363 127.144 114.865V117.377C127.144 117.879 126.725 118.298 126.223 118.298H123.711C123.209 118.298 122.79 118.716 122.79 119.219V122.651V126.084C122.79 126.586 122.372 127.005 121.87 127.005H119.358C118.856 127.005 118.437 127.423 118.437 127.926V130.437C118.437 130.94 118.018 131.358 117.516 131.358H115.004C114.502 131.358 114.083 131.777 114.083 132.279V134.791C114.083 135.293 114.502 135.712 115.004 135.712H118.437H121.87C122.372 135.712 122.79 136.13 122.79 136.633V140.065V143.498C122.79 144 123.209 144.419 123.711 144.419H126.223C126.725 144.419 127.144 144.837 127.144 145.34V147.851C127.144 148.353 127.563 148.772 128.065 148.772H130.577C131.079 148.772 131.497 148.353 131.497 147.851V145.34C131.497 144.837 131.916 144.419 132.418 144.419H134.93C135.432 144.419 135.851 144.837 135.851 145.34V148.772V153.126V156.698C135.851 157.2 136.27 157.619 136.772 157.619H140.204H144.558H145.479H147.99C148.493 157.619 148.911 157.2 148.911 156.698V154.186C148.911 153.684 148.493 153.265 147.99 153.265H145.479C144.977 153.265 144.558 152.847 144.558 152.344V149.833C144.558 149.33 144.139 148.912 143.637 148.912H141.125C140.623 148.912 140.204 148.493 140.204 147.991V145.479C140.204 144.977 140.623 144.558 141.125 144.558H143.637C144.139 144.558 144.558 144.14 144.558 143.637V141.126C144.558 140.623 144.977 140.205 145.479 140.205H147.99C148.493 140.205 148.911 139.786 148.911 139.284V136.772C148.911 136.27 148.493 135.851 147.99 135.851H145.479C144.977 135.851 144.558 135.433 144.558 134.93V132.419C144.558 131.916 144.977 131.498 145.479 131.498H148.911H152.344C152.846 131.498 153.265 131.916 153.265 132.419V134.93C153.265 135.433 153.684 135.851 154.186 135.851H156.697C157.2 135.851 157.618 136.27 157.618 136.772V139.284C157.618 139.786 158.037 140.205 158.539 140.205H161.051C161.553 140.205 161.972 139.786 161.972 139.284V135.851V131.498V128.065C161.972 127.563 161.553 127.144 161.051 127.144H158.539C158.037 127.144 157.618 126.726 157.618 126.223V123.712C157.618 123.209 157.2 122.791 156.697 122.791H154.186C153.684 122.791 153.265 123.209 153.265 123.712V126.223C153.265 126.726 152.846 127.144 152.344 127.144H149.832C149.33 127.144 148.911 126.726 148.911 126.223V123.712C148.911 123.209 149.33 122.791 149.832 122.791H152.344C152.846 122.791 153.265 122.372 153.265 121.87V119.358C153.265 118.856 152.846 118.437 152.344 118.437H149.832C149.33 118.437 148.911 118.019 148.911 117.516V115.005C148.911 114.502 149.33 114.084 149.832 114.084H152.344C152.846 114.084 153.265 114.502 153.265 115.005V117.516C153.265 118.019 153.684 118.437 154.186 118.437H156.697C157.2 118.437 157.618 118.856 157.618 119.358V121.87C157.618 122.372 158.037 122.791 158.539 122.791H161.051C161.553 122.791 161.972 122.372 161.972 121.87V118.437V115.005C161.972 114.502 161.553 114.084 161.051 114.084H158.539C158.037 114.084 157.618 113.665 157.618 113.163V110.651C157.618 110.149 158.037 109.73 158.539 109.73H161.051C161.553 109.73 161.972 109.312 161.972 108.809V105.377V101.023V97.5907C162 96.9489 161.581 96.5303 161.051 96.5303ZM131.442 140.177H128.009C127.507 140.177 127.088 139.758 127.088 139.256V135.823V131.47V128.037C127.088 127.535 127.507 127.116 128.009 127.116H131.442H135.795H139.228C139.73 127.116 140.149 127.535 140.149 128.037V131.47V135.823V139.256C140.149 139.758 139.73 140.177 139.228 140.177H135.795H131.442ZM149.832 109.619C149.33 109.619 148.911 109.2 148.911 108.698V106.186C148.911 105.684 149.33 105.265 149.832 105.265H152.344C152.846 105.265 153.265 104.847 153.265 104.344V101.833C153.265 101.33 153.684 100.912 154.186 100.912H156.697C157.2 100.912 157.618 101.33 157.618 101.833V104.344C157.618 104.847 157.2 105.265 156.697 105.265H154.186C153.684 105.265 153.265 105.684 153.265 106.186V108.698C153.265 109.2 152.846 109.619 152.344 109.619H149.832Z" fill="#0C3317"/>
<path d="M39.8242 100.912V96.5581V92.2046V88.772C39.8242 88.2697 39.4056 87.8511 38.9033 87.8511H35.4428H31.0893H26.7358H25.8149H23.3033C22.8009 87.8511 22.3823 88.2697 22.3823 88.772V91.2836C22.3823 91.786 22.8009 92.2046 23.3033 92.2046H26.7358H30.1684C30.6707 92.2046 31.0893 92.6232 31.0893 93.1255V96.5581V99.9906C31.0893 100.493 31.5079 100.912 32.0102 100.912H34.5219C35.0242 100.912 35.4428 101.33 35.4428 101.832V104.344C35.4428 104.846 35.8614 105.265 36.3637 105.265H38.8753C39.3777 105.265 39.7963 104.846 39.7963 104.344V100.912H39.8242Z" fill="#0C3317"/>
<path d="M121.786 100.912H119.274C118.772 100.912 118.354 101.33 118.354 101.833V104.344C118.354 104.847 118.772 105.265 119.274 105.265H121.786C122.288 105.265 122.707 104.847 122.707 104.344V101.833C122.735 101.33 122.316 100.912 121.786 100.912Z" fill="#0C3317"/>
<path d="M26.7358 105.265V100.911V99.9905V97.4789C26.7358 96.9766 26.3172 96.558 25.8149 96.558H23.3033C22.8009 96.558 22.3823 96.9766 22.3823 97.4789V100.911V105.265V108.698C22.3823 109.2 22.8009 109.618 23.3033 109.618H25.8149C26.3172 109.618 26.7358 109.2 26.7358 108.698V105.265Z" fill="#0C3317"/>
<path d="M52.9106 109.619H53.8315H56.3431C56.8455 109.619 57.2641 109.2 57.2641 108.698V106.186C57.2641 105.684 56.8455 105.265 56.3431 105.265H53.8315C53.3292 105.265 52.9106 104.846 52.9106 104.344V101.833C52.9106 101.33 52.492 100.912 51.9897 100.912H49.478C48.9757 100.912 48.5571 101.33 48.5571 101.833V104.344C48.5571 104.846 48.1385 105.265 47.6362 105.265H45.1245C44.6222 105.265 44.2036 105.684 44.2036 106.186V108.698C44.2036 109.2 44.6222 109.619 45.1245 109.619H48.5571H52.9106Z" fill="#0C3317"/>
<path d="M40.7437 114H43.2553C43.7576 114 44.1762 113.581 44.1762 113.079V110.567C44.1762 110.065 43.7576 109.647 43.2553 109.647H40.7437C40.2414 109.647 39.8228 110.065 39.8228 110.567V113.079C39.8228 113.581 40.2414 114 40.7437 114Z" fill="#0C3317"/>
<path d="M122.736 113.079C122.736 113.582 123.154 114 123.657 114H126.168C126.671 114 127.089 113.582 127.089 113.079V110.568C127.089 110.065 126.671 109.647 126.168 109.647H123.657C123.154 109.647 122.736 110.065 122.736 110.568V113.079Z" fill="#0C3317"/>
<path d="M36.3907 118.354H38.9023C39.4046 118.354 39.8232 117.935 39.8232 117.433V114.921C39.8232 114.419 39.4046 114 38.9023 114H36.3907C35.8884 114 35.4698 113.581 35.4698 113.079V110.567C35.4698 110.065 35.0511 109.647 34.5488 109.647H31.0884H27.6558C27.1535 109.647 26.7349 110.065 26.7349 110.567V114V117.433C26.7349 117.935 27.1535 118.354 27.6558 118.354H31.0884H35.4418H36.3907Z" fill="#0C3317"/>
<path d="M45.0982 118.353H47.6098C48.1121 118.353 48.5307 117.935 48.5307 117.432V114.921C48.5307 114.418 48.1121 114 47.6098 114H45.0982C44.5958 114 44.1772 114.418 44.1772 114.921V117.432C44.1772 117.935 44.5958 118.353 45.0982 118.353Z" fill="#0C3317"/>
<path d="M18.9209 127.088H21.4326C21.9349 127.088 22.3535 126.67 22.3535 126.167V122.735V118.381V114V113.079V110.567C22.3535 110.065 21.9349 109.647 21.4326 109.647H18.9209C18.4186 109.647 18 110.065 18 110.567V114V118.354V122.707V126.14C18 126.67 18.4186 127.088 18.9209 127.088Z" fill="#0C3317"/>
<path d="M27.6558 127.088H31.0884H32.0093H34.5209C35.0232 127.088 35.4418 126.67 35.4418 126.167V123.656C35.4418 123.153 35.0232 122.735 34.5209 122.735H31.0884H30.1674H27.6558C27.1535 122.735 26.7349 123.153 26.7349 123.656V126.167C26.7349 126.67 27.1535 127.088 27.6558 127.088Z" fill="#0C3317"/>
<path d="M78.1679 122.735H75.6563C75.154 122.735 74.7354 123.153 74.7354 123.656V126.167C74.7354 126.67 75.154 127.088 75.6563 127.088H78.1679C78.6702 127.088 79.0888 126.67 79.0888 126.167V123.656C79.0888 123.126 78.6702 122.735 78.1679 122.735Z" fill="#0C3317"/>
<path d="M88.7441 127.088H91.2558C91.7581 127.088 92.1767 126.67 92.1767 126.167V123.656C92.1767 123.153 91.7581 122.735 91.2558 122.735H87.8232H86.9023H84.3907C83.8883 122.735 83.4697 123.153 83.4697 123.656V126.167C83.4697 126.67 83.8883 127.088 84.3907 127.088H87.8232H88.7441Z" fill="#0C3317"/>
<path d="M114 122.735V119.302C114 118.8 113.581 118.381 113.079 118.381H109.646H105.293H100.939H96.5859H95.665H93.1533C92.651 118.381 92.2324 118.8 92.2324 119.302V121.814C92.2324 122.316 92.651 122.735 93.1533 122.735H96.5859H100.939H104.372C104.874 122.735 105.293 123.154 105.293 123.656V127.088V130.521C105.293 131.023 105.711 131.442 106.214 131.442H108.725C109.228 131.442 109.646 131.023 109.646 130.521V128.009C109.646 127.507 110.065 127.088 110.567 127.088H113.079C113.581 127.088 114 126.67 114 126.167V122.735Z" fill="#0C3317"/>
<path d="M135.824 132.363C135.824 131.86 135.405 131.442 134.903 131.442H132.391C131.889 131.442 131.47 131.86 131.47 132.363V134.874C131.47 135.377 131.889 135.795 132.391 135.795H134.903C135.405 135.795 135.824 135.377 135.824 134.874V132.363Z" fill="#0C3317"/>
<path d="M84.3907 135.823C83.8883 135.823 83.4697 136.242 83.4697 136.744V139.256C83.4697 139.758 83.8883 140.177 84.3907 140.177H86.9023C87.4046 140.177 87.8232 139.758 87.8232 139.256V136.744C87.8232 136.242 87.4046 135.823 86.9023 135.823H84.3907Z" fill="#0C3317"/>
<path d="M100.912 143.609C100.912 144.112 101.33 144.53 101.833 144.53H104.344C104.846 144.53 105.265 144.112 105.265 143.609V140.177V135.823V132.391C105.265 131.888 104.846 131.47 104.344 131.47H100.912H99.9907H97.479C96.9767 131.47 96.5581 131.888 96.5581 132.391V134.902C96.5581 135.405 96.9767 135.823 97.479 135.823H99.9907C100.493 135.823 100.912 136.242 100.912 136.744V140.177V143.609Z" fill="#0C3317"/>
<path d="M110.568 140.177C110.066 140.177 109.647 140.595 109.647 141.098V143.609C109.647 144.112 110.066 144.53 110.568 144.53H114H114.921H117.433C117.935 144.53 118.354 144.112 118.354 143.609V141.098C118.354 140.595 117.935 140.177 117.433 140.177H114H113.08H110.568Z" fill="#0C3317"/>
<path d="M152.344 140.177H149.832C149.33 140.177 148.911 140.595 148.911 141.098V143.609C148.911 144.112 149.33 144.53 149.832 144.53H152.344C152.846 144.53 153.265 144.112 153.265 143.609V141.098C153.265 140.595 152.846 140.177 152.344 140.177Z" fill="#0C3317"/>
<path d="M70.3538 144.53V140.177V136.744C70.3538 136.242 70.7724 135.823 71.2747 135.823H73.7864C74.2887 135.823 74.7073 136.242 74.7073 136.744V140.177V144.53V147.963C74.7073 148.465 74.2887 148.884 73.7864 148.884H71.2747C70.7724 148.884 70.3538 149.302 70.3538 149.805V152.316C70.3538 152.819 70.7724 153.237 71.2747 153.237H74.7073H78.1399C78.6422 153.237 79.0608 152.819 79.0608 152.316V148.884V145.451C79.0608 144.949 79.4794 144.53 79.9817 144.53H82.4934C82.9957 144.53 83.4143 144.112 83.4143 143.609V141.098C83.4143 140.595 82.9957 140.177 82.4934 140.177H79.9817C79.4794 140.177 79.0608 139.758 79.0608 139.256V136.744C79.0608 136.242 79.4794 135.823 79.9817 135.823H82.4934C82.9957 135.823 83.4143 135.405 83.4143 134.902V131.47V130.549V128.037C83.4143 127.535 82.9957 127.116 82.4934 127.116H79.9817C79.4794 127.116 79.0608 127.535 79.0608 128.037V130.549C79.0608 131.051 78.6422 131.47 78.1399 131.47H74.7073H71.2747C70.7724 131.47 70.3538 131.051 70.3538 130.549V128.037C70.3538 127.535 69.9352 127.116 69.4329 127.116H66.0003H62.5678C62.0654 127.116 61.6468 126.698 61.6468 126.195V122.763V118.409V114.977C61.6468 114.474 61.2282 114.056 60.7259 114.056H57.2934H53.8608C53.3585 114.056 52.9399 114.474 52.9399 114.977V117.488C52.9399 117.991 52.5213 118.409 52.0189 118.409H49.5073C49.005 118.409 48.5864 118.828 48.5864 119.33V121.842C48.5864 122.344 48.1678 122.763 47.6654 122.763H45.1538C44.6515 122.763 44.2329 122.344 44.2329 121.842V119.33C44.2329 118.828 43.8143 118.409 43.312 118.409H40.8003C40.298 118.409 39.8794 118.828 39.8794 119.33V122.763V126.195C39.8794 126.698 40.298 127.116 40.8003 127.116H44.2329H48.5864H52.0189C52.5213 127.116 52.9399 127.535 52.9399 128.037V130.549C52.9399 131.051 53.3585 131.47 53.8608 131.47H57.2934H61.6468H65.0794C65.5817 131.47 66.0003 131.888 66.0003 132.391V134.902C66.0003 135.405 65.5817 135.823 65.0794 135.823H61.6468H58.1864C57.684 135.823 57.2654 136.242 57.2654 136.744V139.256C57.2654 139.758 56.8468 140.177 56.3445 140.177H53.8329C53.3306 140.177 52.912 140.595 52.912 141.098V144.53V148.884V152.316C52.912 152.819 53.3306 153.237 53.8329 153.237H56.3445C56.8468 153.237 57.2654 152.819 57.2654 152.316V149.805C57.2654 149.302 57.684 148.884 58.1864 148.884H60.698C61.2003 148.884 61.6189 148.465 61.6189 147.963V145.451C61.6189 144.949 62.0375 144.53 62.5399 144.53H65.0515C65.5538 144.53 65.9724 144.949 65.9724 145.451V147.963C65.9724 148.465 66.391 148.884 66.8934 148.884H69.405C69.9073 148.884 70.3259 148.465 70.3259 147.963V144.53H70.3538Z" fill="#0C3317"/>
<path d="M147.963 144.53H145.452C144.949 144.53 144.531 144.949 144.531 145.451V147.963C144.531 148.465 144.949 148.884 145.452 148.884H147.963C148.466 148.884 148.884 148.465 148.884 147.963V145.451C148.912 144.949 148.494 144.53 147.963 144.53Z" fill="#0C3317"/>
<path d="M153.265 147.963C153.265 148.465 153.684 148.884 154.186 148.884H156.698C157.2 148.884 157.619 148.465 157.619 147.963V145.451C157.619 144.949 157.2 144.53 156.698 144.53H154.186C153.684 144.53 153.265 144.949 153.265 145.451V147.963Z" fill="#0C3317"/>
<path d="M65.079 148.912H62.5674C62.0651 148.912 61.6465 149.33 61.6465 149.833V152.344C61.6465 152.847 62.0651 153.265 62.5674 153.265H65.079C65.5814 153.265 66 152.847 66 152.344V149.833C66 149.33 65.5814 148.912 65.079 148.912Z" fill="#0C3317"/>
<path d="M106.186 153.265H108.697C109.2 153.265 109.618 152.847 109.618 152.344V148.912V147.991V145.479C109.618 144.977 109.2 144.558 108.697 144.558H106.186C105.683 144.558 105.265 144.977 105.265 145.479V148.912V152.344C105.265 152.847 105.683 153.265 106.186 153.265Z" fill="#0C3317"/>
<path d="M126.167 148.912H122.735H118.381H114.949C114.446 148.912 114.028 149.33 114.028 149.833V153.265V156.698C114.028 157.2 113.609 157.619 113.107 157.619H109.674H105.321H104.4H101.888C101.386 157.619 100.967 158.037 100.967 158.54V161.051C100.967 161.553 101.386 161.972 101.888 161.972H105.321H109.674H114H118.353H119.274H121.786C122.288 161.972 122.707 161.553 122.707 161.051V158.54C122.707 158.037 122.288 157.619 121.786 157.619H119.274C118.772 157.619 118.353 157.2 118.353 156.698V154.186C118.353 153.684 118.772 153.265 119.274 153.265H122.707H123.628H126.139C126.642 153.265 127.06 152.847 127.06 152.344V149.833C127.088 149.33 126.67 148.912 126.167 148.912Z" fill="#0C3317"/>
<path d="M100.911 153.265V149.833C100.911 149.33 100.493 148.912 99.9905 148.912H96.558H92.2045H87.851H86.93H84.4184C83.9161 148.912 83.4975 149.33 83.4975 149.833V152.344C83.4975 152.847 83.9161 153.265 84.4184 153.265H87.851H91.2835C91.7859 153.265 92.2045 153.684 92.2045 154.186V156.698C92.2045 157.2 91.7859 157.619 91.2835 157.619H87.851H84.4184C83.9161 157.619 83.4975 157.2 83.4975 156.698V154.186C83.4975 153.684 83.0789 153.265 82.5765 153.265H80.0649C79.5626 153.265 79.144 153.684 79.144 154.186V156.698C79.144 157.2 78.7254 157.619 78.2231 157.619H74.7905H73.8696H71.3579C70.8556 157.619 70.437 158.037 70.437 158.54V161.051C70.437 161.553 70.8556 161.972 71.3579 161.972H74.7905H79.144H83.4975H87.851H92.2045H95.637C96.1393 161.972 96.558 161.553 96.558 161.051V158.54C96.558 158.037 96.9766 157.619 97.4789 157.619H99.9905C100.493 157.619 100.911 157.2 100.911 156.698V153.265V153.265Z" fill="#0C3317"/>
<path d="M161.051 153.265H157.618H154.186C153.683 153.265 153.265 153.684 153.265 154.186V156.698C153.265 157.2 152.846 157.618 152.344 157.618H149.832C149.33 157.618 148.911 158.037 148.911 158.539V161.051C148.911 161.553 149.33 161.972 149.832 161.972H153.265H156.697C157.2 161.972 157.618 161.553 157.618 161.051V158.539C157.618 158.037 158.037 157.618 158.539 157.618H161.051C161.553 157.618 161.972 157.2 161.972 156.698V154.186C162 153.684 161.581 153.265 161.051 153.265Z" fill="#0C3317"/>
<path d="M65.0781 157.619H61.6456H60.6967H58.1851C57.6828 157.619 57.2642 158.037 57.2642 158.54V161.051C57.2642 161.554 57.6828 161.972 58.1851 161.972H61.6177H62.5386H65.0502C65.5525 161.972 65.9711 161.554 65.9711 161.051V158.54C65.999 158.037 65.5804 157.619 65.0781 157.619Z" fill="#0C3317"/>
<path d="M134.875 157.619H132.363C131.861 157.619 131.442 158.037 131.442 158.54V161.051C131.442 161.554 131.861 161.972 132.363 161.972H134.875C135.377 161.972 135.796 161.554 135.796 161.051V158.54C135.824 158.037 135.405 157.619 134.875 157.619Z" fill="#0C3317"/>
<path d="M26.7631 48.5302H48.5864V18H18.0562V48.4744H26.7631V48.5302ZM22.4096 22.3535H44.2329V44.1209H22.4096V22.3535Z" fill="#27A44A"/>
<path d="M39.8236 39.8232V26.7348H26.7352V39.8232H39.8236Z" fill="#27A44A"/>
<path d="M131.526 18V48.4744H162V18H131.526ZM157.675 26.7349V44.1488H135.879V22.3535H157.647V26.7349H157.675Z" fill="#27A44A"/>
<path d="M140.177 26.7348V39.8232H153.266V26.7348H140.177Z" fill="#27A44A"/>
<path d="M39.8515 131.442H18.0562V162H48.5864V131.525H39.8515V131.442ZM44.2329 157.591H22.4096V135.823H44.2329V157.591Z" fill="#27A44A"/>
<path d="M26.7352 140.177V153.265H39.8236V140.177H26.7352Z" fill="#27A44A"/>
<g filter="url(#filter0_d_2570_3433)">
<rect x="69.894" y="69.8937" width="40.2128" height="40.2128" rx="8" fill="#27A44A"/>
<rect x="70.644" y="70.6437" width="38.7128" height="38.7128" rx="7.25" stroke="white" stroke-opacity="0.24" stroke-width="1.5" stroke-linejoin="round"/>
</g>
<path fill-rule="evenodd" clip-rule="evenodd" d="M85.3628 100.383C86.6532 101.166 87.8511 101.718 88.7815 102.035C89.2497 102.201 90.0208 102.201 90.489 102.035C94.4823 100.672 103.405 94.9852 103.405 85.3462C103.405 81.0912 99.9765 77.6487 95.7491 77.6487C93.2568 77.6487 91.026 78.8605 89.6353 80.7332C88.2445 78.8605 86.0275 77.6487 83.5214 77.6487C79.294 77.6487 75.8652 81.0912 75.8652 85.3462C75.8652 88.4377 76.7831 91.1226 78.1618 93.3888C79.1234 91.4456 81.5842 87.5393 85.0302 84.9992C85.1124 84.9386 85.1977 84.8854 85.2857 84.8393C85.4019 84.7509 85.5214 84.6651 85.6439 84.5822C89.1313 82.2243 93.8335 83.0859 96.1465 86.5068C98.4595 89.9277 97.5075 94.6124 94.0201 96.9704C93.7379 97.1612 93.4478 97.3309 93.1516 97.4798C92.1303 98.2409 89.539 99.5707 85.3628 100.383Z" fill="white"/>
<path fill-rule="evenodd" clip-rule="evenodd" d="M86.0533 87.0238C86.1342 86.9623 86.2173 86.9026 86.3026 86.8449C88.7295 85.204 92.0095 85.815 93.6286 88.2096C95.2477 90.6042 94.5928 93.8757 92.1659 95.5166C91.9696 95.6494 91.7676 95.7674 91.5615 95.8709C90.7251 96.4945 88.3741 97.6644 84.4881 98.1434L87.765 95.0723L78.7236 98.4235L85.5176 90.8235L80.9881 93.2261C81.5545 91.9795 83.3249 89.0161 85.8755 87.1351C85.9328 87.0929 85.9921 87.0559 86.0533 87.0238Z" fill="white"/>
<rect x="0.75" y="0.75" width="178.5" height="178.5" rx="19.25" stroke="#08491A" stroke-opacity="0.2" stroke-width="1.5"/>
<defs>
<filter id="filter0_d_2570_3433" x="61.894" y="65.8937" width="56.2129" height="56.2128" filterUnits="userSpaceOnUse" color-interpolation-filters="sRGB">
<feFlood flood-opacity="0" result="BackgroundImageFix"/>
<feColorMatrix in="SourceAlpha" type="matrix" values="0 0 0 0 0 0 0 0 0 0 0 0 0 0 0 0 0 0 127 0" result="hardAlpha"/>
<feOffset dy="4"/>
<feGaussianBlur stdDeviation="4"/>
<feComposite in2="hardAlpha" operator="out"/>
<feColorMatrix type="matrix" values="0 0 0 0 0.152941 0 0 0 0 0.643137 0 0 0 0 0.290196 0 0 0 0.24 0"/>
<feBlend mode="normal" in2="BackgroundImageFix" result="effect1_dropShadow_2570_3433"/>
<feBlend mode="normal" in="SourceGraphic" in2="effect1_dropShadow_2570_3433" result="shape"/>
</filter>
</defs>
</svg>
