<svg width="107" height="107" viewBox="0 0 107 107" fill="none" xmlns="http://www.w3.org/2000/svg">
<g clip-path="url(#clip0_3013_5332)">
<g filter="url(#filter0_d_3013_5332)">
<rect width="107" height="107" rx="12.84" fill="#0C3317"/>
<g clip-path="url(#clip1_3013_5332)">
<path d="M44.9732 13.2881H47.0137H47.5611H49.0542C49.3528 13.2881 49.6016 13.0393 49.6016 12.7407V11.2476C49.6016 10.949 49.3528 10.7002 49.0542 10.7002H47.0137H46.4662H44.9732C44.6746 10.7002 44.4258 10.949 44.4258 11.2476V12.7407C44.4258 13.0393 44.658 13.2881 44.9732 13.2881Z" fill="white"/>
<path d="M52.7545 13.2881H54.2475C54.5461 13.2881 54.7949 13.537 54.7949 13.8356V15.3286C54.7949 15.6272 55.0438 15.876 55.3424 15.876H56.8354C57.134 15.876 57.3828 16.1249 57.3828 16.4235V17.9165C57.3828 18.2151 57.134 18.4639 56.8354 18.4639H55.3424C55.0438 18.4639 54.7949 18.7128 54.7949 19.0114V20.5044C54.7949 20.803 54.5461 21.0518 54.2475 21.0518H52.7545C52.4559 21.0518 52.207 21.3007 52.207 21.5993V23.0923C52.207 23.3909 52.4559 23.6398 52.7545 23.6398H54.7949H56.8354C57.134 23.6398 57.3828 23.8886 57.3828 24.1872V26.2277V28.2681C57.3828 28.5667 57.6317 28.8156 57.9303 28.8156H59.4233C59.7219 28.8156 59.9708 28.5667 59.9708 28.2681V26.2608V23.6729V21.6325C59.9708 21.3339 60.2196 21.085 60.5182 21.085H62.0112C62.3098 21.085 62.5587 20.8362 62.5587 20.5376V19.0446C62.5587 18.746 62.3098 18.4971 62.0112 18.4971H60.5182C60.2196 18.4971 59.9708 18.2483 59.9708 17.9497V16.4567C59.9708 16.158 60.2196 15.9092 60.5182 15.9092H62.5587H63.1061H64.5991C64.8977 15.9092 65.1466 15.6604 65.1466 15.3618V13.8687C65.1466 13.5701 64.8977 13.3213 64.5991 13.3213H63.1061C62.8075 13.3213 62.5587 13.0725 62.5587 12.7739V11.2808C62.5587 10.9822 62.3098 10.7334 62.0112 10.7334H60.5182C60.2196 10.7334 59.9708 10.9822 59.9708 11.2808V12.7739C59.9708 13.0725 59.7219 13.3213 59.4233 13.3213H57.9303C57.6317 13.3213 57.3828 13.0725 57.3828 12.7739V11.2808C57.3828 10.9822 57.134 10.7334 56.8354 10.7334H54.7949H54.2475H52.7545C52.4559 10.7334 52.207 10.9822 52.207 11.2808V12.7739C52.207 13.0393 52.4559 13.2881 52.7545 13.2881Z" fill="white"/>
<path d="M65.726 13.2881H67.219C67.5176 13.2881 67.7664 13.5369 67.7664 13.8355V15.876V17.9165C67.7664 18.2151 68.0153 18.4639 68.3139 18.4639H70.3543H70.9018H72.3948C72.6934 18.4639 72.9422 18.2151 72.9422 17.9165V16.4235C72.9422 16.1248 72.6934 15.876 72.3948 15.876H70.9018C70.6032 15.876 70.3543 15.6272 70.3543 15.3286V13.8355C70.3543 13.5369 70.6032 13.2881 70.9018 13.2881H72.9422H73.4897H74.9827C75.2813 13.2881 75.5301 13.0393 75.5301 12.7407V11.2476C75.5301 10.949 75.2813 10.7002 74.9827 10.7002H72.9422H70.3543H67.7664H67.219H65.726C65.4274 10.7002 65.1785 10.949 65.1785 11.2476V12.7407C65.1619 13.0393 65.4108 13.2881 65.726 13.2881Z" fill="white"/>
<path d="M41.8213 15.329C41.8213 15.6276 42.0701 15.8765 42.3687 15.8765H43.8618C44.1604 15.8765 44.4092 15.6276 44.4092 15.329V13.836C44.4092 13.5374 44.1604 13.2886 43.8618 13.2886H42.3687C42.0701 13.2886 41.8213 13.5374 41.8213 13.836V15.329Z" fill="white"/>
<path d="M32.0004 18.48H34.0409H34.5883H36.0813C36.3799 18.48 36.6288 18.2312 36.6288 17.9326V16.4396C36.6288 16.141 36.3799 15.8921 36.0813 15.8921H34.5883C34.2897 15.8921 34.0409 15.6433 34.0409 15.3447V13.8517C34.0409 13.5531 34.2897 13.3042 34.5883 13.3042H36.0813C36.3799 13.3042 36.6288 13.5531 36.6288 13.8517V15.3447C36.6288 15.6433 36.8776 15.8921 37.1762 15.8921H38.6692C38.9678 15.8921 39.2167 15.6433 39.2167 15.3447V13.8517C39.2167 13.5531 39.4655 13.3042 39.7641 13.3042H41.2571C41.5557 13.3042 41.8046 13.0554 41.8046 12.7568V11.2638C41.8046 10.9651 41.5557 10.7163 41.2571 10.7163H39.2333H36.6453H34.0574H32.017C31.7184 10.7163 31.4695 10.9651 31.4695 11.2638V13.3042V15.8921V17.9326C31.4529 18.2312 31.7018 18.48 32.0004 18.48Z" fill="white"/>
<path d="M44.9732 15.8926C44.6746 15.8926 44.4258 16.1414 44.4258 16.44V17.933C44.4258 18.2316 44.6746 18.4805 44.9732 18.4805H46.4662C46.7649 18.4805 47.0137 18.2316 47.0137 17.933V16.44C47.0137 16.1414 46.7649 15.8926 46.4662 15.8926H44.9732Z" fill="white"/>
<path d="M49.6016 18.4805V20.521C49.6016 20.8196 49.8504 21.0684 50.149 21.0684H51.642C51.9406 21.0684 52.1895 20.8196 52.1895 20.521V18.4805V17.933V16.44C52.1895 16.1414 51.9406 15.8926 51.642 15.8926H50.149C49.8504 15.8926 49.6016 16.1414 49.6016 16.44V18.4805Z" fill="white"/>
<path d="M67.2192 18.4805H65.7262C65.4276 18.4805 65.1787 18.7293 65.1787 19.0279V21.0684V23.1088C65.1787 23.4074 65.4276 23.6563 65.7262 23.6563H67.2192C67.5178 23.6563 67.7666 23.4074 67.7666 23.1088V21.0684V20.5209V19.0279C67.7666 18.7293 67.5178 18.4805 67.2192 18.4805Z" fill="white"/>
<path d="M75.0004 21.0684C75.299 21.0684 75.5479 20.8195 75.5479 20.5209V19.0279C75.5479 18.7293 75.299 18.4805 75.0004 18.4805H73.5074C73.2088 18.4805 72.96 18.7293 72.96 19.0279V20.5209C72.96 20.8195 73.2088 21.0684 73.5074 21.0684H75.0004Z" fill="white"/>
<path d="M70.3535 23.6724H68.3131C68.0145 23.6724 67.7656 23.9212 67.7656 24.2198V26.2603V28.3007C67.7656 28.5993 68.0145 28.8482 68.3131 28.8482H69.8061C70.1047 28.8482 70.3535 28.5993 70.3535 28.3007V26.8077C70.3535 26.5091 70.6024 26.2603 70.901 26.2603H72.394C72.6926 26.2603 72.9414 26.5091 72.9414 26.8077V28.3007C72.9414 28.5993 73.1903 28.8482 73.4889 28.8482H74.9819C75.2805 28.8482 75.5293 28.5993 75.5293 28.3007V26.2603V24.2198C75.5293 23.9212 75.2805 23.6724 74.9819 23.6724H72.9414H70.3535Z" fill="white"/>
<path d="M43.8618 26.2607H42.3687C42.0701 26.2607 41.8213 26.5096 41.8213 26.8082V28.3012C41.8213 28.5998 42.0701 28.8486 42.3687 28.8486H43.8618C44.1604 28.8486 44.4092 28.5998 44.4092 28.3012V26.8082C44.4258 26.5096 44.1769 26.2607 43.8618 26.2607Z" fill="white"/>
<path d="M54.2475 26.2607H52.7545C52.4559 26.2607 52.207 26.5096 52.207 26.8082V28.3012C52.207 28.5998 52.4559 28.8486 52.7545 28.8486H54.2475C54.5461 28.8486 54.7949 28.5998 54.7949 28.3012V26.8082C54.7949 26.5096 54.5461 26.2607 54.2475 26.2607Z" fill="white"/>
<path d="M54.793 30.9052C54.793 31.2038 55.0418 31.4527 55.3404 31.4527H56.8334C57.132 31.4527 57.3809 31.2038 57.3809 30.9052V29.4122C57.3809 29.1136 57.132 28.8647 56.8334 28.8647H55.3404C55.0418 28.8647 54.793 29.1136 54.793 29.4122V30.9052Z" fill="white"/>
<path d="M60.5338 31.4532H62.5742H64.6147C64.9133 31.4532 65.1621 31.2043 65.1621 30.9057V28.8653V28.3178V26.8248C65.1621 26.5262 64.9133 26.2773 64.6147 26.2773H63.1217C62.8231 26.2773 62.5742 26.5262 62.5742 26.8248V28.3178C62.5742 28.6164 62.3254 28.8653 62.0268 28.8653H60.5338C60.2352 28.8653 59.9863 29.1141 59.9863 29.4127V30.9057C59.9863 31.2043 60.2352 31.4532 60.5338 31.4532Z" fill="white"/>
<path d="M26.8082 34.0415H28.3012C28.5998 34.0415 28.8486 33.7927 28.8486 33.4941V32.0011C28.8486 31.7024 28.5998 31.4536 28.3012 31.4536H26.8082C26.5096 31.4536 26.2607 31.7024 26.2607 32.0011V33.4941C26.2607 33.7927 26.5096 34.0415 26.8082 34.0415Z" fill="white"/>
<path d="M32.0004 34.0406H34.0409H36.0813C36.3799 34.0406 36.6288 34.2894 36.6288 34.5881V36.0811C36.6288 36.3797 36.8776 36.6285 37.1762 36.6285H38.6692C38.9678 36.6285 39.2167 36.3797 39.2167 36.0811V34.5881C39.2167 34.2894 39.4655 34.0406 39.7641 34.0406H41.8046H44.3925H46.4329C46.7316 34.0406 46.9804 34.2894 46.9804 34.5881V36.0811C46.9804 36.3797 47.2292 36.6285 47.5278 36.6285H49.0209C49.3195 36.6285 49.5683 36.3797 49.5683 36.0811V34.0406V32.0001C49.5683 31.7015 49.8171 31.4527 50.1157 31.4527H51.6088C51.9074 31.4527 52.1562 31.2039 52.1562 30.9053V29.4122C52.1562 29.1136 51.9074 28.8648 51.6088 28.8648H50.1157C49.8171 28.8648 49.5683 28.616 49.5683 28.3174V26.8243C49.5683 26.5257 49.8171 26.2769 50.1157 26.2769H51.6088C51.9074 26.2769 52.1562 26.0281 52.1562 25.7294V24.2364C52.1562 23.9378 51.9074 23.689 51.6088 23.689H50.1157C49.8171 23.689 49.5683 23.4401 49.5683 23.1415V21.6485C49.5683 21.3499 49.3195 21.1011 49.0209 21.1011H46.9804H44.9399C44.6413 21.1011 44.3925 21.3499 44.3925 21.6485V23.689V25.7294C44.3925 26.0281 44.6413 26.2769 44.9399 26.2769H46.4329C46.7316 26.2769 46.9804 26.5257 46.9804 26.8243V28.3174C46.9804 28.616 46.7316 28.8648 46.4329 28.8648H44.9399C44.6413 28.8648 44.3925 29.1136 44.3925 29.4122V30.9053C44.3925 31.2039 44.1436 31.4527 43.845 31.4527H41.8046H39.7641C39.4655 31.4527 39.2167 31.2039 39.2167 30.9053V28.8648V26.8077C39.2167 26.5091 39.4655 26.2603 39.7641 26.2603H41.2571C41.5557 26.2603 41.8046 26.0115 41.8046 25.7129V24.2198C41.8046 23.9212 41.5557 23.6724 41.2571 23.6724H39.7641C39.4655 23.6724 39.2167 23.4236 39.2167 23.125V21.6319C39.2167 21.3333 39.4655 21.0845 39.7641 21.0845H41.8046H42.352H43.845C44.1436 21.0845 44.3925 20.8357 44.3925 20.537V19.044C44.3925 18.7454 44.1436 18.4966 43.845 18.4966H41.8046H39.2333H37.1928C36.8942 18.4966 36.6453 18.7454 36.6453 19.044V20.537C36.6453 20.8357 36.3965 21.0845 36.0979 21.0845H34.6049C34.3063 21.0845 34.0574 21.3333 34.0574 21.6319V23.125C34.0574 23.4236 34.3063 23.6724 34.6049 23.6724H36.0979C36.3965 23.6724 36.6453 23.9212 36.6453 24.2198V26.2603V28.3008C36.6453 28.5994 36.3965 28.8482 36.0979 28.8482H34.6049C34.3063 28.8482 34.0574 28.5994 34.0574 28.3008V26.2603V25.7129V24.2198C34.0574 23.9212 33.8086 23.6724 33.51 23.6724H32.017C31.7184 23.6724 31.4695 23.9212 31.4695 24.2198V26.2603V28.8482V31.4361V33.4766C31.4529 33.7918 31.7018 34.0406 32.0004 34.0406Z" fill="white"/>
<path d="M75.5469 33.4941C75.5469 33.7927 75.7957 34.0415 76.0943 34.0415H78.1348H80.7227H81.2701H82.7632C83.0618 34.0415 83.3106 33.7927 83.3106 33.4941V32.0011C83.3106 31.7024 83.0618 31.4536 82.7632 31.4536H80.7227H78.1348H77.5873H76.0943C75.7957 31.4536 75.5469 31.7024 75.5469 32.0011V33.4941Z" fill="white"/>
<path d="M95.7358 31.4536H93.6954H91.1075H89.067C88.7684 31.4536 88.5196 31.7024 88.5196 32.0011V33.4941C88.5196 33.7927 88.2707 34.0415 87.9721 34.0415H86.4791C86.1805 34.0415 85.9317 34.2904 85.9317 34.589V36.082C85.9317 36.3806 85.6828 36.6294 85.3842 36.6294H83.8912C83.5926 36.6294 83.3438 36.8783 83.3438 37.1769V38.6699C83.3438 38.9685 83.5926 39.2173 83.8912 39.2173H85.9317H87.9721C88.2707 39.2173 88.5196 38.9685 88.5196 38.6699V37.1769C88.5196 36.8783 88.7684 36.6294 89.067 36.6294H90.56C90.8586 36.6294 91.1075 36.8783 91.1075 37.1769V38.6699C91.1075 38.9685 91.3563 39.2173 91.6549 39.2173H93.1479C93.4465 39.2173 93.6954 39.4662 93.6954 39.7648V41.2578C93.6954 41.5564 93.9442 41.8052 94.2428 41.8052H95.7358C96.0344 41.8052 96.2833 41.5564 96.2833 41.2578V39.2339V36.646V34.0581V32.0176C96.2999 31.7025 96.051 31.4536 95.7358 31.4536Z" fill="white"/>
<path d="M11.2476 36.6455H12.7407C13.0393 36.6455 13.2881 36.3967 13.2881 36.0981V34.6051C13.2881 34.3065 13.0393 34.0576 12.7407 34.0576H11.2476C10.949 34.0576 10.7002 34.3065 10.7002 34.6051V36.0981C10.7002 36.3967 10.949 36.6455 11.2476 36.6455Z" fill="white"/>
<path d="M17.9321 36.6451H16.439C16.1404 36.6451 15.8916 36.8939 15.8916 37.1925V39.233V41.8209V44.4088V46.9967V49.0371C15.8916 49.3357 16.1404 49.5846 16.439 49.5846H17.9321C18.2307 49.5846 18.4795 49.3357 18.4795 49.0371V46.9967V44.4088V42.3683C18.4795 42.0697 18.7283 41.8209 19.027 41.8209H21.0674H21.6149H23.1079C23.4065 41.8209 23.6553 41.572 23.6553 41.2734V39.7804C23.6553 39.4818 23.4065 39.233 23.1079 39.233H21.6149C21.3163 39.233 21.0674 38.9841 21.0674 38.6855V37.1925C21.0674 36.8939 21.3163 36.6451 21.6149 36.6451H23.1079C23.4065 36.6451 23.6553 36.3962 23.6553 36.0976V34.0571V32.0167C23.6553 31.7181 23.4065 31.4692 23.1079 31.4692H21.0674H18.4795H17.9321H16.439C16.1404 31.4692 15.8916 31.7181 15.8916 32.0167V33.5097C15.8916 33.8083 16.1404 34.0571 16.439 34.0571H17.9321C18.2307 34.0571 18.4795 34.306 18.4795 34.6046V36.0976C18.4795 36.3962 18.2307 36.6451 17.9321 36.6451Z" fill="white"/>
<path d="M28.8486 36.0815C28.8486 36.3801 28.5998 36.6289 28.3012 36.6289H26.8082C26.5096 36.6289 26.2607 36.8778 26.2607 37.1764V38.6694C26.2607 38.968 26.5096 39.2168 26.8082 39.2168H28.3012C28.5998 39.2168 28.8486 39.4657 28.8486 39.7643V41.2573C28.8486 41.5559 29.0975 41.8047 29.3961 41.8047H30.8891C31.1877 41.8047 31.4366 41.5559 31.4366 41.2573V39.7643C31.4366 39.4657 31.6854 39.2168 31.984 39.2168H33.477C33.7756 39.2168 34.0245 38.968 34.0245 38.6694V37.1764C34.0245 36.8778 33.7756 36.6289 33.477 36.6289H31.984C31.6854 36.6289 31.4366 36.3801 31.4366 36.0815V34.5885C31.4366 34.2899 31.1877 34.041 30.8891 34.041H29.3961C29.0975 34.041 28.8486 34.2899 28.8486 34.5885V36.0815Z" fill="white"/>
<path d="M55.3424 36.646H56.8354C57.134 36.646 57.3828 36.3972 57.3828 36.0986V34.6056C57.3828 34.307 57.134 34.0581 56.8354 34.0581H55.3424C55.0438 34.0581 54.7949 33.8093 54.7949 33.5107V32.0177C54.7949 31.7191 54.5461 31.4702 54.2475 31.4702H52.7545C52.4559 31.4702 52.207 31.7191 52.207 32.0177V34.0581V36.082C52.207 36.3806 52.4559 36.6294 52.7545 36.6294H54.7949H55.3424V36.646Z" fill="white"/>
<path d="M11.2476 41.8208H12.7407C13.0393 41.8208 13.2881 41.572 13.2881 41.2734V39.7804C13.2881 39.4817 13.0393 39.2329 12.7407 39.2329H11.2476C10.949 39.2329 10.7002 39.4817 10.7002 39.7804V41.2734C10.7002 41.572 10.949 41.8208 11.2476 41.8208Z" fill="white"/>
<path d="M28.3012 41.8218H26.2608H24.2203C23.9217 41.8218 23.6729 42.0706 23.6729 42.3692V44.4097V46.4502C23.6729 46.7488 23.9217 46.9976 24.2203 46.9976H25.7133C26.0119 46.9976 26.2608 46.7488 26.2608 46.4502V44.9571C26.2608 44.6585 26.5096 44.4097 26.8082 44.4097H28.3012C28.5998 44.4097 28.8487 44.1608 28.8487 43.8622V42.3692C28.8487 42.0706 28.6164 41.8218 28.3012 41.8218Z" fill="white"/>
<path d="M36.6445 42.3687C36.6445 42.0701 36.3957 41.8213 36.0971 41.8213H34.6041C34.3055 41.8213 34.0566 42.0701 34.0566 42.3687V43.8618C34.0566 44.1604 34.3055 44.4092 34.6041 44.4092H36.0971C36.3957 44.4092 36.6445 44.1604 36.6445 43.8618V42.3687Z" fill="white"/>
<path d="M75.547 44.4259V46.4663C75.547 46.7649 75.7958 47.0138 76.0944 47.0138H78.1349H80.7228H81.2702H82.7632C83.0618 47.0138 83.3107 46.7649 83.3107 46.4663V44.9733C83.3107 44.6747 83.0618 44.4259 82.7632 44.4259H80.7228H78.6823C78.3837 44.4259 78.1349 44.177 78.1349 43.8784V42.3854C78.1349 42.0868 78.3837 41.838 78.6823 41.838H80.1753C80.4739 41.838 80.7228 41.5891 80.7228 41.2905V39.7975C80.7228 39.4989 80.4739 39.2501 80.1753 39.2501H78.6823C78.3837 39.2501 78.1349 39.0012 78.1349 38.7026V37.2096C78.1349 36.911 77.886 36.6622 77.5874 36.6622H75.547H73.5065C73.2079 36.6622 72.959 36.4133 72.959 36.1147V34.0742V31.4863V30.9389V29.4459C72.959 29.1473 72.7102 28.8984 72.4116 28.8984H70.9186C70.62 28.8984 70.3711 29.1473 70.3711 29.4459V30.9389C70.3711 31.2375 70.1223 31.4863 69.8237 31.4863H67.7666H65.7262C65.4276 31.4863 65.1787 31.7352 65.1787 32.0338V33.5268C65.1787 33.8254 64.9299 34.0742 64.6313 34.0742H62.5908H62.0434H60.5504C60.2518 34.0742 60.0029 34.3231 60.0029 34.6217V36.1147C60.0029 36.4133 60.2518 36.6622 60.5504 36.6622H62.5908H65.1787H67.7666H69.8071C70.1057 36.6622 70.3546 36.911 70.3546 37.2096V39.2335V41.2739C70.3546 41.5725 70.6034 41.8214 70.902 41.8214H72.395C72.6936 41.8214 72.9425 41.5725 72.9425 41.2739V39.7809C72.9425 39.4823 73.1913 39.2335 73.4899 39.2335H74.9829C75.2815 39.2335 75.5304 39.4823 75.5304 39.7809V41.8214V44.4259H75.547Z" fill="white"/>
<path d="M11.2476 47.0137H12.7407C13.0393 47.0137 13.2881 46.7649 13.2881 46.4662V44.9732C13.2881 44.6746 13.0393 44.4258 12.7407 44.4258H11.2476C10.949 44.4258 10.7002 44.6746 10.7002 44.9732V46.4662C10.7002 46.7649 10.949 47.0137 11.2476 47.0137Z" fill="white"/>
<path d="M28.8486 46.4662C28.8486 46.7649 29.0975 47.0137 29.3961 47.0137H30.8891C31.1877 47.0137 31.4365 46.7649 31.4365 46.4662V44.9732C31.4365 44.6746 31.1877 44.4258 30.8891 44.4258H29.3961C29.0975 44.4258 28.8486 44.6746 28.8486 44.9732V46.4662Z" fill="white"/>
<path d="M28.3012 47.0137H26.8082C26.5096 47.0137 26.2607 47.2625 26.2607 47.5611V49.0541C26.2607 49.3527 26.5096 49.6016 26.8082 49.6016H28.3012C28.5998 49.6016 28.8486 49.3527 28.8486 49.0541V47.5611C28.8486 47.2625 28.6164 47.0137 28.3012 47.0137Z" fill="white"/>
<path d="M36.6455 47.5611C36.6455 47.2625 36.3967 47.0137 36.0981 47.0137H34.0576H33.5102H32.0172C31.7186 47.0137 31.4697 47.2625 31.4697 47.5611V49.0541C31.4697 49.3527 31.7186 49.6016 32.0172 49.6016H34.0576H34.6051H36.0981C36.3967 49.6016 36.6455 49.3527 36.6455 49.0541V47.5611Z" fill="white"/>
<path d="M75.0004 47.0137H73.5074C73.2088 47.0137 72.96 47.2625 72.96 47.5611V49.0541C72.96 49.3527 73.2088 49.6016 73.5074 49.6016H75.0004C75.299 49.6016 75.5479 49.3527 75.5479 49.0541V47.5611C75.5479 47.2625 75.299 47.0137 75.0004 47.0137Z" fill="white"/>
<path d="M26.2608 50.1651C26.2608 49.8665 26.0119 49.6177 25.7133 49.6177H24.2203C23.9217 49.6177 23.6729 49.8665 23.6729 50.1651V51.6581C23.6729 51.9567 23.9217 52.2056 24.2203 52.2056H25.7133C26.0119 52.2056 26.2608 51.9567 26.2608 51.6581V50.1651Z" fill="white"/>
<path d="M72.96 50.1651C72.96 49.8665 72.7111 49.6177 72.4125 49.6177H70.9195C70.6209 49.6177 70.3721 49.8665 70.3721 50.1651V51.6581C70.3721 51.9567 70.6209 52.2056 70.9195 52.2056H72.4125C72.7111 52.2056 72.96 51.9567 72.96 51.6581V50.1651Z" fill="white"/>
<path d="M95.7358 49.6011H94.2428C93.9442 49.6011 93.6953 49.8499 93.6953 50.1485V52.189V54.2294C93.6953 54.528 93.9442 54.7769 94.2428 54.7769H95.7358C96.0344 54.7769 96.2832 54.528 96.2832 54.2294V52.189V51.6415V50.1485C96.2998 49.8499 96.051 49.6011 95.7358 49.6011Z" fill="white"/>
<path d="M11.2476 57.3819H12.7407C13.0393 57.3819 13.2881 57.133 13.2881 56.8344V55.3414C13.2881 55.0428 13.0393 54.7939 12.7407 54.7939H11.2476C10.949 54.7939 10.7002 55.0428 10.7002 55.3414V56.8344C10.7002 57.1496 10.949 57.3819 11.2476 57.3819Z" fill="white"/>
<path d="M34.5885 57.3814H36.0815C36.3801 57.3814 36.629 57.1326 36.629 56.834V54.7935V52.753C36.629 52.4544 36.3801 52.2056 36.0815 52.2056H34.0411H32.0006C31.702 52.2056 31.4532 51.9567 31.4532 51.6581V50.1651C31.4532 49.8665 31.2043 49.6177 30.9057 49.6177H29.4127C29.1141 49.6177 28.8653 49.8665 28.8653 50.1651V51.6581C28.8653 51.9567 28.6164 52.2056 28.3178 52.2056H26.8248C26.5262 52.2056 26.2773 52.4544 26.2773 52.753V54.246C26.2773 54.5447 26.5262 54.7935 26.8248 54.7935H28.3178C28.6164 54.7935 28.8653 55.0423 28.8653 55.3409V56.834C28.8653 57.1326 29.1141 57.3814 29.4127 57.3814H30.9057C31.2043 57.3814 31.4532 57.1326 31.4532 56.834V55.3409C31.4532 55.0423 31.702 54.7935 32.0006 54.7935H33.4936C33.7922 54.7935 34.0411 55.0423 34.0411 55.3409V56.834C34.0411 57.1491 34.2899 57.3814 34.5885 57.3814Z" fill="white"/>
<path d="M26.8082 59.9868H28.3012C28.5998 59.9868 28.8486 59.738 28.8486 59.4394V57.9464C28.8486 57.6478 28.5998 57.3989 28.3012 57.3989H26.8082C26.5096 57.3989 26.2607 57.6478 26.2607 57.9464V59.4394C26.2607 59.738 26.5096 59.9868 26.8082 59.9868Z" fill="white"/>
<path d="M95.7359 57.3819H93.6955H91.655C91.3564 57.3819 91.1076 57.1331 91.1076 56.8345V54.794V52.2061V50.1657C91.1076 49.8671 91.3564 49.6182 91.655 49.6182H93.148C93.4466 49.6182 93.6955 49.3694 93.6955 49.0708V47.5778C93.6955 47.2792 93.4466 47.0303 93.148 47.0303H91.655C91.3564 47.0303 91.1076 46.7815 91.1076 46.4829V44.4424V41.8545V41.3071V39.814C91.1076 39.5154 90.8587 39.2666 90.5601 39.2666H89.0671C88.7685 39.2666 88.5197 39.5154 88.5197 39.814V41.8545V44.4424V46.4829C88.5197 46.7815 88.2708 47.0303 87.9722 47.0303H86.4792C86.1806 47.0303 85.9318 47.2792 85.9318 47.5778V49.0708C85.9318 49.3694 86.1806 49.6182 86.4792 49.6182H87.9722C88.2708 49.6182 88.5197 49.8671 88.5197 50.1657V51.6587C88.5197 51.9573 88.2708 52.2061 87.9722 52.2061H86.4792C86.1806 52.2061 85.9318 52.455 85.9318 52.7536V54.2466C85.9318 54.5452 86.1806 54.794 86.4792 54.794H87.9722C88.2708 54.794 88.5197 55.0429 88.5197 55.3415V56.8345C88.5197 57.1331 88.2708 57.3819 87.9722 57.3819H85.9318H83.3439H81.3034C81.0048 57.3819 80.7559 57.1331 80.7559 56.8345V54.794V52.7536C80.7559 52.455 81.0048 52.2061 81.3034 52.2061H82.7964C83.095 52.2061 83.3439 51.9573 83.3439 51.6587V50.1657C83.3439 49.8671 83.095 49.6182 82.7964 49.6182H80.7559H78.7155C78.4169 49.6182 78.168 49.8671 78.168 50.1657V51.6587C78.168 51.9573 77.9192 52.2061 77.6206 52.2061H75.5801H73.5397C73.2411 52.2061 72.9922 52.455 72.9922 52.7536V54.794V56.8345C72.9922 57.1331 73.2411 57.3819 73.5397 57.3819H75.0327C75.3313 57.3819 75.5801 57.1331 75.5801 56.8345V55.3415C75.5801 55.0429 75.829 54.794 76.1276 54.794H77.6206C77.9192 54.794 78.168 55.0429 78.168 55.3415V56.8345C78.168 57.1331 77.9192 57.3819 77.6206 57.3819H76.1276C75.829 57.3819 75.5801 57.6308 75.5801 57.9294V59.4224C75.5801 59.721 75.829 59.9699 76.1276 59.9699H77.6206C77.9192 59.9699 78.168 60.2187 78.168 60.5173V62.0103C78.168 62.3089 77.9192 62.5578 77.6206 62.5578H76.1276C75.829 62.5578 75.5801 62.8066 75.5801 63.1052V64.5982C75.5801 64.8968 75.829 65.1457 76.1276 65.1457H78.168H80.2085C80.5071 65.1457 80.7559 64.8968 80.7559 64.5982V62.5578V60.5173C80.7559 60.2187 81.0048 59.9699 81.3034 59.9699H83.3439H85.3843C85.6829 59.9699 85.9318 60.2187 85.9318 60.5173V62.0103C85.9318 62.3089 85.6829 62.5578 85.3843 62.5578H83.8913C83.5927 62.5578 83.3439 62.8066 83.3439 63.1052V64.5982C83.3439 64.8968 83.5927 65.1457 83.8913 65.1457H85.3843C85.6829 65.1457 85.9318 65.3945 85.9318 65.6931V67.1861C85.9318 67.4847 85.6829 67.7336 85.3843 67.7336H83.8913C83.5927 67.7336 83.3439 67.9824 83.3439 68.281V69.774C83.3439 70.0726 83.5927 70.3215 83.8913 70.3215H85.3843C85.6829 70.3215 85.9318 70.5703 85.9318 70.8689V72.3619C85.9318 72.6606 85.6829 72.9094 85.3843 72.9094H83.3439H81.3034C81.0048 72.9094 80.7559 72.6606 80.7559 72.3619V70.8689C80.7559 70.5703 80.5071 70.3215 80.2085 70.3215H78.7155C78.4169 70.3215 78.168 70.0726 78.168 69.774V68.281C78.168 67.9824 77.9192 67.7336 77.6206 67.7336H76.1276C75.829 67.7336 75.5801 67.9824 75.5801 68.281V69.774C75.5801 70.0726 75.3313 70.3215 75.0327 70.3215H73.5397C73.2411 70.3215 72.9922 70.5703 72.9922 70.8689V72.9094V74.9499C72.9922 75.2485 72.7434 75.4973 72.4448 75.4973H70.9518C70.6532 75.4973 70.4043 75.7461 70.4043 76.0447V77.5378C70.4043 77.8364 70.1555 78.0852 69.8569 78.0852H68.3639C68.0652 78.0852 67.8164 78.334 67.8164 78.6326V80.1257C67.8164 80.4243 68.0652 80.6731 68.3639 80.6731H70.4043H72.4448C72.7434 80.6731 72.9922 80.9219 72.9922 81.2206V83.261V85.3015C72.9922 85.6001 73.2411 85.8489 73.5397 85.8489H75.0327C75.3313 85.8489 75.5801 86.0978 75.5801 86.3964V87.8894C75.5801 88.188 75.829 88.4368 76.1276 88.4368H77.6206C77.9192 88.4368 78.168 88.188 78.168 87.8894V86.3964C78.168 86.0978 78.4169 85.8489 78.7155 85.8489H80.2085C80.5071 85.8489 80.7559 86.0978 80.7559 86.3964V88.4368V91.0247V93.1481C80.7559 93.4467 81.0048 93.6956 81.3034 93.6956H83.3439H85.9318H86.4792H87.9722C88.2708 93.6956 88.5197 93.4467 88.5197 93.1481V91.6551C88.5197 91.3565 88.2708 91.1077 87.9722 91.1077H86.4792C86.1806 91.1077 85.9318 90.8588 85.9318 90.5602V89.0672C85.9318 88.7686 85.6829 88.5198 85.3843 88.5198H83.8913C83.5927 88.5198 83.3439 88.2709 83.3439 87.9723V86.4793C83.3439 86.1807 83.5927 85.9319 83.8913 85.9319H85.3843C85.6829 85.9319 85.9318 85.683 85.9318 85.3844V83.8914C85.9318 83.5928 86.1806 83.344 86.4792 83.344H87.9722C88.2708 83.344 88.5197 83.0951 88.5197 82.7965V81.3035C88.5197 81.0049 88.2708 80.7561 87.9722 80.7561H86.4792C86.1806 80.7561 85.9318 80.5072 85.9318 80.2086V78.7156C85.9318 78.417 86.1806 78.1682 86.4792 78.1682H88.5197H90.5601C90.8587 78.1682 91.1076 78.417 91.1076 78.7156V80.2086C91.1076 80.5072 91.3564 80.7561 91.655 80.7561H93.148C93.4466 80.7561 93.6955 81.0049 93.6955 81.3035V82.7965C93.6955 83.0951 93.9443 83.344 94.2429 83.344H95.7359C96.0345 83.344 96.2834 83.0951 96.2834 82.7965V80.7561V78.1682V76.1277C96.2834 75.8291 96.0345 75.5802 95.7359 75.5802H94.2429C93.9443 75.5802 93.6955 75.3314 93.6955 75.0328V73.5398C93.6955 73.2412 93.4466 72.9923 93.148 72.9923H91.655C91.3564 72.9923 91.1076 73.2412 91.1076 73.5398V75.0328C91.1076 75.3314 90.8587 75.5802 90.5601 75.5802H89.0671C88.7685 75.5802 88.5197 75.3314 88.5197 75.0328V73.5398C88.5197 73.2412 88.7685 72.9923 89.0671 72.9923H90.5601C90.8587 72.9923 91.1076 72.7435 91.1076 72.4449V70.9519C91.1076 70.6533 90.8587 70.4044 90.5601 70.4044H89.0671C88.7685 70.4044 88.5197 70.1556 88.5197 69.857V68.364C88.5197 68.0654 88.7685 67.8165 89.0671 67.8165H90.5601C90.8587 67.8165 91.1076 68.0654 91.1076 68.364V69.857C91.1076 70.1556 91.3564 70.4044 91.655 70.4044H93.148C93.4466 70.4044 93.6955 70.6533 93.6955 70.9519V72.4449C93.6955 72.7435 93.9443 72.9923 94.2429 72.9923H95.7359C96.0345 72.9923 96.2834 72.7435 96.2834 72.4449V70.4044V68.364C96.2834 68.0654 96.0345 67.8165 95.7359 67.8165H94.2429C93.9443 67.8165 93.6955 67.5677 93.6955 67.2691V65.7761C93.6955 65.4775 93.9443 65.2286 94.2429 65.2286H95.7359C96.0345 65.2286 96.2834 64.9798 96.2834 64.6812V62.6407V60.0528V58.0123C96.3 57.6308 96.0511 57.3819 95.7359 57.3819ZM78.1349 83.3274H76.0944C75.7958 83.3274 75.547 83.0785 75.547 82.7799V80.7395V78.1516V76.1111C75.547 75.8125 75.7958 75.5637 76.0944 75.5637H78.1349H80.7228H82.7632C83.0618 75.5637 83.3107 75.8125 83.3107 76.1111V78.1516V80.7395V82.7799C83.3107 83.0785 83.0618 83.3274 82.7632 83.3274H80.7228H78.1349ZM89.0671 65.1623C88.7685 65.1623 88.5197 64.9134 88.5197 64.6148V63.1218C88.5197 62.8232 88.7685 62.5744 89.0671 62.5744H90.5601C90.8587 62.5744 91.1076 62.3255 91.1076 62.0269V60.5339C91.1076 60.2353 91.3564 59.9864 91.655 59.9864H93.148C93.4466 59.9864 93.6955 60.2353 93.6955 60.5339V62.0269C93.6955 62.3255 93.4466 62.5744 93.148 62.5744H91.655C91.3564 62.5744 91.1076 62.8232 91.1076 63.1218V64.6148C91.1076 64.9134 90.8587 65.1623 90.5601 65.1623H89.0671Z" fill="white"/>
<path d="M23.6729 59.9864V57.3985V54.8106V52.7701C23.6729 52.4715 23.4241 52.2227 23.1255 52.2227H21.0684H18.4805H15.8926H15.3452H13.8521C13.5535 52.2227 13.3047 52.4715 13.3047 52.7701V54.2631C13.3047 54.5617 13.5535 54.8106 13.8521 54.8106H15.8926H17.9331C18.2317 54.8106 18.4805 55.0594 18.4805 55.358V57.3985V59.4389C18.4805 59.7375 18.7293 59.9864 19.0279 59.9864H20.521C20.8196 59.9864 21.0684 60.2352 21.0684 60.5338V62.0268C21.0684 62.3254 21.3172 62.5743 21.6159 62.5743H23.1089C23.4075 62.5743 23.6563 62.3254 23.6563 62.0268V59.9864H23.6729Z" fill="white"/>
<path d="M72.3959 59.9863H70.9029C70.6043 59.9863 70.3555 60.2352 70.3555 60.5338V62.0268C70.3555 62.3254 70.6043 62.5742 70.9029 62.5742H72.3959C72.6945 62.5742 72.9434 62.3254 72.9434 62.0268V60.5338C72.96 60.2352 72.7111 59.9863 72.3959 59.9863Z" fill="white"/>
<path d="M15.8926 62.5747V59.9868V59.4394V57.9464C15.8926 57.6478 15.6438 57.3989 15.3452 57.3989H13.8521C13.5535 57.3989 13.3047 57.6478 13.3047 57.9464V59.9868V62.5747V64.6152C13.3047 64.9138 13.5535 65.1626 13.8521 65.1626H15.3452C15.6438 65.1626 15.8926 64.9138 15.8926 64.6152V62.5747Z" fill="white"/>
<path d="M31.4532 65.1621H32.0006H33.4936C33.7922 65.1621 34.0411 64.9133 34.0411 64.6147V63.1217C34.0411 62.8231 33.7922 62.5742 33.4936 62.5742H32.0006C31.702 62.5742 31.4532 62.3254 31.4532 62.0268V60.5338C31.4532 60.2352 31.2043 59.9863 30.9057 59.9863H29.4127C29.1141 59.9863 28.8653 60.2352 28.8653 60.5338V62.0268C28.8653 62.3254 28.6164 62.5742 28.3178 62.5742H26.8248C26.5262 62.5742 26.2773 62.8231 26.2773 63.1217V64.6147C26.2773 64.9133 26.5262 65.1621 26.8248 65.1621H28.8653H31.4532Z" fill="white"/>
<path d="M24.2203 67.7661H25.7133C26.0119 67.7661 26.2608 67.5173 26.2608 67.2187V65.7257C26.2608 65.4271 26.0119 65.1782 25.7133 65.1782H24.2203C23.9217 65.1782 23.6729 65.4271 23.6729 65.7257V67.2187C23.6729 67.5173 23.9217 67.7661 24.2203 67.7661Z" fill="white"/>
<path d="M72.96 67.2192C72.96 67.5178 73.2088 67.7666 73.5074 67.7666H75.0004C75.299 67.7666 75.5479 67.5178 75.5479 67.2192V65.7262C75.5479 65.4276 75.299 65.1787 75.0004 65.1787H73.5074C73.2088 65.1787 72.96 65.4276 72.96 65.7262V67.2192Z" fill="white"/>
<path d="M21.6314 70.354H23.1245C23.4231 70.354 23.6719 70.1052 23.6719 69.8066V68.3136C23.6719 68.015 23.4231 67.7661 23.1245 67.7661H21.6314C21.3328 67.7661 21.084 67.5173 21.084 67.2187V65.7257C21.084 65.4271 20.8352 65.1782 20.5366 65.1782H18.4795H16.439C16.1404 65.1782 15.8916 65.4271 15.8916 65.7257V67.7661V69.8066C15.8916 70.1052 16.1404 70.354 16.439 70.354H18.4795H21.0674H21.6314Z" fill="white"/>
<path d="M26.8082 70.3545H28.3012C28.5998 70.3545 28.8486 70.1057 28.8486 69.8071V68.314C28.8486 68.0154 28.5998 67.7666 28.3012 67.7666H26.8082C26.5096 67.7666 26.2607 68.0154 26.2607 68.314V69.8071C26.2607 70.1057 26.5096 70.3545 26.8082 70.3545Z" fill="white"/>
<path d="M11.2476 75.5464H12.7407C13.0393 75.5464 13.2881 75.2976 13.2881 74.999V72.9585V70.3706V67.7661V67.2187V65.7257C13.2881 65.4271 13.0393 65.1782 12.7407 65.1782H11.2476C10.949 65.1782 10.7002 65.4271 10.7002 65.7257V67.7661V70.354V72.9419V74.9824C10.7002 75.2976 10.949 75.5464 11.2476 75.5464Z" fill="white"/>
<path d="M16.439 75.5469H18.4795H19.027H20.52C20.8186 75.5469 21.0674 75.2981 21.0674 74.9995V73.5064C21.0674 73.2078 20.8186 72.959 20.52 72.959H18.4795H17.9321H16.439C16.1404 72.959 15.8916 73.2078 15.8916 73.5064V74.9995C15.8916 75.2981 16.1404 75.5469 16.439 75.5469Z" fill="white"/>
<path d="M46.4662 72.959H44.9732C44.6746 72.959 44.4258 73.2078 44.4258 73.5064V74.9995C44.4258 75.2981 44.6746 75.5469 44.9732 75.5469H46.4662C46.7649 75.5469 47.0137 75.2981 47.0137 74.9995V73.5064C47.0137 73.1912 46.7649 72.959 46.4662 72.959Z" fill="white"/>
<path d="M52.7535 75.5469H54.2465C54.5451 75.5469 54.794 75.2981 54.794 74.9995V73.5064C54.794 73.2078 54.5451 72.959 54.2465 72.959H52.2061H51.6586H50.1656C49.867 72.959 49.6182 73.2078 49.6182 73.5064V74.9995C49.6182 75.2981 49.867 75.5469 50.1656 75.5469H52.2061H52.7535Z" fill="white"/>
<path d="M67.7657 72.959V70.9185C67.7657 70.6199 67.5169 70.3711 67.2183 70.3711H65.1778H62.5899H60.002H57.4141H56.8666H55.3736C55.075 70.3711 54.8262 70.6199 54.8262 70.9185V72.4116C54.8262 72.7102 55.075 72.959 55.3736 72.959H57.4141H60.002H62.0425C62.3411 72.959 62.5899 73.2078 62.5899 73.5064V75.5469V77.5874C62.5899 77.886 62.8387 78.1348 63.1373 78.1348H64.6304C64.929 78.1348 65.1778 77.886 65.1778 77.5874V76.0943C65.1778 75.7957 65.4266 75.5469 65.7252 75.5469H67.2183C67.5169 75.5469 67.7657 75.2981 67.7657 74.9995V72.959Z" fill="white"/>
<path d="M80.7393 78.6827C80.7393 78.3841 80.4904 78.1353 80.1918 78.1353H78.6988C78.4002 78.1353 78.1514 78.3841 78.1514 78.6827V80.1757C78.1514 80.4743 78.4002 80.7232 78.6988 80.7232H80.1918C80.4904 80.7232 80.7393 80.4743 80.7393 80.1757V78.6827Z" fill="white"/>
<path d="M50.1656 80.7393C49.867 80.7393 49.6182 80.9881 49.6182 81.2867V82.7797C49.6182 83.0783 49.867 83.3272 50.1656 83.3272H51.6586C51.9572 83.3272 52.2061 83.0783 52.2061 82.7797V81.2867C52.2061 80.9881 51.9572 80.7393 51.6586 80.7393H50.1656Z" fill="white"/>
<path d="M59.9863 85.3676C59.9863 85.6663 60.2352 85.9151 60.5338 85.9151H62.0268C62.3254 85.9151 62.5743 85.6663 62.5743 85.3676V83.3272V80.7393V78.6988C62.5743 78.4002 62.3254 78.1514 62.0268 78.1514H59.9863H59.4389H57.9459C57.6473 78.1514 57.3984 78.4002 57.3984 78.6988V80.1918C57.3984 80.4904 57.6473 80.7393 57.9459 80.7393H59.4389C59.7375 80.7393 59.9863 80.9881 59.9863 81.2867V83.3272V85.3676Z" fill="white"/>
<path d="M65.7262 83.3276C65.4276 83.3276 65.1787 83.5765 65.1787 83.8751V85.3681C65.1787 85.6667 65.4276 85.9155 65.7262 85.9155H67.7666H68.3141H69.8071C70.1057 85.9155 70.3545 85.6667 70.3545 85.3681V83.8751C70.3545 83.5765 70.1057 83.3276 69.8071 83.3276H67.7666H67.2192H65.7262Z" fill="white"/>
<path d="M90.559 83.3276H89.066C88.7674 83.3276 88.5186 83.5765 88.5186 83.8751V85.3681C88.5186 85.6667 88.7674 85.9155 89.066 85.9155H90.559C90.8576 85.9155 91.1065 85.6667 91.1065 85.3681V83.8751C91.1065 83.5765 90.8576 83.3276 90.559 83.3276Z" fill="white"/>
<path d="M41.8214 85.9147V83.3268V81.2863C41.8214 80.9877 42.0702 80.7389 42.3688 80.7389H43.8619C44.1605 80.7389 44.4093 80.9877 44.4093 81.2863V83.3268V85.9147V87.9551C44.4093 88.2537 44.1605 88.5026 43.8619 88.5026H42.3688C42.0702 88.5026 41.8214 88.7514 41.8214 89.05V90.543C41.8214 90.8416 42.0702 91.0905 42.3688 91.0905H44.4093H46.4498C46.7484 91.0905 46.9972 90.8416 46.9972 90.543V88.5026V86.4621C46.9972 86.1635 47.2461 85.9147 47.5447 85.9147H49.0377C49.3363 85.9147 49.5851 85.6658 49.5851 85.3672V83.8742C49.5851 83.5756 49.3363 83.3268 49.0377 83.3268H47.5447C47.2461 83.3268 46.9972 83.0779 46.9972 82.7793V81.2863C46.9972 80.9877 47.2461 80.7389 47.5447 80.7389H49.0377C49.3363 80.7389 49.5851 80.49 49.5851 80.1914V78.1509V77.6035V76.1105C49.5851 75.8119 49.3363 75.563 49.0377 75.563H47.5447C47.2461 75.563 46.9972 75.8119 46.9972 76.1105V77.6035C46.9972 77.9021 46.7484 78.1509 46.4498 78.1509H44.4093H42.3688C42.0702 78.1509 41.8214 77.9021 41.8214 77.6035V76.1105C41.8214 75.8119 41.5726 75.563 41.274 75.563H39.2335H37.193C36.8944 75.563 36.6456 75.3142 36.6456 75.0156V72.9751V70.3872V68.3468C36.6456 68.0482 36.3968 67.7993 36.0981 67.7993H34.0577H32.0172C31.7186 67.7993 31.4698 68.0482 31.4698 68.3468V69.8398C31.4698 70.1384 31.2209 70.3872 30.9223 70.3872H29.4293C29.1307 70.3872 28.8819 70.6361 28.8819 70.9347V72.4277C28.8819 72.7263 28.633 72.9751 28.3344 72.9751H26.8414C26.5428 72.9751 26.294 72.7263 26.294 72.4277V70.9347C26.294 70.6361 26.0451 70.3872 25.7465 70.3872H24.2535C23.9549 70.3872 23.7061 70.6361 23.7061 70.9347V72.9751V75.0156C23.7061 75.3142 23.9549 75.563 24.2535 75.563H26.294H28.8819H30.9223C31.2209 75.563 31.4698 75.8119 31.4698 76.1105V77.6035C31.4698 77.9021 31.7186 78.1509 32.0172 78.1509H34.0577H36.6456H38.6861C38.9847 78.1509 39.2335 78.3998 39.2335 78.6984V80.1914C39.2335 80.49 38.9847 80.7389 38.6861 80.7389H36.6456H34.5885C34.2899 80.7389 34.0411 80.9877 34.0411 81.2863V82.7793C34.0411 83.0779 33.7923 83.3268 33.4937 83.3268H32.0006C31.702 83.3268 31.4532 83.5756 31.4532 83.8742V85.9147V88.5026V90.543C31.4532 90.8416 31.702 91.0905 32.0006 91.0905H33.4937C33.7923 91.0905 34.0411 90.8416 34.0411 90.543V89.05C34.0411 88.7514 34.2899 88.5026 34.5885 88.5026H36.0816C36.3802 88.5026 36.629 88.2537 36.629 87.9551V86.4621C36.629 86.1635 36.8778 85.9147 37.1764 85.9147H38.6695C38.9681 85.9147 39.2169 86.1635 39.2169 86.4621V87.9551C39.2169 88.2537 39.4657 88.5026 39.7643 88.5026H41.2574C41.556 88.5026 41.8048 88.2537 41.8048 87.9551V85.9147H41.8214Z" fill="white"/>
<path d="M87.9555 85.9155H86.4625C86.1639 85.9155 85.915 86.1644 85.915 86.463V87.956C85.915 88.2546 86.1639 88.5034 86.4625 88.5034H87.9555C88.2541 88.5034 88.5029 88.2546 88.5029 87.956V86.463C88.5195 86.1644 88.2707 85.9155 87.9555 85.9155Z" fill="white"/>
<path d="M91.1084 87.9555C91.1084 88.2541 91.3572 88.5029 91.6558 88.5029H93.1489C93.4475 88.5029 93.6963 88.2541 93.6963 87.9555V86.4625C93.6963 86.1639 93.4475 85.915 93.1489 85.915H91.6558C91.3572 85.915 91.1084 86.1639 91.1084 86.4625V87.9555Z" fill="white"/>
<path d="M38.685 88.5195H37.192C36.8934 88.5195 36.6445 88.7684 36.6445 89.067V90.56C36.6445 90.8586 36.8934 91.1074 37.192 91.1074H38.685C38.9836 91.1074 39.2324 90.8586 39.2324 90.56V89.067C39.2324 88.7684 38.9836 88.5195 38.685 88.5195Z" fill="white"/>
<path d="M63.1217 91.1079H64.6147C64.9133 91.1079 65.1621 90.8591 65.1621 90.5605V88.52V87.9726V86.4796C65.1621 86.181 64.9133 85.9321 64.6147 85.9321H63.1217C62.8231 85.9321 62.5742 86.181 62.5742 86.4796V88.52V90.5605C62.5742 90.8591 62.8231 91.1079 63.1217 91.1079Z" fill="white"/>
<path d="M74.9995 88.5195H72.9591H70.3712H68.3307C68.0321 88.5195 67.7833 88.7684 67.7833 89.067V91.1074V93.1479C67.7833 93.4465 67.5344 93.6953 67.2358 93.6953H65.1953H62.6074H62.06H60.567C60.2684 93.6953 60.0195 93.9442 60.0195 94.2428V95.7358C60.0195 96.0344 60.2684 96.2833 60.567 96.2833H62.6074H65.1953H67.7667H70.3546H70.902H72.395C72.6936 96.2833 72.9425 96.0344 72.9425 95.7358V94.2428C72.9425 93.9442 72.6936 93.6953 72.395 93.6953H70.902C70.6034 93.6953 70.3546 93.4465 70.3546 93.1479V91.6549C70.3546 91.3563 70.6034 91.1074 70.902 91.1074H72.9425H73.4899H74.9829C75.2815 91.1074 75.5304 90.8586 75.5304 90.56V89.067C75.547 88.7684 75.2981 88.5195 74.9995 88.5195Z" fill="white"/>
<path d="M59.9864 91.1074V89.067C59.9864 88.7684 59.7376 88.5195 59.439 88.5195H57.3985H54.8106H52.2227H51.6753H50.1823C49.8837 88.5195 49.6348 88.7684 49.6348 89.067V90.56C49.6348 90.8586 49.8837 91.1074 50.1823 91.1074H52.2227H54.2632C54.5618 91.1074 54.8106 91.3563 54.8106 91.6549V93.1479C54.8106 93.4465 54.5618 93.6953 54.2632 93.6953H52.2227H50.1823C49.8837 93.6953 49.6348 93.4465 49.6348 93.1479V91.6549C49.6348 91.3563 49.386 91.1074 49.0874 91.1074H47.5943C47.2957 91.1074 47.0469 91.3563 47.0469 91.6549V93.1479C47.0469 93.4465 46.7981 93.6953 46.4995 93.6953H44.459H43.9116H42.4185C42.1199 93.6953 41.8711 93.9442 41.8711 94.2428V95.7358C41.8711 96.0344 42.1199 96.2833 42.4185 96.2833H44.459H47.0469H49.6348H52.2227H54.8106H56.8511C57.1497 96.2833 57.3985 96.0344 57.3985 95.7358V94.2428C57.3985 93.9442 57.6474 93.6953 57.946 93.6953H59.439C59.7376 93.6953 59.9864 93.4465 59.9864 93.1479V91.1074Z" fill="white"/>
<path d="M95.7348 91.1074H93.6944H91.6539C91.3553 91.1074 91.1065 91.3563 91.1065 91.6549V93.1479C91.1065 93.4465 90.8576 93.6953 90.559 93.6953H89.066C88.7674 93.6953 88.5186 93.9442 88.5186 94.2428V95.7358C88.5186 96.0344 88.7674 96.2832 89.066 96.2832H91.1065H93.1469C93.4455 96.2832 93.6944 96.0344 93.6944 95.7358V94.2428C93.6944 93.9442 93.9432 93.6953 94.2418 93.6953H95.7348C96.0334 93.6953 96.2823 93.4465 96.2823 93.1479V91.6549C96.2989 91.3563 96.05 91.1074 95.7348 91.1074Z" fill="white"/>
<path d="M38.685 93.6958H36.6445H36.0805H34.5875C34.2889 93.6958 34.04 93.9446 34.04 94.2432V95.7363C34.04 96.0349 34.2889 96.2837 34.5875 96.2837H36.6279H37.1754H38.6684C38.967 96.2837 39.2159 96.0349 39.2159 95.7363V94.2432C39.2324 93.9446 38.9836 93.6958 38.685 93.6958Z" fill="white"/>
<path d="M80.1752 93.6958H78.6822C78.3836 93.6958 78.1348 93.9446 78.1348 94.2432V95.7363C78.1348 96.0349 78.3836 96.2837 78.6822 96.2837H80.1752C80.4738 96.2837 80.7227 96.0349 80.7227 95.7363V94.2432C80.7393 93.9446 80.4904 93.6958 80.1752 93.6958Z" fill="white"/>
<g opacity="0.6">
<path d="M15.9092 28.8487H28.8819V10.7002H10.7334V28.8155H15.9092V28.8487ZM13.3213 13.2881H26.294V26.2276H13.3213V13.2881Z" fill="white"/>
<path d="M23.6729 23.6729V15.8926H15.8926V23.6729H23.6729Z" fill="white"/>
<path d="M78.1849 10.7002V28.8155H96.3003V10.7002H78.1849ZM93.7289 15.8926V26.2442H80.7728V13.2881H93.7123V15.8926H93.7289Z" fill="white"/>
<path d="M83.3277 15.8926V23.6729H91.108V15.8926H83.3277Z" fill="white"/>
<path d="M23.6895 78.135H10.7334V96.3002H28.8819V78.1848H23.6895V78.135ZM26.294 93.6791H13.3213V80.7395H26.294V93.6791Z" fill="white"/>
<path d="M15.8926 83.3275V91.1078H23.6729V83.3275H15.8926Z" fill="white"/>
</g>
</g>
<g clip-path="url(#clip2_3013_5332)">
<g filter="url(#filter1_d_3013_5332)">
<rect x="41.5479" y="41.5483" width="23.9043" height="23.9043" rx="6.42" fill="#27A44A"/>
<rect x="42.2979" y="42.2983" width="22.4043" height="22.4043" rx="5.67" stroke="white" stroke-opacity="0.24" stroke-width="1.5" stroke-linejoin="round"/>
</g>
<path fill-rule="evenodd" clip-rule="evenodd" d="M50.7431 59.6729C51.5103 60.138 52.2225 60.4664 52.7757 60.6552C53.054 60.7535 53.5124 60.7535 53.7907 60.6552C56.1645 59.8449 61.4687 56.4642 61.4687 50.7344C61.4687 48.2051 59.4305 46.1587 56.9175 46.1587C55.436 46.1587 54.1099 46.879 53.2832 47.9922C52.4564 46.879 51.1386 46.1587 49.6488 46.1587C47.1358 46.1587 45.0977 48.2051 45.0977 50.7344C45.0977 52.5718 45.6431 54.1677 46.4625 55.5146C47.0342 54.3594 48.4969 52.0377 50.5451 50.528C50.594 50.492 50.6446 50.4604 50.6969 50.433C50.766 50.3804 50.837 50.3294 50.9099 50.2802C52.983 48.8785 55.7781 49.3907 57.1531 51.4242C58.528 53.4578 57.9621 56.2425 55.889 57.6442C55.7213 57.7576 55.5489 57.8585 55.3728 57.9471C54.7657 58.3995 53.2254 59.1899 50.7431 59.6729Z" fill="white"/>
<path fill-rule="evenodd" clip-rule="evenodd" d="M51.153 51.7319C51.2011 51.6953 51.2505 51.6598 51.3012 51.6255C52.7439 50.6501 54.6936 51.0133 55.6561 52.4367C56.6185 53.8602 56.2293 55.8049 54.7866 56.7804C54.6699 56.8593 54.5498 56.9294 54.4273 56.991C53.9301 57.3616 52.5325 58.0571 50.2225 58.3418L52.1705 56.5162L46.7959 58.5084L50.8345 53.9905L48.142 55.4188C48.4787 54.6777 49.5311 52.9162 51.0473 51.798C51.0813 51.7729 51.1166 51.7509 51.153 51.7319Z" fill="white"/>
</g>
<rect x="1" y="1" width="105" height="105" rx="11.84" stroke="white" stroke-opacity="0.2" stroke-width="2"/>
</g>
</g>
<defs>
<filter id="filter0_d_3013_5332" x="-20" y="-15.72" width="147" height="147" filterUnits="userSpaceOnUse" color-interpolation-filters="sRGB">
<feFlood flood-opacity="0" result="BackgroundImageFix"/>
<feColorMatrix in="SourceAlpha" type="matrix" values="0 0 0 0 0 0 0 0 0 0 0 0 0 0 0 0 0 0 127 0" result="hardAlpha"/>
<feOffset dy="4.28"/>
<feGaussianBlur stdDeviation="10"/>
<feComposite in2="hardAlpha" operator="out"/>
<feColorMatrix type="matrix" values="0 0 0 0 0.152941 0 0 0 0 0.643137 0 0 0 0 0.290196 0 0 0 0.3 0"/>
<feBlend mode="normal" in2="BackgroundImageFix" result="effect1_dropShadow_3013_5332"/>
<feBlend mode="normal" in="SourceGraphic" in2="effect1_dropShadow_3013_5332" result="shape"/>
</filter>
<filter id="filter1_d_3013_5332" x="32.9879" y="37.2683" width="41.0243" height="41.0243" filterUnits="userSpaceOnUse" color-interpolation-filters="sRGB">
<feFlood flood-opacity="0" result="BackgroundImageFix"/>
<feColorMatrix in="SourceAlpha" type="matrix" values="0 0 0 0 0 0 0 0 0 0 0 0 0 0 0 0 0 0 127 0" result="hardAlpha"/>
<feOffset dy="4.28"/>
<feGaussianBlur stdDeviation="4.28"/>
<feComposite in2="hardAlpha" operator="out"/>
<feColorMatrix type="matrix" values="0 0 0 0 0.152941 0 0 0 0 0.643137 0 0 0 0 0.290196 0 0 0 0.24 0"/>
<feBlend mode="normal" in2="BackgroundImageFix" result="effect1_dropShadow_3013_5332"/>
<feBlend mode="normal" in="SourceGraphic" in2="effect1_dropShadow_3013_5332" result="shape"/>
</filter>
<clipPath id="clip0_3013_5332">
<rect width="107" height="107" fill="white"/>
</clipPath>
<clipPath id="clip1_3013_5332">
<rect width="85.6" height="85.6" fill="white" transform="translate(10.7002 10.7002)"/>
</clipPath>
<clipPath id="clip2_3013_5332">
<rect width="23.9043" height="23.9043" fill="white" transform="translate(41.5479 41.5483)"/>
</clipPath>
</defs>
</svg>
