<svg width="116" height="116" viewBox="0 0 116 116" fill="none" xmlns="http://www.w3.org/2000/svg">
<g id="18">
<g id="Group 758">
<path id="Vector" d="M115.118 58.3275C115.118 74.4486 108.534 88.9802 97.9754 99.4249C87.6443 109.756 73.3397 116 57.5591 116C41.8922 116 27.5875 109.643 17.1429 99.4249C6.58467 88.9802 0 74.4486 0 58.3275C0 26.4258 25.7711 0.654785 57.5591 0.654785C89.3472 0.654785 115.118 26.5394 115.118 58.3275Z" fill="#F6F7F5"/>
<path id="Vector_2" d="M97.8326 28.1289V99.425C87.5014 109.756 73.1968 116 57.4163 116C41.7493 116 27.4447 109.643 17 99.425V28.1289H97.8326Z" fill="white"/>
<path id="Vector_3" d="M58.9863 64.519L43.1719 48.7046L37.7934 54.0831L53.6078 69.8975L58.9863 64.519Z" fill="#27A44A"/>
<path id="Vector_4" d="M71.9586 40.8426L48.3574 64.4438L53.7359 69.8224L77.3372 46.2211L71.9586 40.8426Z" fill="#27A44A"/>
<path id="Vector_5" d="M78.221 79.5571H36.8965V84.7795H78.221V79.5571Z" fill="#E5ECDF"/>
<path id="Vector_6" d="M78.221 91.0239H36.8965V96.2463H78.221V91.0239Z" fill="#E5ECDF"/>
<path id="Vector_7" d="M68.1164 102.604H47V107.826H68.1164V102.604Z" fill="#E5ECDF"/>
</g>
</g>
</svg>
