<svg width="40" height="40" viewBox="0 0 40 40" fill="none" xmlns="http://www.w3.org/2000/svg">
<g id="telegram">
<path id="telegram_2" d="M7.68425 19.5368C14.2609 16.8202 18.6464 15.0293 20.8406 14.164C27.1058 11.6934 28.4076 11.2642 29.2561 11.2499C29.4427 11.2469 29.86 11.2908 30.1303 11.4987C30.3585 11.6743 30.4213 11.9115 30.4514 12.078C30.4814 12.2444 30.5188 12.6236 30.4891 12.92C30.1496 16.302 28.6805 24.5094 27.9332 28.2974C27.6169 29.9002 26.9943 30.4376 26.3914 30.4902C25.0813 30.6045 24.0865 29.6694 22.8176 28.8808C20.8321 27.6468 19.7103 26.8786 17.783 25.6745C15.5556 24.2829 16.9996 23.518 18.2689 22.268C18.6011 21.9409 24.3734 16.9631 24.4851 16.5115C24.4991 16.4551 24.5121 16.2445 24.3802 16.1334C24.2483 16.0222 24.0536 16.0602 23.9131 16.0905C23.7139 16.1333 20.542 18.121 14.3972 22.0536C13.4969 22.6398 12.6813 22.9254 11.9507 22.9104C11.1452 22.8939 9.59571 22.4786 8.44385 22.1236C7.03103 21.6882 5.90816 21.458 6.00594 20.7185C6.05686 20.3334 6.6163 19.9395 7.68425 19.5368Z" fill="#0C3317"/>
</g>
</svg>
