<svg width="24" height="24" viewBox="0 0 24 24" fill="none" xmlns="http://www.w3.org/2000/svg">
<path d="M3.13258 11.6664C7.86777 9.71045 11.0253 8.42097 12.6052 7.79795C17.1161 6.01912 18.0534 5.71012 18.6643 5.69981C18.7987 5.69767 19.0991 5.72924 19.2937 5.87896C19.4581 6.00538 19.5033 6.17615 19.5249 6.29601C19.5465 6.41587 19.5735 6.6889 19.5521 6.90225C19.3076 9.33734 18.2499 15.2466 17.7118 17.974C17.4841 19.128 17.0358 19.515 16.6017 19.5528C15.6585 19.6351 14.9422 18.9618 14.0286 18.394C12.599 17.5056 11.7914 16.9525 10.4037 16.0855C8.79999 15.0835 9.8396 14.5328 10.7535 13.6329C10.9927 13.3973 15.1488 9.81332 15.2292 9.48819C15.2393 9.44753 15.2486 9.29596 15.1536 9.21592C15.0587 9.13589 14.9185 9.16326 14.8173 9.18502C14.674 9.21588 12.3901 10.647 7.96591 13.4785C7.31766 13.9005 6.73049 14.1061 6.20441 14.0954C5.62445 14.0835 4.50883 13.7845 3.67949 13.5289C2.66227 13.2154 1.8538 13.0496 1.9242 12.5172C1.96086 12.2399 2.36366 11.9563 3.13258 11.6664Z" fill="white"/>
</svg>
