<svg
        width="46"
        height="46"
        viewBox="0 0 46 46"
        fill="none"
        xmlns="http://www.w3.org/2000/svg"
>
    <rect
            width="46"
            height="46"
            rx="23"
            fill="#2BACEE"
            fill-opacity="0.12"
    />
    <path
            d="M23 9C19.2878 9 15.7244 10.4759 13.1016 13.1005C10.476 15.7261 9.00073 19.2869 9 23C9 26.7115 10.4766 30.275 13.1016 32.8995C15.7244 35.5241 19.2878 37 23 37C26.7122 37 30.2756 35.5241 32.8984 32.8995C35.5234 30.275 37 26.7115 37 23C37 19.2885 35.5234 15.725 32.8984 13.1005C30.2756 10.4759 26.7122 9 23 9Z"
            fill="url(#paint0_linear_2660_3756)"
    />
    <path
            d="M15.031 22.5965C19.0583 20.762 21.7432 19.5526 23.0856 18.9682C26.923 17.2997 27.7194 17.0099 28.2395 17.0001C28.3539 16.9982 28.6086 17.0277 28.7747 17.1682C28.9129 17.2867 28.9517 17.447 28.9711 17.5595C28.9884 17.6719 29.0122 17.928 28.9927 18.128C28.7855 20.412 27.8855 25.9546 27.428 28.5128C27.2359 29.5952 26.8539 29.9581 26.4848 29.9936C25.682 30.0707 25.0733 29.4393 24.2964 28.9068C23.0813 28.0734 22.395 27.5547 21.2144 26.7416C19.8504 25.8018 20.7353 25.2852 21.5122 24.4411C21.7151 24.2201 25.2503 20.8584 25.3172 20.5535C25.3259 20.5154 25.3345 20.3732 25.2525 20.2982C25.1726 20.2231 25.0539 20.2488 24.9676 20.2691C24.8446 20.298 22.9043 21.6404 19.1403 24.2962C18.59 24.692 18.0914 24.885 17.6425 24.8748C17.1504 24.8638 16.2008 24.5833 15.495 24.3436C14.6317 24.0495 13.9433 23.894 14.0037 23.3945C14.0339 23.1345 14.3771 22.8684 15.031 22.5965Z"
            fill="white"
    />
    <defs>
        <linearGradient
                id="paint0_linear_2660_3756"
                x1="1409"
                y1="9"
                x2="1409"
                y2="2809"
                gradientUnits="userSpaceOnUse"
        >
            <stop stop-color="#2AABEE" />
            <stop offset="1" stop-color="#229ED9" />
        </linearGradient>
    </defs>
</svg>