<svg width="40" height="40" viewBox="0 0 40 40" fill="none" xmlns="http://www.w3.org/2000/svg">
<g id="twitter">
<path id="twitter_2" d="M32.25 11.9228C31.3312 12.4074 30.4125 12.569 29.3406 12.7305C30.4125 12.0844 31.1781 11.1151 31.4844 9.82283C30.5656 10.469 29.4937 10.7921 28.2687 11.1151C27.35 10.1459 25.9719 9.49976 24.5937 9.49976C21.3781 9.49976 18.9281 12.7305 19.6937 15.9613C15.5594 15.7998 11.8844 13.6998 9.28125 10.469C7.90313 12.8921 8.66875 15.9613 10.8125 17.5767C10.0469 17.5767 9.28125 17.2536 8.51562 16.9305C8.51562 19.3536 10.2 21.6151 12.4969 22.2613C11.7312 22.4228 10.9656 22.5844 10.2 22.4228C10.8125 24.5228 12.65 26.1382 14.9469 26.1382C13.1094 27.5921 10.3531 28.3998 7.75 28.0767C10.0469 29.5305 12.65 30.4998 15.4062 30.4998C24.7469 30.4998 29.9531 22.2613 29.6469 14.669C30.7187 14.0228 31.6375 13.0536 32.25 11.9228Z" fill="#0C3317"/>
</g>
</svg>
