<svg width="24" height="24" viewBox="0 0 24 24" fill="none" xmlns="http://www.w3.org/2000/svg">
<path d="M20.8197 6.18456C20.1582 6.53348 19.4967 6.64979 18.7249 6.76609C19.4967 6.30086 20.0479 5.60302 20.2684 4.67256C19.6069 5.13779 18.8352 5.3704 17.9532 5.60302C17.2917 4.90517 16.2994 4.43994 15.3072 4.43994C12.9919 4.43994 11.2279 6.76609 11.7792 9.09225C8.80244 8.97594 6.15644 7.46394 4.28219 5.13779C3.28994 6.8824 3.84119 9.09225 5.38469 10.2553C4.83344 10.2553 4.28219 10.0227 3.73094 9.79009C3.73094 11.5347 4.94369 13.163 6.59744 13.6282C6.04619 13.7446 5.49494 13.8609 4.94369 13.7446C5.38469 15.2566 6.70769 16.4196 8.36144 16.4196C7.03844 17.4664 5.05394 18.0479 3.17969 17.8153C4.83344 18.8621 6.70769 19.5599 8.69219 19.5599C15.4174 19.5599 19.1659 13.6282 18.9454 8.16179C19.7172 7.69656 20.3787 6.99871 20.8197 6.18456Z" fill="white"/>
</svg>
