<svg
        width="46"
        height="46"
        viewBox="0 0 46 46"
        fill="none"
        xmlns="http://www.w3.org/2000/svg"
>
    <rect
            width="46"
            height="46"
            rx="23"
            fill="#60D669"
            fill-opacity="0.12"
    />
    <path
            d="M9.1167 22.3783C9.11602 24.736 9.75775 27.0381 10.978 29.0672L9 36L16.3907 34.1397C18.4349 35.208 20.7253 35.7678 23.0527 35.7679H23.0589C30.7423 35.7679 36.9967 29.766 37 22.3889C37.0015 18.8142 35.5526 15.4527 32.9202 12.9238C30.2883 10.395 26.7879 9.00163 23.0583 9C15.374 9 9.11998 15.0016 9.11681 22.3783"
            fill="url(#paint0_linear_2660_3760)"
    />
    <path
            d="M8.12121 22.3695C8.12042 24.9021 8.78504 27.3745 10.0486 29.5537L8 37L15.6545 35.0019C17.7636 36.1467 20.1382 36.7503 22.5545 36.7512H22.5607C30.5185 36.7512 36.9966 30.304 37 22.381C37.0014 18.5412 35.5006 14.9304 32.7746 12.2142C30.0483 9.49834 26.4233 8.00158 22.5607 8C14.6016 8 8.12438 14.4463 8.12121 22.3695ZM12.6796 29.1784L12.3938 28.7268C11.1924 26.8249 10.5582 24.6271 10.5591 22.3704C10.5617 15.7848 15.9453 10.4269 22.5653 10.4269C25.7711 10.4283 28.7839 11.6724 31.05 13.9298C33.316 16.1873 34.5629 19.1883 34.5621 22.3801C34.5591 28.9656 29.1754 34.3242 22.5607 34.3242H22.556C20.4021 34.323 18.2898 33.7472 16.4476 32.659L16.0092 32.4002L11.4669 33.5858L12.6796 29.1783V29.1784Z"
            fill="url(#paint1_linear_2660_3760)"
    />
    <path
            d="M19.5593 16.6039C19.3013 16.0297 19.0297 16.0181 18.7843 16.008C18.5833 15.9994 18.3536 16 18.1241 16C17.8944 16 17.5212 16.0865 17.2057 16.4314C16.8899 16.7766 16 17.6109 16 19.3076C16 21.0044 17.2343 22.6442 17.4064 22.8745C17.5787 23.1044 19.7893 26.6977 23.2905 28.0801C26.2002 29.2289 26.7923 29.0004 27.4238 28.9428C28.0555 28.8854 29.4619 28.1088 29.7488 27.3034C30.0359 26.4982 30.0359 25.808 29.9499 25.6638C29.8638 25.5201 29.6341 25.4338 29.2896 25.2614C28.945 25.0889 27.2516 24.2546 26.9359 24.1395C26.6201 24.0245 26.3904 23.9671 26.1607 24.3124C25.931 24.6572 25.2714 25.4338 25.0703 25.6638C24.8695 25.8943 24.6684 25.923 24.3241 25.7505C23.9794 25.5775 22.8701 25.2138 21.554 24.039C20.53 23.1248 19.8387 21.996 19.6377 21.6506C19.4368 21.3059 19.6162 21.119 19.7889 20.9471C19.9437 20.7926 20.1335 20.5444 20.3059 20.3431C20.4776 20.1417 20.535 19.998 20.6498 19.768C20.7648 19.5378 20.7072 19.3364 20.6213 19.1639C20.535 18.9914 19.8656 17.2858 19.5593 16.6039Z"
            fill="white"
    />
    <defs>
        <linearGradient
                id="paint0_linear_2660_3760"
                x1="1409"
                y1="2709"
                x2="1409"
                y2="9"
                gradientUnits="userSpaceOnUse"
        >
            <stop stop-color="#1FAF38" />
            <stop offset="1" stop-color="#60D669" />
        </linearGradient>
        <linearGradient
                id="paint1_linear_2660_3760"
                x1="1458"
                y1="2908"
                x2="1458"
                y2="8"
                gradientUnits="userSpaceOnUse"
        >
            <stop stop-color="#F9F9F9" />
            <stop offset="1" stop-color="white" />
        </linearGradient>
    </defs>
</svg>