<svg width="18" height="12" viewBox="0 0 18 12" fill="none" xmlns="http://www.w3.org/2000/svg">
<path id="Combined shape 16105" fill-rule="evenodd" clip-rule="evenodd" d="M17.2914 3.77165C17.2942 3.82058 17.2905 3.87057 17.2781 3.91951L16.1678 8.32004C16.1119 8.54101 15.9113 8.69746 15.6808 8.69853L9.01907 8.73186C9.01825 8.73186 9.01735 8.73186 9.01655 8.73186H2.35483C2.12309 8.73186 1.92109 8.57596 1.86513 8.35283L0.754836 3.93617C0.742005 3.88563 0.738351 3.83402 0.741543 3.78349C0.312051 3.64961 -0.000366211 3.25177 -0.000366211 2.7824C-0.000366211 2.20283 0.475011 1.73188 1.05946 1.73188C1.64391 1.73188 2.11931 2.20283 2.11931 2.7824C2.11931 3.10822 1.96847 3.39961 1.73239 3.59263L3.12238 4.98026C3.47371 5.33026 3.96124 5.53241 4.45997 5.53241C5.04967 5.53241 5.61205 5.25445 5.96611 4.7894L8.2506 1.79047C8.05868 1.60015 7.93978 1.33832 7.93978 1.04854C7.93978 0.469505 8.41528 -0.00146484 8.9996 -0.00146484C9.58405 -0.00146484 10.0595 0.469505 10.0595 1.04854C10.0595 1.32973 9.94696 1.58456 9.7651 1.77328C9.76568 1.77434 9.76636 1.77488 9.76705 1.77596L12.0349 4.78294C12.3889 5.25176 12.9532 5.53241 13.5446 5.53241C14.0479 5.53241 14.5213 5.33725 14.8772 4.98455L16.276 3.60016C16.0349 3.4066 15.88 3.11198 15.88 2.7824C15.88 2.20283 16.3554 1.73188 16.9399 1.73188C17.5242 1.73188 17.9996 2.20283 17.9996 2.7824C17.9996 3.23833 17.7032 3.62704 17.2914 3.77165ZM16.0595 10.2991C16.0595 10.0227 15.8336 9.79853 15.5548 9.79853H2.50063C2.22185 9.79853 1.99594 10.0227 1.99594 10.2991V11.4985C1.99594 11.7749 2.22185 11.9985 2.50063 11.9985H15.5548C15.8336 11.9985 16.0595 11.7749 16.0595 11.4985V10.2991Z" fill="white"/>
</svg>
