<svg
        width="46"
        height="46"
        viewBox="0 0 46 46"
        fill="none"
        xmlns="http://www.w3.org/2000/svg"
>
    <rect
            width="46"
            height="46"
            rx="23"
            fill="#090E14"
            fill-opacity="0.06"
    />
    <path
            d="M23 9C19.2878 9 15.7244 10.4759 13.1016 13.1005C10.476 15.7261 9.00073 19.2869 9 23C9 26.7115 10.4766 30.275 13.1016 32.8995C15.7244 35.5241 19.2878 37 23 37C26.7122 37 30.2756 35.5241 32.8984 32.8995C35.5234 30.275 37 26.7115 37 23C37 19.2885 35.5234 15.725 32.8984 13.1005C30.2756 10.4759 26.7122 9 23 9Z"
            fill="#090E14"
    />
    <path
            d="M15.1635 15.5L21.3512 23.7734L15.1245 30.5001H16.526L21.9776 24.6107L26.3822 30.5001H31.1512L24.6152 21.7614L30.4111 15.5H29.0096L23.9891 20.9239L19.9325 15.5H15.1635ZM17.2245 16.5322H19.4153L29.09 29.4679H26.8991L17.2245 16.5322Z"
            fill="white"
    />
</svg>