<svg width="24" height="24" viewBox="0 0 24 24" fill="none" xmlns="http://www.w3.org/2000/svg">
<path d="M20.3787 7.61221C20.1582 6.82471 19.6069 6.26221 18.8352 6.03721C17.5122 5.69971 11.8894 5.69971 11.8894 5.69971C11.8894 5.69971 6.37694 5.69971 4.94369 6.03721C4.17194 6.26221 3.62068 6.82471 3.40018 7.61221C3.17968 9.07471 3.17969 11.9997 3.17969 11.9997C3.17969 11.9997 3.17969 14.9247 3.51044 16.3872C3.73094 17.1747 4.28218 17.7372 5.05393 17.9622C6.37693 18.2997 11.9997 18.2997 11.9997 18.2997C11.9997 18.2997 17.5122 18.2997 18.9454 17.9622C19.7172 17.7372 20.2684 17.1747 20.4889 16.3872C20.8197 14.9247 20.8197 11.9997 20.8197 11.9997C20.8197 11.9997 20.8197 9.07471 20.3787 7.61221ZM10.2357 14.6997V9.29971L14.8662 11.9997L10.2357 14.6997Z" fill="white"/>
</svg>
