<svg width="40" height="40" viewBox="0 0 40 40" fill="none" xmlns="http://www.w3.org/2000/svg">
<g id="youtube">
<path id="youtube_2" d="M31.6375 13.906C31.3313 12.8123 30.5656 12.031 29.4938 11.7185C27.6563 11.2498 19.8469 11.2498 19.8469 11.2498C19.8469 11.2498 12.1906 11.2498 10.2 11.7185C9.12813 12.031 8.3625 12.8123 8.05625 13.906C7.75 15.9373 7.75 19.9998 7.75 19.9998C7.75 19.9998 7.75 24.0623 8.20938 26.0935C8.51563 27.1873 9.28124 27.9685 10.3531 28.281C12.1906 28.7498 20 28.7498 20 28.7498C20 28.7498 27.6562 28.7498 29.6469 28.281C30.7187 27.9685 31.4844 27.1873 31.7906 26.0935C32.25 24.0623 32.25 19.9998 32.25 19.9998C32.25 19.9998 32.25 15.9373 31.6375 13.906ZM17.55 23.7498V16.2498L23.9813 19.9998L17.55 23.7498Z" fill="#0C3317"/>
</g>
</svg>
