<svg width="36" height="36" viewBox="0 0 36 36" fill="none" xmlns="http://www.w3.org/2000/svg">
<g id="sahovat-icon">
<rect id="Rectangle 22428" x="0.000976562" width="35.7699" height="36" rx="6.91358" fill="#27A44A"/>
<g id="Group 427318676">
<g id="Group 36554">
<path id="Subtract" fill-rule="evenodd" clip-rule="evenodd" d="M11.575 27.4539C16.8469 26.768 20.0433 25.1618 21.1871 24.3041C21.4711 24.1603 21.7493 23.9964 22.02 23.8123C25.3648 21.5362 26.2779 17.0142 24.0595 13.712C21.841 10.4099 17.3312 9.57817 13.9864 11.8543C13.8688 11.9343 13.7543 12.017 13.6427 12.1024C13.5583 12.1469 13.4766 12.1983 13.3977 12.2568C10.0952 14.7067 7.73607 18.4735 6.81232 20.3507C5.77303 15.6804 7.62926 10.6034 11.8606 7.724C17.3573 3.98352 24.7806 5.36815 28.441 10.8166C32.1014 16.2651 30.6128 23.7143 25.116 27.4547C20.8784 30.3384 15.4958 30.176 11.575 27.4539Z" fill="white"/>
<path id="Union" fill-rule="evenodd" clip-rule="evenodd" d="M14.3798 14.2095C14.4574 14.1501 14.5371 14.0925 14.6189 14.0368C16.9466 12.4529 20.0924 13.0426 21.6453 15.3541C23.1982 17.6656 22.5701 20.8235 20.2424 22.4074C20.0541 22.5356 19.8604 22.6495 19.6627 22.7494C18.8605 23.3514 16.6056 24.4807 12.8785 24.943L16.0214 21.9785L7.34981 25.2134L13.8659 17.8772L9.52171 20.1964C10.0649 18.9931 11.7629 16.1326 14.2093 14.3169C14.2641 14.2762 14.321 14.2405 14.3798 14.2095Z" fill="white"/>
</g>
</g>
</g>
</svg>
