<svg width="133" height="36" viewBox="0 0 133 36" fill="none" xmlns="http://www.w3.org/2000/svg">
<rect x="0.000976562" width="35.7699" height="36" rx="6.91358" fill="#27A44A"/>
<path fill-rule="evenodd" clip-rule="evenodd" d="M11.575 27.4539C16.8469 26.768 20.0433 25.1618 21.1871 24.3041C21.4711 24.1603 21.7493 23.9964 22.02 23.8123C25.3648 21.5362 26.2779 17.0142 24.0595 13.712C21.841 10.4099 17.3312 9.57817 13.9864 11.8543C13.8688 11.9343 13.7543 12.017 13.6427 12.1024C13.5583 12.1469 13.4766 12.1983 13.3977 12.2568C10.0952 14.7067 7.73607 18.4735 6.81232 20.3507C5.77303 15.6804 7.62926 10.6034 11.8606 7.724C17.3573 3.98352 24.7806 5.36815 28.441 10.8166C32.1014 16.2651 30.6128 23.7143 25.116 27.4547C20.8784 30.3384 15.4958 30.176 11.575 27.4539Z" fill="white"/>
<path fill-rule="evenodd" clip-rule="evenodd" d="M14.3798 14.2095C14.4574 14.1501 14.5371 14.0925 14.6189 14.0368C16.9466 12.4529 20.0924 13.0426 21.6453 15.3541C23.1982 17.6656 22.5701 20.8235 20.2424 22.4074C20.0541 22.5356 19.8604 22.6495 19.6627 22.7494C18.8605 23.3514 16.6056 24.4807 12.8785 24.943L16.0214 21.9785L7.34981 25.2134L13.8659 17.8772L9.52171 20.1964C10.0649 18.9931 11.7629 16.1326 14.2093 14.3169C14.2641 14.2762 14.321 14.2405 14.3798 14.2095Z" fill="white"/>
<path d="M55.1364 13.3127C59.3597 13.3127 62.6116 16.5362 62.6116 22.0924V33.9259C62.6116 34.3076 62.3582 34.5621 61.9781 34.5621H57.6704C57.2903 34.5621 57.0369 34.3076 57.0369 33.9259V23.1103C57.0369 19.6748 55.1787 18.4872 53.1515 18.4872C50.0263 18.4872 48.5903 21.5834 48.5903 22.559V33.9259C48.5903 34.3076 48.337 34.5621 47.9569 34.5621H43.6491C43.269 34.5621 43.0156 34.3076 43.0156 33.9259V4.23618C43.0156 3.85446 43.269 3.59998 43.6491 3.59998H47.9569C48.337 3.59998 48.5903 3.85446 48.5903 4.23618V17.1724C49.9418 14.9669 52.1379 13.3127 55.1364 13.3127Z" fill="#0C3317"/>
<path d="M69.2722 9.83481C67.5406 9.83481 66.1892 8.43515 66.1892 6.7386C66.1892 5.04204 67.5406 3.64239 69.2722 3.64239C70.9615 3.64239 72.3129 5.04204 72.3129 6.7386C72.3129 8.43515 70.9615 9.83481 69.2722 9.83481ZM66.4848 14.4155C66.4848 14.0338 66.7382 13.7793 67.1183 13.7793H71.4261C71.8061 13.7793 72.0595 14.0338 72.0595 14.4155V33.9259C72.0595 34.3076 71.8061 34.5621 71.4261 34.5621H67.1183C66.7382 34.5621 66.4848 34.3076 66.4848 33.9259V14.4155Z" fill="#0C3317"/>
<path d="M80.9542 19.59C80.9542 22.9831 91.0055 21.1169 91.0055 28.7514C91.0055 32.7807 86.909 35.1134 83.108 35.1134C79.5605 35.1134 76.6886 33.3745 75.2105 31.6355C74.9571 31.3386 75.0416 31.0417 75.2105 30.7872L76.8576 28.4545C77.111 28.1152 77.4066 28.2 77.7867 28.4969C79.476 29.5996 81.292 30.4055 82.9391 30.4055C84.2905 30.4055 85.5998 29.9814 85.5998 28.6665C85.5998 25.3583 75.5906 26.6307 75.5906 19.6324C75.5906 15.6455 79.0537 13.3127 82.7702 13.3127C85.4308 13.3127 88.1337 14.4155 89.8653 16.4514C90.1187 16.7483 90.0342 17.0876 89.823 17.3421L88.2182 19.4627C87.9648 19.8021 87.6692 19.7172 87.2891 19.4203C85.6842 18.36 84.7129 17.8086 83.2347 17.8086C81.9255 17.8086 80.9542 18.5296 80.9542 19.59Z" fill="#0C3317"/>
<path d="M99.0186 19.59C99.0186 22.9831 109.07 21.1169 109.07 28.7514C109.07 32.7807 104.973 35.1134 101.172 35.1134C97.6249 35.1134 94.753 33.3745 93.2749 31.6355C93.0215 31.3386 93.106 31.0417 93.2749 30.7872L94.922 28.4545C95.1754 28.1152 95.471 28.2 95.8511 28.4969C97.5404 29.5996 99.3564 30.4055 101.003 30.4055C102.355 30.4055 103.664 29.9814 103.664 28.6665C103.664 25.3583 93.655 26.6307 93.655 19.6324C93.655 15.6455 97.1181 13.3127 100.835 13.3127C103.495 13.3127 106.198 14.4155 107.93 16.4514C108.183 16.7483 108.099 17.0876 107.887 17.3421L106.283 19.4627C106.029 19.8021 105.734 19.7172 105.353 19.4203C103.749 18.36 102.777 17.8086 101.299 17.8086C99.9899 17.8086 99.0186 18.5296 99.0186 19.59Z" fill="#0C3317"/>
<path d="M132.329 13.7793C132.709 13.7793 132.962 14.0338 132.962 14.4155V33.9259C132.962 34.3076 132.709 34.5621 132.329 34.5621H128.444C128.063 34.5621 127.852 34.3076 127.81 33.9259L127.641 32.1445C126.163 33.8834 124.094 35.1134 121.391 35.1134C115.605 35.1134 111.382 30.2783 111.382 24.2131C111.382 18.1479 115.605 13.3127 121.391 13.3127C124.009 13.3127 126.121 14.5852 127.683 16.3665L127.81 14.4155C127.852 14.0338 128.063 13.7793 128.444 13.7793H132.329ZM122.066 30.0238C125.107 30.0238 127.346 27.3093 127.346 24.1707C127.346 21.0321 125.107 18.4024 122.066 18.4024C118.983 18.4024 116.745 20.8624 116.745 24.1707C116.745 27.5214 118.983 30.0238 122.066 30.0238Z" fill="#0C3317"/>
</svg>
