<svg width="24" height="24" viewBox="0 0 24 24" fill="none" xmlns="http://www.w3.org/2000/svg">
<g id="icons">
<g id="Group">
<path id="Vector" d="M0.744141 9.93962V6.97229L5.19518 9.93962H0.744141Z" fill="#103B9B"/>
<path id="Vector_2" d="M0.773438 7.02808V9.90938H5.09539L0.773438 7.02808Z" fill="#103B9B"/>
<path id="Vector_3" d="M4.63672 4.61487H9.93938V8.14993L4.63672 4.61487Z" fill="#103B9B"/>
<path id="Vector_4" d="M9.90989 4.6449H4.73633L9.90989 8.09392V4.6449Z" fill="#103B9B"/>
<path id="Vector_5" d="M0.744141 14.0602H5.19518L0.744141 17.0275V14.0602Z" fill="#103B9B"/>
<path id="Vector_6" d="M0.773438 14.0902V16.9715L5.09539 14.0902H0.773438Z" fill="#103B9B"/>
<path id="Vector_7" d="M14.0605 4.61487H19.3632L14.0605 8.14993V4.61487Z" fill="#103B9B"/>
<path id="Vector_8" d="M19.2634 4.6449H14.0898V8.09392L19.2634 4.6449Z" fill="#103B9B"/>
<path id="Vector_9" d="M18.8047 9.93962L23.2557 6.97229V9.93962H18.8047Z" fill="#103B9B"/>
<path id="Vector_10" d="M23.2262 9.90938V7.02808L18.9043 9.90938H23.2262Z" fill="#103B9B"/>
<path id="Vector_11" d="M4.63672 19.3846L9.93938 15.8495V19.3846H4.63672Z" fill="#103B9B"/>
<path id="Vector_12" d="M4.73633 19.3545H9.90989V15.9054L4.73633 19.3545Z" fill="#103B9B"/>
<path id="Vector_13" d="M18.8047 14.0602H23.2557V17.0275L18.8047 14.0602Z" fill="#103B9B"/>
<path id="Vector_14" d="M23.2262 16.9715V14.0902H18.9043L23.2262 16.9715Z" fill="#103B9B"/>
<path id="Vector_15" d="M14.0605 19.3846V15.8495L19.3632 19.3846H14.0605Z" fill="#103B9B"/>
<path id="Vector_16" d="M14.0898 19.3545H19.2634L14.0898 15.9054V19.3545Z" fill="#103B9B"/>
<path id="Vector_17" d="M19.264 4.6449L14.0904 8.09395V4.6449H13.5098V10.4901H23.2259V9.90943H18.904L23.2259 7.0281V4.98108L15.8335 9.90943H14.4377H14.0904V9.39706V8.46658L19.8224 4.6449H19.264Z" fill="white"/>
<path id="Vector_18" d="M4.73533 19.3545L9.90889 15.9054V19.3545H10.4896V13.5094H0.773438V14.0901H5.09539L0.773438 16.9713V19.0183L8.16589 14.0901H9.56161H9.90889V14.6028V15.5333L4.17709 19.3545H4.73533Z" fill="white"/>
<path id="Vector_19" d="M1.56641 19.3847L9.55319 14.0602H9.93956V14.619L2.79113 19.3847H1.56641Z" fill="#ED1F34"/>
<path id="Vector_20" d="M9.5628 14.0902L1.66602 19.3547H2.78256L9.91008 14.603V14.0902H9.5628Z" fill="#ED1F34"/>
<path id="Vector_21" d="M7.02371 9.93955L0.744141 5.74306V4.92517L8.26568 9.93955H7.02371Z" fill="#ED1F34"/>
<path id="Vector_22" d="M0.773438 4.98096V5.72678L7.0321 9.90928H8.16589L0.773438 4.98096Z" fill="#ED1F34"/>
<path id="Vector_23" d="M15.7344 14.0602H16.9209L23.2559 18.2935V19.0745L15.7344 14.0602Z" fill="#ED1F34"/>
<path id="Vector_24" d="M23.2264 19.0185V18.3096L16.9123 14.0902H15.834L23.2264 19.0185Z" fill="#ED1F34"/>
<path id="Vector_25" d="M14.0605 9.9394V9.38095L21.209 4.61487H22.4337L14.4469 9.9394H14.0605Z" fill="#ED1F34"/>
<path id="Vector_26" d="M14.4371 9.90943L22.3339 4.6449H21.2174L14.0898 9.39706V9.90943H14.4371Z" fill="#ED1F34"/>
<path id="Vector_27" d="M9.90889 8.09395L4.73533 4.6449H1.66483L9.56161 9.90943H8.16589H7.0321H5.63872L0.773438 6.65805V7.0281L5.09539 9.90943H0.773438V10.4901H10.4896V4.6449H9.90889V8.09395Z" fill="white"/>
<path id="Vector_28" d="M14.0904 15.9053L19.264 19.3544H22.3345L14.4377 14.0899H15.8335H16.9118H18.3053L23.2259 17.3782V16.9712L18.904 14.0899H23.2259V13.5093H22.0647C21.8508 13.5093 21.6776 13.336 21.6776 13.1222H20.9033C20.9033 13.336 20.7301 13.5093 20.5163 13.5093H13.5098V19.3544H14.0904V15.9053H14.0904Z" fill="white"/>
<path id="Vector_29" d="M11.2345 19.3845V13.1223C11.2345 12.9254 11.0743 12.7652 10.8774 12.7652H0.744141V11.2342H10.8774C11.0743 11.2342 11.2345 11.074 11.2345 10.8771V4.61487H12.7654V10.8771C12.7654 11.074 12.9256 11.2342 13.1225 11.2342H23.2557V12.7652H22.0644C21.8675 12.7652 21.7073 12.9254 21.7073 13.1223V13.1523H20.8731V13.1223C20.8731 12.9254 20.7129 12.7652 20.516 12.7652H13.1225C12.9256 12.7652 12.7654 12.9254 12.7654 13.1223V19.3845H11.2345V19.3845Z" fill="#ED1F34"/>
<path id="Vector_30" d="M21.6767 13.1223C21.6767 12.9085 21.8499 12.7352 22.0637 12.7352H23.225V11.2642H13.1218C12.908 11.2642 12.7347 11.0909 12.7347 10.8772V4.6449H11.2638V10.8772C11.2638 11.0909 11.0905 11.2642 10.8767 11.2642H0.773438V12.7352H10.8767C11.0905 12.7352 11.2637 12.9085 11.2637 13.1223V19.3546H12.7347V13.1223C12.7347 12.9085 12.908 12.7352 13.1218 12.7352H20.5153C20.7292 12.7352 20.9024 12.9085 20.9024 13.1223H21.6767Z" fill="#ED1F34"/>
</g>
</g>
</svg>
