<svg width="24" height="24" viewBox="0 0 24 24" fill="none" xmlns="http://www.w3.org/2000/svg">
<g id="icons">
<g id="Group">
<path id="Vector" d="M23.225 9.9613H0.773438V14.0387H23.225V9.9613Z" fill="#EDBF4A"/>
<path id="Vector_2" d="M23.225 4.64514H0.773438V9.18708H23.225V4.64514ZM4.51119 7.76772C4.72502 7.76772 4.89829 7.94104 4.89829 8.15482C4.89829 8.3686 4.72502 8.54192 4.51119 8.54192C3.61473 8.54192 2.88539 7.81257 2.88539 6.91611C2.88539 6.01964 3.61473 5.2903 4.51119 5.2903C4.72502 5.2903 4.89829 5.46362 4.89829 5.6774C4.89829 5.89118 4.72502 6.0645 4.51119 6.0645C4.04162 6.0645 3.65958 6.44654 3.65958 6.91611C3.65958 7.38568 4.04162 7.76772 4.51119 7.76772Z" fill="#3DB4EA"/>
<path id="Vector_3" d="M22.0638 19.3548H23.2251V14.8129H0.773438V19.3548H20.5154C20.7292 19.3548 20.7476 19.3548 20.9025 19.3548H21.6767C21.9089 19.3548 21.8499 19.3548 22.0638 19.3548Z" fill="#259245"/>
<path id="Vector_4" d="M23.225 14.0387H0.773438V14.8129H23.225V14.0387Z" fill="#B21727"/>
<path id="Vector_5" d="M23.225 9.18713H0.773438V9.96133H23.225V9.18713Z" fill="#B21727"/>
<path id="Vector_6" d="M9.41681 7.23889C9.18915 7.23889 9.00391 7.42413 9.00391 7.65179C9.00391 7.87946 9.18915 8.0647 9.41681 8.0647C9.64447 8.0647 9.82971 7.87946 9.82971 7.65179C9.82971 7.42413 9.64447 7.23889 9.41681 7.23889Z" fill="white"/>
<path id="Vector_7" d="M7.91486 7.23889C7.68719 7.23889 7.50195 7.42413 7.50195 7.65179C7.50195 7.87946 7.68719 8.0647 7.91486 8.0647C8.14252 8.0647 8.32776 7.87946 8.32776 7.65179C8.32776 7.42413 8.14257 7.23889 7.91486 7.23889Z" fill="white"/>
<path id="Vector_8" d="M8.41681 6.00012C8.18915 6.00012 8.00391 6.18536 8.00391 6.41303C8.00391 6.6407 8.18915 6.82594 8.41681 6.82594C8.64447 6.82594 8.82971 6.6407 8.82971 6.41303C8.82971 6.18536 8.64447 6.00012 8.41681 6.00012Z" fill="white"/>
<path id="Vector_9" d="M6.91486 6.00012C6.68719 6.00012 6.50195 6.18536 6.50195 6.41303C6.50195 6.6407 6.68719 6.82594 6.91486 6.82594C7.14252 6.82594 7.32776 6.6407 7.32776 6.41303C7.32776 6.18536 7.14257 6.00012 6.91486 6.00012Z" fill="white"/>
<path id="Vector_10" d="M6.41291 7.23889C6.18524 7.23889 6 7.42413 6 7.65179C6 7.87946 6.18524 8.0647 6.41291 8.0647C6.64057 8.0647 6.82581 7.87946 6.82581 7.65179C6.82581 7.42413 6.64057 7.23889 6.41291 7.23889Z" fill="white"/>
<path id="Vector_11" d="M4.51057 6.06448C4.7244 6.06448 4.89767 5.89116 4.89767 5.67738C4.89767 5.4636 4.7244 5.29028 4.51057 5.29028C3.61411 5.29028 2.88477 6.01963 2.88477 6.91609C2.88477 7.81255 3.61411 8.5419 4.51057 8.5419C4.7244 8.5419 4.89767 8.36858 4.89767 8.1548C4.89767 7.94102 4.7244 7.7677 4.51057 7.7677C4.041 7.7677 3.65896 7.38566 3.65896 6.91609C3.65896 6.44652 4.041 6.06448 4.51057 6.06448Z" fill="white"/>
</g>
</g>
</svg>
