<svg width="24" height="24" viewBox="0 0 24 24" fill="none" xmlns="http://www.w3.org/2000/svg">
<g id="icons">
<g id="Group">
<path id="Vector" d="M23.225 9.9613H0.773438V14.0387H23.225V9.9613Z" fill="white"/>
<path id="Vector_2" d="M23.2251 4.64514H0.773438V9.18708H23.2251V4.64514ZM11.9992 5.2774C12.2269 5.2774 12.4121 5.46264 12.4121 5.6903C12.4121 5.91797 12.2269 6.10321 11.9992 6.10321C11.7716 6.10321 11.5863 5.91797 11.5863 5.6903C11.5863 5.46264 11.7716 5.2774 11.9992 5.2774ZM4.51119 7.76772C4.72502 7.76772 4.89829 7.94104 4.89829 8.15482C4.89829 8.3686 4.72502 8.54192 4.51119 8.54192C3.61473 8.54192 2.88539 7.81257 2.88539 6.91611C2.88539 6.01964 3.61473 5.2903 4.51119 5.2903C4.72502 5.2903 4.89829 5.46362 4.89829 5.6774C4.89829 5.89118 4.72502 6.0645 4.51119 6.0645C4.04162 6.0645 3.65958 6.44654 3.65958 6.91611C3.65958 7.38568 4.04162 7.76772 4.51119 7.76772ZM5.98815 8.55482C5.76048 8.55482 5.57524 8.36958 5.57524 8.14192C5.57524 7.91425 5.76048 7.72901 5.98815 7.72901C6.21581 7.72901 6.40105 7.91425 6.40105 8.14192C6.40105 8.36958 6.21581 8.55482 5.98815 8.55482ZM7.49091 8.55482C7.26324 8.55482 7.07801 8.36958 7.07801 8.14192C7.07801 7.91425 7.26324 7.72901 7.49091 7.72901C7.71857 7.72901 7.90381 7.91425 7.90381 8.14192C7.90381 8.36958 7.71862 8.55482 7.49091 8.55482ZM7.49091 7.31611C7.26324 7.31611 7.07801 7.13087 7.07801 6.90321C7.07801 6.67554 7.26324 6.4903 7.49091 6.4903C7.71857 6.4903 7.90381 6.67554 7.90381 6.90321C7.90381 7.13087 7.71862 7.31611 7.49091 7.31611ZM8.99372 8.55482C8.76606 8.55482 8.58082 8.36958 8.58082 8.14192C8.58082 7.91425 8.76606 7.72901 8.99372 7.72901C9.22139 7.72901 9.40662 7.91425 9.40662 8.14192C9.40662 8.36958 9.22139 8.55482 8.99372 8.55482ZM8.99372 7.31611C8.76606 7.31611 8.58082 7.13087 8.58082 6.90321C8.58082 6.67554 8.76606 6.4903 8.99372 6.4903C9.22139 6.4903 9.40662 6.67554 9.40662 6.90321C9.40662 7.13087 9.22139 7.31611 8.99372 7.31611ZM8.99372 6.10321C8.76606 6.10321 8.58082 5.91797 8.58082 5.6903C8.58082 5.46264 8.76606 5.2774 8.99372 5.2774C9.22139 5.2774 9.40662 5.46264 9.40662 5.6903C9.40662 5.91797 9.22139 6.10321 8.99372 6.10321ZM10.4965 8.55482C10.2688 8.55482 10.0836 8.36958 10.0836 8.14192C10.0836 7.91425 10.2688 7.72901 10.4965 7.72901C10.7241 7.72901 10.9094 7.91425 10.9094 8.14192C10.9094 8.36958 10.7241 8.55482 10.4965 8.55482ZM10.4965 7.31611C10.2688 7.31611 10.0836 7.13087 10.0836 6.90321C10.0836 6.67554 10.2688 6.4903 10.4965 6.4903C10.7241 6.4903 10.9094 6.67554 10.9094 6.90321C10.9094 7.13087 10.7241 7.31611 10.4965 7.31611ZM10.4965 6.10321C10.2688 6.10321 10.0836 5.91797 10.0836 5.6903C10.0836 5.46264 10.2688 5.2774 10.4965 5.2774C10.7241 5.2774 10.9094 5.46264 10.9094 5.6903C10.9094 5.91797 10.7241 6.10321 10.4965 6.10321ZM11.9992 8.55482C11.7716 8.55482 11.5863 8.36958 11.5863 8.14192C11.5863 7.91425 11.7716 7.72901 11.9992 7.72901C12.2269 7.72901 12.4121 7.91425 12.4121 8.14192C12.4121 8.36958 12.2269 8.55482 11.9992 8.55482ZM11.9992 7.31611C11.7716 7.31611 11.5863 7.13087 11.5863 6.90321C11.5863 6.67554 11.7716 6.4903 11.9992 6.4903C12.2269 6.4903 12.4121 6.67554 12.4121 6.90321C12.4121 7.13087 12.2269 7.31611 11.9992 7.31611Z" fill="#3DB4EA"/>
<path id="Vector_3" d="M22.0638 19.3548H23.2251V14.8129H0.773438V19.3548H20.5154C20.7292 19.3548 20.7476 19.3548 20.9025 19.3548H21.6767C21.9089 19.3548 21.8499 19.3548 22.0638 19.3548Z" fill="#259245"/>
<path id="Vector_4" d="M23.225 14.0387H0.773438V14.8129H23.225V14.0387Z" fill="#B21727"/>
<path id="Vector_5" d="M23.225 9.18713H0.773438V9.96133H23.225V9.18713Z" fill="#B21727"/>
<path id="Vector_6" d="M8.99298 7.729C8.76532 7.729 8.58008 7.91424 8.58008 8.14191C8.58008 8.36957 8.76532 8.55481 8.99298 8.55481C9.22065 8.55481 9.40588 8.36957 9.40588 8.14191C9.40588 7.91424 9.22065 7.729 8.99298 7.729Z" fill="white"/>
<path id="Vector_7" d="M11.9988 7.729C11.7712 7.729 11.5859 7.91424 11.5859 8.14191C11.5859 8.36957 11.7712 8.55481 11.9988 8.55481C12.2265 8.55481 12.4117 8.36957 12.4117 8.14191C12.4117 7.91424 12.2265 7.729 11.9988 7.729Z" fill="white"/>
<path id="Vector_8" d="M10.4969 7.729C10.2692 7.729 10.084 7.91424 10.084 8.14191C10.084 8.36957 10.2692 8.55481 10.4969 8.55481C10.7246 8.55481 10.9098 8.36957 10.9098 8.14191C10.9098 7.91424 10.7246 7.729 10.4969 7.729Z" fill="white"/>
<path id="Vector_9" d="M11.9988 6.10315C12.2265 6.10315 12.4117 5.91791 12.4117 5.69025C12.4117 5.46258 12.2265 5.27734 11.9988 5.27734C11.7712 5.27734 11.5859 5.46258 11.5859 5.69025C11.5859 5.91791 11.7712 6.10315 11.9988 6.10315Z" fill="white"/>
<path id="Vector_10" d="M7.49103 7.729C7.26336 7.729 7.07812 7.91424 7.07812 8.14191C7.07812 8.36957 7.26336 8.55481 7.49103 8.55481C7.71869 8.55481 7.90393 8.36957 7.90393 8.14191C7.90393 7.91424 7.71874 7.729 7.49103 7.729Z" fill="white"/>
<path id="Vector_11" d="M8.99298 6.49036C8.76532 6.49036 8.58008 6.6756 8.58008 6.90326C8.58008 7.13093 8.76532 7.31617 8.99298 7.31617C9.22065 7.31617 9.40588 7.13093 9.40588 6.90326C9.40588 6.6756 9.22065 6.49036 8.99298 6.49036Z" fill="white"/>
<path id="Vector_12" d="M10.4969 6.49036C10.2692 6.49036 10.084 6.6756 10.084 6.90326C10.084 7.13093 10.2692 7.31617 10.4969 7.31617C10.7246 7.31617 10.9098 7.13093 10.9098 6.90326C10.9098 6.6756 10.7246 6.49036 10.4969 6.49036Z" fill="white"/>
<path id="Vector_13" d="M8.99298 5.27734C8.76532 5.27734 8.58008 5.46258 8.58008 5.69025C8.58008 5.91791 8.76532 6.10315 8.99298 6.10315C9.22065 6.10315 9.40588 5.91791 9.40588 5.69025C9.40588 5.46258 9.22065 5.27734 8.99298 5.27734Z" fill="white"/>
<path id="Vector_14" d="M10.4969 5.27734C10.2692 5.27734 10.084 5.46258 10.084 5.69025C10.084 5.91791 10.2692 6.10315 10.4969 6.10315C10.7246 6.10315 10.9098 5.91791 10.9098 5.69025C10.9098 5.46258 10.7246 5.27734 10.4969 5.27734Z" fill="white"/>
<path id="Vector_15" d="M7.49103 6.49036C7.26336 6.49036 7.07812 6.6756 7.07812 6.90326C7.07812 7.13093 7.26336 7.31617 7.49103 7.31617C7.71869 7.31617 7.90393 7.13093 7.90393 6.90326C7.90393 6.6756 7.71874 6.49036 7.49103 6.49036Z" fill="white"/>
<path id="Vector_16" d="M5.98713 7.729C5.75946 7.729 5.57422 7.91424 5.57422 8.14191C5.57422 8.36957 5.75946 8.55481 5.98713 8.55481C6.21479 8.55481 6.40003 8.36957 6.40003 8.14191C6.40003 7.91424 6.21479 7.729 5.98713 7.729Z" fill="white"/>
<path id="Vector_17" d="M11.9988 6.49036C11.7712 6.49036 11.5859 6.6756 11.5859 6.90326C11.5859 7.13093 11.7712 7.31617 11.9988 7.31617C12.2265 7.31617 12.4117 7.13093 12.4117 6.90326C12.4117 6.6756 12.2265 6.49036 11.9988 6.49036Z" fill="white"/>
<path id="Vector_18" d="M4.51057 6.06448C4.7244 6.06448 4.89767 5.89116 4.89767 5.67738C4.89767 5.4636 4.7244 5.29028 4.51057 5.29028C3.61411 5.29028 2.88477 6.01963 2.88477 6.91609C2.88477 7.81255 3.61411 8.5419 4.51057 8.5419C4.7244 8.5419 4.89767 8.36858 4.89767 8.1548C4.89767 7.94102 4.7244 7.7677 4.51057 7.7677C4.041 7.7677 3.65896 7.38566 3.65896 6.91609C3.65896 6.44652 4.041 6.06448 4.51057 6.06448Z" fill="white"/>
</g>
</g>
</svg>
