<svg width="24" height="24" viewBox="0 0 24 24" fill="none" xmlns="http://www.w3.org/2000/svg">
    <g clip-path="url(#clip0_1015_40708)">
        <path d="M18.75 0H5.25C2.3505 0 0 2.3505 0 5.25V8.00002H24V5.25C24 2.3505 21.6495 0 18.75 0Z" fill="#82AFFF"/>
        <path d="M0 18.75C0 21.6495 2.3505 24 5.25 24H18.75C21.6495 24 24 21.6495 24 18.75V16H0V18.75Z" fill="#73AF00"/>
        <path d="M24 8H0V16.0002H24V8Z" fill="#F5F5F5"/>
        <path d="M24 7.28955H0V8.2871H24V7.28955Z" fill="#FF4B55"/>
        <path d="M24 15.7129H0V16.7104H24V15.7129Z" fill="#FF4B55"/>
        <path d="M5.68213 5.99516C4.38913 5.99516 3.3411 4.94957 3.3411 3.66121C3.3411 2.36811 4.38913 1.31788 5.68213 1.31788C5.68705 1.31788 5.69197 1.31793 5.69689 1.31797C5.77297 1.319 5.79969 1.21785 5.73261 1.18189C5.33446 0.96852 4.88005 0.847723 4.39695 0.851145C2.84985 0.862207 1.59317 2.14424 1.60953 3.6913C1.62575 5.22247 2.8775 6.46185 4.41711 6.46185C4.8936 6.46185 5.34158 6.34133 5.73472 6.13086C5.80161 6.09505 5.77456 5.99385 5.69872 5.99502C5.69319 5.99511 5.68766 5.99516 5.68213 5.99516Z" fill="#F5F5F5"/>
        <path d="M7.51447 5.34978L7.40989 5.66328L7.07942 5.66586C7.03663 5.66619 7.01891 5.7208 7.05331 5.7462L7.31919 5.94252L7.21948 6.25761C7.20659 6.29839 7.25305 6.33214 7.28783 6.30725L7.5567 6.11506L7.82558 6.30725C7.86041 6.33214 7.90686 6.29839 7.89392 6.25761L7.79422 5.94252L8.06005 5.7462C8.09445 5.7208 8.07674 5.66619 8.03394 5.66586L7.70347 5.66328L7.59889 5.34978C7.58544 5.30919 7.52802 5.30919 7.51447 5.34978Z" fill="#F5F5F5"/>
        <path d="M9.33864 5.34978L9.23411 5.66328L8.90364 5.66586C8.86084 5.66619 8.84313 5.7208 8.87753 5.7462L9.14341 5.94252L9.0437 6.25761C9.03081 6.29839 9.07722 6.33214 9.11205 6.30725L9.38092 6.11506L9.6498 6.30725C9.68463 6.33214 9.73108 6.29839 9.71814 6.25761L9.61844 5.94252L9.88431 5.7462C9.91872 5.7208 9.901 5.66619 9.8582 5.66586L9.52774 5.66328L9.42316 5.34978C9.40961 5.30919 9.35219 5.30919 9.33864 5.34978Z" fill="#F5F5F5"/>
        <path d="M13.0418 5.34978L12.9372 5.66328L12.6068 5.66586C12.564 5.66619 12.5463 5.7208 12.5807 5.7462L12.8465 5.94252L12.7468 6.25761C12.7339 6.29839 12.7803 6.33214 12.8152 6.30725L13.084 6.11506L13.3529 6.30725C13.3878 6.33214 13.4342 6.29839 13.4213 6.25761L13.3216 5.94252L13.5874 5.7462C13.6218 5.7208 13.6041 5.66619 13.5613 5.66586L13.2309 5.66328L13.1263 5.34978C13.1127 5.30919 13.0553 5.30919 13.0418 5.34978Z" fill="#F5F5F5"/>
        <path d="M14.8582 5.34978L14.7536 5.66328L14.4232 5.66586C14.3804 5.66619 14.3627 5.7208 14.3971 5.7462L14.6629 5.94252L14.5632 6.25761C14.5503 6.29839 14.5968 6.33214 14.6316 6.30725L14.9005 6.11506L15.1693 6.30725C15.2042 6.33214 15.2506 6.29839 15.2377 6.25761L15.138 5.94252L15.4038 5.7462C15.4383 5.7208 15.4205 5.66619 15.3777 5.66586L15.0473 5.66328L14.9427 5.34978C14.9291 5.30919 14.8717 5.30919 14.8582 5.34978Z" fill="#F5F5F5"/>
        <path d="M9.33864 3.17644L9.23411 3.48994L8.90364 3.49251C8.86084 3.49284 8.84313 3.54745 8.87753 3.57286L9.14341 3.76917L9.0437 4.08426C9.03081 4.12505 9.07722 4.15879 9.11205 4.13395L9.38092 3.94176L9.6498 4.13395C9.68463 4.15884 9.73108 4.12509 9.71814 4.08431L9.61844 3.76922L9.88431 3.5729C9.91872 3.5475 9.901 3.49289 9.8582 3.49256L9.52774 3.48998L9.42316 3.17648C9.40961 3.13584 9.35219 3.13584 9.33864 3.17644Z" fill="#F5F5F5"/>
        <path d="M11.202 3.17644L11.0974 3.48994L10.7669 3.49251C10.7241 3.49284 10.7064 3.54745 10.7408 3.57286L11.0067 3.76917L10.907 4.08426C10.8941 4.12505 10.9405 4.15879 10.9753 4.13395L11.2442 3.94176L11.5131 4.13395C11.5479 4.15884 11.5944 4.12509 11.5814 4.08431L11.4817 3.76922L11.7476 3.5729C11.782 3.5475 11.7643 3.49289 11.7215 3.49256L11.391 3.48998L11.2864 3.17648C11.2729 3.13584 11.2155 3.13584 11.202 3.17644Z" fill="#F5F5F5"/>
        <path d="M13.0418 3.17644L12.9372 3.48994L12.6068 3.49251C12.564 3.49284 12.5463 3.54745 12.5807 3.57286L12.8465 3.76917L12.7468 4.08426C12.7339 4.12505 12.7803 4.15879 12.8152 4.13395L13.084 3.94176L13.3529 4.13395C13.3878 4.15884 13.4342 4.12509 13.4213 4.08431L13.3216 3.76922L13.5874 3.5729C13.6218 3.5475 13.6041 3.49289 13.5613 3.49256L13.2309 3.48998L13.1263 3.17648C13.1127 3.13584 13.0553 3.13584 13.0418 3.17644Z" fill="#F5F5F5"/>
        <path d="M14.8582 3.17644L14.7536 3.48994L14.4232 3.49251C14.3804 3.49284 14.3627 3.54745 14.3971 3.57286L14.6629 3.76917L14.5632 4.08426C14.5503 4.12505 14.5968 4.15879 14.6316 4.13395L14.9005 3.94176L15.1693 4.13395C15.2042 4.15884 15.2506 4.12509 15.2377 4.08431L15.138 3.76922L15.4038 3.5729C15.4383 3.5475 15.4205 3.49289 15.3777 3.49256L15.0473 3.48998L14.9427 3.17648C14.9291 3.13584 14.8717 3.13584 14.8582 3.17644Z" fill="#F5F5F5"/>
        <path d="M11.202 5.34978L11.0974 5.66328L10.7669 5.66586C10.7241 5.66619 10.7064 5.7208 10.7408 5.7462L11.0067 5.94252L10.907 6.25761C10.8941 6.29839 10.9405 6.33214 10.9753 6.30725L11.2442 6.11506L11.5131 6.30725C11.5479 6.33214 11.5944 6.29839 11.5814 6.25761L11.4817 5.94252L11.7476 5.7462C11.782 5.7208 11.7643 5.66619 11.7215 5.66586L11.391 5.66328L11.2864 5.34978C11.2729 5.30919 11.2155 5.30919 11.202 5.34978Z" fill="#F5F5F5"/>
        <path d="M11.202 1.00359L11.0974 1.31709L10.7669 1.31967C10.7241 1.32 10.7064 1.37461 10.7408 1.40001L11.0067 1.59632L10.907 1.91142C10.8941 1.9522 10.9405 1.98595 10.9753 1.96106L11.2442 1.76887L11.5131 1.96106C11.5479 1.98595 11.5944 1.9522 11.5814 1.91142L11.4817 1.59632L11.7476 1.40001C11.782 1.37461 11.7643 1.32 11.7215 1.31967L11.391 1.31709L11.2864 1.00359C11.2729 0.962996 11.2155 0.962996 11.202 1.00359Z" fill="#F5F5F5"/>
        <path d="M13.0418 5.34978L12.9372 5.66328L12.6068 5.66586C12.564 5.66619 12.5463 5.7208 12.5807 5.7462L12.8465 5.94252L12.7468 6.25761C12.7339 6.29839 12.7803 6.33214 12.8152 6.30725L13.084 6.11506L13.3529 6.30725C13.3878 6.33214 13.4342 6.29839 13.4213 6.25761L13.3216 5.94252L13.5874 5.7462C13.6218 5.7208 13.6041 5.66619 13.5613 5.66586L13.2309 5.66328L13.1263 5.34978C13.1127 5.30919 13.0553 5.30919 13.0418 5.34978Z" fill="#F5F5F5"/>
        <path d="M14.8582 5.34978L14.7536 5.66328L14.4232 5.66586C14.3804 5.66619 14.3627 5.7208 14.3971 5.7462L14.6629 5.94252L14.5632 6.25761C14.5503 6.29839 14.5968 6.33214 14.6316 6.30725L14.9005 6.11506L15.1693 6.30725C15.2042 6.33214 15.2506 6.29839 15.2377 6.25761L15.138 5.94252L15.4038 5.7462C15.4383 5.7208 15.4205 5.66619 15.3777 5.66586L15.0473 5.66328L14.9427 5.34978C14.9291 5.30919 14.8717 5.30919 14.8582 5.34978Z" fill="#F5F5F5"/>
        <path d="M13.0418 1.00359L12.9372 1.31709L12.6068 1.31967C12.564 1.32 12.5463 1.37461 12.5807 1.40001L12.8465 1.59632L12.7468 1.91142C12.7339 1.9522 12.7803 1.98595 12.8152 1.96106L13.084 1.76887L13.3529 1.96106C13.3878 1.98595 13.4342 1.9522 13.4213 1.91142L13.3216 1.59632L13.5874 1.40001C13.6218 1.37461 13.6041 1.32 13.5613 1.31967L13.2309 1.31709L13.1263 1.00359C13.1127 0.962996 13.0553 0.962996 13.0418 1.00359Z" fill="#F5F5F5"/>
        <path d="M14.8582 1.00359L14.7536 1.31709L14.4232 1.31967C14.3804 1.32 14.3627 1.37461 14.3971 1.40001L14.6629 1.59632L14.5632 1.91142C14.5503 1.9522 14.5968 1.98595 14.6316 1.96106L14.9005 1.76887L15.1693 1.96106C15.2042 1.98595 15.2506 1.9522 15.2377 1.91142L15.138 1.59632L15.4038 1.40001C15.4383 1.37461 15.4205 1.32 15.3777 1.31967L15.0473 1.31709L14.9427 1.00359C14.9291 0.962996 14.8717 0.962996 14.8582 1.00359Z" fill="#F5F5F5"/>
    </g>
    <defs>
        <clipPath id="clip0_1015_40708">
            <rect width="24" height="24" fill="white"/>
        </clipPath>
    </defs>
</svg>
